<svg width="104" height="85" viewBox="0 0 104 85" fill="none" xmlns="http://www.w3.org/2000/svg">
<path d="M0.826743 1.98488C0.282811 1.88918 -0.0805593 1.37067 0.0151324 0.826735C0.110824 0.282803 0.629341 -0.0805669 1.17327 0.0151248L0.826743 1.98488ZM98 84.5L92.2251 74.5008L103.772 74.4992L98 84.5ZM97 80.6597C96.9825 80.1077 97.4158 79.646 97.9678 79.6285C98.5198 79.611 98.9815 80.0443 98.999 80.5963L97 80.6597ZM98.2405 72.7842C98.3301 73.3292 97.9609 73.8436 97.416 73.9332C96.871 74.0228 96.3566 73.6536 96.267 73.1086L98.2405 72.7842ZM94.5393 65.7332C94.3775 65.2052 94.6744 64.6459 95.2024 64.4841C95.7305 64.3223 96.2897 64.6192 96.4515 65.1473L94.5393 65.7332ZM93.6622 57.8154C93.8918 58.3177 93.6707 58.911 93.1684 59.1406C92.6661 59.3702 92.0728 59.1491 91.8432 58.6468L93.6622 57.8154ZM88.2622 51.9501C87.9727 51.4797 88.1194 50.8638 88.5898 50.5744C89.0602 50.2849 89.6761 50.4316 89.9655 50.902L88.2622 51.9501ZM85.4935 44.4786C85.8332 44.9139 85.7557 45.5424 85.3204 45.8821C84.885 46.2219 84.2566 46.1444 83.9168 45.709L85.4935 44.4786ZM78.9329 39.9448C78.552 39.5448 78.5674 38.9119 78.9673 38.531C79.3672 38.1501 80.0002 38.1655 80.3811 38.5654L78.9329 39.9448ZM74.7524 33.1541C75.1663 33.5198 75.2055 34.1517 74.8398 34.5656C74.4742 34.9796 73.8422 35.0187 73.4283 34.653L74.7524 33.1541ZM67.5096 29.8177C67.0693 29.4843 66.9826 28.8571 67.316 28.4168C67.6494 27.9765 68.2766 27.8898 68.7169 28.2233L67.5096 29.8177ZM62.3534 23.7355C62.8148 24.0389 62.9429 24.659 62.6394 25.1205C62.336 25.5819 61.7159 25.71 61.2545 25.4065L62.3534 23.7355ZM54.7282 21.3905C54.2497 21.1148 54.0853 20.5033 54.361 20.0248C54.6367 19.5463 55.2481 19.3818 55.7267 19.6575L54.7282 21.3905ZM48.8885 15.9597C49.381 16.2096 49.5776 16.8115 49.3277 17.304C49.0778 17.7965 48.4759 17.9931 47.9834 17.7432L48.8885 15.9597ZM41.0557 14.4392C40.5516 14.2134 40.326 13.6218 40.5518 13.1178C40.7775 12.6137 41.3691 12.3881 41.8732 12.6139L41.0557 14.4392ZM34.7134 9.6015C35.2271 9.80424 35.4792 10.385 35.2765 10.8988C35.0738 11.4125 34.4929 11.6646 33.9792 11.4619L34.7134 9.6015ZM26.781 8.7999C26.2591 8.61947 25.9822 8.05006 26.1626 7.52808C26.343 7.0061 26.9124 6.72921 27.4344 6.90964L26.781 8.7999ZM20.0458 4.52948C20.5749 4.68766 20.8757 5.24485 20.7175 5.774C20.5593 6.30315 20.0021 6.60387 19.473 6.44569L20.0458 4.52948ZM12.0674 4.40405C11.5319 4.26891 11.2074 3.72526 11.3425 3.18976C11.4776 2.65427 12.0213 2.32971 12.5568 2.46484L12.0674 4.40405ZM4.9853 0.738168C5.52654 0.848066 5.87622 1.37592 5.76632 1.91716C5.65642 2.4584 5.12857 2.80807 4.58733 2.69817L4.9853 0.738168ZM96.267 73.1086C95.8509 70.577 95.2703 68.119 94.5393 65.7332L96.4515 65.1473C97.2084 67.6176 97.8097 70.163 98.2405 72.7842L96.267 73.1086ZM91.8432 58.6468C90.7893 56.3409 89.5906 54.1091 88.2622 51.9501L89.9655 50.902C91.335 53.1277 92.5727 55.4317 93.6622 57.8154L91.8432 58.6468ZM83.9168 45.709C82.3628 43.7178 80.6967 41.7967 78.9329 39.9448L80.3811 38.5654C82.1874 40.462 83.8968 42.4326 85.4935 44.4786L83.9168 45.709ZM73.4283 34.653C71.5299 32.976 69.5524 31.3645 67.5096 29.8177L68.7169 28.2233C70.7974 29.7986 72.814 31.4418 74.7524 33.1541L73.4283 34.653ZM61.2545 25.4065C59.1243 24.0057 56.9444 22.6674 54.7282 21.3905L55.7267 19.6575C57.975 20.9529 60.1885 22.3119 62.3534 23.7355L61.2545 25.4065ZM47.9834 17.7432C45.6923 16.5805 43.3785 15.4795 41.0557 14.4392L41.8732 12.6139C44.2242 13.6668 46.5673 14.7817 48.8885 15.9597L47.9834 17.7432ZM33.9792 11.4619C31.5689 10.5107 29.1644 9.62372 26.781 8.7999L27.4344 6.90964C29.8441 7.74255 32.2756 8.63944 34.7134 9.6015L33.9792 11.4619ZM19.473 6.44569C16.9538 5.6926 14.4787 5.01254 12.0674 4.40405L12.5568 2.46484C14.9959 3.08037 17.4988 3.76809 20.0458 4.52948L19.473 6.44569ZM4.58733 2.69817C3.30484 2.43776 2.0501 2.2001 0.826743 1.98488L1.17327 0.0151248C2.41422 0.23344 3.68612 0.474369 4.9853 0.738168L4.58733 2.69817Z" fill="white"/>
</svg>
