<svg width="88" height="85" viewBox="0 0 88 85" fill="none" xmlns="http://www.w3.org/2000/svg">
<path d="M86.2033 1.98488C86.7473 1.88918 87.1106 1.37067 87.015 0.826735C86.9193 0.282803 86.4007 -0.0805669 85.8568 0.0151248L86.2033 1.98488ZM6.03009 84.5L11.7275 74.4565L0.180845 74.5441L6.03009 84.5ZM6.99983 80.5472C7.00877 79.995 6.56837 79.5401 6.01616 79.5311C5.46395 79.5222 5.00904 79.9626 5.00009 80.5148L6.99983 80.5472ZM5.52806 72.5128C5.46363 73.0613 5.85605 73.5582 6.40456 73.6226C6.95307 73.6871 7.44997 73.2947 7.5144 72.7462L5.52806 72.5128ZM8.83746 65.0574C8.96064 64.519 8.62407 63.9827 8.08569 63.8595C7.54732 63.7363 7.01103 64.0729 6.88784 64.6113L8.83746 65.0574ZM9.11297 56.9042C8.92997 57.4253 9.20404 57.9961 9.72513 58.1791C10.2462 58.3621 10.817 58.088 11 57.5669L9.11297 56.9042ZM13.9995 50.3705C14.2407 49.8736 14.0336 49.2753 13.5367 49.0341C13.0399 48.7929 12.4416 49.0001 12.2004 49.4969L13.9995 50.3705ZM16.1071 42.4876C15.8117 42.9543 15.9506 43.5721 16.4172 43.8674C16.8839 44.1628 17.5016 44.024 17.797 43.5574L16.1071 42.4876ZM22.3232 37.1978C22.6669 36.7655 22.595 36.1364 22.1627 35.7927C21.7304 35.449 21.1014 35.5208 20.7577 35.9531L22.3232 37.1978ZM26.0577 29.9416C25.6723 30.3373 25.6807 30.9704 26.0763 31.3557C26.4719 31.7411 27.105 31.7327 27.4904 31.3371L26.0577 29.9416ZM33.2054 25.997C33.6258 25.6388 33.6761 25.0077 33.3179 24.5873C32.9597 24.1669 32.3286 24.1166 31.9082 24.4748L33.2054 25.997ZM38.2162 19.5539C37.7668 19.875 37.6629 20.4996 37.984 20.9489C38.3051 21.3983 38.9296 21.5022 39.379 21.1811L38.2162 19.5539ZM45.9315 16.8813C46.4046 16.5964 46.5572 15.9819 46.2723 15.5088C45.9873 15.0357 45.3728 14.8831 44.8997 15.168L45.9315 16.8813ZM51.8902 11.3007C51.3976 11.5505 51.2009 12.1523 51.4507 12.6449C51.7006 13.1374 52.3024 13.3342 52.7949 13.0843L51.8902 11.3007ZM59.9126 9.77647C60.421 9.56075 60.6583 8.97372 60.4425 8.46531C60.2268 7.9569 59.6398 7.71963 59.1314 7.93535L59.9126 9.77647ZM66.5778 5.05978C66.0564 5.24195 65.7814 5.81228 65.9636 6.33366C66.1458 6.85503 66.7161 7.13002 67.2375 6.94786L66.5778 5.05978ZM74.7299 4.59586C75.2618 4.44733 75.5726 3.89571 75.4241 3.36377C75.2756 2.83183 74.7239 2.52101 74.192 2.66954L74.7299 4.59586ZM81.9414 0.772105C81.401 0.88595 81.0552 1.41634 81.1691 1.95676C81.2829 2.49719 81.8133 2.843 82.3537 2.72915L81.9414 0.772105ZM7.5144 72.7462C7.82496 70.1025 8.2694 67.5401 8.83746 65.0574L6.88784 64.6113C6.3036 67.1647 5.84696 69.7982 5.52806 72.5128L7.5144 72.7462ZM11 57.5669C11.8736 55.0794 12.8775 52.6812 13.9995 50.3705L12.2004 49.4969C11.0456 51.8751 10.0122 54.3438 9.11297 56.9042L11 57.5669ZM17.797 43.5574C19.1966 41.3463 20.7099 39.227 22.3232 37.1978L20.7577 35.9531C19.1013 38.0365 17.5463 40.2141 16.1071 42.4876L17.797 43.5574ZM27.4904 31.3371C29.3117 29.4671 31.2214 27.6876 33.2054 25.997L31.9082 24.4748C29.8792 26.2037 27.9241 28.0254 26.0577 29.9416L27.4904 31.3371ZM39.379 21.1811C41.5076 19.66 43.6966 18.2273 45.9315 16.8813L44.8997 15.168C42.6219 16.5398 40.3891 18.0011 38.2162 19.5539L39.379 21.1811ZM52.7949 13.0843C55.1407 11.8944 57.5183 10.7924 59.9126 9.77647L59.1314 7.93535C56.6967 8.96842 54.2778 10.0895 51.8902 11.3007L52.7949 13.0843ZM67.2375 6.94786C69.7398 6.07356 72.243 5.29023 74.7299 4.59586L74.192 2.66954C71.6648 3.37518 69.121 4.17122 66.5778 5.05978L67.2375 6.94786ZM82.3537 2.72915C83.6475 2.4566 84.9316 2.20862 86.2033 1.98488L85.8568 0.0151248C84.5629 0.242753 83.2569 0.494979 81.9414 0.772105L82.3537 2.72915Z" fill="white"/>
</svg>
