<svg width="113" height="85" viewBox="0 0 113 85" fill="none" xmlns="http://www.w3.org/2000/svg">
<path d="M112.173 2.48488C112.717 2.38918 113.081 1.87067 112.985 1.32673C112.889 0.782803 112.371 0.419433 111.827 0.515125L112.173 2.48488ZM6 85L11.8364 75.0366L0.289659 74.9638L6 85ZM7.02463 80.9826C7.04898 80.4308 6.62144 79.9638 6.0697 79.9394C5.51795 79.9151 5.05093 80.3426 5.02658 80.8944L7.02463 80.9826ZM6.02833 72.7009C5.91861 73.2422 6.26846 73.7699 6.80974 73.8797C7.35101 73.9894 7.87875 73.6395 7.98846 73.0982L6.02833 72.7009ZM10.1672 65.4659C10.3592 64.9481 10.0951 64.3726 9.57733 64.1806C9.0595 63.9885 8.48405 64.2526 8.292 64.7705L10.1672 65.4659ZM11.7178 57.2761C11.453 57.7608 11.6312 58.3684 12.1159 58.6332C12.6005 58.898 13.2081 58.7198 13.4729 58.2351L11.7178 57.2761ZM17.7482 51.5053C18.0731 51.0587 17.9743 50.4333 17.5277 50.1084C17.081 49.7835 16.4556 49.8823 16.1308 50.3289L17.7482 51.5053ZM21.329 43.9749C20.9568 44.3829 20.9857 45.0154 21.3937 45.3876C21.8017 45.7599 22.4342 45.7309 22.8064 45.3229L21.329 43.9749ZM28.482 39.6769C28.891 39.3057 28.9216 38.6733 28.5504 38.2644C28.1792 37.8554 27.5468 37.8248 27.1379 38.196L28.482 39.6769ZM33.4192 32.9481C32.9819 33.2855 32.9009 33.9134 33.2383 34.3507C33.5756 34.788 34.2036 34.869 34.6409 34.5317L33.4192 32.9481ZM41.1741 29.8475C41.6334 29.5408 41.7571 28.9198 41.4504 28.4605C41.1437 28.0012 40.5228 27.8775 40.0635 28.1842L41.1741 29.8475ZM46.9846 23.8592C46.508 24.1382 46.3478 24.7508 46.6269 25.2274C46.9059 25.704 47.5185 25.8642 47.9951 25.5851L46.9846 23.8592ZM55.0513 21.7008C55.5417 21.4468 55.7334 20.8434 55.4794 20.353C55.2255 19.8625 54.622 19.6708 54.1316 19.9248L55.0513 21.7008ZM61.4554 16.3479C60.9537 16.5789 60.7344 17.1729 60.9654 17.6745C61.1965 18.1761 61.7904 18.3955 62.2921 18.1644L61.4554 16.3479ZM69.6896 14.9463C70.2005 14.7365 70.4445 14.1523 70.2348 13.6414C70.025 13.1305 69.4407 12.8864 68.9298 13.0962L69.6896 14.9463ZM76.5239 10.1509C76.0052 10.3406 75.7386 10.9149 75.9284 11.4336C76.1181 11.9522 76.6924 12.2189 77.2111 12.0291L76.5239 10.1509ZM84.8313 9.40089C85.3566 9.23045 85.6443 8.66642 85.4739 8.14109C85.3034 7.61576 84.7394 7.32807 84.2141 7.49852L84.8313 9.40089ZM92.0086 5.12558C91.4774 5.27677 91.1694 5.82994 91.3206 6.36113C91.4717 6.89232 92.0249 7.20037 92.5561 7.04918L92.0086 5.12558ZM100.36 4.98404C100.897 4.85291 101.225 4.31169 101.094 3.7752C100.963 3.23871 100.422 2.91011 99.8852 3.04124L100.36 4.98404ZM107.833 1.26841C107.291 1.37714 106.941 1.90424 107.049 2.44572C107.158 2.98719 107.685 3.338 108.227 3.22927L107.833 1.26841ZM7.98846 73.0982C8.52001 70.4759 9.25251 67.9323 10.1672 65.4659L8.292 64.7705C7.34234 67.3311 6.58101 69.9743 6.02833 72.7009L7.98846 73.0982ZM13.4729 58.2351C14.7395 55.9171 16.1707 53.6742 17.7482 51.5053L16.1308 50.3289C14.506 52.5628 13.0281 54.8781 11.7178 57.2761L13.4729 58.2351ZM22.8064 45.3229C24.5856 43.3729 26.4831 41.4912 28.482 39.6769L27.1379 38.196C25.0959 40.0494 23.1535 41.9752 21.329 43.9749L22.8064 45.3229ZM34.6409 34.5317C36.7456 32.9081 38.9284 31.3469 41.1741 29.8475L40.0635 28.1842C37.7826 29.7072 35.5625 31.2948 33.4192 32.9481L34.6409 34.5317ZM47.9951 25.5851C50.307 24.2316 52.664 22.9371 55.0513 21.7008L54.1316 19.9248C51.7155 21.176 49.3281 22.4872 46.9846 23.8592L47.9951 25.5851ZM62.2921 18.1644C64.7477 17.0334 67.2186 15.961 69.6896 14.9463L68.9298 13.0962C66.4343 14.121 63.9376 15.2045 61.4554 16.3479L62.2921 18.1644ZM77.2111 12.0291C79.7744 11.0913 82.3203 10.2156 84.8313 9.40089L84.2141 7.49852C81.6804 8.32057 79.1111 9.20431 76.5239 10.1509L77.2111 12.0291ZM92.5561 7.04918C95.2308 6.28792 97.84 5.60004 100.36 4.98404L99.8852 3.04124C97.3409 3.66315 94.7075 4.35743 92.0086 5.12558L92.5561 7.04918ZM108.227 3.22927C109.584 2.95666 110.901 2.70864 112.173 2.48488L111.827 0.515125C110.539 0.741751 109.206 0.992752 107.833 1.26841L108.227 3.22927Z" fill="white"/>
</svg>
