<svg width="20" height="20" viewBox="0 0 20 20" fill="none" xmlns="http://www.w3.org/2000/svg">
<g clip-path="url(#clip0_3_329)">
<path d="M8.33333 1.66667C8.33333 0.745833 9.07917 0 10 0C10.9208 0 11.6667 0.745833 11.6667 1.66667C11.6667 2.5875 10.9208 3.33333 10 3.33333C9.07917 3.33333 8.33333 2.5875 8.33333 1.66667ZM11.6667 14.1667C11.6667 13.2458 10.9208 12.5 10 12.5C9.07917 12.5 8.33333 13.2458 8.33333 14.1667C8.33333 15.0875 9.07917 15.8333 10 15.8333C10.9208 15.8333 11.6667 15.0875 11.6667 14.1667ZM17.0833 6.66667C16.1625 6.66667 15.4167 7.4125 15.4167 8.33333C15.4167 9.25417 16.1625 10 17.0833 10C18.0042 10 18.75 9.25417 18.75 8.33333C18.75 7.4125 18.0042 6.66667 17.0833 6.66667ZM4.58333 8.33333C4.58333 7.4125 3.8375 6.66667 2.91667 6.66667C1.99583 6.66667 1.25 7.4125 1.25 8.33333C1.25 9.25417 1.99583 10 2.91667 10C3.8375 10 4.58333 9.25417 4.58333 8.33333ZM5.60333 13.8608C5.76167 13.6675 5.82417 13.4125 5.775 13.1675C5.5 11.815 4.29833 10.8333 2.91667 10.8333C1.535 10.8333 0.333334 11.815 0.0583342 13.1675C0.0083342 13.4125 0.0716675 13.6675 0.230001 13.8608C0.388334 14.0542 0.625001 14.1667 0.875001 14.1667H4.9575C5.2075 14.1667 5.445 14.0542 5.60333 13.8608ZM10 4.16667C8.61917 4.16667 7.41667 5.14833 7.14167 6.50083C7.09167 6.74583 7.155 7.00083 7.31333 7.19417C7.47167 7.3875 7.70833 7.5 7.95833 7.5H12.0408C12.2908 7.5 12.5275 7.3875 12.6858 7.19417C12.8442 7.00083 12.9067 6.74583 12.8575 6.50083C12.5825 5.14833 11.3808 4.16667 9.99917 4.16667H10ZM10 16.6667C8.61917 16.6667 7.41667 17.6483 7.14167 19.0008C7.09167 19.2458 7.155 19.5008 7.31333 19.6942C7.47167 19.8875 7.70833 20 7.95833 20H12.0408C12.2908 20 12.5275 19.8875 12.6858 19.6942C12.8442 19.5008 12.9067 19.2458 12.8575 19.0008C12.5825 17.6483 11.3808 16.6667 9.99917 16.6667H10ZM17.0833 10.4167C15.7025 10.4167 14.5 11.3983 14.225 12.7508C14.175 12.9958 14.2383 13.2508 14.3967 13.4442C14.555 13.6375 14.7917 13.75 15.0417 13.75H19.1242C19.3742 13.75 19.6108 13.6375 19.7692 13.4442C19.9275 13.2508 19.99 12.9958 19.9408 12.7508C19.6658 11.3983 18.465 10.4167 17.0833 10.4167ZM5.83333 1.66667H5C3.16167 1.66667 1.66667 3.16167 1.66667 5C1.66667 5.46083 2.04 5.83333 2.5 5.83333C2.96 5.83333 3.33333 5.46083 3.33333 5C3.33333 4.08083 4.08083 3.33333 5 3.33333H5.83333C6.29333 3.33333 6.66667 2.96083 6.66667 2.5C6.66667 2.03917 6.29333 1.66667 5.83333 1.66667ZM15 3.33333C15.9192 3.33333 16.6667 4.08083 16.6667 5C16.6667 5.46083 17.04 5.83333 17.5 5.83333C17.96 5.83333 18.3333 5.46083 18.3333 5C18.3333 3.16167 16.8383 1.66667 15 1.66667H14.1667C13.7067 1.66667 13.3333 2.03917 13.3333 2.5C13.3333 2.96083 13.7067 3.33333 14.1667 3.33333H15ZM17.635 15.0475C17.2017 14.8967 16.725 15.1217 16.5717 15.5558C16.3367 16.22 15.705 16.6667 15 16.6667C14.54 16.6667 14.1667 17.0392 14.1667 17.5C14.1667 17.9608 14.54 18.3333 15 18.3333C16.41 18.3333 17.6733 17.4408 18.1433 16.1108C18.2967 15.6767 18.0692 15.2008 17.635 15.0475ZM5 16.6667C4.29417 16.6667 3.66333 16.22 3.42833 15.5558C3.275 15.1217 2.8 14.8975 2.365 15.0475C1.93083 15.2017 1.70333 15.6775 1.85667 16.1108C2.32583 17.4408 3.59 18.3333 5 18.3333C5.46 18.3333 5.83333 17.9608 5.83333 17.5C5.83333 17.0392 5.46 16.6667 5 16.6667Z" fill="white"/>
</g>
<defs>
<clipPath id="clip0_3_329">
<rect width="20" height="20" fill="white"/>
</clipPath>
</defs>
</svg>
