<svg width="20" height="20" viewBox="0 0 20 20" fill="none" xmlns="http://www.w3.org/2000/svg">
<g clip-path="url(#clip0_3_374)">
<path d="M3.33333 5C3.00479 5.00086 2.67934 4.93656 2.37581 4.81083C2.07228 4.6851 1.7967 4.50042 1.565 4.26749L0.278334 3.12249C0.113237 2.9753 0.0133746 2.76855 0.00071587 2.54772C-0.0119428 2.3269 0.063639 2.11009 0.210834 1.945C0.358029 1.7799 0.56478 1.68004 0.785604 1.66738C1.00643 1.65472 1.22324 1.7303 1.38833 1.87749L2.70917 3.05583C2.78478 3.14074 2.87697 3.20928 2.98007 3.25724C3.08316 3.30519 3.19497 3.33154 3.30863 3.33466C3.42229 3.33778 3.53538 3.31761 3.64095 3.27539C3.74652 3.23317 3.84234 3.1698 3.9225 3.08916L6.92583 0.229995C7.08733 0.08622 7.29838 0.010844 7.51442 0.0197873C7.73046 0.0287306 7.93456 0.121293 8.08362 0.277924C8.23268 0.434555 8.31502 0.64299 8.31326 0.859204C8.31149 1.07542 8.22576 1.28248 8.07417 1.43666L5.08333 4.28166C4.85314 4.51051 4.58011 4.69174 4.27983 4.815C3.97955 4.93826 3.65792 5.00112 3.33333 5ZM20 3.33333C20 3.11231 19.9122 2.90035 19.7559 2.74407C19.5996 2.58779 19.3877 2.49999 19.1667 2.49999H10.8333C10.6123 2.49999 10.4004 2.58779 10.2441 2.74407C10.0878 2.90035 10 3.11231 10 3.33333C10 3.55434 10.0878 3.7663 10.2441 3.92258C10.4004 4.07886 10.6123 4.16666 10.8333 4.16666H19.1667C19.3877 4.16666 19.5996 4.07886 19.7559 3.92258C19.9122 3.7663 20 3.55434 20 3.33333ZM5.08333 10.9483L8.07417 8.10333C8.15764 8.02901 8.22532 7.93866 8.27316 7.83766C8.32101 7.73665 8.34805 7.62705 8.35267 7.51538C8.35729 7.40372 8.33941 7.29226 8.30007 7.18764C8.26074 7.08303 8.20076 6.98739 8.12372 6.90643C8.04667 6.82547 7.95412 6.76083 7.85158 6.71637C7.74904 6.67191 7.63861 6.64852 7.52685 6.64761C7.41509 6.6467 7.30428 6.66828 7.20103 6.71106C7.09778 6.75385 7.00419 6.81697 6.92583 6.89666L3.92583 9.75583C3.7672 9.90752 3.55616 9.99218 3.33667 9.99218C3.11718 9.99218 2.90614 9.90752 2.7475 9.75583L1.4225 8.43499C1.26533 8.2832 1.05483 8.1992 0.836333 8.2011C0.617836 8.203 0.408825 8.29064 0.254319 8.44515C0.0998119 8.59965 0.0121711 8.80866 0.0102724 9.02716C0.00837372 9.24566 0.0923691 9.45616 0.244167 9.61333L1.565 10.9342C2.0314 11.4007 2.66326 11.6639 3.32292 11.6666C3.98257 11.6692 4.61654 11.4111 5.08667 10.9483H5.08333ZM20 9.99999C20 9.77898 19.9122 9.56702 19.7559 9.41074C19.5996 9.25446 19.3877 9.16666 19.1667 9.16666H10.8333C10.6123 9.16666 10.4004 9.25446 10.2441 9.41074C10.0878 9.56702 10 9.77898 10 9.99999C10 10.221 10.0878 10.433 10.2441 10.5893C10.4004 10.7455 10.6123 10.8333 10.8333 10.8333H19.1667C19.3877 10.8333 19.5996 10.7455 19.7559 10.5893C19.9122 10.433 20 10.221 20 9.99999ZM5.08333 17.615L8.07084 14.77C8.15431 14.6957 8.22199 14.6053 8.26983 14.5043C8.31768 14.4033 8.34471 14.2937 8.34934 14.1821C8.35396 14.0704 8.33607 13.9589 8.29674 13.8543C8.25741 13.7497 8.19743 13.6541 8.12038 13.5731C8.04333 13.4921 7.95079 13.4275 7.84825 13.383C7.74571 13.3386 7.63527 13.3152 7.52351 13.3143C7.41175 13.3134 7.30095 13.3349 7.1977 13.3777C7.09445 13.4205 7.00086 13.4836 6.9225 13.5633L3.9225 16.4225C3.84234 16.5031 3.74652 16.5665 3.64095 16.6087C3.53538 16.6509 3.42229 16.6711 3.30863 16.668C3.19497 16.6649 3.08316 16.6385 2.98007 16.5906C2.87697 16.5426 2.78478 16.4741 2.70917 16.3892L1.38833 15.2108C1.22324 15.0636 1.00643 14.9881 0.785604 15.0007C0.56478 15.0134 0.358029 15.1132 0.210834 15.2783C0.063639 15.4434 -0.0119428 15.6602 0.00071587 15.8811C0.0133746 16.1019 0.113237 16.3086 0.278334 16.4558L1.565 17.6008C2.0314 18.0673 2.66326 18.3306 3.32292 18.3332C3.98257 18.3359 4.61654 18.0777 5.08667 17.615H5.08333ZM20 16.6667C20 16.4456 19.9122 16.2337 19.7559 16.0774C19.5996 15.9211 19.3877 15.8333 19.1667 15.8333H10.8333C10.6123 15.8333 10.4004 15.9211 10.2441 16.0774C10.0878 16.2337 10 16.4456 10 16.6667C10 16.8877 10.0878 17.0996 10.2441 17.2559C10.4004 17.4122 10.6123 17.5 10.8333 17.5H19.1667C19.3877 17.5 19.5996 17.4122 19.7559 17.2559C19.9122 17.0996 20 16.8877 20 16.6667Z" fill="white"/>
</g>
<defs>
<clipPath id="clip0_3_374">
<rect width="20" height="20" fill="white"/>
</clipPath>
</defs>
</svg>
