<svg width="35" height="35" viewBox="0 0 35 35" fill="none" xmlns="http://www.w3.org/2000/svg">
<circle cx="17.5" cy="17.5" r="17.5" fill="#2D8EFF"/>
<g clip-path="url(#clip0_3_327)">
<path d="M16.3333 8.66667C16.3333 7.74583 17.0792 7 18 7C18.9208 7 19.6667 7.74583 19.6667 8.66667C19.6667 9.5875 18.9208 10.3333 18 10.3333C17.0792 10.3333 16.3333 9.5875 16.3333 8.66667ZM19.6667 21.1667C19.6667 20.2458 18.9208 19.5 18 19.5C17.0792 19.5 16.3333 20.2458 16.3333 21.1667C16.3333 22.0875 17.0792 22.8333 18 22.8333C18.9208 22.8333 19.6667 22.0875 19.6667 21.1667ZM25.0833 13.6667C24.1625 13.6667 23.4167 14.4125 23.4167 15.3333C23.4167 16.2542 24.1625 17 25.0833 17C26.0042 17 26.75 16.2542 26.75 15.3333C26.75 14.4125 26.0042 13.6667 25.0833 13.6667ZM12.5833 15.3333C12.5833 14.4125 11.8375 13.6667 10.9167 13.6667C9.99583 13.6667 9.25 14.4125 9.25 15.3333C9.25 16.2542 9.99583 17 10.9167 17C11.8375 17 12.5833 16.2542 12.5833 15.3333ZM13.6033 20.8608C13.7617 20.6675 13.8242 20.4125 13.775 20.1675C13.5 18.815 12.2983 17.8333 10.9167 17.8333C9.535 17.8333 8.33333 18.815 8.05833 20.1675C8.00833 20.4125 8.07167 20.6675 8.23 20.8608C8.38833 21.0542 8.625 21.1667 8.875 21.1667H12.9575C13.2075 21.1667 13.445 21.0542 13.6033 20.8608ZM18 11.1667C16.6192 11.1667 15.4167 12.1483 15.1417 13.5008C15.0917 13.7458 15.155 14.0008 15.3133 14.1942C15.4717 14.3875 15.7083 14.5 15.9583 14.5H20.0408C20.2908 14.5 20.5275 14.3875 20.6858 14.1942C20.8442 14.0008 20.9067 13.7458 20.8575 13.5008C20.5825 12.1483 19.3808 11.1667 17.9992 11.1667H18ZM18 23.6667C16.6192 23.6667 15.4167 24.6483 15.1417 26.0008C15.0917 26.2458 15.155 26.5008 15.3133 26.6942C15.4717 26.8875 15.7083 27 15.9583 27H20.0408C20.2908 27 20.5275 26.8875 20.6858 26.6942C20.8442 26.5008 20.9067 26.2458 20.8575 26.0008C20.5825 24.6483 19.3808 23.6667 17.9992 23.6667H18ZM25.0833 17.4167C23.7025 17.4167 22.5 18.3983 22.225 19.7508C22.175 19.9958 22.2383 20.2508 22.3967 20.4442C22.555 20.6375 22.7917 20.75 23.0417 20.75H27.1242C27.3742 20.75 27.6108 20.6375 27.7692 20.4442C27.9275 20.2508 27.99 19.9958 27.9408 19.7508C27.6658 18.3983 26.465 17.4167 25.0833 17.4167ZM13.8333 8.66667H13C11.1617 8.66667 9.66667 10.1617 9.66667 12C9.66667 12.4608 10.04 12.8333 10.5 12.8333C10.96 12.8333 11.3333 12.4608 11.3333 12C11.3333 11.0808 12.0808 10.3333 13 10.3333H13.8333C14.2933 10.3333 14.6667 9.96083 14.6667 9.5C14.6667 9.03917 14.2933 8.66667 13.8333 8.66667ZM23 10.3333C23.9192 10.3333 24.6667 11.0808 24.6667 12C24.6667 12.4608 25.04 12.8333 25.5 12.8333C25.96 12.8333 26.3333 12.4608 26.3333 12C26.3333 10.1617 24.8383 8.66667 23 8.66667H22.1667C21.7067 8.66667 21.3333 9.03917 21.3333 9.5C21.3333 9.96083 21.7067 10.3333 22.1667 10.3333H23ZM25.635 22.0475C25.2017 21.8967 24.725 22.1217 24.5717 22.5558C24.3367 23.22 23.705 23.6667 23 23.6667C22.54 23.6667 22.1667 24.0392 22.1667 24.5C22.1667 24.9608 22.54 25.3333 23 25.3333C24.41 25.3333 25.6733 24.4408 26.1433 23.1108C26.2967 22.6767 26.0692 22.2008 25.635 22.0475ZM13 23.6667C12.2942 23.6667 11.6633 23.22 11.4283 22.5558C11.275 22.1217 10.8 21.8975 10.365 22.0475C9.93083 22.2017 9.70333 22.6775 9.85667 23.1108C10.3258 24.4408 11.59 25.3333 13 25.3333C13.46 25.3333 13.8333 24.9608 13.8333 24.5C13.8333 24.0392 13.46 23.6667 13 23.6667Z" fill="white"/>
</g>
<defs>
<clipPath id="clip0_3_327">
<rect width="20" height="20" fill="white" transform="translate(8 7)"/>
</clipPath>
</defs>
</svg>
