<svg width="35" height="35" viewBox="0 0 35 35" fill="none" xmlns="http://www.w3.org/2000/svg">
<circle cx="17.5" cy="17.5" r="17.5" fill="#2D8EFF"/>
<g clip-path="url(#clip0_3_334)">
<path d="M24.6667 20.3336C24.6667 21.0236 24.1067 21.5836 23.4167 21.5836C22.7267 21.5836 22.1667 21.0236 22.1667 20.3336C22.1667 19.6436 22.7267 19.0836 23.4167 19.0836C24.1067 19.0836 24.6667 19.6436 24.6667 20.3336ZM27.1667 13.6669C26.7058 13.6669 26.3333 14.0403 26.3333 14.5003V24.5003C26.3333 24.9594 25.96 25.3336 25.5 25.3336H12.1667C10.7883 25.3336 9.66667 24.2119 9.66667 22.8336V14.5003V14.4961C10.3783 15.0294 11.2525 15.3336 12.1658 15.3336H20.4992C20.96 15.3336 21.3325 14.9603 21.3325 14.5003C21.3325 14.0403 20.96 13.6669 20.4992 13.6669H12.1667C11.4533 13.6669 10.7892 13.3494 10.3192 12.8303C10.7767 12.3244 11.4317 12.0003 12.1667 12.0003H18C18.4608 12.0003 18.8333 11.6269 18.8333 11.1669C18.8333 10.7069 18.4608 10.3336 18 10.3336H12.1667C9.66667 10.3336 8 12.4169 8 14.5003V22.8336C8 25.1311 9.86917 27.0003 12.1667 27.0003H25.5C26.8783 27.0003 28 25.8786 28 24.5003V14.5003C28 14.0403 27.6275 13.6669 27.1667 13.6669ZM21.9192 10.5094L23 9.44194V14.5003C23 14.9603 23.3725 15.3336 23.8333 15.3336C24.2942 15.3336 24.6667 14.9603 24.6667 14.5003V9.45694L25.7525 10.5136C25.9142 10.6711 26.1233 10.7503 26.3333 10.7503C26.5508 10.7503 26.7675 10.6661 26.9308 10.4986C27.2517 10.1686 27.245 9.6411 26.9142 9.32027L25.0583 7.5136C24.3742 6.8311 23.265 6.83194 22.5833 7.51027L20.7467 9.32444C20.4192 9.64777 20.4167 10.1753 20.7392 10.5028C21.0642 10.8311 21.59 10.8328 21.9183 10.5103L21.9192 10.5094Z" fill="white"/>
</g>
<defs>
<clipPath id="clip0_3_334">
<rect width="20" height="20" fill="white" transform="translate(8 7)"/>
</clipPath>
</defs>
</svg>
