<svg width="20" height="20" viewBox="0 0 20 20" fill="none" xmlns="http://www.w3.org/2000/svg">
<g clip-path="url(#clip0_3_370)">
<path d="M16.6667 13.3336C16.6667 14.0236 16.1067 14.5836 15.4167 14.5836C14.7267 14.5836 14.1667 14.0236 14.1667 13.3336C14.1667 12.6436 14.7267 12.0836 15.4167 12.0836C16.1067 12.0836 16.6667 12.6436 16.6667 13.3336ZM19.1667 6.66694C18.7058 6.66694 18.3333 7.04027 18.3333 7.50027V17.5003C18.3333 17.9594 17.96 18.3336 17.5 18.3336H4.16667C2.78833 18.3336 1.66667 17.2119 1.66667 15.8336V7.50027V7.4961C2.37833 8.02944 3.2525 8.3336 4.16583 8.3336H12.4992C12.96 8.3336 13.3325 7.96027 13.3325 7.50027C13.3325 7.04027 12.96 6.66694 12.4992 6.66694H4.16667C3.45333 6.66694 2.78917 6.34944 2.31917 5.83027C2.77667 5.32444 3.43167 5.00027 4.16667 5.00027H10C10.4608 5.00027 10.8333 4.62694 10.8333 4.16694C10.8333 3.70694 10.4608 3.3336 10 3.3336H4.16667C1.66667 3.3336 0 5.41694 0 7.50027V15.8336C0 18.1311 1.86917 20.0003 4.16667 20.0003H17.5C18.8783 20.0003 20 18.8786 20 17.5003V7.50027C20 7.04027 19.6275 6.66694 19.1667 6.66694ZM13.9192 3.50944L15 2.44194V7.50027C15 7.96027 15.3725 8.3336 15.8333 8.3336C16.2942 8.3336 16.6667 7.96027 16.6667 7.50027V2.45694L17.7525 3.5136C17.9142 3.6711 18.1233 3.75027 18.3333 3.75027C18.5508 3.75027 18.7675 3.6661 18.9308 3.4986C19.2517 3.1686 19.245 2.6411 18.9142 2.32027L17.0583 0.513605C16.3742 -0.168895 15.265 -0.168062 14.5833 0.510271L12.7467 2.32444C12.4192 2.64777 12.4167 3.17527 12.7392 3.50277C13.0642 3.8311 13.59 3.83277 13.9183 3.51027L13.9192 3.50944Z" fill="white"/>
</g>
<defs>
<clipPath id="clip0_3_370">
<rect width="20" height="20" fill="white"/>
</clipPath>
</defs>
</svg>
