<svg width="15" height="15" viewBox="0 0 15 15" fill="none" xmlns="http://www.w3.org/2000/svg">
  <path
    d="M4.6875 8.125C4.13124 8.125 3.58747 7.96005 3.12496 7.65101C2.66245 7.34197 2.30196 6.90272 2.08909 6.3888C1.87622 5.87488 1.82052 5.30938 1.92904 4.76381C2.03756 4.21824 2.30543 3.7171 2.69876 3.32376C3.0921 2.93043 3.59324 2.66256 4.13881 2.55404C4.68438 2.44552 5.24988 2.50122 5.7638 2.71409C6.27771 2.92696 6.71697 3.28745 7.02601 3.74996C7.33505 4.21247 7.5 4.75624 7.5 5.3125C7.49917 6.05817 7.20259 6.77306 6.67532 7.30033C6.14806 7.82759 5.43317 8.12417 4.6875 8.125ZM4.6875 3.75C4.37847 3.75 4.07637 3.84164 3.81942 4.01333C3.56247 4.18502 3.3622 4.42905 3.24394 4.71456C3.12568 5.00007 3.09473 5.31423 3.15502 5.61733C3.21531 5.92043 3.36413 6.19884 3.58265 6.41736C3.80117 6.63588 4.07958 6.78469 4.38267 6.84498C4.68577 6.90527 4.99993 6.87432 5.28544 6.75606C5.57095 6.6378 5.81498 6.43753 5.98667 6.18058C6.15836 5.92363 6.25 5.62153 6.25 5.3125C6.25 4.8981 6.08538 4.50067 5.79235 4.20765C5.49933 3.91462 5.1019 3.75 4.6875 3.75ZM9.375 14.375V14.0625C9.375 12.8193 8.88114 11.627 8.00206 10.7479C7.12299 9.86886 5.9307 9.375 4.6875 9.375C3.4443 9.375 2.25201 9.86886 1.37294 10.7479C0.49386 11.627 0 12.8193 0 14.0625L0 14.375C0 14.5408 0.065848 14.6997 0.183058 14.8169C0.300269 14.9342 0.45924 15 0.625 15C0.79076 15 0.949732 14.9342 1.06694 14.8169C1.18415 14.6997 1.25 14.5408 1.25 14.375V14.0625C1.25 13.1508 1.61216 12.2765 2.25682 11.6318C2.90148 10.9872 3.77582 10.625 4.6875 10.625C5.59918 10.625 6.47352 10.9872 7.11818 11.6318C7.76284 12.2765 8.125 13.1508 8.125 14.0625V14.375C8.125 14.5408 8.19085 14.6997 8.30806 14.8169C8.42527 14.9342 8.58424 15 8.75 15C8.91576 15 9.07473 14.9342 9.19194 14.8169C9.30915 14.6997 9.375 14.5408 9.375 14.375ZM15 11.25C15 10.4054 14.7555 9.57891 14.2961 8.87023C13.8366 8.16155 13.1819 7.60099 12.4109 7.25623C11.6399 6.91147 10.7856 6.79724 9.95109 6.92734C9.1166 7.05743 8.3376 7.42629 7.70813 7.98938C7.6461 8.04388 7.5955 8.11012 7.55922 8.18429C7.52295 8.25846 7.50174 8.33908 7.4968 8.4215C7.49186 8.50392 7.50331 8.58649 7.53047 8.66446C7.55763 8.74243 7.59996 8.81425 7.65504 8.87576C7.71011 8.93727 7.77682 8.98726 7.85133 9.02285C7.92583 9.05843 8.00664 9.0789 8.0891 9.08307C8.17156 9.08724 8.25403 9.07503 8.33174 9.04715C8.40946 9.01927 8.48088 8.97627 8.54187 8.92063C8.99153 8.51851 9.54796 8.25514 10.144 8.16229C10.74 8.06944 11.3502 8.15109 11.9009 8.39738C12.4515 8.64366 12.9192 9.04406 13.2473 9.55025C13.5754 10.0564 13.75 10.6468 13.75 11.25C13.75 11.4158 13.8158 11.5747 13.9331 11.6919C14.0503 11.8092 14.2092 11.875 14.375 11.875C14.5408 11.875 14.6997 11.8092 14.8169 11.6919C14.9342 11.5747 15 11.4158 15 11.25ZM10.9375 5.625C10.3812 5.625 9.83747 5.46005 9.37496 5.15101C8.91245 4.84197 8.55196 4.40272 8.33909 3.8888C8.12622 3.37488 8.07052 2.80938 8.17904 2.26381C8.28756 1.71824 8.55543 1.2171 8.94876 0.823763C9.3421 0.430428 9.84324 0.162564 10.3888 0.0540427C10.9344 -0.0544783 11.4999 0.00121862 12.0138 0.21409C12.5277 0.426962 12.967 0.787447 13.276 1.24996C13.585 1.71247 13.75 2.25624 13.75 2.8125C13.7492 3.55817 13.4526 4.27306 12.9253 4.80033C12.3981 5.32759 11.6832 5.62417 10.9375 5.625ZM10.9375 1.25C10.6285 1.25 10.3264 1.34164 10.0694 1.51333C9.81247 1.68502 9.6122 1.92905 9.49394 2.21456C9.37568 2.50007 9.34473 2.81423 9.40502 3.11733C9.46531 3.42043 9.61413 3.69884 9.83265 3.91736C10.0512 4.13588 10.3296 4.28469 10.6327 4.34498C10.9358 4.40527 11.2499 4.37432 11.5354 4.25606C11.821 4.1378 12.065 3.93753 12.2367 3.68058C12.4084 3.42363 12.5 3.12153 12.5 2.8125C12.5 2.3981 12.3354 2.00067 12.0424 1.70765C11.7493 1.41462 11.3519 1.25 10.9375 1.25Z"
    fill="#2D8EFF" />
</svg>
  