<svg width="13" height="15" viewBox="0 0 13 15" fill="none" xmlns="http://www.w3.org/2000/svg">
  <path
    d="M6.5 7.5C7.24168 7.5 7.9667 7.28007 8.58339 6.86801C9.20007 6.45596 9.68072 5.87029 9.96455 5.18506C10.2484 4.49984 10.3226 3.74584 10.1779 3.01841C10.0333 2.29098 9.6761 1.6228 9.15165 1.09835C8.6272 0.573904 7.95902 0.216751 7.23159 0.0720569C6.50416 -0.0726377 5.75016 0.00162482 5.06494 0.285453C4.37971 0.569282 3.79404 1.04993 3.38199 1.66661C2.96993 2.2833 2.75 3.00832 2.75 3.75C2.75099 4.74426 3.1464 5.69751 3.84945 6.40056C4.55249 7.1036 5.50574 7.49901 6.5 7.5ZM6.5 1.25C6.99445 1.25 7.4778 1.39662 7.88893 1.67133C8.30005 1.94603 8.62048 2.33648 8.8097 2.79329C8.99892 3.25011 9.04843 3.75277 8.95196 4.23773C8.8555 4.72268 8.6174 5.16814 8.26777 5.51777C7.91814 5.8674 7.47268 6.1055 6.98773 6.20197C6.50277 6.29843 6.00011 6.24892 5.54329 6.0597C5.08648 5.87048 4.69603 5.55005 4.42133 5.13893C4.14662 4.7278 4 4.24445 4 3.75C4 3.08696 4.26339 2.45108 4.73223 1.98223C5.20107 1.51339 5.83696 1.25 6.5 1.25Z"
    fill="#2D8EFF" />
  <path
    d="M6.5 8.75C5.00867 8.75165 3.57889 9.34482 2.52435 10.3994C1.46982 11.4539 0.876654 12.8837 0.875 14.375C0.875 14.5408 0.940848 14.6997 1.05806 14.8169C1.17527 14.9342 1.33424 15 1.5 15C1.66576 15 1.82473 14.9342 1.94194 14.8169C2.05915 14.6997 2.125 14.5408 2.125 14.375C2.125 13.2147 2.58594 12.1019 3.40641 11.2814C4.22688 10.4609 5.33968 10 6.5 10C7.66032 10 8.77312 10.4609 9.59359 11.2814C10.4141 12.1019 10.875 13.2147 10.875 14.375C10.875 14.5408 10.9408 14.6997 11.0581 14.8169C11.1753 14.9342 11.3342 15 11.5 15C11.6658 15 11.8247 14.9342 11.9419 14.8169C12.0592 14.6997 12.125 14.5408 12.125 14.375C12.1233 12.8837 11.5302 11.4539 10.4756 10.3994C9.42111 9.34482 7.99133 8.75165 6.5 8.75Z"
    fill="#2D8EFF" />
</svg>
  