<svg width="30" height="30" viewBox="0 0 30 30" fill="none" xmlns="http://www.w3.org/2000/svg">
<rect width="30" height="30" rx="5" fill="#2D8EFF"/>
<g clip-path="url(#clip0_0_1)">
<path d="M17.6251 13.875C17.6251 12.1519 16.2232 10.75 14.5001 10.75C12.777 10.75 11.3751 12.1519 11.3751 13.875C11.3751 15.5981 12.777 17 14.5001 17C16.2232 17 17.6251 15.5981 17.6251 13.875ZM14.5001 18.25C12.5601 18.25 10.8176 19.4175 10.1645 21.155C10.0926 21.3469 10.1195 21.5619 10.2357 21.7306C10.352 21.8994 10.5445 22 10.7495 22H18.2495C18.4545 22 18.647 21.8994 18.7632 21.7306C18.8795 21.5619 18.9064 21.3469 18.8345 21.155C18.1814 19.4175 16.4395 18.25 14.4989 18.25H14.5001ZM20.242 17.6562C20.052 17.9444 19.6651 18.025 19.3764 17.8344L18.5826 17.3119C18.1707 17.0406 18.0432 16.49 18.292 16.0588C18.7726 15.2263 18.9614 14.2737 18.8389 13.3031C18.5914 11.3381 16.9807 9.75125 15.0101 9.52875C13.7432 9.3875 12.527 9.77125 11.5857 10.6119C10.6576 11.4419 10.1251 12.6312 10.1251 13.875C10.1251 14.6425 10.3264 15.3975 10.7076 16.0575C10.9557 16.4894 10.8289 17.04 10.4182 17.3119L9.62386 17.8344C9.51823 17.9037 9.39886 17.9375 9.28073 17.9375C9.07761 17.9375 8.87761 17.8387 8.75823 17.6562C8.56823 17.3681 8.64823 16.98 8.93636 16.7906L9.48636 16.4288C9.08511 15.6419 8.87448 14.765 8.87448 13.8756C8.87448 12.98 9.09573 12.11 9.49386 11.3275L8.93573 10.96C8.64698 10.77 8.56761 10.3825 8.75761 10.0944C8.94823 9.80688 9.33573 9.72687 9.62323 9.91625L10.1807 10.2831C10.357 10.0706 10.5439 9.86625 10.752 9.68C11.6264 8.89938 12.7214 8.42 13.8745 8.29V7.625C13.8745 7.28 14.1539 7 14.4995 7C14.8451 7 15.1245 7.28 15.1245 7.625V8.285C15.1332 8.28562 15.1414 8.285 15.1501 8.28625C16.6082 8.45063 17.9114 9.1975 18.8176 10.2825L19.3751 9.915C19.6639 9.725 20.0507 9.80562 20.2407 10.0931C20.4307 10.3812 20.3514 10.7694 20.0626 10.9588L19.5101 11.3225C19.7995 11.8844 19.997 12.4988 20.0789 13.1456C20.2232 14.2913 20.0276 15.42 19.5132 16.4275L20.0632 16.79C20.3514 16.98 20.4314 17.3675 20.2414 17.6556L20.242 17.6562Z" fill="white"/>
</g>
<defs>
<clipPath id="clip0_0_1">
<rect width="15" height="15" fill="white" transform="translate(7 7)"/>
</clipPath>
</defs>
</svg>
