<svg width="45" height="45" viewBox="0 0 45 45" fill="none" xmlns="http://www.w3.org/2000/svg">
<rect width="45" height="45" rx="10" fill="#2D8EFF"/>
<g clip-path="url(#clip0_0_1)">
<path d="M28.7265 23.0469C28.606 24.4718 28.002 25.8126 27.0146 26.847C26.0272 27.8814 24.7159 28.5471 23.2981 28.7337C21.8804 28.9203 20.4415 28.6166 19.2201 27.8729C17.9987 27.1293 17.0682 25.9904 16.5831 24.6452C16.098 23.3 16.0873 21.8294 16.553 20.4774C17.0186 19.1253 17.9325 17.9731 19.143 17.2119C20.3535 16.4506 21.7879 16.1262 23.2082 16.2922C24.6285 16.4583 25.9493 17.105 26.9515 18.125H25.0003C24.8345 18.125 24.6756 18.1908 24.5583 18.3081C24.4411 18.4253 24.3753 18.5842 24.3753 18.75C24.3753 18.9158 24.4411 19.0747 24.5583 19.1919C24.6756 19.3092 24.8345 19.375 25.0003 19.375H27.5897C27.8974 19.3748 28.1925 19.2525 28.4102 19.0349C28.6278 18.8173 28.7501 18.5221 28.7503 18.2144V15.625C28.7503 15.4592 28.6844 15.3003 28.5672 15.1831C28.45 15.0658 28.291 15 28.1253 15C27.9595 15 27.8006 15.0658 27.6833 15.1831C27.5661 15.3003 27.5003 15.4592 27.5003 15.625V16.9238C26.2432 15.8005 24.644 15.1341 22.9612 15.0323C21.2784 14.9306 19.6106 15.3995 18.2273 16.3631C16.8441 17.3268 15.8263 18.7289 15.3387 20.3427C14.8511 21.9565 14.9221 23.6875 15.5403 25.256C16.1585 26.8244 17.2876 28.1384 18.7452 28.9855C20.2027 29.8327 21.9034 30.1633 23.5721 29.9241C25.2409 29.6849 26.7802 28.8897 27.941 27.6672C29.1019 26.4447 29.8164 24.8664 29.969 23.1875C29.9771 23.1005 29.967 23.0127 29.9392 22.9298C29.9115 22.8469 29.8669 22.7707 29.8081 22.706C29.7493 22.6413 29.6776 22.5896 29.5977 22.5541C29.5179 22.5187 29.4314 22.5002 29.344 22.5C29.1916 22.4982 29.0439 22.5531 28.9297 22.6542C28.8156 22.7553 28.7431 22.8953 28.7265 23.0469Z" fill="white"/>
</g>
<defs>
<clipPath id="clip0_0_1">
<rect width="15" height="15" fill="white" transform="translate(15 15)"/>
</clipPath>
</defs>
</svg>
