<svg width="7" height="7" viewBox="0 0 7 7" fill="none" xmlns="http://www.w3.org/2000/svg">
<path d="M6.15165 5.26772L4.38388 3.49996L6.15165 1.73219C6.26886 1.61498 6.33471 1.45601 6.33471 1.29025C6.33471 1.12449 6.26886 0.965516 6.15165 0.848306C6.03444 0.731095 5.87547 0.665248 5.70971 0.665247C5.54395 0.665248 5.38498 0.731095 5.26777 0.848306L3.5 2.61607L1.73223 0.848306C1.61502 0.731095 1.45605 0.665248 1.29029 0.665247C1.12453 0.665248 0.96556 0.731095 0.84835 0.848306C0.731139 0.965516 0.665292 1.12449 0.665291 1.29025C0.665292 1.45601 0.731139 1.61498 0.84835 1.73219L2.61612 3.49996L0.84835 5.26772C0.731139 5.38493 0.665291 5.5439 0.665291 5.70967C0.665291 5.87543 0.731139 6.0344 0.84835 6.15161C0.96556 6.26882 1.12453 6.33467 1.29029 6.33467C1.45605 6.33466 1.61502 6.26882 1.73223 6.15161L3.5 4.38384L5.26777 6.15161C5.38498 6.26882 5.54395 6.33466 5.70971 6.33467C5.87547 6.33467 6.03444 6.26882 6.15165 6.15161C6.26886 6.0344 6.33471 5.87543 6.33471 5.70967C6.33471 5.5439 6.26886 5.38493 6.15165 5.26772Z" fill="#2D8EFF"/>
</svg>
