<svg width="45" height="45" viewBox="0 0 45 45" fill="none" xmlns="http://www.w3.org/2000/svg">
<rect x="0.5" y="0.5" width="44" height="44" rx="9.5" stroke="#DEDEDE"/>
<g clip-path="url(#clip0_447_6398)">
<path d="M29.726 28.4033L26.8228 25.4988C28.9951 22.5958 28.4028 18.4815 25.4998 16.3091C22.5968 14.1368 18.4824 14.7291 16.3101 17.6321C14.1378 20.5351 14.7301 24.6495 17.6331 26.8218C19.965 28.5668 23.1678 28.5668 25.4998 26.8218L28.4042 29.7262C28.7692 30.0912 29.361 30.0912 29.726 29.7262C30.091 29.3612 30.091 28.7695 29.726 28.4045L29.726 28.4033ZM21.5906 26.2612C19.0106 26.2612 16.9191 24.1697 16.9191 21.5897C16.9191 19.0096 19.0106 16.9181 21.5906 16.9181C24.1707 16.9181 26.2622 19.0096 26.2622 21.5897C26.2594 24.1685 24.1695 26.2585 21.5906 26.2612Z" fill="#2D8EFF"/>
</g>
<defs>
<clipPath id="clip0_447_6398">
<rect width="15" height="15" fill="white" transform="translate(15 15)"/>
</clipPath>
</defs>
</svg>
