<svg width="45" height="45" viewBox="0 0 45 45" fill="none" xmlns="http://www.w3.org/2000/svg">
<rect x="0.5" y="0.5" width="44" height="44" rx="9.5" stroke="#DEDEDE"/>
<g clip-path="url(#clip0_447_6407)">
<path d="M22.0583 26.0669L20.0002 28.125V15.625C20.0002 15.2794 19.7208 15 19.3752 15C19.0295 15 18.7502 15.2794 18.7502 15.625V28.125L16.692 26.0669C16.4477 25.8225 16.0527 25.8225 15.8083 26.0669C15.5639 26.3113 15.5639 26.7063 15.8083 26.9506L18.4914 29.6337C18.7352 29.8775 19.0552 29.9994 19.3752 29.9994C19.6952 29.9994 20.0152 29.8775 20.2589 29.6337L22.942 26.9506C23.1864 26.7063 23.1864 26.3113 22.942 26.0669C22.6977 25.8225 22.3027 25.8225 22.0583 26.0669ZM29.192 18.9331C29.4364 18.6888 29.4364 18.2938 29.192 18.0494L26.5089 15.3663C26.2652 15.1225 25.9452 15 25.6252 15C25.3052 15 24.9852 15.1219 24.7414 15.3656L22.0583 18.0487C21.8139 18.2931 21.8139 18.6881 22.0583 18.9325C22.3027 19.1769 22.6977 19.1769 22.942 18.9325L25.0002 16.8744V29.375C25.0002 29.7206 25.2795 30 25.6252 30C25.9708 30 26.2502 29.7206 26.2502 29.375V16.875L28.3083 18.9331C28.5527 19.1775 28.9477 19.1775 29.192 18.9331Z" fill="#2D8EFF"/>
</g>
<defs>
<clipPath id="clip0_447_6407">
<rect width="15" height="15" fill="white" transform="translate(15 15)"/>
</clipPath>
</defs>
</svg>
