<svg width="15" height="15" viewBox="0 0 15 15" fill="none" xmlns="http://www.w3.org/2000/svg">
<path d="M7.05828 11.0669L5.00016 13.125V0.625C5.00016 0.279375 4.72078 0 4.37516 0C4.02953 0 3.75016 0.279375 3.75016 0.625V13.125L1.69203 11.0669C1.44766 10.8225 1.05266 10.8225 0.808281 11.0669C0.563906 11.3113 0.563906 11.7063 0.808281 11.9506L3.49141 14.6337C3.73516 14.8775 4.05516 14.9994 4.37516 14.9994C4.69516 14.9994 5.01516 14.8775 5.25891 14.6337L7.94203 11.9506C8.18641 11.7063 8.18641 11.3113 7.94203 11.0669C7.69766 10.8225 7.30266 10.8225 7.05828 11.0669ZM14.192 3.93313C14.4364 3.68875 14.4364 3.29375 14.192 3.04938L11.5089 0.36625C11.2652 0.1225 10.9452 0 10.6252 0C10.3052 0 9.98516 0.121875 9.74141 0.365625L7.05828 3.04875C6.81391 3.29312 6.81391 3.68812 7.05828 3.9325C7.30266 4.17688 7.69766 4.17688 7.94203 3.9325L10.0002 1.87438V14.375C10.0002 14.7206 10.2795 15 10.6252 15C10.9708 15 11.2502 14.7206 11.2502 14.375V1.875L13.3083 3.93313C13.5527 4.1775 13.9477 4.1775 14.192 3.93313Z" fill="#2D8EFF"/>
</svg>
