<svg width="15" height="15" viewBox="0 0 15 15" fill="none" xmlns="http://www.w3.org/2000/svg">
<g clip-path="url(#clip0_665_6070)">
<path d="M5.31304 5.9375C5.31304 6.28188 5.39304 6.60813 5.53554 6.89813C5.22929 7.29063 5.03866 7.77751 5.01304 8.30813C4.42491 7.69063 4.06304 6.85563 4.06304 5.93813C4.06304 3.80626 6.01429 2.12125 8.22491 2.575C9.52616 2.8425 10.5805 3.89063 10.858 5.19C10.9418 5.5825 10.9574 5.96688 10.9149 6.33438C10.8787 6.64563 10.6055 6.87563 10.2918 6.87563H10.2637C9.89366 6.87563 9.63366 6.54625 9.67428 6.17875C9.70179 5.93188 9.68741 5.6725 9.62429 5.40813C9.43804 4.625 8.79929 3.99063 8.01491 3.81001C6.58616 3.48188 5.31241 4.56438 5.31241 5.93813L5.31304 5.9375ZM2.88179 5.12813C3.05304 4.1325 3.53991 3.225 4.29491 2.51688C5.25054 1.62125 6.50179 1.17875 7.81366 1.26C10.2843 1.42 12.2162 3.58438 12.1874 6.17563C12.1755 7.26063 11.2668 8.12438 10.1824 8.12438H8.67866C8.52616 7.60626 8.05241 7.22501 7.48491 7.22501C6.79429 7.22501 6.23491 7.78438 6.23491 8.47501C6.23491 9.16563 6.79429 9.72501 7.48491 9.72501C7.82116 9.72501 8.12554 9.59063 8.34991 9.37438H10.1824C11.9443 9.37438 13.4124 7.97126 13.4374 6.21C13.4837 2.94688 11.0324 0.21563 7.89429 0.0131296C6.22929 -0.0949954 4.64991 0.47063 3.44054 1.60563C2.50366 2.48375 1.88054 3.64626 1.65616 4.89688C1.58804 5.27688 1.88866 5.62563 2.27429 5.62563C2.56929 5.62563 2.83241 5.42001 2.88179 5.12876V5.12813ZM7.50054 10.625C5.19116 10.625 3.19304 12.0575 2.52866 14.1888C2.42554 14.5181 2.60991 14.8688 2.93929 14.9719C3.26804 15.0713 3.61866 14.89 3.72179 14.5613C3.94116 13.8569 4.37929 13.2556 4.94179 12.7956L5.81741 14.1088C6.03929 14.4413 6.52741 14.4413 6.74929 14.1088L7.53304 12.9325L8.31679 14.1088C8.53866 14.4413 9.02679 14.4413 9.24866 14.1088L10.1005 12.8313C10.6424 13.2869 11.0643 13.875 11.278 14.5613C11.3618 14.8288 11.608 15 11.8749 15C11.9368 15 11.9987 14.9906 12.0612 14.9719C12.3905 14.8688 12.5743 14.5181 12.4718 14.1888C11.8074 12.0575 9.80929 10.625 7.49991 10.625H7.50054Z" fill="black"/>
</g>
<defs>
<clipPath id="clip0_665_6070">
<rect width="15" height="15" fill="white"/>
</clipPath>
</defs>
</svg>
