<svg width="15" height="16" viewBox="0 0 15 16" xmlns="http://www.w3.org/2000/svg">
<g clip-path="url(#clip0_665_6065)">
<path d="M10.3125 11.75H10V3.3125C10 1.76188 8.73812 0.5 7.1875 0.5H2.8125C1.26188 0.5 0 1.76188 0 3.3125V13.3125C0 14.5188 0.980625 15.4994 2.18625 15.5H10C11.0337 15.5 11.875 14.6587 11.875 13.625V13.3125C11.875 12.4506 11.1744 11.75 10.3125 11.75ZM3.125 13.3125C3.125 13.8294 2.70438 14.25 2.1875 14.25C1.67062 14.25 1.25 13.8294 1.25 13.3125V3.3125C1.25 2.45063 1.95063 1.75 2.8125 1.75H7.1875C8.04937 1.75 8.75 2.45063 8.75 3.3125V11.75H4.6875C3.82562 11.75 3.125 12.4506 3.125 13.3125ZM10.625 13.625C10.625 13.97 10.345 14.25 10 14.25H4.16375C4.29938 13.9656 4.375 13.6475 4.375 13.3125C4.375 13.1406 4.51562 13 4.6875 13H10.3125C10.4844 13 10.625 13.1406 10.625 13.3125V13.625ZM13.125 0.5C12.0913 0.5 11.25 1.34125 11.25 2.375V8.83938C11.25 9.67438 11.5756 10.4594 12.1656 11.0494L12.6831 11.5669C12.805 11.6888 12.965 11.75 13.125 11.75C13.285 11.75 13.445 11.6888 13.5669 11.5669L14.0844 11.0494C14.6744 10.4594 15 9.67438 15 8.83938V2.375C15 1.34125 14.1587 0.5 13.125 0.5ZM13.75 8.83938C13.75 9.34062 13.5544 9.81188 13.2006 10.1656L13.125 10.2413L13.0494 10.1656C12.6956 9.81188 12.5 9.34062 12.5 8.83938V2.375C12.5 2.03 12.78 1.75 13.125 1.75C13.47 1.75 13.75 2.03 13.75 2.375V8.83938ZM2.05813 4.93563C1.81375 4.69125 1.81375 4.29562 2.05813 4.05188C2.3025 3.8075 2.6975 3.8075 2.94187 4.05188L3.74687 4.8575C3.7675 4.87813 3.8125 4.87813 3.83375 4.8575L5.19562 3.49563C5.44 3.25125 5.835 3.25125 6.07938 3.49563C6.32375 3.74 6.32375 4.135 6.07938 4.37937L4.7175 5.74125C4.46187 5.99687 4.12625 6.12437 3.79063 6.12437C3.455 6.12437 3.11937 5.99687 2.86375 5.74125L2.05813 4.93563ZM4.7175 9.49125C4.46187 9.74687 4.12625 9.87437 3.79063 9.87437C3.455 9.87437 3.11937 9.74687 2.86375 9.49125L2.05875 8.68563C1.81437 8.44125 1.81437 8.04562 2.05875 7.80187C2.30312 7.5575 2.69813 7.5575 2.9425 7.80187L3.7475 8.6075C3.76812 8.62813 3.81313 8.62813 3.83438 8.6075L5.19625 7.24563C5.44063 7.00125 5.83562 7.00125 6.08 7.24563C6.32437 7.49 6.32437 7.885 6.08 8.12937L4.7175 9.49125Z" />
</g>
<defs>
<clipPath id="clip0_665_6065">
<rect width="15" height="15" fill="white" transform="translate(0 0.5)"/>
</clipPath>
</defs>
</svg>
