<svg width="25" height="25" viewBox="0 0 25 25" fill="none" xmlns="http://www.w3.org/2000/svg">
<path d="M24.6946 0.304986C24.4992 0.109704 24.2343 0 23.9581 0C23.6819 0 23.417 0.109704 23.2217 0.304986L12.4998 11.0269L1.7779 0.304986C1.58256 0.109704 1.31766 0 1.04144 0C0.765232 0 0.500327 0.109704 0.304986 0.304986C0.109704 0.500327 0 0.765232 0 1.04144C0 1.31766 0.109704 1.58256 0.304986 1.7779L11.0269 12.4998L0.304986 23.2217C0.109704 23.417 0 23.6819 0 23.9581C0 24.2343 0.109704 24.4992 0.304986 24.6946C0.500327 24.8899 0.765232 24.9996 1.04144 24.9996C1.31766 24.9996 1.58256 24.8899 1.7779 24.6946L12.4998 13.9727L23.2217 24.6946C23.417 24.8899 23.6819 24.9996 23.9581 24.9996C24.2343 24.9996 24.4992 24.8899 24.6946 24.6946C24.8899 24.4992 24.9996 24.2343 24.9996 23.9581C24.9996 23.6819 24.8899 23.417 24.6946 23.2217L13.9727 12.4998L24.6946 1.7779C24.8899 1.58256 24.9996 1.31766 24.9996 1.04144C24.9996 0.765232 24.8899 0.500327 24.6946 0.304986Z" fill="#2D8EFF"/>
</svg>
