<svg width="15" height="15" viewBox="0 0 15 15" fill="none" xmlns="http://www.w3.org/2000/svg">
<g clip-path="url(#clip0_69_47)">
<path d="M7.5 10C8.0175 10 8.4375 10.42 8.4375 10.9375C8.4375 11.455 8.0175 11.875 7.5 11.875C6.9825 11.875 6.5625 11.455 6.5625 10.9375C6.5625 10.42 6.9825 10 7.5 10ZM8.125 8.75C8.125 8.39937 8.38 7.98438 8.705 7.805C9.6425 7.28813 10.1469 6.22813 9.96062 5.16625C9.78375 4.1575 8.95562 3.33 7.9475 3.15375C7.21125 3.02562 6.46062 3.2225 5.89313 3.69938C5.32562 4.17625 5 4.87375 5 5.61438C5 5.95937 5.28 6.23938 5.625 6.23938C5.97 6.23938 6.25 5.95937 6.25 5.61438C6.25 5.24437 6.41313 4.895 6.69688 4.65625C6.985 4.41375 7.3525 4.3175 7.73188 4.38438C8.22375 4.47062 8.64312 4.89 8.72937 5.38188C8.825 5.92562 8.57875 6.44688 8.10188 6.71C7.37937 7.10813 6.875 7.94688 6.875 8.75C6.875 9.09562 7.155 9.375 7.5 9.375C7.845 9.375 8.125 9.09562 8.125 8.75ZM15 11.875V3.125C15 1.40188 13.5981 0 11.875 0H3.125C1.40188 0 0 1.40188 0 3.125V11.875C0 13.5981 1.40188 15 3.125 15H11.875C13.5981 15 15 13.5981 15 11.875ZM11.875 1.25C12.9087 1.25 13.75 2.09125 13.75 3.125V11.875C13.75 12.9087 12.9087 13.75 11.875 13.75H3.125C2.09125 13.75 1.25 12.9087 1.25 11.875V3.125C1.25 2.09125 2.09125 1.25 3.125 1.25H11.875Z" fill="#2D8EFF"/>
</g>
<defs>
<clipPath id="clip0_69_47">
<rect width="15" height="15" fill="white"/>
</clipPath>
</defs>
</svg>
