<svg width="25" height="25" viewBox="0 0 25 25" fill="none" xmlns="http://www.w3.org/2000/svg">
<path d="M12.5 17.7083C9.625 17.7083 7.29167 15.375 7.29167 12.5C7.29167 9.625 9.625 7.29167 12.5 7.29167C15.375 7.29167 17.7083 9.625 17.7083 12.5C17.7083 15.375 15.375 17.7083 12.5 17.7083ZM12.5 9.375C8.5 10.5 9.375 10.7812 9.375 12.5C9.375 14.2188 10.7812 15.625 12.5 15.625C10.5 16 8.5 14.2188 8.5 12.5C8.5 10.7812 10 9 12.5 9.375ZM13.5417 0H11.4583V5.20833H13.5417V0ZM13.5417 19.7917H11.4583V25H13.5417V19.7917ZM5.20833 11.4583H0V13.5417H5.20833V11.4583ZM25 11.4583H19.7917V13.5417H25V11.4583ZM22.0729 4.39583L20.6042 2.92708L16.9167 6.61458L18.3854 8.08333L22.0729 4.39583ZM8.08333 18.3958L6.61458 16.9271L2.92708 20.6146L4.39583 22.0833L8.08333 18.3958ZM8.08333 6.61458L4.39583 2.92708L2.92708 4.39583L6.61458 8.08333L8.08333 6.61458ZM22.0833 20.6146L18.3958 16.9271L16.9271 18.3958L20.6146 22.0833L22.0833 20.6146Z" fill="#2D8EFF"/>
</svg>
