<svg width="15" height="15" viewBox="0 0 15 15" fill="none" xmlns="http://www.w3.org/2000/svg">
<path d="M11.875 11.25C11.0131 11.25 10.3125 10.5494 10.3125 9.6875C10.3125 8.82563 11.0131 8.125 11.875 8.125C12.7369 8.125 13.4375 8.82563 13.4375 9.6875C13.4375 10.5494 12.7369 11.25 11.875 11.25ZM13.125 2.5H3.125C2.59 2.5 2.09188 2.26188 1.74 1.8725C2.08312 1.49313 2.57437 1.25 3.125 1.25H14.375C14.72 1.25 15 0.97 15 0.625C15 0.28 14.72 0 14.375 0H3.125C1.39938 0 0 1.39938 0 3.125V9.375C0 11.1006 1.39938 12.5 3.125 12.5H8.125C8.47 12.5 8.75 12.22 8.75 11.875C8.75 11.53 8.47 11.25 8.125 11.25H3.125C2.08938 11.25 1.25 10.4106 1.25 9.375V3.125C1.25 3.125 1.25125 3.12438 1.25313 3.12375C1.78625 3.5225 2.44125 3.75 3.125 3.75H13.125C13.47 3.75 13.75 4.03 13.75 4.375V7.5C13.75 7.845 14.03 8.125 14.375 8.125C14.72 8.125 15 7.845 15 7.5V4.375C15 3.33938 14.1606 2.5 13.125 2.5ZM11.875 11.875C10.4169 11.875 9.14062 12.8362 8.77125 14.2131C8.68188 14.5462 8.87938 14.8894 9.21313 14.9788C9.54688 15.0681 9.88875 14.8706 9.97875 14.5369C10.2019 13.7056 10.9819 13.125 11.875 13.125C12.7681 13.125 13.5481 13.7056 13.7712 14.5369C13.8463 14.8163 14.0988 15 14.3744 15C14.4275 15 14.4825 14.9931 14.5369 14.9781C14.87 14.8888 15.0681 14.5456 14.9788 14.2125C14.6094 12.8356 13.3331 11.875 11.875 11.875Z" fill="#2D8EFF"/>
</svg>
