<svg width="15" height="15" viewBox="0 0 15 15" fill="none" xmlns="http://www.w3.org/2000/svg">
<g clip-path="url(#clip0_69_1427)">
<path d="M14.5369 10.125L12.9119 4.26811C12.5649 3.01525 11.8088 1.91445 10.7639 1.14092C9.71908 0.367381 8.44551 -0.034437 7.14593 -0.000587206C5.84634 0.0332626 4.59542 0.500835 3.59225 1.32771C2.58908 2.15459 1.89131 3.29326 1.61001 4.56249L0.353133 10.2187C0.292316 10.4928 0.2938 10.7769 0.357474 11.0503C0.421149 11.3237 0.545389 11.5793 0.72103 11.7982C0.89667 12.0172 1.11923 12.1939 1.37229 12.3154C1.62534 12.4368 1.90244 12.4999 2.18313 12.5H4.43751C4.58096 13.2064 4.96421 13.8415 5.52235 14.2977C6.08048 14.7539 6.77916 15.0031 7.50001 15.0031C8.22086 15.0031 8.91954 14.7539 9.47767 14.2977C10.0358 13.8415 10.4191 13.2064 10.5625 12.5H12.7313C13.0201 12.4999 13.305 12.433 13.5637 12.3046C13.8224 12.1763 14.048 11.9899 14.2228 11.76C14.3977 11.5301 14.517 11.263 14.5716 10.9793C14.6262 10.6957 14.6139 10.4033 14.5369 10.125ZM7.50001 13.75C7.1136 13.7484 6.73711 13.6274 6.42207 13.4037C6.10703 13.1799 5.86881 12.8643 5.74001 12.5H9.26001C9.13121 12.8643 8.89299 13.1799 8.57794 13.4037C8.2629 13.6274 7.88642 13.7484 7.50001 13.75ZM13.2281 11.0031C13.1698 11.0804 13.0942 11.143 13.0074 11.1859C12.9206 11.2287 12.825 11.2507 12.7281 11.25H2.18313C2.08955 11.25 1.99716 11.2289 1.91279 11.1884C1.82842 11.1479 1.75422 11.089 1.69567 11.016C1.63712 10.943 1.59571 10.8578 1.5745 10.7666C1.55329 10.6755 1.55282 10.5807 1.57313 10.4894L2.83001 4.83311C3.05148 3.83699 3.59958 2.94349 4.38717 2.29464C5.17476 1.64579 6.15665 1.27884 7.17674 1.25212C8.19684 1.2254 9.19659 1.54043 10.0171 2.14715C10.8376 2.75387 11.4317 3.61745 11.705 4.60061L13.33 10.4575C13.3565 10.5501 13.3611 10.6476 13.3435 10.7423C13.3258 10.837 13.2863 10.9263 13.2281 11.0031Z" fill="#2D8EFF"/>
</g>
<defs>
<clipPath id="clip0_69_1427">
<rect width="15" height="15" fill="white"/>
</clipPath>
</defs>
</svg>
