<svg width="45" height="45" viewBox="0 0 45 45" fill="none" xmlns="http://www.w3.org/2000/svg">
<g clip-path="url(#clip0_0_1)">
<path d="M29.5369 25.125L27.9119 19.2681C27.5649 18.0152 26.8088 16.9144 25.7639 16.1409C24.7191 15.3674 23.4455 14.9656 22.1459 14.9994C20.8463 15.0333 19.5954 15.5008 18.5922 16.3277C17.5891 17.1546 16.8913 18.2933 16.61 19.5625L15.3531 25.2187C15.2923 25.4928 15.2938 25.7769 15.3575 26.0503C15.4211 26.3237 15.5454 26.5793 15.721 26.7982C15.8967 27.0172 16.1192 27.1939 16.3723 27.3154C16.6253 27.4368 16.9024 27.4999 17.1831 27.5H19.4375C19.581 28.2064 19.9642 28.8415 20.5223 29.2977C21.0805 29.7539 21.7792 30.0031 22.5 30.0031C23.2209 30.0031 23.9195 29.7539 24.4777 29.2977C25.0358 28.8415 25.4191 28.2064 25.5625 27.5H27.7313C28.0201 27.4999 28.305 27.433 28.5637 27.3046C28.8224 27.1763 29.048 26.9899 29.2228 26.76C29.3977 26.5301 29.517 26.263 29.5716 25.9793C29.6262 25.6957 29.6139 25.4033 29.5369 25.125ZM22.5 28.75C22.1136 28.7484 21.7371 28.6274 21.4221 28.4037C21.107 28.1799 20.8688 27.8643 20.74 27.5H24.26C24.1312 27.8643 23.893 28.1799 23.5779 28.4037C23.2629 28.6274 22.8864 28.7484 22.5 28.75ZM28.2281 26.0031C28.1698 26.0804 28.0942 26.143 28.0074 26.1859C27.9206 26.2287 27.825 26.2507 27.7281 26.25H17.1831C17.0895 26.25 16.9972 26.2289 16.9128 26.1884C16.8284 26.1479 16.7542 26.089 16.6957 26.016C16.6371 25.943 16.5957 25.8578 16.5745 25.7666C16.5533 25.6755 16.5528 25.5807 16.5731 25.4894L17.83 19.8331C18.0515 18.837 18.5996 17.9435 19.3872 17.2946C20.1748 16.6458 21.1566 16.2788 22.1767 16.2521C23.1968 16.2254 24.1966 16.5404 25.0171 17.1472C25.8376 17.7539 26.4317 18.6175 26.705 19.6006L28.33 25.4575C28.3565 25.5501 28.3611 25.6476 28.3435 25.7423C28.3258 25.837 28.2863 25.9263 28.2281 26.0031Z" fill="#2D8EFF"/>
</g>
<circle cx="22.5" cy="22.5" r="22" stroke="#2D8EFF"/>
<defs>
<clipPath id="clip0_0_1">
<rect width="15" height="15" fill="white" transform="translate(15 15)"/>
</clipPath>
</defs>
</svg>
