<svg width="15" height="15" viewBox="0 0 15 15" xmlns="http://www.w3.org/2000/svg">
<path d="M13.75 3.5775V1.25C13.75 0.905005 13.4706 0.625005 13.125 0.625005C12.7794 0.625005 12.5 0.905005 12.5 1.25V2.72875L9.24813 0.53438C8.18625 -0.18187 6.81375 -0.18187 5.75187 0.53438L1.37688 3.48688C0.515 4.06875 0 5.03688 0 6.07751V11.875C0 13.5981 1.40188 15 3.125 15H5C5.34562 15 5.625 14.72 5.625 14.375V9.375C5.625 9.03063 5.905 8.75 6.25 8.75H8.75C9.095 8.75 9.375 9.03063 9.375 9.375V14.375C9.375 14.72 9.65438 15 10 15H11.875C13.5981 15 15 13.5981 15 11.875V6.07751C15 5.08938 14.535 4.16625 13.75 3.5775ZM13.75 11.875C13.75 12.9088 12.9087 13.75 11.875 13.75H10.625V9.375C10.625 8.34126 9.78375 7.50001 8.75 7.50001H6.25C5.21625 7.50001 4.375 8.34126 4.375 9.375V13.75H3.125C2.09125 13.75 1.25 12.9088 1.25 11.875V6.07751C1.25 5.45313 1.55875 4.87188 2.07625 4.52313L6.45125 1.57063C7.08875 1.14063 7.91125 1.14063 8.54813 1.57063L12.9231 4.52313C13.4406 4.87188 13.7494 5.45313 13.7494 6.07751L13.75 11.875Z"/>
</svg>
