<svg width="15" height="15" viewBox="0 0 15 15" fill="none" xmlns="http://www.w3.org/2000/svg">
<g clip-path="url(#clip0_69_49)">
<path d="M11.875 2.5H11.1869C10.8962 1.07562 9.63375 0 8.125 0H3.125C1.40188 0 0 1.40188 0 3.125V11.1588C0 11.655 0.271875 12.1087 0.70875 12.3425C0.9075 12.4494 1.12563 12.5019 1.34312 12.5019C1.60312 12.5019 1.8625 12.4262 2.08687 12.2769L3.93062 11.0475C4.3625 12.2569 5.51875 13.125 6.875 13.125H10.4356L12.9131 14.7775C13.1375 14.9269 13.3969 15.0025 13.6569 15.0025C13.8744 15.0025 14.0919 14.9494 14.2912 14.8425C14.7281 14.6081 15 14.1544 15 13.6588V5.625C15 3.90188 13.5981 2.5 11.875 2.5ZM1.39375 11.2369C1.38188 11.2444 1.3475 11.2669 1.29875 11.2413C1.24937 11.215 1.24937 11.1731 1.24937 11.1594V3.125C1.24937 2.09125 2.09063 1.25 3.12438 1.25H8.12437C9.15812 1.25 9.99937 2.09125 9.99937 3.125V7.5C9.99937 8.53375 9.15812 9.375 8.12437 9.375H4.37437C4.18313 9.375 4.03625 9.47437 4.02125 9.48438L1.39375 11.2369ZM13.75 13.6594C13.75 13.6725 13.75 13.715 13.7013 13.7413C13.6513 13.7681 13.6175 13.745 13.6063 13.7369L10.9719 11.98C10.8694 11.9119 10.7487 11.875 10.625 11.875H6.875C6.06 11.875 5.36562 11.3525 5.1075 10.625H8.125C9.84813 10.625 11.25 9.22313 11.25 7.5V3.75H11.875C12.9087 3.75 13.75 4.59125 13.75 5.625V13.6594ZM3.75 4.375C3.75 3.81938 3.99437 3.29563 4.42 2.93813C4.84562 2.58063 5.40562 2.42937 5.95937 2.53C6.715 2.66188 7.33687 3.28313 7.47 4.04063C7.60938 4.83563 7.23125 5.63 6.52875 6.01812C6.24937 6.17188 6.24937 6.21688 6.24937 6.25C6.24937 6.59562 5.96937 6.875 5.62437 6.875C5.27937 6.875 4.99937 6.59562 4.99937 6.25C4.99937 5.4325 5.64812 5.07562 5.925 4.92312C6.10625 4.82375 6.29688 4.58875 6.23875 4.25688C6.19563 4.01188 5.9875 3.80375 5.74312 3.76125C5.55188 3.72625 5.36688 3.775 5.22313 3.89625C5.08063 4.015 4.99937 4.19 4.99937 4.37563C4.99937 4.72125 4.71938 5.00063 4.37437 5.00063C4.02938 5.00063 3.74938 4.72125 3.74938 4.37563L3.75 4.375ZM6.25 8.125C6.25 8.47 5.97 8.75 5.625 8.75C5.28 8.75 5 8.47 5 8.125C5 7.78 5.28 7.5 5.625 7.5C5.97 7.5 6.25 7.78 6.25 8.125Z" fill="black"/>
</g>
<defs>
<clipPath id="clip0_69_49">
<rect width="15" height="15" fill="white"/>
</clipPath>
</defs>
</svg>
