<svg width="11" height="11" viewBox="0 0 11 11" fill="none" xmlns="http://www.w3.org/2000/svg">
<path fill-rule="evenodd" clip-rule="evenodd" d="M5.5 0C2.46263 0 0 2.46263 0 5.5C0 8.53737 2.46263 11 5.5 11C8.53737 11 11 8.53737 11 5.5C11 2.46263 8.53737 0 5.5 0ZM8.04925 3.74046C7.96675 4.60992 7.60833 6.72054 7.42637 7.6945C7.34937 8.107 7.19721 8.24496 7.05054 8.25825C6.73108 8.28758 6.48863 8.04696 6.17925 7.84438C5.69525 7.52721 5.42163 7.32967 4.95183 7.01983C4.40871 6.66188 4.76071 6.46525 5.07008 6.14396C5.15121 6.05963 6.55829 4.7795 6.58579 4.66354C6.589 4.64888 6.59267 4.59479 6.56012 4.56638C6.52758 4.53796 6.48037 4.54758 6.44646 4.55538C6.39787 4.56638 5.62467 5.07742 4.12638 6.0885C3.90683 6.23929 3.70792 6.31263 3.52963 6.30896C3.33346 6.30483 2.95579 6.19804 2.67483 6.10638C2.33063 5.99454 2.05654 5.93496 2.08037 5.74521C2.09275 5.64621 2.22888 5.54492 2.48921 5.44133C4.09246 4.74283 5.16175 4.28221 5.69663 4.05946C7.22425 3.42421 7.54142 3.31375 7.74858 3.31008C8.008 3.30642 8.07033 3.52046 8.04925 3.74046Z" fill="#2D8EFF"/>
</svg>
