<svg width="52" height="17" viewBox="0 0 52 17" fill="none" xmlns="http://www.w3.org/2000/svg">
<path d="M4.94997 16V2.844H0.417969V0.380005H12.078V2.844H7.52397V16H4.94997Z" fill="white"/>
<path d="M31.4893 16.264C29.6266 16.264 28.1233 15.6847 26.9793 14.526C25.8353 13.3673 25.2633 11.82 25.2633 9.88401V0.380005H27.8373V9.92801C27.8373 11.1453 28.1673 12.0913 28.8273 12.766C29.4873 13.4407 30.3746 13.778 31.4893 13.778C32.604 13.778 33.484 13.4407 34.1293 12.766C34.7893 12.0913 35.1193 11.1453 35.1193 9.92801V0.380005H37.6933V9.88401C37.6933 11.8053 37.114 13.3527 35.9553 14.526C34.7966 15.6847 33.308 16.264 31.4893 16.264Z" fill="white"/>
<path d="M50.2037 1.85401C51.2157 2.82201 51.7217 4.03201 51.7217 5.48401C51.7217 6.93601 51.2157 8.15334 50.2037 9.13601C49.1917 10.104 47.8937 10.588 46.3097 10.588H43.9117V16H41.3377V0.380005H46.3097C47.8937 0.380005 49.1917 0.871338 50.2037 1.85401ZM48.3997 7.42001C48.9277 6.90667 49.1917 6.26134 49.1917 5.48401C49.1917 4.70667 48.9277 4.06867 48.3997 3.57001C47.8864 3.05667 47.1824 2.80001 46.2877 2.80001H43.9117V8.16801H46.2877C47.1824 8.16801 47.8864 7.91867 48.3997 7.42001Z" fill="white"/>
<g clip-path="url(#clip0_183_2598)">
<rect x="12" y="5" width="11" height="11" rx="5.5" fill="white"/>
<path fill-rule="evenodd" clip-rule="evenodd" d="M17.5 5C14.4626 5 12 7.46263 12 10.5C12 13.5374 14.4626 16 17.5 16C20.5374 16 23 13.5374 23 10.5C23 7.46263 20.5374 5 17.5 5ZM20.0493 8.74046C19.9668 9.60992 19.6083 11.7205 19.4264 12.6945C19.3494 13.107 19.1972 13.245 19.0505 13.2583C18.7311 13.2876 18.4886 13.047 18.1793 12.8444C17.6953 12.5272 17.4216 12.3297 16.9518 12.0198C16.4087 11.6619 16.7607 11.4653 17.0701 11.144C17.1512 11.0596 18.5583 9.7795 18.5858 9.66354C18.589 9.64888 18.5927 9.59479 18.5601 9.56638C18.5276 9.53796 18.4804 9.54758 18.4465 9.55538C18.3979 9.56638 17.6247 10.0774 16.1264 11.0885C15.9068 11.2393 15.7079 11.3126 15.5296 11.309C15.3335 11.3048 14.9558 11.198 14.6748 11.1064C14.3306 10.9945 14.0565 10.935 14.0804 10.7452C14.0928 10.6462 14.2289 10.5449 14.4892 10.4413C16.0925 9.74283 17.1618 9.28221 17.6966 9.05946C19.2243 8.42421 19.5414 8.31375 19.7486 8.31008C20.008 8.30642 20.0703 8.52046 20.0493 8.74046Z" fill="#2D8EFF"/>
</g>
<defs>
<clipPath id="clip0_183_2598">
<rect width="11" height="11" fill="white" transform="translate(12 5)"/>
</clipPath>
</defs>
</svg>
