<svg width="45" height="45" viewBox="0 0 45 45" fill="none" xmlns="http://www.w3.org/2000/svg">
<rect width="45" height="45" rx="22.5" fill="#2D8EFF"/>
<g clip-path="url(#clip0_440_5964)">
<path d="M23 22C23.9889 22 24.9556 21.7068 25.7779 21.1574C26.6001 20.6079 27.241 19.8271 27.6194 18.9134C27.9978 17.9998 28.0969 16.9945 27.9039 16.0246C27.711 15.0546 27.2348 14.1637 26.5355 13.4645C25.8363 12.7652 24.9454 12.289 23.9755 12.0961C23.0055 11.9031 22.0002 12.0022 21.0866 12.3806C20.173 12.759 19.3921 13.3999 18.8427 14.2222C18.2932 15.0444 18 16.0111 18 17C18.0013 18.3257 18.5285 19.5967 19.4659 20.5341C20.4033 21.4715 21.6743 21.9987 23 22ZM23 13.6667C23.6593 13.6667 24.3037 13.8622 24.8519 14.2284C25.4001 14.5947 25.8273 15.1153 26.0796 15.7244C26.3319 16.3335 26.3979 17.0037 26.2693 17.6503C26.1407 18.2969 25.8232 18.8909 25.357 19.357C24.8908 19.8232 24.2969 20.1407 23.6503 20.2693C23.0037 20.3979 22.3335 20.3319 21.7244 20.0796C21.1153 19.8273 20.5947 19.4001 20.2284 18.8519C19.8622 18.3037 19.6667 17.6593 19.6667 17C19.6667 16.1159 20.0179 15.2681 20.643 14.643C21.2681 14.0179 22.1159 13.6667 23 13.6667Z" fill="white"/>
<path d="M23 23.6667C21.0116 23.6689 19.1052 24.4597 17.6991 25.8658C16.2931 27.2718 15.5022 29.1782 15.5 31.1667C15.5 31.3877 15.5878 31.5996 15.7441 31.7559C15.9004 31.9122 16.1123 32 16.3333 32C16.5543 32 16.7663 31.9122 16.9226 31.7559C17.0789 31.5996 17.1667 31.3877 17.1667 31.1667C17.1667 29.6196 17.7812 28.1358 18.8752 27.0419C19.9692 25.9479 21.4529 25.3333 23 25.3333C24.5471 25.3333 26.0308 25.9479 27.1248 27.0419C28.2188 28.1358 28.8333 29.6196 28.8333 31.1667C28.8333 31.3877 28.9211 31.5996 29.0774 31.7559C29.2337 31.9122 29.4457 32 29.6667 32C29.8877 32 30.0996 31.9122 30.2559 31.7559C30.4122 31.5996 30.5 31.3877 30.5 31.1667C30.4978 29.1782 29.7069 27.2718 28.3009 25.8658C26.8948 24.4597 24.9884 23.6689 23 23.6667Z" fill="white"/>
</g>
<defs>
<clipPath id="clip0_440_5964">
<rect width="20" height="20" fill="white" transform="translate(13 12)"/>
</clipPath>
</defs>
</svg>
