<svg width="15" height="13" viewBox="0 0 15 13" fill="none" xmlns="http://www.w3.org/2000/svg">
<path d="M13.125 2.75H3.125C2.58812 2.75 2.08 2.5175 1.72813 2.12563C2.07188 1.74188 2.57125 1.5 3.125 1.5H14.375C14.7206 1.5 15 1.22 15 0.875C15 0.53 14.7206 0.25 14.375 0.25H3.125C1.39938 0.25 0 1.64938 0 3.375V9.625C0 11.3506 1.39938 12.75 3.125 12.75H13.125C14.1606 12.75 15 11.9106 15 10.875V4.625C15 3.58938 14.1606 2.75 13.125 2.75ZM13.75 10.875C13.75 11.2194 13.47 11.5 13.125 11.5H3.125C2.09125 11.5 1.25 10.6588 1.25 9.625V3.37375C1.78375 3.77313 2.44 4 3.125 4H13.125C13.47 4 13.75 4.28063 13.75 4.625V10.875ZM12.5 7.75C12.5 8.095 12.22 8.375 11.875 8.375C11.53 8.375 11.25 8.095 11.25 7.75C11.25 7.405 11.53 7.125 11.875 7.125C12.22 7.125 12.5 7.405 12.5 7.75Z" fill="#2D8EFF"/>
</svg>
