<svg width="30" height="30" viewBox="0 0 30 30" fill="none" xmlns="http://www.w3.org/2000/svg">
<rect width="30" height="30" rx="10" fill="#2D8EFF"/>
<g clip-path="url(#clip0_113_3109)">
<path d="M20.625 21.875C20.625 22.2206 20.345 22.5 20 22.5C19.655 22.5 19.375 22.2206 19.375 21.875C19.375 20.4963 18.2538 19.375 16.875 19.375H13.125C11.7463 19.375 10.625 20.4963 10.625 21.875C10.625 22.2206 10.345 22.5 10 22.5C9.655 22.5 9.375 22.2206 9.375 21.875C9.375 19.8069 11.0569 18.125 13.125 18.125H16.875C18.9431 18.125 20.625 19.8069 20.625 21.875ZM21.25 12.1875V13.4375C21.25 13.9544 20.8294 14.375 20.3125 14.375H20C20 15.7537 18.8788 16.875 17.5 16.875H12.5C11.1213 16.875 10 15.7537 10 14.375H9.6875C9.17063 14.375 8.75 13.9544 8.75 13.4375V12.1875C8.75 11.6706 9.17063 11.25 9.6875 11.25H10C10 9.87125 11.1213 8.75 12.5 8.75H14.375V8.125C14.375 7.77938 14.655 7.5 15 7.5C15.345 7.5 15.625 7.77938 15.625 8.125V8.75H17.5C18.8788 8.75 20 9.87125 20 11.25H20.3125C20.8294 11.25 21.25 11.6706 21.25 12.1875ZM18.75 11.25C18.75 10.5606 18.1894 10 17.5 10H12.5C11.8106 10 11.25 10.5606 11.25 11.25V14.375C11.25 15.0644 11.8106 15.625 12.5 15.625H17.5C18.1894 15.625 18.75 15.0644 18.75 14.375V11.25ZM13.4375 11.875C12.92 11.875 12.5 12.295 12.5 12.8125C12.5 13.33 12.92 13.75 13.4375 13.75C13.955 13.75 14.375 13.33 14.375 12.8125C14.375 12.295 13.955 11.875 13.4375 11.875ZM16.5625 11.875C16.045 11.875 15.625 12.295 15.625 12.8125C15.625 13.33 16.045 13.75 16.5625 13.75C17.08 13.75 17.5 13.33 17.5 12.8125C17.5 12.295 17.08 11.875 16.5625 11.875Z" fill="white"/>
</g>
<defs>
<clipPath id="clip0_113_3109">
<rect width="15" height="15" fill="white" transform="translate(7.5 7.5)"/>
</clipPath>
</defs>
</svg>
