<svg width="30" height="30" viewBox="0 0 30 30" fill="none" xmlns="http://www.w3.org/2000/svg">
<rect width="30" height="30" rx="10" fill="#2D8EFF"/>
<g clip-path="url(#clip0_0_1)">
<path d="M14.5 8.5C10.6341 8.5 7.5 11.6341 7.5 15.5C7.5 19.3659 10.6341 22.5 14.5 22.5C18.3659 22.5 21.5 19.3659 21.5 15.5C21.5 11.6341 18.3659 8.5 14.5 8.5ZM14.5 9.77273C17.663 9.77273 20.2273 12.337 20.2273 15.5C20.2273 18.663 17.663 21.2273 14.5 21.2273C11.337 21.2273 8.77273 18.663 8.77273 15.5C8.77273 12.337 11.337 9.77273 14.5 9.77273ZM17.3767 12.7439C17.2151 12.7252 17.012 12.7695 16.7851 12.8514C16.3705 13.0009 11.0712 15.2512 10.7651 15.3813C10.4752 15.5048 10.2005 15.6393 10.2002 15.8337C10.2002 15.9705 10.2813 16.0478 10.5053 16.1277C10.7382 16.211 11.3256 16.3886 11.6724 16.4844C12.0065 16.5763 12.3864 16.4962 12.5996 16.3638C12.8252 16.2235 15.4318 14.4794 15.6186 14.3267C15.8054 14.174 15.9547 14.37 15.8019 14.5231C15.6492 14.6761 13.8598 16.4116 13.6238 16.6522C13.3374 16.9443 13.541 17.2468 13.7331 17.3681C13.9524 17.5065 15.5307 18.5647 15.7684 18.7346C16.0061 18.9046 16.2467 18.9814 16.4675 18.9814C16.6883 18.9814 16.8046 18.6903 16.9143 18.3531C17.0432 17.9582 17.6468 14.0211 17.721 13.2454C17.7436 13.0102 17.6694 12.854 17.524 12.7843C17.48 12.7632 17.4306 12.7501 17.3767 12.7439Z" fill="white"/>
</g>
<defs>
<clipPath id="clip0_0_1">
<rect width="15" height="15" fill="white" transform="translate(7 8)"/>
</clipPath>
</defs>
</svg>
