<svg width="550" height="550" viewBox="0 0 550 550" fill="none" xmlns="http://www.w3.org/2000/svg">
<g clip-path="url(#clip0_69_1133)">
<path d="M88.0055 224.575C84.4982 164.401 120.023 109.99 167.503 92.2954C198 80.9301 237.222 84.5272 265.122 101.114C307.302 126.19 291.953 162.138 331.175 184.632C370.499 207.184 400.458 179.383 446.33 201.232C495.227 224.521 507.373 278.108 508.876 285.268C520.425 340.292 489.349 398.667 435.224 427.923C358.706 469.283 257.813 440.72 228.296 396.798C211.917 372.426 221.164 348.754 194.977 329.361C170.484 311.223 147.471 320.88 126.001 304.462C111.949 293.716 92.0973 273.337 88.0055 224.575Z" fill="#F5F8FC"/>
</g>
<g clip-path="url(#clip1_69_1133)">
<path d="M346.99 70.125H220.626C209.269 70.125 200.062 79.3316 200.062 90.6886V324.425C200.062 335.782 209.269 344.989 220.626 344.989H346.99C358.346 344.989 367.553 335.782 367.553 324.425V90.6886C367.553 79.3316 358.346 70.125 346.99 70.125Z" fill="#B8C2D8"/>
<path d="M343.486 74.3101H326.266C324.43 74.3101 322.689 75.1285 321.517 76.5427L319.252 79.2768C317.328 81.5986 314.416 82.9502 311.337 82.9502H258.052C255.364 82.9502 252.786 81.919 250.885 80.0834L246.699 76.0408C245.549 74.9306 244.013 74.3101 242.415 74.3101H224.129C212.929 74.3101 203.849 83.3901 203.849 94.5909V320.928C203.849 332.129 212.929 341.209 224.129 341.209H343.486C354.687 341.209 363.767 332.129 363.778 322.745V96.4085C363.767 83.3901 354.687 74.3101 343.486 74.3101Z" fill="#F9F9FF"/>
<path d="M359.025 118.918H208.87V286.269H359.025V118.918Z" fill="white"/>
<path d="M356.04 299.44L353.476 296.318C353.337 296.171 353.109 296.171 352.97 296.318L350.406 299.021C350.183 299.256 349.798 299.092 349.798 298.761V290.925C349.798 290.516 350.14 290.184 350.562 290.184H355.884C356.306 290.184 356.648 290.516 356.648 290.925V299.181C356.648 299.511 356.263 299.676 356.04 299.44Z" fill="#B8C2D8" stroke="black" stroke-width="0.29425" stroke-miterlimit="10"/>
<path d="M218.635 299.228C218.261 299.231 217.902 299.084 217.636 298.821L214.448 295.655C213.19 294.409 213.18 292.379 214.426 291.121C215.545 289.991 217.322 289.852 218.603 290.793C220.023 289.734 222.032 290.026 223.091 291.445C224.042 292.719 223.916 294.497 222.795 295.624L219.63 298.813C219.367 299.078 219.009 299.228 218.635 299.228Z" fill="#56A4FF"/>
<path d="M320.578 308.219H213.484V312.693H320.578V308.219Z" fill="#B8C2D8"/>
<path d="M260.6 316.468H213.484V320.942H260.6V316.468Z" fill="#B8C2D8"/>
<path d="M262.278 99.3451H226.067V103.819H262.278V99.3451Z" fill="#B8C2D8"/>
<path d="M358.885 99.3451H322.675V103.819H358.885V99.3451Z" fill="#B8C2D8"/>
<path d="M251.093 106.056H226.067V110.53H251.093V106.056Z" fill="#B8C2D8"/>
<path d="M215.581 110.529C218.67 110.529 221.173 108.026 221.173 104.937C221.173 101.849 218.67 99.3451 215.581 99.3451C212.493 99.3451 209.989 101.849 209.989 104.937C209.989 108.026 212.493 110.529 215.581 110.529Z" fill="#B8C2D8"/>
<path d="M311.7 80.1914C313.051 80.1914 314.146 79.096 314.146 77.7448C314.146 76.3936 313.051 75.2982 311.7 75.2982C310.349 75.2982 309.253 76.3936 309.253 77.7448C309.253 79.096 310.349 80.1914 311.7 80.1914Z" fill="black"/>
<path d="M304.5 76.4165H256.685V79.073H304.5V76.4165Z" fill="black"/>
</g>
<g clip-path="url(#clip2_69_1133)">
<path d="M323.554 163.118C323.554 163.118 327.731 157.967 323.136 152.119C323.136 152.119 326.06 150.031 325.921 148.081C325.781 146.132 321.187 146.689 321.187 146.689C321.187 146.689 318.263 129.425 298.911 138.753C298.911 138.753 302.531 131.792 298.632 132.488C294.734 133.184 291.532 140.145 291.671 142.791C291.671 142.791 281.786 140.145 280.672 142.512C279.558 144.879 283.735 146.411 283.735 146.411C283.735 146.411 275.103 148.917 278.027 158.802C278.027 158.802 273.85 167.434 285.963 165.485C298.075 163.536 323.554 163.118 323.554 163.118Z" fill="#FFCC83"/>
<path d="M266.241 282.656L261.916 283.762C253.761 285.846 245.46 280.925 243.375 272.77L231.455 226.135C229.37 217.98 234.291 209.679 242.446 207.594L246.771 206.489C254.926 204.404 263.227 209.325 265.312 217.48L277.233 264.115C279.317 272.27 274.396 280.571 266.241 282.656Z" fill="#FAD0C9"/>
<path d="M316.08 181.925C316.502 182.28 317.066 182.645 317.564 182.408C318.031 182.186 318.134 181.572 318.118 181.056C318.073 179.649 317.589 178.26 316.748 177.13C318.029 178.267 319.361 179.434 320.992 179.957C322.623 180.48 324.647 180.184 325.662 178.805C326.681 177.42 326.323 175.327 325.13 174.088C323.938 172.849 322.113 172.379 320.396 172.482C317.967 172.628 315.661 173.897 314.14 175.78C313.566 176.491 312.528 177.788 312.873 178.748C313.288 179.904 315.165 181.153 316.08 181.925Z" fill="#FFCC83"/>
<path d="M356.133 215.608L348.899 254.999L348.232 258.628L346.322 269.029V269.03L343.117 286.476H241.793L244.196 275.148V275.147L253.549 231.033L258.069 209.717L258.393 208.19L259.093 204.884L259.5 202.969L261.655 202.478L266.954 201.271L271.951 200.134L272.817 199.936L275.987 199.215C275.99 199.215 275.993 199.214 275.994 199.214L276.323 199.138H276.324L281.647 197.926H323.554C323.554 197.926 328.683 199.269 335.356 202.19C338.507 203.569 342.004 205.298 345.467 207.404C348.062 208.983 350.639 210.772 353.039 212.781C353.039 212.783 353.041 212.783 353.041 212.783C353.767 213.393 354.476 214.021 355.167 214.669C355.494 214.978 355.815 215.29 356.133 215.608Z" fill="#56A4FF"/>
<path d="M348.232 258.628L346.322 269.029V269.03L343.117 286.476H241.793L244.196 275.148V275.147L253.549 231.033L258.069 209.717L258.393 208.19L259.093 204.884L259.5 202.969L261.655 202.478L266.954 201.271L271.951 200.134L271.801 200.71L270.142 207.072L268.628 212.88L266.36 221.577V221.578L265.775 223.822L266.94 223.847L285.13 224.233L294.565 224.434L318.263 224.936C318.263 224.936 326.898 205.273 335.356 202.19C338.507 203.569 342.004 205.298 345.467 207.404C342.698 208.334 339.419 210.161 336.393 213.085C336.371 213.106 336.349 213.128 336.327 213.149L336.325 213.15C334.546 214.882 332.856 216.996 331.412 219.531L331.41 219.534C331.012 220.233 330.634 220.964 330.277 221.727C327.91 226.791 326.511 233.301 327.035 241.505C327.249 244.86 327.977 247.597 329.087 249.817C331.158 253.963 334.551 256.306 338.388 257.524H338.39C340.861 258.311 343.518 258.63 346.118 258.662C346.828 258.672 347.534 258.659 348.232 258.628Z" fill="#F9F9FF"/>
<path d="M312.258 244.75C312.355 243.883 313.142 243.255 314.013 243.314C316.793 243.501 324.389 245.036 335.806 255.149C350.425 268.097 346.387 271.857 342.071 270.743C337.755 269.629 326.478 263.642 321.744 258.63C317.602 254.244 311.85 248.43 312.258 244.75Z" fill="black"/>
<path d="M243.568 204.1C243.568 204.1 227.487 198.9 216.628 206.14C205.768 213.38 214.679 222.709 227.348 223.822C240.018 224.936 243.568 204.1 243.568 204.1Z" fill="#112E5B"/>
<path d="M323.554 197.926C323.554 197.926 314.504 208.925 292.367 209.899C270.23 210.874 274.685 199.596 274.685 199.596C281.693 197.779 285.314 193.21 287.184 188.849C289.324 183.854 289.165 179.13 289.165 179.13L297.815 175.382L314.226 168.27C311.859 183.585 323.554 197.926 323.554 197.926Z" fill="#FAD0C9"/>
<path d="M311.441 174.814C311.441 174.814 301.417 199.039 292.367 195.698C289.282 194.559 287.798 191.882 287.184 188.849C289.324 183.854 289.165 179.13 289.165 179.13L297.815 175.382L311.441 174.814Z" fill="black"/>
<path d="M325.016 162.581C323.583 160.58 321.261 159.55 318.808 159.562C316.785 149.134 309.317 143.277 300.179 144.175C290.287 145.147 282.191 153.662 283.379 165.752C284.567 177.842 286.749 187.523 296.641 186.551C302.18 186.007 308.961 182.236 313.648 176.901C316.836 176.66 320.37 175.441 322.484 173.926C326.374 171.14 327.508 166.06 325.016 162.581Z" fill="#FAD0C9"/>
<path d="M323.285 169.24C322.075 167.212 320.241 165.523 318.121 164.484L318.432 163.849C320.674 164.948 322.613 166.733 323.893 168.877L323.285 169.24Z" fill="black"/>
<path d="M321.063 169.983L320.389 169.766L321.42 166.569L322.093 166.786L321.063 169.983Z" fill="black"/>
<path d="M300.986 164.665C301.604 164.604 302.036 163.856 301.952 162.994C301.867 162.131 301.297 161.482 300.679 161.542C300.061 161.603 299.628 162.351 299.713 163.213C299.798 164.076 300.368 164.725 300.986 164.665Z" fill="black"/>
<path d="M289.32 165.433C289.938 165.372 290.37 164.624 290.286 163.762C290.201 162.9 289.631 162.25 289.013 162.311C288.395 162.372 287.962 163.12 288.047 163.982C288.132 164.844 288.702 165.494 289.32 165.433Z" fill="black"/>
<path d="M290.251 171.873L289.935 171.24C291.746 170.337 293.151 168.719 293.791 166.799C294.431 164.88 294.278 162.742 293.371 160.933L294.004 160.616C294.994 162.591 295.161 164.927 294.462 167.023C293.763 169.119 292.228 170.887 290.251 171.873ZM295.403 176.733L295.309 176.032C298.159 175.65 300.748 173.466 301.604 170.721L302.279 170.931C301.329 173.978 298.566 176.309 295.403 176.733ZM307.866 182.448L307.469 181.863C309.686 180.358 311.675 178.61 313.382 176.668L313.478 176.559L313.621 176.549C316.694 176.316 320.173 175.146 322.278 173.639C324.089 172.342 325.339 170.494 325.798 168.436C326.254 166.393 325.874 164.387 324.729 162.787C323.42 160.961 321.279 159.915 318.849 159.915C318.836 159.915 318.823 159.915 318.809 159.915L318.516 159.917L318.46 159.629C316.507 149.558 309.345 143.63 300.214 144.527L300.145 143.823C304.761 143.369 308.995 144.588 312.385 147.347C315.751 150.087 318.068 154.185 319.099 159.211C321.657 159.281 323.906 160.424 325.304 162.375C326.568 164.141 326.989 166.348 326.489 168.591C325.991 170.818 324.642 172.816 322.69 174.214C320.522 175.767 316.974 176.975 313.819 177.242C312.094 179.187 310.092 180.938 307.866 182.448ZM295.325 186.971C293.874 186.971 292.557 186.723 291.395 186.229L291.672 185.578C293.074 186.174 294.734 186.383 296.606 186.199C299.979 185.868 303.837 184.328 307.469 181.863L307.866 182.448C304.138 184.978 300.164 186.56 296.676 186.903C296.214 186.948 295.764 186.971 295.325 186.971Z" fill="black"/>
<path d="M323.515 286.476H284.504C281.868 282.253 279.389 277.501 277.034 272.377V272.376C272.455 262.406 268.345 251.035 264.472 239.458C263.588 236.819 262.717 234.17 261.856 231.525C260.086 226.088 261.356 220.276 264.892 216.109C265.943 214.87 267.196 213.776 268.628 212.88C268.792 212.777 268.959 212.677 269.129 212.58C271.664 211.118 274.431 210.423 277.162 210.423C282.123 210.423 286.962 212.717 290.069 216.872C290.45 217.382 290.804 217.918 291.129 218.482L294.566 224.434L309.108 249.622L322.417 272.672C324.939 277.041 325.183 282.102 323.515 286.476Z" fill="#FAD0C9"/>
<path d="M358.778 217.542V241.979L348.899 254.999L346.118 258.662L343.112 262.623L338.088 269.243L325.012 286.476H287.047C286.61 282.224 287.723 277.803 290.51 274.13L309.108 249.622L309.124 249.602L312.253 245.478L313.898 243.309L330.277 221.727L332.271 219.1C337.715 211.927 347.621 210.137 355.167 214.669C355.708 214.995 356.237 215.353 356.753 215.743C357.485 216.298 358.16 216.9 358.778 217.542Z" fill="#FAD0C9"/>
<path d="M253.967 210.346C271.805 207.87 285.807 202.559 285.242 198.484C284.676 194.409 269.757 193.114 251.919 195.59C234.08 198.067 220.078 203.377 220.644 207.452C221.21 211.527 236.129 212.823 253.967 210.346Z" fill="#F2F2F2"/>
<path d="M231.247 204.887C231.247 204.887 226.302 205.475 226.93 200.571C227.627 195.141 231.803 191.939 231.803 191.939C231.193 188.139 237.54 174.9 253.523 175.788C263.547 176.345 266.889 184.838 266.889 184.838C266.889 184.838 273.85 184.977 276.774 190.964C279.867 197.299 275.938 199.736 274.546 200.293C273.154 200.849 231.247 204.887 231.247 204.887Z" fill="#7C4B33"/>
<path d="M290.24 216.491C291.293 214.074 290.095 211.266 287.621 210.353C283.124 208.695 276.144 205.782 274.45 203.147C271.901 199.179 270.23 191.103 267.028 190.964C263.802 190.824 259.231 193.47 262.294 205.444C262.294 205.444 231.247 198.761 223.45 213.937C215.653 229.113 234.031 230.505 247.258 230.227C260.484 229.948 256.307 238.024 260.206 240.112C263.668 241.967 284.698 229.218 290.24 216.491Z" fill="#112E5B"/>
<path d="M358.778 216.861V248.246C353.17 258.88 347.923 266.705 346.322 269.029V269.03C346.015 269.474 345.843 269.717 345.826 269.74C345.829 269.733 345.833 269.728 345.836 269.721C345.85 269.692 345.864 269.661 345.877 269.63C345.879 269.625 345.882 269.619 345.884 269.614C345.897 269.583 345.909 269.551 345.921 269.518C345.926 269.505 345.93 269.491 345.934 269.477C345.944 269.452 345.953 269.426 345.96 269.399C345.965 269.384 345.969 269.369 345.974 269.353C345.98 269.331 345.986 269.309 345.99 269.285C345.997 269.26 346.004 269.233 346.008 269.207C346.017 269.169 346.024 269.132 346.029 269.093C346.035 269.064 346.039 269.034 346.042 269.004C346.046 268.979 346.049 268.954 346.05 268.929C346.054 268.887 346.057 268.842 346.06 268.799C346.063 268.748 346.064 268.695 346.064 268.64C346.064 267.305 345.25 265.339 343.112 262.623C342.205 261.469 341.057 260.179 339.632 258.744C339.54 258.652 339.447 258.557 339.352 258.464C339.044 258.158 338.723 257.844 338.39 257.524H338.388C337.6 256.77 336.741 255.977 335.806 255.149C333.392 253.01 331.149 251.256 329.087 249.817C321.393 244.448 316.205 243.461 314.014 243.313C313.975 243.31 313.937 243.309 313.898 243.309C313.846 243.309 313.793 243.312 313.74 243.317C313.712 243.32 313.685 243.323 313.659 243.327C313.614 243.334 313.569 243.342 313.524 243.352L313.457 243.369C313.407 243.383 313.358 243.399 313.309 243.418C313.286 243.426 313.264 243.436 313.24 243.445C313.218 243.455 313.194 243.465 313.172 243.477C313.151 243.486 313.129 243.497 313.109 243.509C313.094 243.516 313.08 243.525 313.066 243.533C313.045 243.544 313.024 243.557 313.005 243.569C312.952 243.603 312.902 243.638 312.854 243.676C312.838 243.689 312.821 243.703 312.804 243.718C312.787 243.732 312.772 243.746 312.755 243.761L321.063 232.973L331.41 219.534L331.412 219.531L336.325 213.15L336.326 213.149L336.363 213.102C336.363 213.102 336.372 213.096 336.393 213.085C336.939 212.793 344.687 208.798 353.039 212.781C353.039 212.783 353.041 212.783 353.041 212.783C354.067 213.272 355.101 213.881 356.133 214.633C357.101 215.339 357.983 216.081 358.778 216.861Z" fill="#56A4FF"/>
<path d="M290.139 149.335C290.139 149.335 287.216 154.068 294.177 155.6C301.138 157.131 308.935 156.435 308.935 156.435C308.935 156.435 306.29 166.321 311.72 164.789C317.149 163.257 315.618 157.549 321.883 159.637C321.883 159.637 315.757 143.348 304.897 143.208C294.038 143.069 290.139 149.335 290.139 149.335Z" fill="#FFCC83"/>
<path d="M291.114 149.056C291.114 149.056 285.907 155.572 283.178 156.296C280.449 157.02 290.139 144.461 298.215 144.461C306.29 144.461 291.114 149.056 291.114 149.056Z" fill="#FFCC83"/>
<path d="M317.428 263.085C317.336 263.085 317.245 263.039 317.192 262.955L308.699 249.45C308.618 249.319 308.657 249.147 308.787 249.066C308.917 248.984 309.089 249.023 309.171 249.153L317.664 262.658C317.746 262.789 317.706 262.96 317.576 263.042C317.53 263.071 317.479 263.085 317.428 263.085ZM312.694 244.011C312.634 244.011 312.574 243.992 312.523 243.952C312.402 243.858 312.38 243.683 312.474 243.561L330.017 221.006C330.111 220.884 330.287 220.863 330.408 220.957C330.529 221.052 330.551 221.227 330.457 221.348L312.914 243.903C312.859 243.974 312.777 244.011 312.694 244.011ZM242.101 192.59C242.065 192.59 242.029 192.583 241.993 192.568C238.795 191.222 235.085 191.12 231.817 192.286C231.673 192.337 231.513 192.262 231.462 192.117C231.41 191.972 231.485 191.813 231.63 191.761C235.028 190.549 238.884 190.656 242.209 192.055C242.351 192.114 242.418 192.277 242.358 192.419C242.313 192.526 242.21 192.59 242.101 192.59ZM233.939 195.736C233.81 195.736 233.694 195.645 233.667 195.513C233.636 195.362 233.733 195.215 233.884 195.184C236.321 194.687 238.813 194.551 241.289 194.779C241.442 194.793 241.555 194.929 241.541 195.082C241.527 195.235 241.39 195.347 241.238 195.334C238.816 195.11 236.379 195.244 233.995 195.73C233.976 195.734 233.958 195.736 233.939 195.736ZM245.44 184.09C245.365 184.09 245.291 184.06 245.236 184.002C244.245 182.936 242.907 182.23 241.468 182.012C241.316 181.989 241.212 181.847 241.235 181.695C241.258 181.543 241.402 181.439 241.552 181.462C243.114 181.698 244.567 182.465 245.643 183.622C245.748 183.735 245.742 183.911 245.629 184.016C245.576 184.066 245.508 184.09 245.44 184.09ZM247.093 181.618C247.038 181.618 246.982 181.602 246.933 181.567C245.947 180.868 244.871 180.305 243.736 179.892C243.592 179.84 243.517 179.68 243.57 179.535C243.622 179.391 243.783 179.316 243.927 179.369C245.109 179.799 246.228 180.385 247.255 181.113C247.38 181.202 247.41 181.376 247.321 181.501C247.267 181.578 247.181 181.618 247.093 181.618ZM253.934 183.906C253.84 183.906 253.749 183.858 253.696 183.772C251.992 180.974 249.047 178.965 245.82 178.4C245.668 178.373 245.567 178.229 245.593 178.077C245.62 177.926 245.765 177.825 245.916 177.851C249.299 178.444 252.385 180.549 254.172 183.483C254.252 183.614 254.21 183.785 254.079 183.865C254.034 183.893 253.984 183.906 253.934 183.906ZM261.734 185.699C261.625 185.699 261.521 185.635 261.477 185.528C261.417 185.387 261.484 185.223 261.626 185.164C263.3 184.461 265.14 184.178 266.948 184.347C267.101 184.361 267.214 184.497 267.2 184.65C267.185 184.803 267.052 184.915 266.897 184.901C265.18 184.742 263.432 185.01 261.841 185.677C261.806 185.692 261.769 185.699 261.734 185.699ZM272.504 192.933C272.388 192.933 272.279 192.859 272.24 192.743C271.599 190.824 270.13 189.152 268.31 188.27C268.172 188.203 268.114 188.036 268.181 187.898C268.248 187.76 268.415 187.702 268.553 187.769C270.535 188.729 272.071 190.478 272.768 192.566C272.817 192.712 272.738 192.87 272.592 192.919C272.563 192.928 272.533 192.933 272.504 192.933ZM249.868 174.115C249.445 174.115 249.021 174.079 248.602 173.992C247.307 173.721 245.876 172.776 245.602 171.276C245.35 169.903 246.108 168.45 247.855 166.959L248.112 166.74C249.25 165.776 250.427 164.778 250.655 163.404C250.879 162.047 250.135 160.583 248.443 159.052C248.239 158.867 248.029 158.684 247.819 158.5C246.642 157.471 245.426 156.407 244.913 154.904C244.045 152.361 245.505 149.763 246.943 147.528C247.026 147.398 247.198 147.361 247.328 147.444C247.457 147.527 247.494 147.7 247.411 147.829C246.044 149.955 244.652 152.416 245.44 154.724C245.905 156.086 247.064 157.1 248.185 158.081C248.398 158.267 248.61 158.452 248.817 158.639C250.659 160.306 251.462 161.939 251.204 163.495C250.943 165.071 249.63 166.184 248.473 167.165L248.217 167.382C246.632 168.736 245.936 170.012 246.149 171.175C246.378 172.421 247.603 173.214 248.716 173.447C249.975 173.71 251.338 173.45 252.54 173.221C252.692 173.192 252.837 173.291 252.865 173.442C252.894 173.593 252.795 173.739 252.644 173.768C251.775 173.934 250.825 174.115 249.868 174.115Z" fill="black"/>
<path d="M252.064 166.891C251.984 166.891 251.905 166.857 251.85 166.79C251.752 166.672 251.768 166.496 251.887 166.398C253.892 164.736 254.29 161.442 252.739 159.349C252.334 158.804 251.834 158.348 251.305 157.866C250.731 157.344 250.138 156.804 249.685 156.144C248.516 154.44 248.483 152.038 249.606 150.303C249.689 150.174 249.862 150.137 249.991 150.22C250.12 150.304 250.157 150.476 250.074 150.605C249.07 152.157 249.099 154.305 250.144 155.829C250.561 156.436 251.104 156.931 251.679 157.454C252.205 157.933 252.749 158.428 253.186 159.017C254.905 161.336 254.464 164.985 252.242 166.827C252.19 166.87 252.127 166.891 252.064 166.891Z" fill="black"/>
<path d="M243.191 125.664H216.872C215.085 125.664 213.637 127.112 213.637 128.898V132.871C213.637 134.657 215.085 136.106 216.872 136.106H243.191C244.977 136.106 246.426 134.657 246.426 132.871V128.898C246.426 127.112 244.977 125.664 243.191 125.664Z" fill="#56A4FF"/>
<path d="M223.728 128.076H225.396V131.847H227.405V133.153H223.728V128.076ZM228.13 128.076H229.798V133.153H228.13V128.076ZM230.378 128.076H232.09L232.989 131.775H233.127L234.033 128.076H235.723L234.374 133.153H231.727L230.378 128.076ZM236.303 128.076H240.604V129.381H237.942V129.961H240.604V131.267H237.942V131.847H240.604V133.153H236.303V128.076Z" fill="white"/>
<path d="M219.482 132.209C220.212 132.209 220.805 131.617 220.805 130.887C220.805 130.156 220.212 129.564 219.482 129.564C218.752 129.564 218.159 130.156 218.159 130.887C218.159 131.617 218.752 132.209 219.482 132.209Z" fill="white"/>
<path d="M245.169 270.047C245.15 270.047 245.13 270.045 245.11 270.04C244.96 270.008 244.864 269.86 244.897 269.709L253.251 231.004C253.283 230.853 253.43 230.757 253.582 230.79C253.732 230.822 253.827 230.971 253.795 231.121L245.441 269.827C245.413 269.957 245.298 270.047 245.169 270.047ZM278.068 204.775L277.796 204.122C282.526 202.16 285.112 200.122 284.891 198.532C284.711 197.237 282.65 196.15 279.086 195.472L279.219 194.777C283.216 195.538 285.36 196.769 285.592 198.435C285.941 200.95 281.693 203.271 278.068 204.775Z" fill="black"/>
</g>
<g clip-path="url(#clip3_69_1133)">
<path d="M199.851 148.538L141.922 148.541C137.804 148.542 134.466 151.88 134.467 155.997L134.467 171.285C134.468 175.403 137.806 178.74 141.923 178.74L181.558 178.738L204.093 186.426L201.572 178.535C204.86 177.758 207.308 174.806 207.308 171.281L207.307 155.993C207.307 151.875 203.969 148.538 199.851 148.538Z" fill="#56A4FF"/>
<path d="M204.365 186.703L181.529 178.912L141.923 178.915C137.716 178.915 134.293 175.492 134.293 171.285L134.292 155.997C134.291 151.79 137.714 148.367 141.921 148.367L199.851 148.363C204.058 148.363 207.481 151.785 207.482 155.993L207.483 171.281C207.483 174.772 205.154 177.78 201.795 178.659L204.365 186.703ZM141.921 148.716C137.907 148.716 134.641 151.983 134.641 155.997L134.642 171.285C134.642 175.3 137.909 178.566 141.923 178.565L181.587 178.563L181.615 178.572L203.821 186.148L201.348 178.408L201.532 178.365C204.83 177.586 207.133 174.673 207.133 171.281L207.132 155.993C207.132 151.978 203.866 148.712 199.851 148.713L141.921 148.716Z" fill="black"/>
<path d="M151.929 170.509C151.286 170.51 150.668 170.256 150.213 169.801L144.744 164.331C142.586 162.178 142.582 158.682 144.735 156.524C146.668 154.586 149.729 154.358 151.928 155.986C154.379 154.172 157.836 154.687 159.651 157.137C161.28 159.336 161.051 162.397 159.114 164.33L153.646 169.8C153.191 170.255 152.573 170.51 151.929 170.509ZM167.102 162.508L167.102 159.226C168.44 159.035 169.714 158.493 170.638 157.267L173.41 157.267L173.41 168.417L169.014 168.417L169.013 162.062C168.36 162.332 167.691 162.476 167.102 162.508ZM178.651 165.183C179.671 165.183 180.276 164.944 180.276 164.259C180.276 163.542 179.591 163.16 178.603 163.16C177.759 163.16 176.915 163.319 176.309 163.75L175.608 163.399L176.58 157.266L183.987 157.266L183.987 160.42L179.192 160.42L179.033 161.312C179.431 161.249 179.861 161.217 180.307 161.217C182.761 161.216 184.545 162.507 184.545 164.753C184.545 167.031 182.665 168.703 179.336 168.703C177.536 168.704 175.417 168.162 174.302 166.952L175.991 164.275C176.58 164.785 177.759 165.183 178.651 165.183ZM190.088 156.947C192.748 156.947 194.692 158.237 194.692 160.658C194.692 162.315 193.784 163.446 191.665 165.135L194.915 165.134L194.915 168.4L185.039 168.401L185.039 167.923L188.129 164.705C189.865 162.905 190.455 162.22 190.455 161.598C190.455 160.977 190.009 160.563 189.324 160.563C188.607 160.563 188.097 161.041 187.97 161.853L184.736 160.882C185.054 158.524 186.95 156.947 190.088 156.947Z" fill="white"/>
<path d="M424.249 112.01H374.987C370.87 112.01 367.532 115.348 367.532 119.465V134.753C367.532 138.871 370.87 142.208 374.987 142.208H424.249C428.367 142.208 431.704 138.871 431.704 134.753V119.465C431.704 115.348 428.367 112.01 424.249 112.01Z" fill="#56A4FF"/>
<path d="M424.25 142.382L374.988 142.385C370.781 142.385 367.358 138.962 367.358 134.755L367.357 119.467C367.356 115.26 370.779 111.837 374.986 111.836L424.248 111.833C428.455 111.833 431.878 115.256 431.878 119.463L431.879 134.751C431.88 138.958 428.457 142.381 424.25 142.382ZM374.986 112.186C370.972 112.186 367.706 115.452 367.706 119.467L367.707 134.755C367.707 138.769 370.974 142.035 374.988 142.035L424.25 142.032C428.264 142.032 431.53 138.765 431.53 134.751L431.529 119.463C431.529 115.449 428.262 112.183 424.248 112.183L374.986 112.186Z" fill="black"/>
<path d="M404.266 120.955C406.926 120.955 408.87 122.246 408.87 124.667C408.87 126.323 407.962 127.455 405.843 129.143L409.093 129.143L409.093 132.409L399.217 132.409L399.217 131.931L402.307 128.713C404.043 126.913 404.633 126.228 404.633 125.607C404.633 124.986 404.186 124.572 403.501 124.572C402.785 124.572 402.275 125.05 402.148 125.862L398.914 124.89C399.232 122.533 401.128 120.956 404.266 120.955ZM415.337 120.955C418.603 120.955 420.817 123.36 420.817 126.801C420.817 130.289 418.603 132.711 415.338 132.711C412.072 132.711 409.874 130.29 409.874 126.801C409.873 123.376 412.071 120.955 415.337 120.955ZM415.354 128.744C416.261 128.744 416.723 127.996 416.723 126.801C416.723 125.59 416.261 124.858 415.353 124.858C414.445 124.858 413.983 125.606 413.983 126.801C413.983 128.012 414.445 128.744 415.354 128.744ZM393.001 123.844C392.557 123.311 391.898 123.003 391.204 123.004L387.646 123.004L388.024 121.992C388.289 121.323 388.332 120.587 388.149 119.891C387.758 118.503 386.492 117.544 385.05 117.542C384.741 117.542 384.461 117.724 384.335 118.006L382.114 123.006L382.114 133.147L390.211 133.146C391.342 133.147 392.312 132.337 392.514 131.224L393.507 125.762C393.632 125.08 393.446 124.377 393.001 123.844Z" fill="white"/>
<path d="M382.115 123.004L380.281 123.004C378.989 123.006 377.942 124.053 377.941 125.345L377.941 130.807C377.942 132.099 378.99 133.146 380.282 133.147L382.115 133.147L382.115 123.006V123.004Z" fill="#112E5B"/>
<path d="M329.097 328.889C329.044 328.889 328.994 328.858 328.972 328.806L327.245 324.719C327.216 324.65 327.249 324.57 327.317 324.541C327.386 324.512 327.465 324.544 327.495 324.613L329.221 328.701C329.25 328.77 329.218 328.849 329.149 328.878C329.132 328.886 329.114 328.889 329.097 328.889ZM342.31 329.004C342.293 329.004 342.276 329.001 342.259 328.994C342.19 328.966 342.157 328.887 342.185 328.818L343.854 324.706C343.883 324.637 343.962 324.604 344.031 324.632C344.1 324.66 344.133 324.739 344.105 324.808L342.436 328.919C342.414 328.972 342.364 329.004 342.31 329.004ZM351.572 338.429C351.52 338.429 351.47 338.398 351.448 338.346C351.419 338.277 351.451 338.198 351.52 338.169L355.607 336.442C355.676 336.413 355.755 336.445 355.785 336.514C355.814 336.583 355.782 336.662 355.713 336.691L351.625 338.418C351.608 338.425 351.59 338.429 351.572 338.429ZM355.569 353.311C355.552 353.311 355.535 353.308 355.518 353.302L351.407 351.632C351.337 351.604 351.304 351.525 351.332 351.456C351.36 351.386 351.44 351.353 351.508 351.381L355.62 353.051C355.689 353.079 355.722 353.158 355.694 353.227C355.673 353.28 355.622 353.311 355.569 353.311ZM343.76 364.992C343.707 364.992 343.657 364.961 343.635 364.909L341.908 360.821C341.879 360.753 341.911 360.673 341.98 360.644C342.049 360.615 342.128 360.647 342.158 360.716L343.884 364.804C343.913 364.873 343.881 364.952 343.812 364.981C343.795 364.988 343.777 364.992 343.76 364.992ZM327.15 364.901C327.133 364.901 327.116 364.897 327.099 364.891C327.03 364.862 326.997 364.784 327.025 364.714L327.694 363.065C327.722 362.996 327.802 362.963 327.87 362.991C327.94 363.019 327.973 363.098 327.945 363.167L327.275 364.816C327.254 364.869 327.203 364.901 327.15 364.901Z" fill="black"/>
<path d="M327.82 363.251C327.803 363.251 327.785 363.248 327.769 363.241C327.7 363.213 327.666 363.134 327.694 363.065L328.694 360.603C328.722 360.534 328.802 360.501 328.87 360.529C328.94 360.557 328.973 360.636 328.945 360.705L327.945 363.167C327.924 363.219 327.873 363.251 327.82 363.251ZM315.47 353.091C315.417 353.091 315.367 353.06 315.345 353.009C315.316 352.94 315.348 352.86 315.417 352.831L317.461 351.968C317.529 351.939 317.609 351.971 317.638 352.04C317.667 352.109 317.635 352.188 317.566 352.217L315.523 353.081C315.505 353.088 315.487 353.091 315.47 353.091Z" fill="black"/>
<path d="M317.514 352.228C317.461 352.228 317.411 352.197 317.389 352.145C317.36 352.076 317.392 351.997 317.461 351.968L319.505 351.105C319.573 351.076 319.653 351.108 319.682 351.177C319.711 351.245 319.679 351.325 319.61 351.354L317.566 352.217C317.549 352.224 317.531 352.228 317.514 352.228ZM319.672 338.151C319.655 338.151 319.638 338.148 319.621 338.141L316.389 336.829C316.32 336.8 316.286 336.722 316.314 336.652C316.343 336.583 316.422 336.55 316.491 336.578L319.723 337.89C319.792 337.919 319.826 337.997 319.798 338.067C319.776 338.119 319.726 338.151 319.672 338.151ZM335.596 327.632C335.522 327.632 335.461 327.572 335.46 327.498L335.435 325.693C335.434 325.619 335.494 325.557 335.569 325.556H335.571C335.644 325.556 335.705 325.616 335.706 325.69L335.731 327.495C335.732 327.569 335.672 327.631 335.598 327.632H335.596ZM347.795 332.71C347.761 332.71 347.727 332.697 347.7 332.672C347.647 332.62 347.646 332.534 347.698 332.481L350.327 329.777C350.379 329.724 350.465 329.723 350.518 329.775C350.572 329.827 350.573 329.913 350.521 329.966L347.892 332.669C347.865 332.696 347.83 332.71 347.795 332.71ZM352.83 344.927C352.756 344.927 352.696 344.868 352.694 344.794C352.694 344.719 352.753 344.658 352.828 344.657L355.046 344.626H355.048C355.122 344.626 355.182 344.685 355.184 344.759C355.185 344.834 355.125 344.895 355.05 344.896L352.832 344.927H352.83ZM349.039 358.379C349.005 358.379 348.971 358.366 348.945 358.341L347.657 357.088C347.603 357.036 347.602 356.95 347.654 356.897C347.706 356.843 347.792 356.842 347.846 356.894L349.134 358.147C349.187 358.199 349.188 358.284 349.136 358.338C349.11 358.365 349.074 358.379 349.039 358.379ZM335.578 365.324C335.504 365.324 335.444 365.265 335.443 365.191L335.399 362.028C335.398 361.953 335.458 361.892 335.532 361.891H335.534C335.608 361.891 335.668 361.95 335.669 362.024L335.713 365.187C335.714 365.262 335.655 365.323 335.58 365.324H335.578ZM322.385 358.059C322.351 358.059 322.317 358.047 322.291 358.021C322.237 357.969 322.236 357.883 322.288 357.83L323.238 356.853C323.29 356.8 323.376 356.799 323.429 356.851C323.483 356.903 323.484 356.988 323.432 357.042L322.482 358.018C322.456 358.046 322.421 358.059 322.385 358.059ZM315.624 344.903C315.55 344.903 315.489 344.844 315.488 344.769C315.487 344.695 315.547 344.633 315.622 344.632L318.298 344.595H318.3C318.374 344.595 318.434 344.654 318.435 344.729C318.436 344.803 318.377 344.865 318.302 344.866L315.626 344.903H315.624ZM323.379 332.667C323.345 332.667 323.311 332.654 323.284 332.628L321.533 330.926C321.48 330.873 321.479 330.788 321.531 330.734C321.583 330.681 321.668 330.68 321.722 330.732L323.473 332.434C323.526 332.487 323.528 332.572 323.475 332.626C323.449 332.653 323.414 332.667 323.379 332.667ZM329.097 328.889C329.044 328.889 328.994 328.858 328.972 328.806L327.245 324.719C327.216 324.65 327.249 324.57 327.317 324.541C327.386 324.512 327.466 324.544 327.495 324.613L329.221 328.701C329.251 328.77 329.218 328.849 329.15 328.878C329.132 328.886 329.114 328.889 329.097 328.889ZM342.31 329.004C342.293 329.004 342.276 329.001 342.259 328.994C342.19 328.966 342.157 328.887 342.185 328.818L343.854 324.706C343.883 324.637 343.962 324.604 344.031 324.632C344.1 324.66 344.133 324.739 344.105 324.808L342.436 328.919C342.414 328.972 342.364 329.004 342.31 329.004ZM351.572 338.429C351.52 338.429 351.47 338.398 351.448 338.346C351.419 338.277 351.451 338.198 351.52 338.169L355.607 336.442C355.676 336.413 355.756 336.445 355.785 336.514C355.814 336.583 355.782 336.662 355.713 336.691L351.625 338.418C351.608 338.425 351.59 338.429 351.572 338.429ZM355.569 353.311C355.552 353.311 355.535 353.308 355.518 353.302L351.407 351.632C351.337 351.604 351.304 351.525 351.332 351.456C351.36 351.386 351.44 351.353 351.508 351.381L355.62 353.051C355.689 353.079 355.722 353.158 355.694 353.227C355.673 353.28 355.622 353.311 355.569 353.311ZM343.76 364.992C343.707 364.992 343.657 364.961 343.635 364.909L341.908 360.821C341.879 360.753 341.911 360.673 341.98 360.644C342.049 360.615 342.128 360.647 342.158 360.716L343.884 364.804C343.913 364.873 343.881 364.952 343.812 364.981C343.795 364.988 343.777 364.992 343.76 364.992ZM327.15 364.901C327.133 364.901 327.116 364.897 327.099 364.891C327.03 364.862 326.997 364.784 327.025 364.714L328.694 360.603C328.722 360.534 328.802 360.501 328.87 360.528C328.94 360.557 328.973 360.636 328.945 360.705L327.275 364.816C327.254 364.869 327.203 364.901 327.15 364.901Z" fill="black"/>
<path d="M315.47 353.091C315.417 353.091 315.367 353.06 315.345 353.009C315.316 352.94 315.348 352.86 315.417 352.831L319.505 351.105C319.573 351.076 319.653 351.108 319.682 351.177C319.711 351.245 319.679 351.325 319.61 351.354L315.523 353.081C315.505 353.088 315.487 353.091 315.47 353.091ZM319.672 338.151C319.656 338.151 319.638 338.148 319.622 338.141L315.51 336.472C315.441 336.444 315.407 336.365 315.436 336.295C315.464 336.226 315.543 336.193 315.612 336.221L319.723 337.89C319.793 337.919 319.826 337.997 319.798 338.067C319.776 338.119 319.726 338.151 319.672 338.151Z" fill="black"/>
<path d="M339.339 353.697C338.603 354.01 337.773 354.017 337.032 353.717L328.123 350.098C324.61 348.676 322.915 344.675 324.337 341.162C325.614 338.008 329.008 336.266 332.315 337.067C334.243 333.804 338.451 332.722 341.714 334.65C344.643 336.381 345.862 339.996 344.579 343.147L340.962 352.055C340.661 352.797 340.077 353.387 339.339 353.697Z" fill="#56A4FF"/>
<path d="M480.713 177.932C473.029 182.266 470.313 192.008 474.647 199.691C478.98 207.375 488.722 210.091 496.406 205.757C504.09 201.424 506.805 191.682 502.472 183.998C498.138 176.315 488.397 173.599 480.713 177.932ZM495.694 191.489C497.423 194.562 496.338 198.456 493.267 200.192C490.193 201.922 486.299 200.836 484.564 197.766C484.13 196.998 484.401 196.024 485.169 195.591L485.17 195.59L493.518 190.882C494.285 190.448 495.259 190.719 495.693 191.487L495.694 191.489Z" fill="#FFCC83"/>
<path d="M491.164 188.305C492.046 188.305 492.761 187.59 492.761 186.708C492.761 185.826 492.046 185.111 491.164 185.111C490.282 185.111 489.567 185.826 489.567 186.708C489.567 187.59 490.282 188.305 491.164 188.305Z" fill="#112E5B"/>
<path d="M482.816 193.013C483.698 193.013 484.414 192.298 484.414 191.416C484.414 190.534 483.698 189.819 482.816 189.819C481.934 189.819 481.219 190.534 481.219 191.416C481.219 192.298 481.934 193.013 482.816 193.013Z" fill="#112E5B"/>
<path d="M493.267 200.192C490.193 201.922 486.299 200.836 484.564 197.766C484.13 196.998 484.401 196.024 485.169 195.591L485.17 195.59L493.518 190.882C494.285 190.448 495.259 190.719 495.693 191.487L495.694 191.489C497.423 194.562 496.338 198.456 493.267 200.192Z" fill="#112E5B"/>
</g>
<g clip-path="url(#clip4_69_1133)">
<path d="M392.288 293H471.427C471.427 293 477.491 294.97 477.946 325.731C478.075 334.431 481.051 355.254 482.039 366.493C484.545 394.988 488.71 425.287 488.71 425.287H453.386L436.709 367.099L430.19 316.487L434.131 367.402L440.499 429.378H406.084L396.684 367.856L392.288 293Z" fill="#B8C2D8"/>
<path d="M448.383 214.053C448.383 217.777 444.629 222.387 436.633 222.387C428.637 222.387 424.428 217.777 424.428 214.053C424.428 210.328 429.016 210.416 437.012 210.416C445.008 210.416 448.383 210.328 448.383 214.053Z" fill="black"/>
<path d="M472.356 227.998C470.852 241.225 469.293 254.921 467.788 268.149C468.953 275.133 470.261 286.015 471.427 293H392.288C396.921 270.372 401.61 247.464 406.245 224.835C406.696 222.623 408.476 220.929 410.684 220.571L431.099 217.235L448.989 219.053L467.814 222.031C468.076 222.072 468.333 222.132 468.578 222.209C471.054 222.957 472.663 225.459 472.356 227.998Z" fill="#FFBC97"/>
<path d="M471.976 231.342L471.493 235.58L404.21 234.77L405.077 230.536L471.976 231.342Z" fill="#F2F2F2"/>
<path d="M472.317 226.498L406.067 225.699L406.245 224.835C406.528 223.449 407.332 222.264 408.443 221.484L468.578 222.209C470.551 222.819 471.988 224.499 472.317 226.498Z" fill="#8E8E8D"/>
<path d="M469.909 249.503L469.427 253.74L400.496 252.91L401.363 248.676L469.909 249.503Z" fill="#F2F2F2"/>
<path d="M470.943 240.422L470.461 244.66L402.354 243.839L403.22 239.605L470.943 240.422Z" fill="#F2F2F2"/>
<path d="M468.416 271.913L396.783 271.049L397.648 266.815L467.843 267.663L467.788 268.149L468.416 271.913Z" fill="#F2F2F2"/>
<path d="M468.877 258.583L468.395 262.82L398.64 261.979L399.506 257.746L468.877 258.583Z" fill="#F2F2F2"/>
<path d="M471.427 289.97L393.068 289.189L393.934 284.957L470.744 285.883L471.427 289.97Z" fill="#F2F2F2"/>
<path d="M469.935 281.023L394.926 280.119L395.791 275.886L469.226 276.771L469.935 281.023Z" fill="#F2F2F2"/>
<path d="M429.432 226.478C429.432 226.478 418.763 266.6 420.69 295.461C420.913 298.802 418.665 301.795 415.392 302.509C406.125 304.53 398.279 304.612 392.152 302.348C390.457 301.722 389.487 299.936 389.861 298.169L404.85 227.311C405.596 223.782 408.403 221.055 411.952 220.407L425.187 217.992L429.432 226.478ZM438.073 226.478L433.048 297.083C432.885 299.372 434.474 301.627 436.766 301.774C453.537 302.85 441.105 296.788 463.392 287.697C465.759 286.731 474.122 296.841 473.856 294.299L470.972 266.785L473.28 227.029C473.432 224.405 471.547 222.103 468.943 221.733L448.989 218.902L438.073 226.478Z" fill="#112E5B"/>
<path d="M445.957 186.625C445.957 186.625 444.592 181.97 438.831 182.383C433.07 182.795 435.344 188.774 435.344 188.774C435.344 188.774 442.318 190.747 445.957 186.625Z" fill="#141414"/>
<path d="M442.925 188.225C442.925 188.225 437.467 179.18 430.645 181.928C423.822 184.676 426.248 192.759 423.671 193.858C421.093 194.957 420.184 193.583 420.184 193.583C420.184 193.583 421.851 199.766 430.796 197.293C439.741 194.82 442.925 188.225 442.925 188.225Z" fill="#141414"/>
<path d="M430.618 226.551C440.776 228.673 448.963 219.126 448.963 219.126C445.476 216.853 443.353 203.367 443.353 203.367L441.296 203.282L430.163 204.579V204.605C430.283 209.13 429.563 212.221 428.661 214.297C428.622 214.39 428.579 214.48 428.537 214.568C427.169 217.419 424.554 218.369 424.554 218.369C424.554 218.369 420.283 224.394 430.618 226.551ZM342.712 230.266C342.712 230.266 344.076 234.055 353.173 232.994C362.269 231.933 370.608 223.144 367.121 217.992C363.634 212.84 350.596 203.142 346.654 204.506C342.712 205.87 342.712 230.266 342.712 230.266Z" fill="#7C4B33"/>
<path d="M451.415 191.323C451.415 191.323 450.505 198.899 448.079 200.869C445.654 202.839 442.925 192.232 442.925 192.232L451.415 191.323Z" fill="#683B2A"/>
<path d="M428.537 214.568C436.604 215.174 441.382 204.428 441.382 204.428C441.413 203.978 441.381 203.599 441.296 203.282L430.163 204.605C430.283 209.13 429.563 212.221 428.661 214.297C428.622 214.39 428.579 214.48 428.537 214.568Z" fill="black"/>
<path d="M449.194 198.433C448.401 197.327 447.117 196.758 445.761 196.764C444.642 191.001 440.513 187.765 435.46 188.261C429.991 188.798 425.514 193.503 426.171 200.185C426.828 206.866 428.035 212.217 433.504 211.679C436.567 211.379 440.316 209.295 442.908 206.347C444.67 206.213 446.625 205.539 447.793 204.703C449.945 203.163 450.572 200.355 449.194 198.433Z" fill="#7C4B33"/>
<path d="M448.237 202.112C447.568 200.992 446.553 200.059 445.381 199.484L445.553 199.133C446.793 199.74 447.865 200.727 448.573 201.912L448.237 202.112Z" fill="black"/>
<path d="M447.391 200.697L446.822 202.463L447.391 200.697Z" fill="white"/>
<path d="M447.008 202.523L446.635 202.403L447.205 200.637L447.577 200.756L447.008 202.523Z" fill="black"/>
<path d="M435.907 199.584C436.248 199.551 436.487 199.137 436.441 198.661C436.394 198.184 436.079 197.825 435.737 197.859C435.395 197.892 435.156 198.306 435.203 198.782C435.25 199.259 435.565 199.618 435.907 199.584Z" fill="black"/>
<path d="M429.456 200.009C429.798 199.975 430.037 199.561 429.99 199.085C429.943 198.608 429.628 198.249 429.286 198.283C428.945 198.317 428.706 198.73 428.752 199.207C428.799 199.683 429.114 200.042 429.456 200.009Z" fill="black"/>
<path d="M429.971 203.568L429.796 203.218C430.797 202.719 431.575 201.825 431.928 200.764C432.282 199.703 432.198 198.521 431.696 197.522L432.046 197.347C432.593 198.438 432.686 199.729 432.299 200.887C431.913 202.046 431.064 203.023 429.971 203.568ZM432.82 206.254L432.768 205.866C434.344 205.655 435.775 204.448 436.248 202.931L436.622 203.047C436.096 204.731 434.568 206.019 432.82 206.254Z" fill="black"/>
<path d="M432.777 211.912C431.974 211.912 431.246 211.774 430.603 211.501L430.756 211.142C431.532 211.471 432.45 211.587 433.485 211.485C436.526 211.186 440.254 209.069 442.761 206.218L442.814 206.158L442.893 206.152C444.592 206.023 446.516 205.377 447.68 204.544C449.74 203.069 450.348 200.379 449.035 198.546C448.311 197.537 447.127 196.959 445.784 196.959C445.776 196.959 445.769 196.959 445.762 196.959L445.6 196.96L445.569 196.801C444.489 191.235 440.53 187.961 435.48 188.455L435.441 188.066C440.657 187.554 444.757 190.887 445.922 196.57C447.336 196.609 448.58 197.24 449.353 198.319C450.791 200.326 450.143 203.261 447.907 204.861C446.709 205.72 444.747 206.388 443.002 206.535C440.397 209.471 436.684 211.564 433.523 211.874C433.268 211.899 433.019 211.912 432.777 211.912Z" fill="black"/>
<path d="M441.105 193.747C441.105 193.747 443.531 196.93 442.925 199.354H443.834C443.834 199.354 444.592 196.475 447.473 196.475C450.354 196.475 446.867 191.323 446.867 191.323L441.105 193.747Z" fill="#683B2A"/>
<path d="M451.111 192.039C451.111 192.039 447.836 192.358 446.108 192.99C443.834 193.821 440.454 195.379 439.892 193.444C439.134 190.834 437.922 190.973 434.131 190.835C434.131 190.835 438.073 185.205 443.834 184.656C449.595 184.106 451.869 186.576 451.869 189.324C451.869 192.072 451.111 192.039 451.111 192.039Z" fill="#141414"/>
<path d="M438.073 187.989C438.073 187.989 435.193 192.072 431.251 192.896C427.309 193.72 426.248 197.839 426.248 197.839C424.697 198.209 422.945 187.145 438.073 187.989Z" fill="#141414"/>
<path d="M449.899 219.205C449.512 219.999 449.021 220.709 448.46 221.347C448.36 221.464 448.255 221.578 448.148 221.688C447.209 222.672 446.106 223.466 444.987 224.102C444.879 224.164 444.77 224.225 444.662 224.282C443.336 225.002 442.005 225.507 440.911 225.848C440.799 225.883 440.689 225.916 440.581 225.949C439.271 226.337 438.377 226.478 438.377 226.478C436.512 223.449 437.335 218.988 437.816 217.086C437.951 216.55 438.39 216.147 438.935 216.044C439.23 215.988 439.52 215.922 439.803 215.848C439.915 215.818 440.026 215.788 440.135 215.756C441.559 215.342 442.825 214.718 443.877 214.074C443.986 214.006 444.095 213.939 444.2 213.871C446.06 212.675 447.17 211.477 447.17 211.477C447.235 211.467 447.3 211.466 447.362 211.472C447.484 211.483 447.599 211.522 447.71 211.587C449.397 212.561 449.899 219.205 449.899 219.205ZM430.302 217.741C428.665 225.328 429.432 226.478 429.432 226.478C429.432 226.478 427.858 226.216 426.236 225.266L425.92 225.072C425.046 224.511 424.185 223.74 423.577 222.694L423.575 222.69C423.48 222.525 423.389 222.353 423.307 222.173V222.172C422.863 221.202 422.631 220.026 422.761 218.598C423.037 215.566 423.795 213.765 424.562 212.699V212.698C424.699 212.51 424.833 212.345 424.968 212.199C425.807 211.287 426.551 211.173 426.551 211.173C425.541 212.316 426.265 213.31 427.38 214.062C427.482 214.131 427.587 214.198 427.694 214.262C428.067 214.486 428.469 214.686 428.854 214.857C429.959 215.348 430.557 216.559 430.302 217.741Z" fill="#FFCC83"/>
<path d="M359.995 228.445C359.995 228.445 357.418 225.186 361.057 211.173C361.057 211.173 357.583 200.363 361.815 199.077C364.392 198.293 365.302 199.824 365.605 203.748C365.908 207.673 366.969 208.9 370.305 214.507C372.044 217.431 370.153 231.357 370.153 231.357C370.153 231.357 360.753 234.775 359.995 228.445Z" fill="#7C4B33"/>
<path d="M362.558 221.017L353.455 187.846C353.427 187.745 353.392 187.65 353.352 187.559L354.31 187.161L352.167 186.562L352.165 186.563C351.956 186.53 351.74 186.548 351.527 186.626L336.565 192.146C335.766 192.441 335.334 193.465 335.6 194.433L344.704 227.604C344.918 228.385 345.521 228.891 346.166 228.903L347.59 228.891L347.549 228.485L361.594 223.303C362.392 223.009 362.824 221.985 362.558 221.017Z" fill="#8EA0C1"/>
<path d="M363.261 223.36L348.295 228.844C347.496 229.136 346.634 228.597 346.369 227.639L337.3 194.813C337.035 193.855 337.468 192.841 338.267 192.548L353.234 187.064C354.032 186.772 354.895 187.311 355.159 188.269L364.228 221.095C364.493 222.053 364.06 223.067 363.261 223.36Z" fill="#B8C2D8"/>
<path d="M361.968 222.551L348.945 227.322C348.146 227.615 347.284 227.075 347.019 226.117L338.594 195.622C338.329 194.664 338.762 193.65 339.561 193.358L352.584 188.586C353.383 188.293 354.245 188.833 354.51 189.791L362.935 220.286C363.2 221.244 362.767 222.258 361.968 222.551Z" fill="#141414"/>
<path d="M341.524 192.234L342.769 193.019C342.943 193.128 343.162 193.15 343.361 193.078L349.943 190.695C350.204 190.6 350.384 190.361 350.396 190.092L350.45 188.916L341.524 192.234Z" fill="#B8C2D8"/>
<path d="M338.171 213.05C338.171 213.05 331.432 202.79 336.426 201.393C341.42 199.997 340.492 211.519 340.492 211.519L338.171 213.05Z" fill="#7C4B33"/>
<path d="M335.82 216.052C335.82 216.052 333.476 210.801 337.431 209.195C340.39 207.992 344.905 211.326 346.99 213.081C348.035 213.961 348.776 215.162 349.02 216.506C349.35 218.324 348.836 220.484 344.472 220.379C336.99 220.201 335.82 216.052 335.82 216.052Z" fill="#7C4B33"/>
<path d="M342.41 226.959C340.207 227.327 338.069 226.024 337.404 223.892C336.618 221.372 335.993 218.124 337.613 217.246C340.361 215.758 348.338 217.868 348.256 221.683C348.195 224.509 345.784 226.396 342.41 226.959Z" fill="#7C4B33"/>
<path d="M461.378 312.3C455.343 309.678 451.454 305.578 448.722 300.682C447.999 299.386 448.179 297.775 449.182 296.681L456.281 288.937L472.396 303.695L465.27 311.469C464.282 312.546 462.718 312.883 461.378 312.3Z" fill="#FFCC83"/>
<path d="M502.093 273.695L501.718 274.008C498.262 276.483 490.833 276.786 485.191 272.527C473.033 264.306 465.07 253.394 459.04 241.244C454.885 236.274 455.548 228.879 460.521 224.726L460.896 224.413C465.868 220.261 473.267 220.923 477.422 225.893L503.573 257.176C507.728 262.147 507.065 269.542 502.093 273.695Z" fill="#112E5B"/>
<path d="M502.335 255.782L502.69 256.118C507.396 260.57 507.206 266.785 504.781 273.453C497.564 285.665 486.14 295.461 473.403 304.111C469.911 306.335 467.2 307.312 464.074 305.732C459.592 303.466 456.761 300.491 454.825 297.132C453.076 294.098 453.841 291.333 455.93 287.733C463.459 275.345 473.037 264.564 485.749 256.239C491.742 252.844 497.629 251.331 502.335 255.782Z" fill="#112E5B"/>
<path d="M487.801 444.531H458.237L456.873 426.499H486.436L487.801 444.531Z" fill="#FFCC83"/>
<path d="M438.225 444.531H408.661L407.297 426.499H436.86L438.225 444.531Z" fill="#FFCC83"/>
<path d="M371.845 286.121L371.843 286.12C365.943 281.443 364.953 272.867 369.633 266.969L402.324 225.768C407.001 219.874 415.569 218.886 421.465 223.559L421.467 223.56C427.367 228.237 428.357 236.813 423.677 242.711L390.986 283.912C386.309 289.806 377.741 290.795 371.845 286.121Z" fill="#112E5B"/>
<path d="M374.391 233.785L353.616 245.774L349.315 238.328C347.839 235.772 348.715 232.504 351.271 231.03L362.793 224.381C365.347 222.907 368.612 223.782 370.088 226.335L374.391 233.785Z" fill="#FFCC83"/>
<path d="M386.527 287.09L386.566 287.106C380.125 290.76 371.973 286.314 369.26 283.784C359.237 269.361 353.779 261.936 350.747 248.753C350.141 240.57 348.551 241.043 354.992 237.388L364.392 231.933C370.832 228.279 374.246 230.569 378.188 237.085C388.801 253.602 391.573 254.957 395.261 269.031C396.286 276.49 392.967 283.436 386.527 287.09Z" fill="#112E5B"/>
<path d="M340.902 225.907C340.902 225.907 340.77 232.315 346.655 231.737C352.539 231.159 353.363 225.597 351.813 223.769C350.398 222.103 345.706 222.085 340.902 225.907Z" fill="#7C4B33"/>
<path d="M488.596 415.437H451.984C449.911 415.437 448.231 417.117 448.231 419.19V428.958C448.231 431.031 449.911 432.711 451.984 432.711H488.596C490.668 432.711 492.349 431.031 492.349 428.958V419.19C492.349 417.117 490.668 415.437 488.596 415.437Z" fill="#112E5B"/>
<path d="M438.702 415.437H403.332C400.917 415.437 398.958 417.395 398.958 419.811V428.337C398.958 430.753 400.917 432.711 403.332 432.711H438.702C441.118 432.711 443.076 430.753 443.076 428.337V419.811C443.076 417.395 441.118 415.437 438.702 415.437Z" fill="#112E5B"/>
<path d="M444.896 465.594H365.756C365.756 464.442 365.803 463.316 365.9 462.228C365.911 462.096 365.923 461.968 365.937 461.837C366.71 454.018 369.986 448.148 375.762 447.774C378.654 447.587 383.282 446.455 387.934 444.764C388.15 444.686 388.366 444.607 388.582 444.525C391.069 443.593 393.54 442.507 395.731 441.325C395.881 441.244 396.028 441.162 396.176 441.079H396.178C398.948 439.541 401.223 437.851 402.445 436.135C406.539 430.386 401.687 430.817 414.422 429.523C427.158 428.231 428.674 439.008 428.674 439.008C431.13 435.444 434.285 433.83 436.803 433.107C438.743 432.549 440.658 434.036 440.628 436.054C440.594 438.242 440.922 441.441 442.318 445.619C444.162 451.136 444.702 457.775 444.852 461.837C444.856 461.971 444.861 462.101 444.864 462.228C444.931 464.289 444.896 465.594 444.896 465.594Z" fill="#F2F2F2"/>
<path d="M404.018 450.304L403.842 450.653C398.777 448.107 393.434 446.131 387.934 444.764C388.15 444.686 388.366 444.607 388.582 444.525C393.916 445.892 399.096 447.831 404.018 450.304ZM407.442 448.283L407.174 448.568C403.872 445.445 399.962 442.975 395.731 441.325C395.881 441.244 396.028 441.162 396.176 441.079H396.178C400.34 442.747 404.184 445.201 407.442 448.283ZM444.864 462.228H365.9C365.911 462.096 365.923 461.968 365.937 461.837H444.852C444.856 461.971 444.861 462.101 444.864 462.228ZM429.009 447.401L428.64 447.326C429.188 444.643 429.091 441.829 428.358 439.191L428.721 439.09C429.47 441.786 429.57 444.66 429.009 447.401Z" fill="black"/>
<path d="M497.807 468.624H426.551C426.538 467.623 426.521 466.708 426.513 465.865C426.512 465.733 426.512 465.603 426.51 465.474C426.459 457.12 427.524 456.169 442.773 449.228C444.386 448.493 445.822 447.749 447.1 447.005C447.249 446.919 447.396 446.831 447.54 446.745H447.541C448.637 446.087 449.611 445.43 450.476 444.776C450.587 444.693 450.696 444.61 450.802 444.528C458.795 438.327 457.1 432.712 457.1 432.712C457.1 432.712 459.905 431.954 467.03 431.348C474.156 430.742 474.762 438.015 474.762 438.015C484.01 430.742 487.194 432.712 487.194 432.712C487.194 432.712 486.133 436.5 490.984 444.834C494.474 450.83 496.474 460.513 497.322 465.474C497.344 465.607 497.366 465.738 497.387 465.865C497.672 467.571 497.807 468.624 497.807 468.624Z" fill="#F2F2F2"/>
<path d="M455.974 451.748L455.713 452.039C453.211 449.803 450.27 448.087 447.1 447.005C447.249 446.919 447.396 446.831 447.54 446.745H447.541C450.64 447.848 453.516 449.551 455.974 451.748ZM459.242 451.462L458.97 451.742C456.336 449.201 453.487 446.866 450.476 444.776C450.587 444.693 450.696 444.61 450.802 444.528C453.792 446.61 456.621 448.934 459.242 451.462ZM497.387 465.865H426.513C426.512 465.733 426.512 465.603 426.51 465.474H497.322C497.345 465.607 497.366 465.738 497.387 465.865ZM474.516 446.799L474.145 446.733C474.653 443.879 474.795 440.966 474.568 438.076L474.944 438.047C475.173 440.969 475.03 443.914 474.516 446.799Z" fill="black"/>
<path d="M426.325 465.867L426.322 465.476C426.294 461.02 426.628 458.814 428.771 456.687C430.941 454.534 434.866 452.62 442.695 449.057L442.851 449.4C427.554 456.362 426.648 457.263 426.699 465.473L426.701 465.863L426.325 465.867Z" fill="black"/>
<path d="M393.313 282.661L392.93 282.58L403.391 233.181L403.774 233.262L393.313 282.661Z" fill="black"/>
<path d="M401.637 241.254C401.069 238.703 400.929 236.093 401.22 233.497L401.609 233.54C401.323 236.094 401.46 238.66 402.018 241.169L401.637 241.254ZM475.002 264.422C470.869 260.231 467.438 255.958 464.515 251.358L464.494 251.313C464.482 251.277 463.299 247.576 462.736 242.959C461.791 235.213 463.285 230.875 464.705 228.6C466.383 225.912 468.989 224.296 472.449 223.797L472.505 224.184C469.164 224.666 466.651 226.221 465.037 228.807C460.311 236.378 464.65 250.504 464.859 251.17C467.764 255.738 471.174 259.983 475.281 264.148L475.002 264.422Z" fill="black"/>
<path d="M456.053 287.876L455.721 287.668C463.532 275.239 471.642 266.17 481.241 259.127L481.473 259.442C471.914 266.455 463.837 275.49 456.053 287.876Z" fill="black"/>
<path d="M475.337 264.192L474.954 264.113C475.383 262.025 476.761 260.175 478.639 259.164L478.824 259.509C477.047 260.465 475.743 262.216 475.337 264.192Z" fill="black"/>
<path d="M390.69 256.46L384.723 247.22L385.051 247.007L391.019 256.248L390.69 256.46Z" fill="black"/>
<path d="M394.12 255.983C392.125 252.447 389.027 249.497 385.397 247.677L385.572 247.328C389.272 249.182 392.428 252.188 394.461 255.791L394.12 255.983ZM459.11 241.58H441.563L441.94 238.205H459.487L459.11 241.58ZM441.94 241.243H458.808L459.11 238.542H442.242L441.94 241.243ZM420.77 240.875H405.839L406.345 237.763H421.276L420.77 240.875ZM406.204 240.564H420.505L420.91 238.074H406.609L406.204 240.564Z" fill="black"/>
<path d="M418.739 253.357H403.808L405.889 240.564H420.82L418.739 253.357ZM404.173 253.047H418.475L420.455 240.875H406.153L404.173 253.047Z" fill="black"/>
<path d="M451.801 293.824C451.801 293.824 452.931 309.365 472.033 312.548C472.033 312.548 469.153 319.67 448.989 318.609C428.825 317.548 447.184 298.738 451.801 293.824Z" fill="#B8C2D8"/>
<path d="M468.845 311.44C464.407 310.894 460.256 308.819 457.156 305.598C454.057 302.376 452.145 298.149 451.773 293.695L452.083 293.669C452.449 298.052 454.33 302.212 457.38 305.382C460.43 308.553 464.515 310.595 468.883 311.132L468.845 311.44ZM440.688 312.422L440.384 312.357C441.92 305.146 445.9 298.591 451.59 293.9L451.788 294.14C446.151 298.787 442.209 305.279 440.688 312.422Z" fill="black"/>
<path d="M479.004 415.452L468.543 307.865L468.853 307.835L479.314 415.422L479.004 415.452Z" fill="black"/>
<path d="M432.187 314.999L425.666 314.204L420.866 293.718L421.169 293.647L425.92 313.922L431.831 314.642L429.277 293.018L429.586 292.982L432.187 314.999Z" fill="black"/>
<path d="M336.205 210.192L335.981 209.977C335.998 209.959 337.725 208.201 340.122 208.941C341.103 209.244 341.903 209.545 342.64 209.888L342.509 210.17C341.785 209.833 340.998 209.537 340.03 209.238C337.819 208.556 336.221 210.176 336.205 210.192ZM344.249 220.672C340.16 220.672 336.941 217.987 336.901 217.953L337.102 217.716C337.152 217.759 342.175 221.943 347.568 219.701L347.687 219.988C346.508 220.478 345.347 220.672 344.249 220.672ZM341.322 227.124C341.055 227.124 340.897 227.111 340.887 227.11L340.916 226.801C340.97 226.806 346.314 227.24 347.972 222.675L348.264 222.781C346.809 226.785 342.675 227.124 341.322 227.124ZM346.432 232.033C344.574 232.033 343.194 231.202 343.17 231.187L343.333 230.923C343.504 231.028 347.545 233.451 351.069 229.458L351.302 229.663C349.669 231.514 347.901 232.033 346.432 232.033Z" fill="black"/>
</g>
<g clip-path="url(#clip5_69_1133)">
<path d="M44.3665 298.255C55.1564 297.55 65.1568 303.833 74.9172 312.24L175.147 391.41L120.216 411.037L48.7309 380.21C40.3469 348.302 32.0689 316.464 44.3665 298.255Z" fill="black"/>
<path d="M125.634 267.578C124.965 263.702 116.671 264.387 118.41 258.104C120.15 251.822 114.949 253.393 116.153 249.383C117.357 245.373 114.248 246.241 114.65 242.9C115.051 239.558 114.784 237.82 110.235 235.949C105.687 234.078 108.095 230.736 103.68 230.736C99.8685 230.736 99.3481 234.821 99.2771 235.937C97.5542 235.27 94.2054 234.49 92.7108 236.083C90.7042 238.221 91.3731 240.36 88.9651 241.296C86.5572 242.231 83.7479 240.36 82.544 247.043C81.34 253.727 77.8097 252.343 75.9706 256.15C73.8637 260.511 76.7749 263.593 74.9171 266.826C70.2518 274.947 73.663 274.095 68.4458 279.308C63.2286 284.521 64.8339 290.135 64.8339 290.135L105.287 271.385C110.796 273.424 119.197 273.739 121.74 273.376C125.485 272.841 126.303 271.455 125.634 267.578Z" fill="#FFCC83"/>
<path d="M155.067 331.426L154.838 331.41C148.226 330.958 143.232 325.23 143.685 318.618L146.167 282.401C146.62 275.79 152.347 270.797 158.958 271.25L159.187 271.265C165.8 271.718 170.793 277.445 170.34 284.058L167.858 320.274C167.405 326.885 161.679 331.878 155.067 331.426Z" fill="#56A4FF"/>
<path d="M60.1686 287.879L87.1074 270.586L119.615 272.24L131.743 273.435L158.894 343.518L65.5865 368.33C65.5865 368.33 58.8141 294.044 60.1686 287.879Z" fill="#56A4FF"/>
<path d="M152.122 272.841C152.122 272.841 169.73 240.661 174.395 240.661C179.061 240.661 177.104 245.623 174.546 251.187C171.987 256.751 160.728 276.847 160.728 276.847C160.728 276.847 156.336 280.962 154.078 279.007C151.821 277.052 152.122 272.841 152.122 272.841Z" fill="#FF9996"/>
<path d="M170.633 256.3C170.633 256.3 178.759 254.947 176.351 260.962C176.351 260.962 181.769 262.766 179.512 266.375C179.512 266.375 186.284 266.977 180.565 273.443C180.565 273.443 176.201 289.082 163.108 289.984C150.015 290.887 149.112 277.052 152.122 272.841C155.132 268.631 170.633 256.3 170.633 256.3Z" fill="#FF9996"/>
<path d="M151.121 277.391C151.121 277.391 149.559 270.777 152.71 266.896C154.731 264.406 157.585 259.726 159.372 256.692C160.323 255.075 162.689 255.121 163.56 256.783C164.425 258.434 164.884 260.711 163.577 263.453C160.766 269.347 164.734 275.134 162.043 278.008C159.352 280.882 152.962 283.387 151.121 277.391Z" fill="#FF9996"/>
<path d="M170.751 267.843C170.198 267.843 169.63 267.711 169.05 267.448C168.956 267.405 168.914 267.294 168.957 267.2C169 267.106 169.111 267.064 169.205 267.107C170.224 267.57 171.201 267.586 172.108 267.156C174.84 265.859 176.157 260.963 176.17 260.914C176.197 260.814 176.3 260.755 176.399 260.781C176.499 260.807 176.559 260.909 176.533 261.009C176.519 261.061 176.19 262.296 175.505 263.718C174.576 265.645 173.487 266.916 172.269 267.494C171.778 267.726 171.272 267.843 170.751 267.843ZM174.62 270.846C173.927 270.846 173.259 270.608 172.627 270.134C172.544 270.072 172.528 269.955 172.59 269.872C172.652 269.789 172.769 269.772 172.852 269.834C173.596 270.392 174.39 270.584 175.213 270.406C177.652 269.88 179.629 266.321 179.649 266.285C179.698 266.195 179.812 266.161 179.903 266.211C179.994 266.261 180.027 266.374 179.977 266.465C179.956 266.503 179.457 267.408 178.634 268.395C177.518 269.735 176.394 270.534 175.293 270.772C175.066 270.821 174.842 270.846 174.62 270.846ZM177.557 274.215C176.261 274.215 175.376 273.774 174.978 272.921C174.934 272.827 174.975 272.715 175.068 272.672C175.162 272.628 175.274 272.668 175.317 272.762C176.286 274.836 180.457 273.284 180.499 273.268C180.596 273.231 180.704 273.28 180.741 273.377C180.777 273.473 180.729 273.581 180.632 273.618C180.586 273.635 179.504 274.042 178.272 274.174C178.021 274.201 177.783 274.215 177.557 274.215ZM168.249 263.282C168.218 263.282 168.186 263.274 168.157 263.257C168.067 263.206 168.035 263.091 168.087 263.002C170.786 258.277 173.379 253.066 173.405 253.014C173.451 252.922 173.564 252.884 173.656 252.93C173.749 252.976 173.787 253.088 173.741 253.181C173.715 253.233 171.117 258.453 168.412 263.187C168.378 263.248 168.314 263.282 168.249 263.282ZM162.043 278.195C161.997 278.195 161.951 278.178 161.915 278.145C161.839 278.074 161.835 277.955 161.906 277.88C163.142 276.56 162.897 274.523 162.613 272.165C162.291 269.499 161.927 266.477 163.407 263.372C164.48 261.122 164.476 258.935 163.394 256.87C163.11 256.328 162.634 255.941 162.052 255.778C161.953 255.75 161.895 255.647 161.922 255.547C161.95 255.447 162.054 255.389 162.153 255.417C162.835 255.608 163.394 256.062 163.726 256.696C164.865 258.871 164.872 261.171 163.746 263.534C162.312 266.54 162.67 269.505 162.985 272.12C163.28 274.571 163.535 276.688 162.18 278.136C162.143 278.175 162.093 278.195 162.043 278.195Z" fill="black"/>
<path d="M105.738 341.685C107.709 341.219 107.593 333.605 105.48 324.68C103.366 315.755 100.055 308.898 98.0835 309.365C96.1123 309.831 96.2278 317.445 98.3414 326.37C100.455 335.295 103.766 342.152 105.738 341.685Z" fill="black"/>
<path d="M107.123 288.631C88.462 292.24 80.3277 279.038 77.9272 277.052C77.232 276.476 86.7975 271.1 87.2219 270.305C88.784 267.375 91.1468 259.882 89.8164 256.3L92.7255 257.13L106.672 261.112C106.934 262.596 107.355 265.298 108.1 267.362C108.637 268.853 109.345 270.013 110.284 270.135C111.64 270.311 118.755 270.992 119.314 272.24C120.719 275.386 116.377 286.841 107.123 288.631Z" fill="#FF9996"/>
<path d="M108.1 267.362C107.636 267.889 106.842 268.235 105.627 268.335C97.1635 269.028 93.3424 258.944 92.7253 257.13L106.672 261.112C106.934 262.596 107.355 265.299 108.1 267.362Z" fill="black"/>
<path d="M88.2193 250.384C89.0061 249.286 90.2804 248.721 91.6271 248.728C92.7374 243.009 96.8365 239.797 101.852 240.289C107.281 240.822 111.725 245.492 111.073 252.123C110.421 258.753 109.223 264.063 103.794 263.53C100.754 263.231 97.0319 261.163 94.4592 258.237C92.7096 258.105 90.7697 257.436 89.6094 256.606C87.4739 255.078 86.8516 252.292 88.2193 250.384Z" fill="#FF9996"/>
<path d="M89.1693 254.035L88.8359 253.837C89.5382 252.661 90.6026 251.682 91.8332 251.079L92.004 251.427C90.8403 251.997 89.8336 252.924 89.1693 254.035Z" fill="black"/>
<path d="M90.0088 252.63C90.1973 253.215 90.3858 253.799 90.5744 254.384L90.0088 252.63Z" fill="white"/>
<path d="M90.3898 254.443L89.824 252.69L90.1936 252.571L90.759 254.324L90.3898 254.443Z" fill="black"/>
<path d="M102.108 250.731C102.154 250.258 101.917 249.848 101.578 249.814C101.238 249.781 100.925 250.137 100.879 250.61C100.832 251.083 101.07 251.493 101.409 251.526C101.748 251.56 102.061 251.204 102.108 250.731Z" fill="black"/>
<path d="M108.511 251.152C108.558 250.679 108.321 250.269 107.981 250.236C107.642 250.202 107.329 250.558 107.282 251.031C107.236 251.504 107.473 251.914 107.813 251.948C108.152 251.981 108.465 251.625 108.511 251.152Z" fill="black"/>
<path d="M107.301 255.48C106.216 254.939 105.374 253.969 104.99 252.82C104.606 251.67 104.698 250.39 105.242 249.306L105.589 249.48C105.091 250.472 105.007 251.645 105.358 252.697C105.71 253.75 106.481 254.637 107.475 255.133L107.301 255.48ZM104.474 258.145C102.737 257.913 101.221 256.634 100.699 254.963L101.07 254.848C101.54 256.353 102.961 257.551 104.525 257.761L104.474 258.145Z" fill="black"/>
<path d="M104.516 263.76C104.276 263.76 104.029 263.748 103.775 263.723C100.637 263.415 96.952 261.338 94.3656 258.424C92.6336 258.278 90.6864 257.615 89.4964 256.764C88.4247 255.997 87.6841 254.901 87.4112 253.68C87.1364 252.45 87.3674 251.239 88.0615 250.271C88.8286 249.201 90.0634 248.574 91.4675 248.536C92.6239 242.896 96.6923 239.587 101.871 240.096L101.833 240.482C96.8213 239.991 92.89 243.241 91.8178 248.765L91.787 248.922L91.6263 248.922C91.6191 248.922 91.6116 248.922 91.6044 248.922C90.2705 248.922 89.0953 249.495 88.3772 250.497C87.7483 251.374 87.5398 252.474 87.7901 253.595C88.0423 254.724 88.7285 255.737 89.7224 256.448C90.8778 257.275 92.7872 257.916 94.4739 258.044L94.5529 258.05L94.605 258.109C97.0936 260.94 100.794 263.04 103.813 263.337C104.84 263.437 105.752 263.323 106.522 262.996L106.674 263.353C106.036 263.624 105.312 263.76 104.516 263.76Z" fill="black"/>
<path d="M100.572 309.91L63.6682 333.977C44.3919 346.336 53.6724 374.75 76.219 360.24L111.638 331.789C127.29 320.661 110.54 302.115 100.572 309.91Z" fill="#FF9996"/>
<path d="M170.126 301.689L125.383 319.396C123.034 320.325 120.639 319.006 120.033 316.448L112.566 284.911C111.96 282.353 113.373 279.526 115.723 278.596L160.465 260.889C162.814 259.96 165.209 261.279 165.815 263.837L173.283 295.374C173.888 297.932 172.475 300.759 170.126 301.689Z" fill="black"/>
<path d="M170.79 301.576L125.956 319.32C123.778 320.182 121.556 318.958 120.995 316.586L113.469 284.805C112.908 282.434 114.218 279.812 116.397 278.95L161.231 261.206C163.41 260.344 165.631 261.568 166.193 263.94L173.718 295.721C174.28 298.093 172.969 300.714 170.79 301.576Z" fill="#F2F2F2"/>
<path d="M156.137 271.346L155.551 268.874C155.395 268.213 155.76 267.481 156.368 267.241L161.004 265.406C161.612 265.166 162.232 265.507 162.388 266.169L162.973 268.64C163.13 269.302 162.765 270.033 162.157 270.273L157.521 272.108C156.913 272.349 156.293 272.007 156.137 271.346Z" fill="#B8C2D8"/>
<path d="M161.766 268.668C162.043 267.905 161.734 267.093 161.078 266.855C160.421 266.617 159.665 267.043 159.388 267.806C159.112 268.569 159.42 269.38 160.076 269.618C160.733 269.856 161.489 269.431 161.766 268.668Z" fill="black"/>
<path d="M158.366 269.729C158.556 269.207 158.345 268.651 157.896 268.489C157.447 268.326 156.929 268.617 156.74 269.139C156.551 269.661 156.761 270.216 157.211 270.379C157.66 270.542 158.177 270.251 158.366 269.729Z" fill="white"/>
<path d="M159.056 268.981C159.099 268.861 159.051 268.733 158.947 268.695C158.843 268.658 158.724 268.725 158.68 268.845C158.637 268.966 158.685 269.094 158.789 269.131C158.893 269.169 159.012 269.102 159.056 268.981Z" fill="black"/>
<path d="M173.401 296.045L166.724 267.843L167.054 267.765L173.731 295.967L173.401 296.045Z" fill="#21201F"/>
<path d="M94.9938 313.548L106.672 302.917L120.216 301.864L128.155 322.878C128.155 322.878 112.693 331.737 106.522 335.899C106.522 335.899 97.1905 335.849 93.1272 328.631C89.0638 321.413 94.9938 313.548 94.9938 313.548ZM250.696 457.955C240.764 466.526 177.706 461.714 177.706 461.714L182.812 449.467L191.251 429.233C191.251 429.233 194.26 421.714 205.999 421.714C217.738 421.714 219.544 424.722 219.544 424.722C219.544 424.722 218.988 439.962 232.787 442.648C233.364 442.761 233.966 442.851 234.593 442.917C245.396 444.058 260.629 449.383 250.696 457.955Z" fill="#FF9996"/>
<path d="M119.79 301.897L128.795 295.398C128.795 295.398 136.922 288.33 138.427 289.232C139.932 290.135 140.985 293.593 137.674 297.503C134.363 301.413 131.052 303.969 131.052 303.969L122.324 309.984C122.324 309.984 119.615 310.135 118.411 306.977C117.207 303.819 119.79 301.897 119.79 301.897Z" fill="#FF9996"/>
<path d="M124.581 316.15C124.581 316.15 131.654 311.187 132.407 309.984C133.159 308.781 139.33 301.263 137.674 297.503C136.019 293.744 130.3 300.21 126.688 304.872C123.076 309.533 119.573 308.82 119.573 308.82C119.573 308.82 116.857 312.34 119.163 315.248C121.469 318.155 124.581 316.15 124.581 316.15Z" fill="#FF9996"/>
<path d="M125.032 320.36C125.032 320.36 134.965 313.293 135.717 311.037C136.47 308.781 139.565 302.077 137.222 300.511C134.879 298.944 130.601 308.029 130.601 308.029L120.865 315.149C120.865 315.149 119.256 317.413 120.865 319.413C122.474 321.413 125.032 320.36 125.032 320.36Z" fill="#FF9996"/>
<path d="M126.537 323.819C126.537 323.819 132.858 320.21 134.062 318.857C134.843 317.979 136.621 311.338 134.965 310.435C133.31 309.533 130.634 310.664 129.488 313.106C128.343 315.548 122.323 317.954 122.323 317.954C122.323 317.954 120.668 320.597 122.323 322.433C123.979 324.27 126.537 323.819 126.537 323.819Z" fill="#FF9996"/>
<path d="M250.697 457.955C240.764 466.526 177.706 461.714 177.706 461.714L182.812 449.467C189.631 454.559 216.59 455.281 226.768 452.992C234.575 451.237 234.092 446.066 232.788 442.648C233.364 442.761 233.966 442.851 234.594 442.917C245.396 444.058 260.629 449.383 250.697 457.955Z" fill="#7C4B33"/>
<path d="M103.379 306.6C103.379 306.6 103.963 303.518 107.274 298.255C109.229 295.147 107.123 287.278 108.628 286.676C110.133 286.075 113.49 285.229 114.648 292.541C115.806 299.853 117.309 304.534 117.309 304.534C117.309 304.534 114.046 311.187 109.08 309.984C104.113 308.781 103.379 306.6 103.379 306.6Z" fill="#FF9996"/>
<path d="M124.581 308.668C124.51 308.668 124.442 308.628 124.411 308.559C124.367 308.465 124.408 308.354 124.502 308.311C132.194 304.764 138.687 295.724 138.752 295.633C138.812 295.548 138.929 295.529 139.013 295.589C139.097 295.648 139.117 295.765 139.057 295.85C138.992 295.941 132.44 305.062 124.659 308.651C124.634 308.662 124.607 308.668 124.581 308.668ZM128.197 314.24L127.993 313.926C128.007 313.917 129.465 312.954 132.268 309.859C135.071 306.763 137.205 301.279 137.226 301.224L137.575 301.359C137.554 301.415 135.395 306.963 132.545 310.11C129.702 313.25 128.257 314.201 128.197 314.24ZM129.774 318.276L129.622 317.934C132.242 316.77 134.987 311.909 135.015 311.86L135.342 312.043C135.335 312.055 134.631 313.307 133.604 314.688C132.216 316.557 130.927 317.764 129.774 318.276Z" fill="black"/>
<path d="M210.438 354.204C211.371 362.183 206.971 369.834 199.601 373.045C165.07 388.089 144.401 396.976 109.159 400.193C88.9134 402.466 67.8092 391.851 65.818 370.606L64.9845 361.714C97.7325 344.781 135.424 337.731 192.047 332.338C199.857 331.594 207.085 336.529 209.253 344.062L210.438 354.204Z" fill="#32CE95"/>
<path d="M165.275 463L165.26 462.997C154.322 460.549 147.44 449.696 149.891 438.759L169.071 353.173C171.522 342.241 182.368 335.363 193.302 337.809L193.316 337.813C204.254 340.26 211.136 351.113 208.685 362.051L189.505 447.636C187.055 458.569 176.208 465.446 165.275 463Z" fill="#FF9996"/>
<path d="M133.296 419.007L137.001 431.255L147.85 467.113C148.172 468.177 149.162 468.897 150.274 468.877L152.239 468.841C153.876 468.811 155.037 467.235 154.579 465.664L143.993 429.353L140.391 416.997L133.296 419.007Z" fill="#B8C2D8"/>
<path d="M137.811 433.895L144.583 431.338L140.39 416.997L133.296 419.007L137.811 433.895Z" fill="black"/>
<path d="M225.252 469.834H151.467C146.428 469.834 142.716 465.129 143.889 460.234L145.349 454.147L151.67 431.037C153.718 422.025 160.248 415.549 169.88 416C179.512 416.451 193.097 420.198 191.702 433.143C190.817 441.358 195.565 443.836 206.393 447.098C208.449 447.716 210.725 448.362 213.223 449.082C222.844 451.855 227.916 455.952 230.562 459.773C233.507 464.025 230.428 469.834 225.252 469.834Z" fill="#FF9996"/>
<path d="M203.858 445.805L202.834 445.957C192.697 447.466 183.257 440.473 181.746 430.336L170.393 354.182C168.882 344.043 175.878 334.598 186.018 333.089L187.042 332.936C197.179 331.428 206.62 338.421 208.131 348.557L219.483 424.711C220.994 434.851 213.998 444.296 203.858 445.805Z" fill="#FF9996"/>
<path d="M206.451 447.309C206.441 447.309 206.43 447.308 206.42 447.306C199.507 446.113 194.952 443.879 192.882 440.665C191.315 438.233 191.828 436.177 191.85 436.091L199.353 402.862C199.375 402.765 199.471 402.703 199.57 402.725C199.668 402.747 199.729 402.844 199.707 402.942L192.204 436.177C192.197 436.202 191.71 438.184 193.195 440.48C195.707 444.365 201.807 446.142 206.482 446.949C206.58 446.966 206.647 447.06 206.63 447.158C206.614 447.247 206.538 447.309 206.451 447.309Z" fill="black"/>
<path d="M205.866 401.56C190.616 412.408 172.561 416.603 152.965 417.143C150.284 417.217 148.223 414.794 148.731 412.163L163.559 335.398L189.282 332.355C201.044 330.964 211.197 340.554 210.468 352.367L207.625 398.4C207.547 399.665 206.899 400.825 205.866 401.56Z" fill="#32CE95"/>
<path d="M197.899 334.045C197.899 334.045 206.902 333.443 212.17 360.962C214.651 373.926 216.297 381.417 217.345 385.714C218.203 389.236 216.551 392.88 213.346 394.577C201.381 400.912 187.489 404.726 172.166 406.671C169.961 406.951 167.934 405.425 167.603 403.228C165.968 392.366 162.082 361.981 168.225 353.142C175.75 342.315 177.158 332.992 197.899 334.045Z" fill="#32CE95"/>
<path d="M129.532 318.193L124.415 308.568L124.746 308.393L129.863 318.017L129.532 318.193Z" fill="black"/>
<path d="M63.7531 364.166L63.7329 364.164C56.9797 363.702 51.88 357.853 52.3428 351.1L56.1008 296.258C56.5635 289.506 62.4118 284.407 69.1639 284.869L69.1841 284.871C75.9373 285.333 81.037 291.182 80.5742 297.935L76.8162 352.777C76.3535 359.529 70.5051 364.628 63.7531 364.166Z" fill="#56A4FF"/>
<path d="M105.354 341.688C99.3216 346.348 74.2054 365.194 63.7805 364.27C51.8913 363.218 49.4834 348.18 57.0082 338.405C63.9912 329.335 93.3966 312.105 97.5939 309.672C96.1507 311.246 96.4231 318.267 98.3419 326.369C100.324 334.736 103.356 341.287 105.354 341.688Z" fill="#56A4FF"/>
<path d="M69.0481 328.066C68.9897 328.066 68.9323 328.039 68.8957 327.988C68.8354 327.904 68.8547 327.787 68.9388 327.727C77.1699 321.825 86.5283 315.87 97.5486 309.521C97.6384 309.47 97.7527 309.501 97.8046 309.59C97.8562 309.68 97.8255 309.794 97.7358 309.846C86.7264 316.188 77.3781 322.136 69.1571 328.031C69.1241 328.055 69.0859 328.066 69.0481 328.066Z" fill="black"/>
<path d="M66.7542 326.689C66.6992 326.689 66.6448 326.665 66.6078 326.619C66.5431 326.538 66.5561 326.42 66.6368 326.356C70.0957 323.585 74.2396 321.762 78.6204 321.084C78.722 321.068 78.8183 321.138 78.8343 321.24C78.8502 321.343 78.7801 321.438 78.6778 321.454C74.3616 322.122 70.2791 323.918 66.8713 326.648C66.8366 326.675 66.7953 326.689 66.7542 326.689Z" fill="black"/>
<path d="M78.6798 321.45C78.6746 321.45 78.6693 321.45 78.6641 321.449C78.5609 321.441 78.4843 321.35 78.4928 321.247L79.9978 303.202C80.0065 303.099 80.0971 303.022 80.2002 303.031C80.3033 303.039 80.3799 303.13 80.3714 303.233L78.8664 321.278C78.8582 321.376 78.7763 321.45 78.6798 321.45Z" fill="black"/>
<path d="M66.5648 292.542C67.1882 292.542 67.6936 292.036 67.6936 291.413C67.6936 290.79 67.1882 290.284 66.5648 290.284C65.9414 290.284 65.436 290.79 65.436 291.413C65.436 292.036 65.9414 292.542 66.5648 292.542Z" fill="#FFCC83"/>
<path d="M73.7884 305.023C74.4118 305.023 74.9172 304.518 74.9172 303.894C74.9172 303.271 74.4118 302.765 73.7884 302.765C73.165 302.765 72.6597 303.271 72.6597 303.894C72.6597 304.518 73.165 305.023 73.7884 305.023Z" fill="#FFCC83"/>
<path d="M83.4203 292.542C84.0437 292.542 84.549 292.036 84.549 291.413C84.549 290.79 84.0437 290.284 83.4203 290.284C82.7969 290.284 82.2915 290.79 82.2915 291.413C82.2915 292.036 82.7969 292.542 83.4203 292.542Z" fill="#FFCC83"/>
<path d="M97.7172 296.903C98.3406 296.903 98.8459 296.397 98.8459 295.774C98.8459 295.15 98.3406 294.645 97.7172 294.645C97.0938 294.645 96.5884 295.15 96.5884 295.774C96.5884 296.397 97.0938 296.903 97.7172 296.903Z" fill="#FFCC83"/>
<path d="M90.6439 306.226C91.2673 306.226 91.7727 305.72 91.7727 305.097C91.7727 304.474 91.2673 303.968 90.6439 303.968C90.0205 303.968 89.5151 304.474 89.5151 305.097C89.5151 305.72 90.0205 306.226 90.6439 306.226Z" fill="#FFCC83"/>
<path d="M118.034 337.354C118.658 337.354 119.163 336.848 119.163 336.225C119.163 335.602 118.658 335.096 118.034 335.096C117.411 335.096 116.906 335.602 116.906 336.225C116.906 336.848 117.411 337.354 118.034 337.354Z" fill="#FFCC83"/>
<path d="M129.622 327.73C130.246 327.73 130.751 327.224 130.751 326.601C130.751 325.978 130.246 325.472 129.622 325.472C128.999 325.472 128.494 325.978 128.494 326.601C128.494 327.224 128.999 327.73 129.622 327.73Z" fill="#FFCC83"/>
<path d="M141.06 333.594C141.684 333.594 142.189 333.089 142.189 332.465C142.189 331.842 141.684 331.337 141.06 331.337C140.437 331.337 139.931 331.842 139.931 332.465C139.931 333.089 140.437 333.594 141.06 333.594Z" fill="#FFCC83"/>
<path d="M142.866 318.105C143.49 318.105 143.995 317.6 143.995 316.977C143.995 316.353 143.49 315.848 142.866 315.848C142.243 315.848 141.738 316.353 141.738 316.977C141.738 317.6 142.243 318.105 142.866 318.105Z" fill="#FFCC83"/>
<path d="M159.27 325.624C159.894 325.624 160.399 325.119 160.399 324.496C160.399 323.872 159.894 323.367 159.27 323.367C158.647 323.367 158.141 323.872 158.141 324.496C158.141 325.119 158.647 325.624 159.27 325.624Z" fill="#FFCC83"/>
<path d="M151.143 316.903C151.767 316.903 152.272 316.397 152.272 315.774C152.272 315.15 151.767 314.645 151.143 314.645C150.52 314.645 150.015 315.15 150.015 315.774C150.015 316.397 150.52 316.903 151.143 316.903Z" fill="#FFCC83"/>
<path d="M162.13 310.436C162.753 310.436 163.258 309.931 163.258 309.308C163.258 308.684 162.753 308.179 162.13 308.179C161.506 308.179 161.001 308.684 161.001 309.308C161.001 309.931 161.506 310.436 162.13 310.436Z" fill="#FFCC83"/>
<path d="M57.8358 314.496C58.4592 314.496 58.9646 313.991 58.9646 313.368C58.9646 312.744 58.4592 312.239 57.8358 312.239C57.2124 312.239 56.707 312.744 56.707 313.368C56.707 313.991 57.2124 314.496 57.8358 314.496Z" fill="#FFCC83"/>
<path d="M58.438 333.594C59.0614 333.594 59.5667 333.089 59.5667 332.465C59.5667 331.842 59.0614 331.337 58.438 331.337C57.8146 331.337 57.3092 331.842 57.3092 332.465C57.3092 333.089 57.8146 333.594 58.438 333.594Z" fill="#FFCC83"/>
<path d="M67.9191 344.271C68.5425 344.271 69.0478 343.766 69.0478 343.142C69.0478 342.519 68.5425 342.014 67.9191 342.014C67.2956 342.014 66.7903 342.519 66.7903 343.142C66.7903 343.766 67.2956 344.271 67.9191 344.271Z" fill="#FFCC83"/>
<path d="M59.943 357.504C60.5664 357.504 61.0717 356.999 61.0717 356.376C61.0717 355.752 60.5664 355.247 59.943 355.247C59.3196 355.247 58.8142 355.752 58.8142 356.376C58.8142 356.999 59.3196 357.504 59.943 357.504Z" fill="#FFCC83"/>
<path d="M77.5509 356.903C78.1743 356.903 78.6797 356.397 78.6797 355.774C78.6797 355.15 78.1743 354.645 77.5509 354.645C76.9275 354.645 76.4221 355.15 76.4221 355.774C76.4221 356.397 76.9275 356.903 77.5509 356.903Z" fill="#FFCC83"/>
<path d="M79.0558 329.985C79.6792 329.985 80.1845 329.48 80.1845 328.856C80.1845 328.233 79.6792 327.728 79.0558 327.728C78.4324 327.728 77.927 328.233 77.927 328.856C77.927 329.48 78.4324 329.985 79.0558 329.985Z" fill="#FFCC83"/>
<path d="M86.8817 343.219C87.5051 343.219 88.0105 342.713 88.0105 342.09C88.0105 341.466 87.5051 340.961 86.8817 340.961C86.2583 340.961 85.7529 341.466 85.7529 342.09C85.7529 342.713 86.2583 343.219 86.8817 343.219Z" fill="#FFCC83"/>
<path d="M92.9015 321.113C93.5249 321.113 94.0302 320.608 94.0302 319.984C94.0302 319.361 93.5249 318.856 92.9015 318.856C92.2781 318.856 91.7727 319.361 91.7727 319.984C91.7727 320.608 92.2781 321.113 92.9015 321.113Z" fill="#FFCC83"/>
<path d="M99.8243 340.963C100.448 340.963 100.953 340.457 100.953 339.834C100.953 339.211 100.448 338.705 99.8243 338.705C99.2009 338.705 98.6956 339.211 98.6956 339.834C98.6956 340.457 99.2009 340.963 99.8243 340.963Z" fill="#FFCC83"/>
<path d="M69.5746 321.715C70.198 321.715 70.7033 321.209 70.7033 320.586C70.7033 319.962 70.198 319.457 69.5746 319.457C68.9512 319.457 68.4458 319.962 68.4458 320.586C68.4458 321.209 68.9512 321.715 69.5746 321.715Z" fill="#FFCC83"/>
<path d="M74.1043 361.851C74.0311 361.851 73.9616 361.808 73.9314 361.737C73.8913 361.641 73.9362 361.532 74.0315 361.491C86.1472 356.398 101.64 344.272 101.795 344.15C101.876 344.086 101.994 344.1 102.058 344.181C102.122 344.262 102.108 344.38 102.026 344.444C101.871 344.566 86.3396 356.723 74.1767 361.837C74.1531 361.847 74.1284 361.851 74.1043 361.851ZM155.583 334.984C155.508 334.984 155.437 334.938 155.408 334.864L146.529 312.007C146.492 311.911 146.539 311.802 146.636 311.765C146.732 311.727 146.841 311.775 146.878 311.872L155.758 334.729C155.795 334.825 155.747 334.934 155.651 334.971C155.629 334.98 155.606 334.984 155.583 334.984Z" fill="black"/>
<path d="M225.252 469.834H151.467C146.428 469.834 142.716 465.129 143.889 460.234L145.349 454.147C152.382 463.591 198.008 461.995 205.698 457.804C210.55 455.159 208.731 450.501 206.393 447.098C208.449 447.716 210.725 448.362 213.223 449.082C222.844 451.855 227.916 455.952 230.562 459.773C233.507 464.025 230.428 469.834 225.252 469.834Z" fill="#7C4B33"/>
<path d="M151.219 399.796C151.207 399.796 151.195 399.795 151.183 399.792C151.082 399.773 151.015 399.675 151.035 399.573L157.807 364.235C157.826 364.134 157.924 364.066 158.026 364.086C158.128 364.106 158.195 364.204 158.175 364.305L151.403 399.644C151.385 399.733 151.307 399.796 151.219 399.796Z" fill="black"/>
<path d="M153.675 386.544C153.591 386.544 153.514 386.486 153.493 386.401C152.133 380.806 151.44 375.049 151.435 369.292C151.435 369.188 151.519 369.104 151.622 369.104C151.726 369.104 151.81 369.188 151.81 369.291C151.815 375.019 152.504 380.746 153.858 386.312C153.882 386.413 153.82 386.514 153.72 386.538C153.705 386.542 153.69 386.544 153.675 386.544ZM207.655 398.593C207.651 398.593 207.647 398.593 207.643 398.593C207.54 398.586 207.461 398.497 207.467 398.394L210.176 354.184C210.183 354.08 210.271 354.004 210.375 354.008C210.478 354.014 210.557 354.103 210.551 354.206L207.842 398.417C207.835 398.516 207.753 398.593 207.655 398.593Z" fill="black"/>
<path d="M77.1747 420.661L73.4695 432.909L62.621 468.767C62.2991 469.831 61.3091 470.551 60.1972 470.531L58.2317 470.495C56.5946 470.465 55.4335 468.889 55.8914 467.318L66.4774 431.007L70.0803 418.651L77.1747 420.661Z" fill="#B8C2D8"/>
<path d="M77.1744 420.661L70.0801 418.651L65.8875 432.992L72.6597 435.549L77.1744 420.661Z" fill="black"/>
<path d="M152.716 417.144C141.888 422.063 130.533 426.016 118.647 428.997C65.3141 442.368 14.4163 399.448 18.7882 344.681C19.5197 335.518 22.9961 303.969 44.216 298.255C37.8952 306.676 41.0556 340.962 49.4834 355.248C57.1587 368.33 67.5264 370.872 78.7804 367.302C88.4513 364.233 98.2411 361.557 108.199 359.434C124.406 355.981 140.192 367.105 142.153 383.547C142.564 387.003 142.752 390.652 142.716 394.494L152.332 392.742L148.58 412.164C148.078 414.762 150.084 417.158 152.716 417.144Z" fill="#FFEDE1"/>
<path d="M98.8731 431.662C92.4925 431.662 86.1373 430.888 79.8483 429.339C67.8333 426.38 56.4405 420.553 46.9012 412.487C37.3791 404.436 29.7571 394.198 24.8596 382.881C19.6442 370.83 17.5386 357.972 18.6007 344.666C19.3297 335.532 21.0732 327.041 23.6425 320.11C28.1536 307.94 35.059 300.526 44.1671 298.074L44.6939 297.932L44.3666 298.368C41.4685 302.229 40.3725 312.255 41.5064 324.535C42.642 336.835 45.7609 348.567 49.6455 355.152C53.2848 361.355 57.729 365.457 62.8549 367.343C67.5165 369.058 72.8551 368.984 78.7236 367.123C89.0348 363.85 98.6635 361.275 108.16 359.25C115.993 357.582 124.218 359.294 130.728 363.949C133.887 366.207 136.499 369.021 138.493 372.313C140.567 375.738 141.861 379.51 142.34 383.525C142.742 386.908 142.932 390.521 142.906 394.269L152.569 392.508L152.517 392.778L148.765 412.199C148.537 413.378 148.846 414.584 149.614 415.509C150.378 416.429 151.5 416.956 152.694 416.956H152.715L153.594 416.952L152.794 417.315C141.992 422.222 130.519 426.214 118.693 429.179C112.092 430.834 105.469 431.662 98.8731 431.662ZM43.7618 298.578C35.0261 301.132 28.378 308.417 23.9954 320.24C21.4378 327.139 19.7021 335.596 18.9758 344.696C17.9185 357.94 20.0143 370.738 25.2048 382.732C30.0796 393.996 37.6661 404.186 47.1443 412.2C56.6395 420.229 67.9794 426.029 79.9384 428.974C92.668 432.109 105.676 432.055 118.601 428.815C130.163 425.915 141.387 422.033 151.974 417.273C150.944 417.103 150.004 416.568 149.324 415.749C148.485 414.737 148.146 413.418 148.396 412.128L152.095 392.977L142.525 394.72L142.528 394.493C142.563 390.68 142.375 387.004 141.966 383.569C141.494 379.609 140.217 375.887 138.171 372.508C136.204 369.26 133.626 366.483 130.509 364.254C124.085 359.661 115.968 357.971 108.239 359.618C98.7542 361.64 89.1369 364.212 78.8373 367.481C75.7428 368.463 72.8059 368.953 70.0323 368.953C61.5775 368.953 54.6348 364.4 49.3212 355.343C45.4103 348.714 42.2723 336.922 41.1316 324.569C40.5921 318.725 40.5467 313.233 41.0001 308.685C41.4531 304.144 42.4045 300.668 43.7618 298.578Z" fill="black"/>
<path d="M92.5773 259.876C93.8334 259.876 94.8516 258.858 94.8516 257.603C94.8516 256.348 93.8334 255.331 92.5773 255.331C91.3212 255.331 90.303 256.348 90.303 257.603C90.303 258.858 91.3212 259.876 92.5773 259.876Z" fill="white"/>
<path d="M106.32 241.802C104.989 240.971 103.463 240.447 101.851 240.289C101.554 240.261 101.257 240.244 100.965 240.241C101.183 238.393 101.951 234.31 104.414 235.247C106.851 236.175 106.574 240.068 106.32 241.802Z" fill="black"/>
<path d="M109.031 236.751C106.222 235.147 105.018 233.944 102.744 234.746C101.3 235.255 101.097 237.218 101.141 238.584C97.8637 237.27 93.2174 238.646 91.2531 241.595C90.2047 242.888 86.6737 247.651 88.4303 249.05C89.1717 249.64 90.5239 249.61 91.38 250.056C92.8281 250.81 93.4267 252.166 94.1724 253.496C94.5102 252.812 95.3856 248.587 94.3061 248.169C97.6878 248.977 97.057 246.023 97.5268 243.969C98.0589 241.643 101.34 239.886 103.68 240.627C103.147 239.814 102.432 239.21 101.609 238.795C102.066 237.379 102.945 235.226 103.948 235.682C105.419 236.35 102.458 242.766 105.769 245.774C108.957 248.669 110.133 245.473 112.51 251.187C113.128 252.674 111.841 238.355 109.031 236.751Z" fill="#FFCC83"/>
<path d="M112.364 248.649L111.976 248.624C112.164 245.717 111.74 242.731 110.751 239.99L111.116 239.859C112.123 242.649 112.555 245.689 112.364 248.649ZM99.7102 289.563C93.4692 289.563 88.2303 286.687 84.7536 284.068C80.4044 280.791 77.8007 277.197 77.7748 277.161C77.7146 277.077 77.7338 276.96 77.8179 276.9C77.9021 276.839 78.0191 276.859 78.0794 276.943C78.1049 276.978 80.6813 280.533 84.9879 283.775C88.9509 286.759 95.2338 290.082 102.664 288.968C102.765 288.953 102.862 289.023 102.877 289.125C102.893 289.227 102.822 289.323 102.72 289.338C101.694 289.492 100.689 289.563 99.7102 289.563Z" fill="black"/>
</g>
<g clip-path="url(#clip6_69_1133)">
<path d="M233.43 408.362H167.749V412.132H233.43V408.362Z" fill="#7C4B33"/>
<path d="M233.556 412.258H167.623V408.236H233.556V412.258ZM167.874 412.007H233.305V408.487H167.874L167.874 412.007Z" fill="black"/>
<path d="M279.143 408.362H235.062V412.132H279.143V408.362Z" fill="#FFBC97"/>
<path d="M279.268 412.258H234.936V408.236H279.268V412.258ZM235.187 412.007H279.017V408.487H235.187V412.007Z" fill="black"/>
<path d="M233.468 368.193H170.211V408.362H233.468V368.193Z" fill="#FFBC97"/>
<path d="M233.594 408.487H170.086V368.068H233.594V408.487ZM170.337 408.236H233.342V368.319H170.337V408.236Z" fill="black"/>
<path d="M283.95 368.193H233.468V408.362H283.95V368.193Z" fill="#FAD0C9"/>
<path d="M284.076 408.487H233.343V368.068H284.076V408.487ZM233.594 408.236H283.825V368.319H233.594V408.236Z" fill="black"/>
<path d="M233.478 366.27H230.534C229.179 366.27 228.081 367.368 228.081 368.722V467.239C228.081 468.593 229.179 469.691 230.534 469.691H233.478C234.832 469.691 235.93 468.593 235.93 467.239V368.722C235.93 367.368 234.832 366.27 233.478 366.27Z" fill="#112E5B"/>
<path d="M167.749 366.27H175.598V467.239C175.598 468.592 174.499 469.691 173.145 469.691H170.201C168.848 469.691 167.749 468.592 167.749 467.239L167.749 366.27Z" fill="#112E5B"/>
<path d="M233.478 469.817H230.534C229.112 469.817 227.956 468.66 227.956 467.239V368.722C227.956 367.301 229.112 366.144 230.534 366.144H233.478C234.9 366.144 236.056 367.301 236.056 368.722V467.239C236.056 468.66 234.9 469.817 233.478 469.817ZM230.534 366.395C229.251 366.395 228.207 367.439 228.207 368.722V467.239C228.207 468.522 229.251 469.566 230.534 469.566H233.478C234.761 469.566 235.805 468.522 235.805 467.239V368.722C235.805 367.439 234.761 366.395 233.478 366.395H230.534ZM173.145 469.817H170.201C168.78 469.817 167.623 468.66 167.623 467.239V366.144H175.724V467.239C175.724 468.66 174.567 469.817 173.145 469.817ZM167.874 366.395V467.239C167.874 468.522 168.918 469.566 170.201 469.566H173.145C174.428 469.566 175.472 468.522 175.472 467.239V366.395H167.874Z" fill="black"/>
<path d="M285.874 362.499H164.209V370.117H285.874V362.499Z" fill="#112E5B"/>
<path d="M286 370.243H164.083V362.373H286V370.243ZM164.334 369.992H285.749V362.625H164.334V369.992Z" fill="black"/>
<path d="M276.101 366.27H283.95V467.239C283.95 468.592 282.851 469.691 281.498 469.691H278.554C277.2 469.691 276.101 468.592 276.101 467.239V366.27Z" fill="#B8C2D8"/>
<path d="M281.498 469.817H278.554C277.132 469.817 275.975 468.66 275.975 467.239V366.144H284.076V467.239C284.076 468.66 282.919 469.817 281.498 469.817ZM276.227 366.395V467.239C276.227 468.522 277.271 469.566 278.554 469.566H281.498C282.781 469.566 283.825 468.522 283.825 467.239V366.395H276.227Z" fill="black"/>
<path d="M285.874 362.499H237.085V370.117H285.874V362.499Z" fill="#B8C2D8"/>
<path d="M286 370.243H236.959V362.373H286V370.243ZM237.211 369.992H285.749V362.625H237.211V369.992Z" fill="black"/>
<path d="M206.552 375.888H194.357C193.273 375.888 192.394 376.767 192.394 377.851C192.394 378.934 193.273 379.813 194.357 379.813H206.552C207.636 379.813 208.514 378.934 208.514 377.851C208.514 376.767 207.636 375.888 206.552 375.888Z" fill="#112E5B"/>
<path d="M206.552 379.939H194.357C193.205 379.939 192.269 379.002 192.269 377.851C192.269 376.699 193.205 375.763 194.357 375.763H206.552C207.704 375.763 208.64 376.699 208.64 377.851C208.64 379.002 207.704 379.939 206.552 379.939ZM194.357 376.014C193.344 376.014 192.52 376.838 192.52 377.851C192.52 378.863 193.344 379.687 194.357 379.687H206.552C207.565 379.687 208.389 378.863 208.389 377.851C208.389 376.838 207.565 376.014 206.552 376.014H194.357Z" fill="black"/>
</g>
<g clip-path="url(#clip7_69_1133)">
<path d="M199.569 362.217H232.514L243.418 330.523H210.473L199.569 362.217Z" fill="#90D8E0"/>
<path d="M232.613 362.356H199.375L210.374 330.384H243.612L232.613 362.356ZM199.764 362.079H232.415L243.223 330.661H210.572L199.764 362.079Z" fill="black"/>
<path d="M256.747 362.314H232.514L243.622 330.426L256.747 362.314Z" fill="black"/>
<path d="M240.606 330.426H240.269C240.269 329.113 239.49 328.045 238.531 328.045C237.573 328.045 236.793 329.113 236.793 330.426H236.457C236.457 328.927 237.387 327.708 238.531 327.708C239.675 327.708 240.606 328.927 240.606 330.426Z" fill="black"/>
<path d="M237.886 330.426H237.55C237.55 329.113 236.77 328.045 235.811 328.045C234.853 328.045 234.073 329.113 234.073 330.426H233.737C233.737 328.927 234.668 327.708 235.811 327.708C236.955 327.708 237.886 328.927 237.886 330.426Z" fill="black"/>
<path d="M234.899 330.426H234.563C234.563 329.113 233.783 328.045 232.825 328.045C231.866 328.045 231.087 329.113 231.087 330.426H230.75C230.75 328.927 231.681 327.708 232.825 327.708C233.969 327.708 234.899 328.927 234.899 330.426Z" fill="black"/>
<path d="M231.633 330.426H231.297C231.297 329.113 230.517 328.045 229.558 328.045C228.6 328.045 227.82 329.113 227.82 330.426H227.484C227.484 328.927 228.415 327.708 229.558 327.708C230.702 327.708 231.633 328.927 231.633 330.426Z" fill="black"/>
<path d="M228.913 330.426H228.577C228.577 329.113 227.797 328.045 226.839 328.045C225.88 328.045 225.101 329.113 225.101 330.426H224.764C224.764 328.927 225.695 327.708 226.839 327.708C227.983 327.708 228.913 328.927 228.913 330.426Z" fill="black"/>
<path d="M226.193 330.426H225.857C225.857 329.113 225.077 328.045 224.119 328.045C223.161 328.045 222.381 329.113 222.381 330.426H222.045C222.045 328.927 222.975 327.708 224.119 327.708C225.263 327.708 226.193 328.927 226.193 330.426Z" fill="black"/>
<path d="M223.474 330.426H223.137C223.137 329.113 222.358 328.045 221.399 328.045C220.441 328.045 219.661 329.113 219.661 330.426H219.325C219.325 328.927 220.256 327.708 221.399 327.708C222.543 327.708 223.474 328.927 223.474 330.426Z" fill="black"/>
<path d="M220.754 330.426H220.418C220.418 329.113 219.638 328.045 218.68 328.045C217.721 328.045 216.941 329.113 216.941 330.426H216.605C216.605 328.927 217.536 327.708 218.68 327.708C219.823 327.708 220.754 328.927 220.754 330.426Z" fill="black"/>
<path d="M218.034 330.426H217.698C217.698 329.113 216.918 328.045 215.96 328.045C215.001 328.045 214.222 329.113 214.222 330.426H213.885C213.885 328.927 214.816 327.708 215.96 327.708C217.104 327.708 218.034 328.927 218.034 330.426Z" fill="black"/>
<path d="M231.516 340.725H237.351L239.234 334.922H233.398L231.516 340.725Z" fill="white"/>
<path d="M237.474 340.893H231.285L233.276 334.754H239.465L237.474 340.893ZM231.747 340.557H237.229L239.002 335.09H233.52L231.747 340.557Z" fill="black"/>
<path d="M224.178 340.725H230.014L231.896 334.922H226.061L224.178 340.725Z" fill="white"/>
<path d="M230.136 340.893H223.948L225.939 334.754H232.128L230.136 340.893ZM224.41 340.557H229.892L231.665 335.09H226.183L224.41 340.557Z" fill="black"/>
<path d="M216.841 340.725H222.677L224.559 334.922H218.723L216.841 340.725Z" fill="white"/>
<path d="M222.799 340.893H216.61L218.601 334.754H224.79L222.799 340.893ZM217.073 340.557H222.555L224.328 335.09H218.846L217.073 340.557Z" fill="black"/>
<path d="M209.504 340.725H215.339L217.221 334.922H211.386L209.504 340.725Z" fill="white"/>
<path d="M215.461 340.893H209.272L211.264 334.754H217.453L215.461 340.893ZM209.735 340.557H215.217L216.99 335.09H211.508L209.735 340.557Z" fill="black"/>
<path d="M228.621 349.271H234.456L236.339 343.469H230.503L228.621 349.271Z" fill="white"/>
<path d="M234.579 349.439H228.39L230.381 343.301H236.57L234.579 349.439ZM228.852 349.103H234.334L236.107 343.637H230.625L228.852 349.103Z" fill="black"/>
<path d="M221.283 349.271H227.119L229.001 343.469H223.166L221.283 349.271Z" fill="#56A4FF"/>
<path d="M227.241 349.439H221.052L223.043 343.301H229.232L227.241 349.439ZM221.515 349.103H226.997L228.77 343.637H223.288L221.515 349.103Z" fill="black"/>
<path d="M213.946 349.271H219.782L221.664 343.469H215.828L213.946 349.271Z" fill="white"/>
<path d="M219.904 349.439H213.715L215.706 343.301H221.895L219.904 349.439ZM214.177 349.103H219.659L221.432 343.637H215.95L214.177 349.103Z" fill="black"/>
<path d="M206.609 349.271H212.444L214.326 343.469H208.491L206.609 349.271Z" fill="white"/>
<path d="M212.566 349.439H206.377L208.368 343.301H214.557L212.566 349.439ZM206.84 349.103H212.322L214.095 343.637H208.613L206.84 349.103Z" fill="black"/>
<path d="M225.726 357.818H231.561L233.443 352.015H227.608L225.726 357.818Z" fill="white"/>
<path d="M231.683 357.986H225.495L227.486 351.847H233.675L231.683 357.986ZM225.957 357.65H231.439L233.212 352.184H227.73L225.957 357.65Z" fill="black"/>
<path d="M218.388 357.818H224.224L226.106 352.015H220.271L218.388 357.818Z" fill="white"/>
<path d="M224.346 357.986H218.157L220.148 351.847H226.337L224.346 357.986ZM218.62 357.65H224.102L225.875 352.184H220.393L218.62 357.65Z" fill="black"/>
<path d="M211.051 357.818H216.886L218.769 352.015H212.933L211.051 357.818Z" fill="white"/>
<path d="M217.009 357.986H210.82L212.811 351.847H219L217.009 357.986ZM211.282 357.65H216.764L218.538 352.184H213.055L211.282 357.65Z" fill="black"/>
<path d="M203.714 357.818H209.549L211.431 352.015H205.596L203.714 357.818Z" fill="white"/>
<path d="M209.671 357.986H203.482L205.473 351.847H211.662L209.671 357.986ZM203.945 357.65H209.427L211.2 352.184H205.718L203.945 357.65Z" fill="black"/>
</g>
<defs>
<clipPath id="clip0_69_1133">
<rect width="423.507" height="362.297" fill="white" transform="translate(87.7666 85.7083)"/>
</clipPath>
<clipPath id="clip1_69_1133">
<rect width="167.491" height="274.864" fill="white" transform="translate(200.062 70.125)"/>
</clipPath>
<clipPath id="clip2_69_1133">
<rect width="147.028" height="160.812" fill="white" transform="translate(211.75 125.664)"/>
</clipPath>
<clipPath id="clip3_69_1133">
<rect width="370.243" height="253.491" fill="white" transform="translate(134.292 111.833)"/>
</clipPath>
<clipPath id="clip4_69_1133">
<rect width="171.875" height="287.216" fill="white" transform="translate(334.583 181.408)"/>
</clipPath>
<clipPath id="clip5_69_1133">
<rect width="235.583" height="239.795" fill="white" transform="translate(18.3334 230.736)"/>
</clipPath>
<clipPath id="clip6_69_1133">
<rect width="121.917" height="107.444" fill="white" transform="translate(164.083 362.373)"/>
</clipPath>
<clipPath id="clip7_69_1133">
<rect width="57.3723" height="34.6478" fill="white" transform="translate(199.375 327.708)"/>
</clipPath>
</defs>
</svg>
