<svg width="494" height="401" viewBox="0 0 494 401" fill="none" xmlns="http://www.w3.org/2000/svg">
<g clip-path="url(#clip0_0_1)">
<path d="M70.0055 154.575C66.4982 94.4008 102.023 39.9898 149.503 22.2954C180 10.9301 219.222 14.5272 247.122 31.114C289.302 56.1903 273.953 92.1378 313.175 114.632C352.499 137.184 382.458 109.383 428.33 131.232C477.227 154.521 489.373 208.108 490.876 215.268C502.425 270.292 471.349 328.667 417.224 357.923C340.706 399.283 239.813 370.72 210.296 326.798C193.917 302.426 203.164 278.754 176.977 259.361C152.484 241.223 129.471 250.88 108.001 234.462C93.9491 223.716 74.0973 203.337 70.0055 154.575Z" fill="#F5F8FC"/>
</g>
<g clip-path="url(#clip1_0_1)">
<path d="M328.99 0.125H202.626C191.269 0.125 182.062 9.33163 182.062 20.6886V254.425C182.062 265.782 191.269 274.989 202.626 274.989H328.99C340.346 274.989 349.553 265.782 349.553 254.425V20.6886C349.553 9.33163 340.346 0.125 328.99 0.125Z" fill="#B8C2D8"/>
<path d="M325.486 4.31006H308.266C306.43 4.31006 304.689 5.12852 303.517 6.54271L301.252 9.27681C299.328 11.5986 296.416 12.9502 293.337 12.9502H240.052C237.364 12.9502 234.786 11.919 232.885 10.0834L228.699 6.04078C227.549 4.93056 226.013 4.31006 224.415 4.31006H206.129C194.929 4.31006 185.849 13.3901 185.849 24.5909V250.928C185.849 262.129 194.929 271.209 206.129 271.209H325.486C336.687 271.209 345.767 262.129 345.778 252.745V26.4085C345.767 13.3901 336.687 4.31006 325.486 4.31006Z" fill="#F9F9FF"/>
<path d="M341.025 48.9183H190.87V216.269H341.025V48.9183Z" fill="white"/>
<path d="M338.04 229.44L335.476 226.318C335.337 226.171 335.109 226.171 334.97 226.318L332.406 229.021C332.183 229.256 331.798 229.092 331.798 228.761V220.925C331.798 220.516 332.14 220.184 332.562 220.184H337.884C338.306 220.184 338.648 220.516 338.648 220.925V229.181C338.648 229.511 338.263 229.676 338.04 229.44Z" fill="#B8C2D8" stroke="black" stroke-width="0.29425" stroke-miterlimit="10"/>
<path d="M200.635 229.228C200.261 229.231 199.902 229.084 199.636 228.821L196.448 225.655C195.19 224.409 195.18 222.379 196.426 221.121C197.545 219.991 199.322 219.852 200.603 220.793C202.023 219.734 204.032 220.026 205.091 221.445C206.042 222.719 205.916 224.497 204.795 225.624L201.63 228.813C201.367 229.078 201.009 229.228 200.635 229.228Z" fill="#56A4FF"/>
<path d="M302.578 238.219H195.484V242.693H302.578V238.219Z" fill="#B8C2D8"/>
<path d="M242.6 246.468H195.484V250.942H242.6V246.468Z" fill="#B8C2D8"/>
<path d="M244.278 29.3451H208.067V33.8189H244.278V29.3451Z" fill="#B8C2D8"/>
<path d="M340.885 29.3451H304.675V33.8189H340.885V29.3451Z" fill="#B8C2D8"/>
<path d="M233.093 36.056H208.067V40.5298H233.093V36.056Z" fill="#B8C2D8"/>
<path d="M197.581 40.5294C200.67 40.5294 203.173 38.0257 203.173 34.9373C203.173 31.8488 200.67 29.3451 197.581 29.3451C194.493 29.3451 191.989 31.8488 191.989 34.9373C191.989 38.0257 194.493 40.5294 197.581 40.5294Z" fill="#B8C2D8"/>
<path d="M293.7 10.1914C295.051 10.1914 296.146 9.09601 296.146 7.7448C296.146 6.39359 295.051 5.29822 293.7 5.29822C292.349 5.29822 291.253 6.39359 291.253 7.7448C291.253 9.09601 292.349 10.1914 293.7 10.1914Z" fill="black"/>
<path d="M286.5 6.41653H238.685V9.07303H286.5V6.41653Z" fill="black"/>
</g>
<g clip-path="url(#clip2_0_1)">
<path d="M305.554 93.1183C305.554 93.1183 309.731 87.9668 305.136 82.1191C305.136 82.1191 308.06 80.0307 307.921 78.0815C307.781 76.1322 303.187 76.6892 303.187 76.6892C303.187 76.6892 300.263 59.4247 280.911 68.7531C280.911 68.7531 284.531 61.7916 280.632 62.4877C276.734 63.1839 273.532 70.1454 273.671 72.7907C273.671 72.7907 263.786 70.1454 262.672 72.5123C261.558 74.8792 265.735 76.4107 265.735 76.4107C265.735 76.4107 257.103 78.9168 260.027 88.8021C260.027 88.8021 255.85 97.4344 267.963 95.4852C280.075 93.5359 305.554 93.1183 305.554 93.1183Z" fill="#FFCC83"/>
<path d="M248.241 212.656L243.916 213.762C235.761 215.846 227.46 210.925 225.375 202.77L213.455 156.135C211.37 147.98 216.291 139.679 224.446 137.594L228.771 136.489C236.926 134.404 245.227 139.325 247.312 147.48L259.233 194.115C261.317 202.27 256.396 210.571 248.241 212.656Z" fill="#FAD0C9"/>
<path d="M298.08 111.925C298.502 112.28 299.066 112.645 299.564 112.408C300.031 112.186 300.134 111.572 300.118 111.056C300.073 109.649 299.589 108.26 298.748 107.13C300.029 108.267 301.361 109.434 302.992 109.957C304.623 110.48 306.647 110.184 307.662 108.805C308.681 107.42 308.323 105.327 307.13 104.088C305.938 102.849 304.113 102.379 302.396 102.482C299.967 102.628 297.661 103.897 296.14 105.78C295.566 106.491 294.528 107.788 294.873 108.748C295.288 109.904 297.165 111.153 298.08 111.925Z" fill="#FFCC83"/>
<path d="M338.133 145.608L330.899 184.999L330.232 188.628L328.322 199.029V199.03L325.117 216.476H223.793L226.196 205.148V205.147L235.549 161.033L240.069 139.717L240.393 138.19L241.093 134.884L241.5 132.969L243.655 132.478L248.954 131.271L253.951 130.134L254.817 129.936L257.987 129.215C257.99 129.215 257.993 129.214 257.994 129.214L258.323 129.138H258.324L263.647 127.926H305.554C305.554 127.926 310.683 129.269 317.356 132.19C320.507 133.569 324.004 135.298 327.467 137.404C330.062 138.983 332.639 140.772 335.039 142.781C335.039 142.783 335.041 142.783 335.041 142.783C335.767 143.393 336.476 144.021 337.167 144.669C337.494 144.978 337.815 145.29 338.133 145.608Z" fill="#56A4FF"/>
<path d="M330.232 188.628L328.322 199.029V199.03L325.117 216.476H223.793L226.196 205.148V205.147L235.549 161.033L240.069 139.717L240.393 138.19L241.093 134.884L241.5 132.969L243.655 132.478L248.954 131.271L253.951 130.134L253.801 130.71L252.142 137.072L250.628 142.88L248.36 151.577V151.578L247.775 153.822L248.94 153.847L267.13 154.233L276.565 154.434L300.263 154.936C300.263 154.936 308.898 135.273 317.356 132.19C320.507 133.569 324.004 135.298 327.467 137.404C324.698 138.334 321.419 140.161 318.393 143.085C318.371 143.106 318.349 143.128 318.327 143.149L318.325 143.15C316.546 144.882 314.856 146.996 313.412 149.531L313.41 149.534C313.012 150.233 312.634 150.964 312.277 151.727C309.91 156.791 308.511 163.301 309.035 171.505C309.249 174.86 309.977 177.597 311.087 179.817C313.158 183.963 316.551 186.306 320.388 187.524H320.39C322.861 188.311 325.518 188.63 328.118 188.662C328.828 188.672 329.534 188.659 330.232 188.628Z" fill="#F9F9FF"/>
<path d="M294.258 174.75C294.355 173.883 295.142 173.255 296.013 173.314C298.793 173.501 306.389 175.036 317.806 185.149C332.425 198.097 328.387 201.857 324.071 200.743C319.755 199.629 308.478 193.642 303.744 188.63C299.602 184.244 293.85 178.43 294.258 174.75Z" fill="black"/>
<path d="M225.568 134.1C225.568 134.1 209.487 128.9 198.628 136.14C187.768 143.38 196.679 152.709 209.348 153.822C222.018 154.936 225.568 134.1 225.568 134.1Z" fill="#112E5B"/>
<path d="M305.554 127.926C305.554 127.926 296.504 138.925 274.367 139.899C252.23 140.874 256.685 129.596 256.685 129.596C263.693 127.779 267.314 123.21 269.184 118.849C271.324 113.854 271.165 109.13 271.165 109.13L279.815 105.382L296.226 98.2697C293.859 113.585 305.554 127.926 305.554 127.926Z" fill="#FAD0C9"/>
<path d="M293.441 104.814C293.441 104.814 283.417 129.039 274.367 125.698C271.282 124.559 269.798 121.882 269.184 118.849C271.324 113.854 271.165 109.13 271.165 109.13L279.815 105.382L293.441 104.814Z" fill="black"/>
<path d="M307.016 92.5811C305.583 90.5799 303.261 89.5501 300.808 89.5616C298.785 79.1336 291.317 73.2773 282.179 74.1752C272.287 75.1473 264.191 83.6618 265.379 95.7519C266.567 107.842 268.749 117.523 278.641 116.551C284.18 116.007 290.961 112.236 295.648 106.901C298.836 106.66 302.37 105.441 304.484 103.926C308.374 101.14 309.508 96.0603 307.016 92.5811Z" fill="#FAD0C9"/>
<path d="M305.285 99.2397C304.075 97.2121 302.241 95.5233 300.121 94.4843L300.432 93.8491C302.674 94.9476 304.613 96.7332 305.893 98.877L305.285 99.2397Z" fill="black"/>
<path d="M303.063 99.9829L302.389 99.7656L303.42 96.5691L304.093 96.7861L303.063 99.9829Z" fill="black"/>
<path d="M282.986 94.6645C283.604 94.6038 284.036 93.8556 283.952 92.9935C283.867 92.1314 283.297 91.4817 282.679 91.5425C282.061 91.6032 281.628 92.3514 281.713 93.2135C281.798 94.0756 282.368 94.7253 282.986 94.6645Z" fill="black"/>
<path d="M271.32 95.4328C271.938 95.3721 272.37 94.624 272.286 93.7618C272.201 92.8997 271.631 92.2501 271.013 92.3108C270.395 92.3715 269.962 93.1197 270.047 93.9818C270.132 94.8439 270.702 95.4936 271.32 95.4328Z" fill="black"/>
<path d="M272.251 101.873L271.935 101.24C273.746 100.337 275.151 98.7185 275.791 96.7992C276.431 94.8798 276.278 92.7416 275.371 90.9329L276.004 90.616C276.994 92.5913 277.161 94.9266 276.462 97.0229C275.763 99.1192 274.228 100.887 272.251 101.873ZM277.403 106.733L277.309 106.032C280.159 105.65 282.748 103.466 283.604 100.721L284.279 100.931C283.329 103.978 280.566 106.309 277.403 106.733ZM289.866 112.448L289.469 111.863C291.686 110.358 293.675 108.61 295.382 106.668L295.478 106.559L295.621 106.549C298.694 106.316 302.173 105.146 304.278 103.639C306.089 102.342 307.339 100.494 307.798 98.4364C308.254 96.3931 307.874 94.3869 306.729 92.7871C305.42 90.9605 303.279 89.9151 300.849 89.9151C300.836 89.9151 300.823 89.9152 300.809 89.9153L300.516 89.9166L300.46 89.6289C298.507 79.5578 291.345 73.6298 282.214 74.5273L282.145 73.8232C286.761 73.3694 290.995 74.5878 294.385 77.3469C297.751 80.0867 300.068 84.1847 301.099 89.2112C303.657 89.2808 305.906 90.4238 307.304 92.3752C308.568 94.1408 308.989 96.3481 308.489 98.5905C307.991 100.818 306.642 102.816 304.69 104.214C302.522 105.767 298.974 106.975 295.819 107.242C294.094 109.187 292.092 110.938 289.866 112.448ZM277.325 116.971C275.874 116.971 274.557 116.723 273.395 116.229L273.672 115.578C275.074 116.174 276.734 116.383 278.606 116.199C281.979 115.868 285.837 114.328 289.469 111.863L289.866 112.448C286.138 114.978 282.164 116.56 278.676 116.903C278.214 116.948 277.764 116.971 277.325 116.971Z" fill="black"/>
<path d="M305.515 216.476H266.504C263.868 212.253 261.389 207.501 259.034 202.377V202.376C254.455 192.406 250.345 181.035 246.472 169.458C245.588 166.819 244.717 164.17 243.856 161.525C242.086 156.088 243.356 150.276 246.892 146.109C247.943 144.87 249.196 143.776 250.628 142.88C250.792 142.777 250.959 142.677 251.129 142.58C253.664 141.118 256.431 140.423 259.162 140.423C264.123 140.423 268.962 142.717 272.069 146.872C272.45 147.382 272.804 147.918 273.129 148.482L276.566 154.434L291.108 179.622L304.417 202.672C306.939 207.041 307.183 212.102 305.515 216.476Z" fill="#FAD0C9"/>
<path d="M340.778 147.542V171.979L330.899 184.999L328.118 188.662L325.112 192.623L320.088 199.243L307.012 216.476H269.047C268.61 212.224 269.723 207.803 272.51 204.13L291.108 179.622L291.124 179.602L294.253 175.478L295.898 173.309L312.277 151.727L314.271 149.1C319.715 141.927 329.621 140.137 337.167 144.669C337.708 144.995 338.237 145.353 338.753 145.743C339.485 146.298 340.16 146.9 340.778 147.542Z" fill="#FAD0C9"/>
<path d="M235.967 140.346C253.805 137.87 267.807 132.559 267.242 128.484C266.676 124.409 251.757 123.114 233.919 125.59C216.08 128.067 202.078 133.377 202.644 137.452C203.21 141.527 218.129 142.823 235.967 140.346Z" fill="#F2F2F2"/>
<path d="M213.247 134.887C213.247 134.887 208.302 135.475 208.93 130.571C209.627 125.141 213.803 121.939 213.803 121.939C213.193 118.139 219.54 104.9 235.523 105.788C245.547 106.345 248.889 114.838 248.889 114.838C248.889 114.838 255.85 114.977 258.774 120.964C261.867 127.299 257.938 129.736 256.546 130.293C255.154 130.849 213.247 134.887 213.247 134.887Z" fill="#7C4B33"/>
<path d="M272.24 146.491C273.293 144.074 272.095 141.266 269.621 140.353C265.124 138.695 258.144 135.782 256.45 133.147C253.901 129.179 252.23 121.103 249.028 120.964C245.802 120.824 241.231 123.47 244.294 135.444C244.294 135.444 213.247 128.761 205.45 143.937C197.653 159.113 216.031 160.505 229.258 160.227C242.484 159.948 238.307 168.024 242.206 170.112C245.668 171.967 266.698 159.218 272.24 146.491Z" fill="#112E5B"/>
<path d="M340.778 146.861V178.246C335.17 188.88 329.923 196.705 328.322 199.029V199.03C328.015 199.474 327.843 199.717 327.826 199.74C327.829 199.733 327.833 199.728 327.836 199.721C327.85 199.692 327.864 199.661 327.877 199.63C327.879 199.625 327.882 199.619 327.884 199.614C327.897 199.583 327.909 199.551 327.921 199.518C327.926 199.505 327.93 199.491 327.934 199.477C327.944 199.452 327.953 199.426 327.96 199.399C327.965 199.384 327.969 199.369 327.974 199.353C327.98 199.331 327.986 199.309 327.99 199.285C327.997 199.26 328.004 199.233 328.008 199.207C328.017 199.169 328.024 199.132 328.029 199.093C328.035 199.064 328.039 199.034 328.042 199.004C328.046 198.979 328.049 198.954 328.05 198.929C328.054 198.887 328.057 198.842 328.06 198.799C328.063 198.748 328.064 198.695 328.064 198.64C328.064 197.305 327.25 195.339 325.112 192.623C324.205 191.469 323.057 190.179 321.632 188.744C321.54 188.652 321.447 188.557 321.352 188.464C321.044 188.158 320.723 187.844 320.39 187.524H320.388C319.6 186.77 318.741 185.977 317.806 185.149C315.392 183.01 313.149 181.256 311.087 179.817C303.393 174.448 298.205 173.461 296.014 173.313C295.975 173.31 295.937 173.309 295.898 173.309C295.846 173.309 295.793 173.312 295.74 173.317C295.712 173.32 295.685 173.323 295.659 173.327C295.614 173.334 295.569 173.342 295.524 173.352L295.457 173.369C295.407 173.383 295.358 173.399 295.309 173.418C295.286 173.426 295.264 173.436 295.24 173.445C295.218 173.455 295.194 173.465 295.172 173.477C295.151 173.486 295.129 173.497 295.109 173.509C295.094 173.516 295.08 173.525 295.066 173.533C295.045 173.544 295.024 173.557 295.005 173.569C294.952 173.603 294.902 173.638 294.854 173.676C294.838 173.689 294.821 173.703 294.804 173.718C294.787 173.732 294.772 173.746 294.755 173.761L303.063 162.973L313.41 149.534L313.412 149.531L318.325 143.15L318.326 143.149L318.363 143.102C318.363 143.102 318.372 143.096 318.393 143.085C318.939 142.793 326.687 138.798 335.039 142.781C335.039 142.783 335.041 142.783 335.041 142.783C336.067 143.272 337.101 143.881 338.133 144.633C339.101 145.339 339.983 146.081 340.778 146.861Z" fill="#56A4FF"/>
<path d="M272.139 79.3345C272.139 79.3345 269.216 84.0683 276.177 85.5998C283.138 87.1314 290.935 86.4352 290.935 86.4352C290.935 86.4352 288.29 96.3205 293.72 94.789C299.149 93.2575 297.618 87.549 303.883 89.6375C303.883 89.6375 297.757 73.3476 286.897 73.2084C276.038 73.0692 272.139 79.3345 272.139 79.3345Z" fill="#FFCC83"/>
<path d="M273.114 79.0561C273.114 79.0561 267.907 85.5721 265.178 86.296C262.449 87.0199 272.139 74.4615 280.215 74.4615C288.29 74.4615 273.114 79.0561 273.114 79.0561Z" fill="#FFCC83"/>
<path d="M299.428 193.085C299.336 193.085 299.245 193.039 299.192 192.955L290.699 179.45C290.618 179.319 290.657 179.147 290.787 179.066C290.917 178.984 291.089 179.023 291.171 179.153L299.664 192.658C299.746 192.789 299.706 192.96 299.576 193.042C299.53 193.071 299.479 193.085 299.428 193.085ZM294.694 174.011C294.634 174.011 294.574 173.992 294.523 173.952C294.402 173.858 294.38 173.683 294.474 173.561L312.017 151.006C312.111 150.884 312.287 150.863 312.408 150.957C312.529 151.052 312.551 151.227 312.457 151.348L294.914 173.903C294.859 173.974 294.777 174.011 294.694 174.011ZM224.101 122.59C224.065 122.59 224.029 122.583 223.993 122.568C220.795 121.222 217.085 121.12 213.817 122.286C213.673 122.337 213.513 122.262 213.462 122.117C213.41 121.972 213.485 121.813 213.63 121.761C217.028 120.549 220.884 120.656 224.209 122.055C224.351 122.114 224.418 122.277 224.358 122.419C224.313 122.526 224.21 122.59 224.101 122.59ZM215.939 125.736C215.81 125.736 215.694 125.645 215.667 125.513C215.636 125.362 215.733 125.215 215.884 125.184C218.321 124.687 220.813 124.551 223.289 124.779C223.442 124.793 223.555 124.929 223.541 125.082C223.527 125.235 223.39 125.347 223.238 125.334C220.816 125.11 218.379 125.244 215.995 125.73C215.976 125.734 215.958 125.736 215.939 125.736ZM227.44 114.09C227.365 114.09 227.291 114.06 227.236 114.002C226.245 112.936 224.907 112.23 223.468 112.012C223.316 111.989 223.212 111.847 223.235 111.695C223.258 111.543 223.402 111.439 223.552 111.462C225.114 111.698 226.567 112.465 227.643 113.622C227.748 113.735 227.742 113.911 227.629 114.016C227.576 114.066 227.508 114.09 227.44 114.09ZM229.093 111.618C229.038 111.618 228.982 111.602 228.933 111.567C227.947 110.868 226.871 110.305 225.736 109.892C225.592 109.84 225.517 109.68 225.57 109.535C225.622 109.391 225.783 109.316 225.927 109.369C227.109 109.799 228.228 110.385 229.255 111.113C229.38 111.202 229.41 111.376 229.321 111.501C229.267 111.578 229.181 111.618 229.093 111.618ZM235.934 113.906C235.84 113.906 235.749 113.858 235.696 113.772C233.992 110.974 231.047 108.965 227.82 108.4C227.668 108.373 227.567 108.229 227.593 108.077C227.62 107.926 227.765 107.825 227.916 107.851C231.299 108.444 234.385 110.549 236.172 113.483C236.252 113.614 236.21 113.785 236.079 113.865C236.034 113.893 235.984 113.906 235.934 113.906ZM243.734 115.699C243.625 115.699 243.521 115.635 243.477 115.528C243.417 115.387 243.484 115.223 243.626 115.164C245.3 114.461 247.14 114.178 248.948 114.347C249.101 114.361 249.214 114.497 249.2 114.65C249.185 114.803 249.052 114.915 248.897 114.901C247.18 114.742 245.432 115.01 243.841 115.677C243.806 115.692 243.769 115.699 243.734 115.699ZM254.504 122.933C254.388 122.933 254.279 122.859 254.24 122.743C253.599 120.824 252.13 119.152 250.31 118.27C250.172 118.203 250.114 118.036 250.181 117.898C250.248 117.76 250.415 117.702 250.553 117.769C252.535 118.729 254.071 120.478 254.768 122.566C254.817 122.712 254.738 122.87 254.592 122.919C254.563 122.928 254.533 122.933 254.504 122.933ZM231.868 104.115C231.445 104.115 231.021 104.079 230.602 103.992C229.307 103.721 227.876 102.776 227.602 101.276C227.35 99.9029 228.108 98.4503 229.855 96.9585L230.112 96.7402C231.25 95.7757 232.427 94.7784 232.655 93.4036C232.879 92.0472 232.135 90.5833 230.443 89.0524C230.239 88.8674 230.029 88.6842 229.819 88.5001C228.642 87.4713 227.426 86.4075 226.913 84.9038C226.045 82.3612 227.505 79.7633 228.943 77.5278C229.026 77.3983 229.198 77.3609 229.328 77.4442C229.457 77.5273 229.494 77.6996 229.411 77.8289C228.044 79.9549 226.652 82.4164 227.44 84.7239C227.905 86.0865 229.064 87.1004 230.185 88.0809C230.398 88.267 230.61 88.4524 230.817 88.6394C232.659 90.3056 233.462 91.9392 233.204 93.4947C232.943 95.071 231.63 96.1835 230.473 97.165L230.217 97.3821C228.632 98.7356 227.936 100.012 228.149 101.175C228.378 102.421 229.603 103.214 230.716 103.447C231.975 103.71 233.338 103.45 234.54 103.221C234.692 103.192 234.837 103.291 234.865 103.442C234.894 103.593 234.795 103.739 234.644 103.768C233.775 103.934 232.825 104.115 231.868 104.115Z" fill="black"/>
<path d="M234.064 96.891C233.984 96.891 233.905 96.8566 233.85 96.7902C233.752 96.6718 233.768 96.4963 233.887 96.3981C235.892 94.7356 236.29 91.4416 234.739 89.349C234.334 88.8035 233.834 88.3483 233.305 87.8662C232.731 87.3442 232.138 86.8044 231.685 86.1436C230.516 84.4396 230.483 82.0377 231.606 80.3025C231.689 80.1736 231.862 80.1365 231.991 80.22C232.12 80.3035 232.157 80.4759 232.074 80.605C231.07 82.1568 231.099 84.3047 232.144 85.8285C232.561 86.4362 233.104 86.9307 233.679 87.4544C234.205 87.9332 234.749 88.4283 235.186 89.0173C236.905 91.3356 236.464 94.9849 234.242 96.8269C234.19 96.87 234.127 96.891 234.064 96.891Z" fill="black"/>
<path d="M225.191 55.6635H198.872C197.085 55.6635 195.637 57.1118 195.637 58.8984V62.8709C195.637 64.6574 197.085 66.1057 198.872 66.1057H225.191C226.977 66.1057 228.426 64.6574 228.426 62.8709V58.8984C228.426 57.1118 226.977 55.6635 225.191 55.6635Z" fill="#56A4FF"/>
<path d="M205.728 58.0757H207.396V61.8472H209.405V63.1527H205.728V58.0757ZM210.13 58.0757H211.798V63.1527H210.13V58.0757ZM212.378 58.0757H214.09L214.989 61.7747H215.127L216.033 58.0757H217.723L216.374 63.1527H213.727L212.378 58.0757ZM218.303 58.0757H222.604V59.3812H219.942V59.9615H222.604V61.267H219.942V61.8472H222.604V63.1527H218.303V58.0757Z" fill="white"/>
<path d="M201.482 62.2091C202.212 62.2091 202.805 61.617 202.805 60.8865C202.805 60.1561 202.212 59.564 201.482 59.564C200.752 59.564 200.159 60.1561 200.159 60.8865C200.159 61.617 200.752 62.2091 201.482 62.2091Z" fill="white"/>
<path d="M227.169 200.047C227.15 200.047 227.13 200.045 227.11 200.04C226.96 200.008 226.864 199.86 226.897 199.709L235.251 161.004C235.283 160.853 235.43 160.757 235.582 160.79C235.732 160.822 235.827 160.971 235.795 161.121L227.441 199.827C227.413 199.957 227.298 200.047 227.169 200.047ZM260.068 134.775L259.796 134.122C264.526 132.16 267.112 130.122 266.891 128.532C266.711 127.237 264.65 126.15 261.086 125.472L261.219 124.777C265.216 125.538 267.36 126.769 267.592 128.435C267.941 130.95 263.693 133.271 260.068 134.775Z" fill="black"/>
</g>
<g clip-path="url(#clip3_0_1)">
<path d="M181.851 78.5378L123.922 78.5414C119.804 78.5416 116.466 81.8797 116.467 85.9972L116.467 101.285C116.468 105.403 119.806 108.74 123.923 108.74L163.558 108.738L186.093 116.426L183.572 108.535C186.86 107.758 189.308 104.806 189.308 101.281L189.307 85.9927C189.307 81.8752 185.969 78.5376 181.851 78.5378Z" fill="#56A4FF"/>
<path d="M186.365 116.703L163.529 108.912L123.923 108.915C119.716 108.915 116.293 105.492 116.293 101.285L116.292 85.9972C116.291 81.7899 119.714 78.3669 123.921 78.3666L181.851 78.363C186.058 78.3628 189.481 81.7854 189.482 85.9927L189.483 101.281C189.483 104.772 187.154 107.78 183.795 108.659L186.365 116.703ZM123.921 78.7161C119.907 78.7164 116.641 81.9826 116.641 85.9972L116.642 101.285C116.642 105.3 119.909 108.566 123.923 108.565L163.587 108.563L163.615 108.572L185.821 116.148L183.348 108.408L183.532 108.365C186.83 107.586 189.133 104.673 189.133 101.281L189.132 85.9927C189.132 81.9782 185.866 78.7123 181.851 78.7126L123.921 78.7161Z" fill="black"/>
<path d="M133.929 100.509C133.286 100.51 132.668 100.256 132.213 99.8011L126.744 94.331C124.586 92.1776 124.582 88.6821 126.735 86.5238C128.668 84.5863 131.729 84.3576 133.928 85.9863C136.379 84.1716 139.836 84.6866 141.651 87.1367C143.28 89.336 143.051 92.3968 141.114 94.3302L135.646 99.8C135.191 100.255 134.573 100.51 133.929 100.509ZM149.102 92.5077L149.102 89.2262C150.44 89.035 151.714 88.4933 152.638 87.2667L155.41 87.2666L155.41 98.4171L151.014 98.4174L151.013 92.0616C150.36 92.3324 149.691 92.4758 149.102 92.5077ZM160.651 95.1831C161.671 95.1831 162.276 94.9441 162.276 94.2592C162.276 93.5423 161.591 93.16 160.603 93.1601C159.759 93.1601 158.915 93.3195 158.309 93.7496L157.608 93.3992L158.58 87.2664L165.987 87.2659L165.987 90.4199L161.192 90.4202L161.033 91.3122C161.431 91.2486 161.861 91.2166 162.307 91.2166C164.761 91.2164 166.545 92.5067 166.545 94.7527C166.545 97.0306 164.665 98.7033 161.336 98.7035C159.536 98.7036 157.417 98.1621 156.302 96.9515L157.991 94.2753C158.58 94.785 159.759 95.1832 160.651 95.1831ZM172.088 86.9469C174.748 86.9467 176.692 88.237 176.692 90.6582C176.692 92.3149 175.784 93.4459 173.665 95.1345L176.915 95.1343L176.915 98.3999L167.039 98.4005L167.039 97.9226L170.129 94.7047C171.865 92.9045 172.455 92.2196 172.455 91.5983C172.455 90.977 172.009 90.5629 171.324 90.563C170.607 90.563 170.097 91.0409 169.97 91.8533L166.736 90.8818C167.054 88.5243 168.95 86.9471 172.088 86.9469Z" fill="white"/>
<path d="M406.249 42.0098H356.987C352.87 42.0098 349.532 45.3476 349.532 49.465V64.7532C349.532 68.8706 352.87 72.2084 356.987 72.2084H406.249C410.367 72.2084 413.704 68.8706 413.704 64.7532V49.465C413.704 45.3476 410.367 42.0098 406.249 42.0098Z" fill="#56A4FF"/>
<path d="M406.25 72.3815L356.988 72.3845C352.781 72.3848 349.358 68.9622 349.358 64.7549L349.357 49.467C349.356 45.2597 352.779 41.8366 356.986 41.8363L406.248 41.8333C410.455 41.8331 413.878 45.2558 413.878 49.4631L413.879 64.7509C413.88 68.9582 410.457 72.3812 406.25 72.3815ZM356.986 42.1859C352.972 42.1861 349.706 45.4524 349.706 49.467L349.707 64.7548C349.707 68.7694 352.974 72.0353 356.988 72.035L406.25 72.032C410.264 72.0317 413.53 68.7655 413.53 64.7509L413.529 49.4631C413.529 45.4485 410.262 42.1826 406.248 42.1828L356.986 42.1859Z" fill="black"/>
<path d="M386.266 50.9555C388.926 50.9553 390.87 52.2456 390.87 54.6668C390.87 56.3235 389.962 57.4545 387.843 59.1431L391.093 59.1429L391.093 62.4085L381.217 62.4091L381.217 61.9312L384.307 58.7133C386.043 56.9131 386.633 56.2282 386.633 55.6069C386.633 54.9856 386.186 54.5715 385.501 54.5716C384.785 54.5716 384.275 55.0495 384.148 55.8619L380.914 54.8904C381.232 52.5329 383.128 50.9557 386.266 50.9555ZM397.337 50.9548C400.603 50.9546 402.817 53.3599 402.817 56.8006C402.817 60.2891 400.603 62.7105 397.338 62.7107C394.072 62.7109 391.874 60.2898 391.874 56.8013C391.873 53.3765 394.071 50.955 397.337 50.9548ZM397.354 58.7444C398.261 58.7443 398.723 57.9955 398.723 56.8009C398.723 55.5902 398.261 54.8575 397.353 54.8576C396.445 54.8576 395.983 55.6063 395.983 56.801C395.983 58.0117 396.445 58.7444 397.354 58.7444ZM375.001 53.8445C374.557 53.3108 373.898 53.0025 373.204 53.0035L369.646 53.0037L370.024 51.9918C370.289 51.3229 370.332 50.5869 370.149 49.8914C369.758 48.5033 368.492 47.5438 367.05 47.5424C366.741 47.5422 366.461 47.7238 366.335 48.0059L364.114 53.0057L364.114 63.147L372.211 63.1465C373.342 63.1465 374.312 62.3372 374.514 61.2239L375.507 55.7623C375.632 55.0796 375.446 54.3767 375.001 53.8445Z" fill="white"/>
<path d="M364.115 53.0041L362.281 53.0042C360.989 53.0056 359.942 54.0528 359.941 55.345L359.941 60.8066C359.942 62.0987 360.99 63.1459 362.282 63.1471L364.115 63.147L364.115 53.0056V53.0041Z" fill="#112E5B"/>
<path d="M311.097 258.889C311.044 258.889 310.994 258.858 310.972 258.806L309.245 254.719C309.216 254.65 309.249 254.57 309.317 254.541C309.386 254.512 309.465 254.544 309.495 254.613L311.221 258.701C311.25 258.77 311.218 258.849 311.149 258.878C311.132 258.886 311.114 258.889 311.097 258.889ZM324.31 259.004C324.293 259.004 324.276 259.001 324.259 258.994C324.19 258.966 324.157 258.887 324.185 258.818L325.854 254.706C325.883 254.637 325.962 254.604 326.031 254.632C326.1 254.66 326.133 254.739 326.105 254.808L324.436 258.919C324.414 258.972 324.364 259.004 324.31 259.004ZM333.572 268.429C333.52 268.429 333.47 268.398 333.448 268.346C333.419 268.277 333.451 268.198 333.52 268.169L337.607 266.442C337.676 266.413 337.755 266.445 337.785 266.514C337.814 266.583 337.782 266.662 337.713 266.691L333.625 268.418C333.608 268.425 333.59 268.429 333.572 268.429ZM337.569 283.311C337.552 283.311 337.535 283.308 337.518 283.302L333.407 281.632C333.337 281.604 333.304 281.525 333.332 281.456C333.36 281.386 333.44 281.353 333.508 281.381L337.62 283.051C337.689 283.079 337.722 283.158 337.694 283.227C337.673 283.28 337.622 283.311 337.569 283.311ZM325.76 294.992C325.707 294.992 325.657 294.961 325.635 294.909L323.908 290.821C323.879 290.753 323.911 290.673 323.98 290.644C324.049 290.615 324.128 290.647 324.158 290.716L325.884 294.804C325.913 294.873 325.881 294.952 325.812 294.981C325.795 294.988 325.777 294.992 325.76 294.992ZM309.15 294.901C309.133 294.901 309.116 294.897 309.099 294.891C309.03 294.862 308.997 294.784 309.025 294.714L309.694 293.065C309.722 292.996 309.802 292.963 309.87 292.991C309.94 293.019 309.973 293.098 309.945 293.167L309.275 294.816C309.254 294.869 309.203 294.901 309.15 294.901Z" fill="black"/>
<path d="M309.82 293.251C309.803 293.251 309.785 293.248 309.769 293.241C309.7 293.213 309.666 293.134 309.694 293.065L310.694 290.603C310.722 290.534 310.802 290.501 310.87 290.529C310.94 290.557 310.973 290.636 310.945 290.705L309.945 293.167C309.924 293.219 309.873 293.251 309.82 293.251ZM297.47 283.091C297.417 283.091 297.367 283.06 297.345 283.009C297.316 282.94 297.348 282.86 297.417 282.831L299.461 281.968C299.529 281.939 299.609 281.971 299.638 282.04C299.667 282.109 299.635 282.188 299.566 282.217L297.523 283.081C297.505 283.088 297.487 283.091 297.47 283.091Z" fill="black"/>
<path d="M299.514 282.228C299.461 282.228 299.411 282.197 299.389 282.145C299.36 282.076 299.392 281.997 299.461 281.968L301.505 281.105C301.573 281.076 301.653 281.108 301.682 281.177C301.711 281.245 301.679 281.325 301.61 281.354L299.566 282.217C299.549 282.224 299.531 282.228 299.514 282.228ZM301.672 268.151C301.655 268.151 301.638 268.148 301.621 268.141L298.389 266.829C298.32 266.8 298.286 266.722 298.314 266.652C298.343 266.583 298.422 266.55 298.491 266.578L301.723 267.89C301.792 267.919 301.826 267.997 301.798 268.067C301.776 268.119 301.726 268.151 301.672 268.151ZM317.596 257.632C317.522 257.632 317.461 257.572 317.46 257.498L317.435 255.693C317.434 255.619 317.494 255.557 317.569 255.556H317.571C317.644 255.556 317.705 255.616 317.706 255.69L317.731 257.495C317.732 257.569 317.672 257.631 317.598 257.632H317.596ZM329.795 262.71C329.761 262.71 329.727 262.697 329.7 262.672C329.647 262.62 329.646 262.534 329.698 262.481L332.327 259.777C332.379 259.724 332.465 259.723 332.518 259.775C332.572 259.827 332.573 259.913 332.521 259.966L329.892 262.669C329.865 262.696 329.83 262.71 329.795 262.71ZM334.83 274.927C334.756 274.927 334.696 274.868 334.694 274.794C334.694 274.719 334.753 274.658 334.828 274.657L337.046 274.626H337.048C337.122 274.626 337.182 274.685 337.184 274.759C337.185 274.834 337.125 274.895 337.05 274.896L334.832 274.927H334.83ZM331.039 288.379C331.005 288.379 330.971 288.366 330.945 288.341L329.657 287.088C329.603 287.036 329.602 286.95 329.654 286.897C329.706 286.843 329.792 286.842 329.846 286.894L331.134 288.147C331.187 288.199 331.188 288.284 331.136 288.338C331.11 288.365 331.074 288.379 331.039 288.379ZM317.578 295.324C317.504 295.324 317.444 295.265 317.443 295.191L317.399 292.028C317.398 291.953 317.458 291.892 317.532 291.891H317.534C317.608 291.891 317.668 291.95 317.669 292.024L317.713 295.187C317.714 295.262 317.655 295.323 317.58 295.324H317.578ZM304.385 288.059C304.351 288.059 304.317 288.047 304.291 288.021C304.237 287.969 304.236 287.883 304.288 287.83L305.238 286.853C305.29 286.8 305.376 286.799 305.429 286.851C305.483 286.903 305.484 286.988 305.432 287.042L304.482 288.018C304.456 288.046 304.421 288.059 304.385 288.059ZM297.624 274.903C297.55 274.903 297.489 274.844 297.488 274.769C297.487 274.695 297.547 274.633 297.622 274.632L300.298 274.595H300.3C300.374 274.595 300.434 274.654 300.435 274.729C300.436 274.803 300.377 274.865 300.302 274.866L297.626 274.903H297.624ZM305.379 262.667C305.345 262.667 305.311 262.654 305.284 262.628L303.533 260.926C303.48 260.873 303.479 260.788 303.531 260.734C303.583 260.681 303.668 260.68 303.722 260.732L305.473 262.434C305.526 262.487 305.528 262.572 305.475 262.626C305.449 262.653 305.414 262.667 305.379 262.667ZM311.097 258.889C311.044 258.889 310.994 258.858 310.972 258.806L309.245 254.719C309.216 254.65 309.249 254.57 309.317 254.541C309.386 254.512 309.466 254.544 309.495 254.613L311.221 258.701C311.251 258.77 311.218 258.849 311.15 258.878C311.132 258.886 311.114 258.889 311.097 258.889ZM324.31 259.004C324.293 259.004 324.276 259.001 324.259 258.994C324.19 258.966 324.157 258.887 324.185 258.818L325.854 254.706C325.883 254.637 325.962 254.604 326.031 254.632C326.1 254.66 326.133 254.739 326.105 254.808L324.436 258.919C324.414 258.972 324.364 259.004 324.31 259.004ZM333.572 268.429C333.52 268.429 333.47 268.398 333.448 268.346C333.419 268.277 333.451 268.198 333.52 268.169L337.607 266.442C337.676 266.413 337.756 266.445 337.785 266.514C337.814 266.583 337.782 266.662 337.713 266.691L333.625 268.418C333.608 268.425 333.59 268.429 333.572 268.429ZM337.569 283.311C337.552 283.311 337.535 283.308 337.518 283.302L333.407 281.632C333.337 281.604 333.304 281.525 333.332 281.456C333.36 281.386 333.44 281.353 333.508 281.381L337.62 283.051C337.689 283.079 337.722 283.158 337.694 283.227C337.673 283.28 337.622 283.311 337.569 283.311ZM325.76 294.992C325.707 294.992 325.657 294.961 325.635 294.909L323.908 290.821C323.879 290.753 323.911 290.673 323.98 290.644C324.049 290.615 324.128 290.647 324.158 290.716L325.884 294.804C325.913 294.873 325.881 294.952 325.812 294.981C325.795 294.988 325.777 294.992 325.76 294.992ZM309.15 294.901C309.133 294.901 309.116 294.897 309.099 294.891C309.03 294.862 308.997 294.784 309.025 294.714L310.694 290.603C310.722 290.534 310.802 290.501 310.87 290.528C310.94 290.557 310.973 290.636 310.945 290.705L309.275 294.816C309.254 294.869 309.203 294.901 309.15 294.901Z" fill="black"/>
<path d="M297.47 283.091C297.417 283.091 297.367 283.06 297.345 283.009C297.316 282.94 297.348 282.86 297.417 282.831L301.505 281.105C301.573 281.076 301.653 281.108 301.682 281.177C301.711 281.245 301.679 281.325 301.61 281.354L297.523 283.081C297.505 283.088 297.487 283.091 297.47 283.091ZM301.672 268.151C301.656 268.151 301.638 268.148 301.622 268.141L297.51 266.472C297.441 266.444 297.407 266.365 297.436 266.295C297.464 266.226 297.543 266.193 297.612 266.221L301.723 267.89C301.793 267.919 301.826 267.997 301.798 268.067C301.776 268.119 301.726 268.151 301.672 268.151Z" fill="black"/>
<path d="M321.339 283.697C320.603 284.01 319.773 284.017 319.032 283.717L310.123 280.098C306.61 278.676 304.915 274.675 306.337 271.162C307.614 268.008 311.008 266.266 314.315 267.067C316.243 263.804 320.451 262.722 323.714 264.65C326.643 266.381 327.862 269.996 326.579 273.147L322.962 282.055C322.661 282.797 322.077 283.387 321.339 283.697Z" fill="#56A4FF"/>
<path d="M462.713 107.932C455.029 112.266 452.313 122.008 456.647 129.691C460.98 137.375 470.722 140.091 478.406 135.757C486.09 131.424 488.805 121.682 484.472 113.998C480.138 106.315 470.397 103.599 462.713 107.932ZM477.694 121.489C479.423 124.562 478.338 128.456 475.267 130.192C472.193 131.922 468.299 130.836 466.564 127.766C466.13 126.998 466.401 126.024 467.169 125.591L467.17 125.59L475.518 120.882C476.285 120.448 477.259 120.719 477.693 121.487L477.694 121.489Z" fill="#FFCC83"/>
<path d="M473.164 118.305C474.046 118.305 474.761 117.59 474.761 116.708C474.761 115.826 474.046 115.111 473.164 115.111C472.282 115.111 471.567 115.826 471.567 116.708C471.567 117.59 472.282 118.305 473.164 118.305Z" fill="#112E5B"/>
<path d="M464.816 123.013C465.698 123.013 466.414 122.298 466.414 121.416C466.414 120.534 465.698 119.819 464.816 119.819C463.934 119.819 463.219 120.534 463.219 121.416C463.219 122.298 463.934 123.013 464.816 123.013Z" fill="#112E5B"/>
<path d="M475.267 130.192C472.193 131.922 468.299 130.836 466.564 127.766C466.13 126.998 466.401 126.024 467.169 125.591L467.17 125.59L475.518 120.882C476.285 120.448 477.259 120.719 477.693 121.487L477.694 121.489C479.423 124.562 478.338 128.456 475.267 130.192Z" fill="#112E5B"/>
</g>
<g clip-path="url(#clip4_0_1)">
<path d="M374.288 223H453.427C453.427 223 459.491 224.97 459.946 255.731C460.075 264.431 463.051 285.254 464.039 296.493C466.545 324.988 470.71 355.287 470.71 355.287H435.386L418.709 297.099L412.19 246.487L416.131 297.402L422.499 359.378H388.084L378.684 297.856L374.288 223Z" fill="#B8C2D8"/>
<path d="M430.383 144.053C430.383 147.777 426.629 152.387 418.633 152.387C410.637 152.387 406.428 147.777 406.428 144.053C406.428 140.328 411.016 140.416 419.012 140.416C427.008 140.416 430.383 140.328 430.383 144.053Z" fill="black"/>
<path d="M454.356 157.998C452.852 171.225 451.293 184.921 449.788 198.149C450.953 205.133 452.261 216.015 453.427 223H374.288C378.921 200.372 383.61 177.464 388.245 154.835C388.696 152.623 390.476 150.929 392.684 150.571L413.099 147.235L430.989 149.053L449.814 152.031C450.076 152.072 450.333 152.132 450.578 152.209C453.054 152.957 454.663 155.459 454.356 157.998Z" fill="#FFBC97"/>
<path d="M453.976 161.342L453.493 165.58L386.21 164.77L387.077 160.536L453.976 161.342Z" fill="#F2F2F2"/>
<path d="M454.317 156.498L388.067 155.699L388.245 154.835C388.528 153.449 389.332 152.264 390.443 151.484L450.578 152.209C452.551 152.819 453.988 154.499 454.317 156.498Z" fill="#8E8E8D"/>
<path d="M451.909 179.503L451.427 183.74L382.496 182.91L383.363 178.676L451.909 179.503Z" fill="#F2F2F2"/>
<path d="M452.943 170.422L452.461 174.66L384.354 173.839L385.22 169.605L452.943 170.422Z" fill="#F2F2F2"/>
<path d="M450.416 201.913L378.783 201.049L379.648 196.815L449.843 197.663L449.788 198.149L450.416 201.913Z" fill="#F2F2F2"/>
<path d="M450.877 188.583L450.395 192.82L380.64 191.979L381.506 187.746L450.877 188.583Z" fill="#F2F2F2"/>
<path d="M453.427 219.97L375.068 219.189L375.934 214.957L452.744 215.883L453.427 219.97Z" fill="#F2F2F2"/>
<path d="M451.935 211.023L376.926 210.119L377.791 205.886L451.226 206.771L451.935 211.023Z" fill="#F2F2F2"/>
<path d="M411.432 156.478C411.432 156.478 400.763 196.6 402.69 225.461C402.913 228.802 400.665 231.795 397.392 232.509C388.125 234.53 380.279 234.612 374.152 232.348C372.457 231.722 371.487 229.936 371.861 228.169L386.85 157.311C387.596 153.782 390.403 151.055 393.952 150.407L407.187 147.992L411.432 156.478ZM420.073 156.478L415.048 227.083C414.885 229.372 416.474 231.627 418.766 231.774C435.537 232.85 423.105 226.788 445.392 217.697C447.759 216.731 456.122 226.841 455.856 224.299L452.972 196.785L455.28 157.029C455.432 154.405 453.547 152.103 450.943 151.733L430.989 148.902L420.073 156.478Z" fill="#112E5B"/>
<path d="M427.957 116.625C427.957 116.625 426.592 111.97 420.831 112.383C415.07 112.795 417.344 118.774 417.344 118.774C417.344 118.774 424.318 120.747 427.957 116.625Z" fill="#141414"/>
<path d="M424.925 118.225C424.925 118.225 419.467 109.18 412.645 111.928C405.822 114.676 408.248 122.759 405.671 123.858C403.093 124.957 402.184 123.583 402.184 123.583C402.184 123.583 403.851 129.766 412.796 127.293C421.741 124.82 424.925 118.225 424.925 118.225Z" fill="#141414"/>
<path d="M412.618 156.551C422.776 158.673 430.963 149.126 430.963 149.126C427.476 146.853 425.353 133.367 425.353 133.367L423.296 133.282L412.163 134.579V134.605C412.283 139.13 411.563 142.221 410.661 144.297C410.622 144.39 410.579 144.48 410.537 144.568C409.169 147.419 406.554 148.369 406.554 148.369C406.554 148.369 402.283 154.394 412.618 156.551ZM324.712 160.266C324.712 160.266 326.076 164.055 335.173 162.994C344.269 161.933 352.608 153.144 349.121 147.992C345.634 142.84 332.596 133.142 328.654 134.506C324.712 135.87 324.712 160.266 324.712 160.266Z" fill="#7C4B33"/>
<path d="M433.415 121.323C433.415 121.323 432.505 128.899 430.079 130.869C427.654 132.839 424.925 122.232 424.925 122.232L433.415 121.323Z" fill="#683B2A"/>
<path d="M410.537 144.568C418.604 145.174 423.382 134.428 423.382 134.428C423.413 133.978 423.381 133.599 423.296 133.282L412.163 134.605C412.283 139.13 411.563 142.221 410.661 144.297C410.622 144.39 410.579 144.48 410.537 144.568Z" fill="black"/>
<path d="M431.194 128.433C430.401 127.327 429.117 126.758 427.761 126.764C426.642 121.001 422.513 117.765 417.46 118.261C411.991 118.798 407.514 123.503 408.171 130.185C408.828 136.866 410.035 142.217 415.504 141.679C418.567 141.379 422.316 139.295 424.908 136.347C426.67 136.213 428.625 135.539 429.793 134.703C431.945 133.163 432.572 130.355 431.194 128.433Z" fill="#7C4B33"/>
<path d="M430.237 132.112C429.568 130.992 428.553 130.059 427.381 129.484L427.553 129.133C428.793 129.74 429.865 130.727 430.573 131.912L430.237 132.112Z" fill="black"/>
<path d="M429.391 130.697L428.822 132.463L429.391 130.697Z" fill="white"/>
<path d="M429.008 132.523L428.635 132.403L429.205 130.637L429.577 130.756L429.008 132.523Z" fill="black"/>
<path d="M417.907 129.584C418.248 129.551 418.487 129.137 418.441 128.661C418.394 128.184 418.079 127.825 417.737 127.859C417.395 127.892 417.156 128.306 417.203 128.782C417.25 129.259 417.565 129.618 417.907 129.584Z" fill="black"/>
<path d="M411.456 130.009C411.798 129.975 412.037 129.561 411.99 129.085C411.943 128.608 411.628 128.249 411.286 128.283C410.945 128.317 410.706 128.73 410.752 129.207C410.799 129.683 411.114 130.042 411.456 130.009Z" fill="black"/>
<path d="M411.971 133.568L411.796 133.218C412.797 132.719 413.575 131.825 413.928 130.764C414.282 129.703 414.198 128.521 413.696 127.522L414.046 127.347C414.593 128.438 414.686 129.729 414.299 130.887C413.913 132.046 413.064 133.023 411.971 133.568ZM414.82 136.254L414.768 135.866C416.344 135.655 417.775 134.448 418.248 132.931L418.622 133.047C418.096 134.731 416.568 136.019 414.82 136.254Z" fill="black"/>
<path d="M414.777 141.912C413.974 141.912 413.246 141.774 412.603 141.501L412.756 141.142C413.532 141.471 414.45 141.587 415.485 141.485C418.526 141.186 422.254 139.069 424.761 136.218L424.814 136.158L424.893 136.152C426.592 136.023 428.516 135.377 429.68 134.544C431.74 133.069 432.348 130.379 431.035 128.546C430.311 127.537 429.127 126.959 427.784 126.959C427.776 126.959 427.769 126.959 427.762 126.959L427.6 126.96L427.569 126.801C426.489 121.235 422.53 117.961 417.48 118.455L417.441 118.066C422.657 117.554 426.757 120.887 427.922 126.57C429.336 126.609 430.58 127.24 431.353 128.319C432.791 130.326 432.143 133.261 429.907 134.861C428.709 135.72 426.747 136.388 425.002 136.535C422.397 139.471 418.684 141.564 415.523 141.874C415.268 141.899 415.019 141.912 414.777 141.912Z" fill="black"/>
<path d="M423.105 123.747C423.105 123.747 425.531 126.93 424.925 129.354H425.834C425.834 129.354 426.592 126.475 429.473 126.475C432.354 126.475 428.867 121.323 428.867 121.323L423.105 123.747Z" fill="#683B2A"/>
<path d="M433.111 122.039C433.111 122.039 429.836 122.358 428.108 122.99C425.834 123.821 422.454 125.379 421.892 123.444C421.134 120.834 419.922 120.973 416.131 120.835C416.131 120.835 420.073 115.205 425.834 114.656C431.595 114.106 433.869 116.576 433.869 119.324C433.869 122.072 433.111 122.039 433.111 122.039Z" fill="#141414"/>
<path d="M420.073 117.989C420.073 117.989 417.193 122.072 413.251 122.896C409.309 123.72 408.248 127.839 408.248 127.839C406.697 128.209 404.945 117.145 420.073 117.989Z" fill="#141414"/>
<path d="M431.899 149.205C431.512 149.999 431.021 150.709 430.46 151.347C430.36 151.464 430.255 151.578 430.148 151.688C429.209 152.672 428.106 153.466 426.987 154.102C426.879 154.164 426.77 154.225 426.662 154.282C425.336 155.002 424.005 155.507 422.911 155.848C422.799 155.883 422.689 155.916 422.581 155.949C421.271 156.337 420.377 156.478 420.377 156.478C418.512 153.449 419.335 148.988 419.816 147.086C419.951 146.55 420.39 146.147 420.935 146.044C421.23 145.988 421.52 145.922 421.803 145.848C421.915 145.818 422.026 145.788 422.135 145.756C423.559 145.342 424.825 144.718 425.877 144.074C425.986 144.006 426.095 143.939 426.2 143.871C428.06 142.675 429.17 141.477 429.17 141.477C429.235 141.467 429.3 141.466 429.362 141.472C429.484 141.483 429.599 141.522 429.71 141.587C431.397 142.561 431.899 149.205 431.899 149.205ZM412.302 147.741C410.665 155.328 411.432 156.478 411.432 156.478C411.432 156.478 409.858 156.216 408.236 155.266L407.92 155.072C407.046 154.511 406.185 153.74 405.577 152.694L405.575 152.69C405.48 152.525 405.389 152.353 405.307 152.173V152.172C404.863 151.202 404.631 150.026 404.761 148.598C405.037 145.566 405.795 143.765 406.562 142.699V142.698C406.699 142.51 406.833 142.345 406.968 142.199C407.807 141.287 408.551 141.173 408.551 141.173C407.541 142.316 408.265 143.31 409.38 144.062C409.482 144.131 409.587 144.198 409.694 144.262C410.067 144.486 410.469 144.686 410.854 144.857C411.959 145.348 412.557 146.559 412.302 147.741Z" fill="#FFCC83"/>
<path d="M341.995 158.445C341.995 158.445 339.418 155.186 343.057 141.173C343.057 141.173 339.583 130.363 343.815 129.077C346.392 128.293 347.302 129.824 347.605 133.748C347.908 137.673 348.969 138.9 352.305 144.507C354.044 147.431 352.153 161.357 352.153 161.357C352.153 161.357 342.753 164.775 341.995 158.445Z" fill="#7C4B33"/>
<path d="M344.558 151.017L335.455 117.846C335.427 117.745 335.392 117.65 335.352 117.559L336.31 117.161L334.167 116.562L334.165 116.563C333.956 116.53 333.74 116.548 333.527 116.626L318.565 122.146C317.766 122.441 317.334 123.465 317.6 124.433L326.704 157.604C326.918 158.385 327.521 158.891 328.166 158.903L329.59 158.891L329.549 158.485L343.594 153.303C344.392 153.009 344.824 151.985 344.558 151.017Z" fill="#8EA0C1"/>
<path d="M345.261 153.36L330.295 158.844C329.496 159.136 328.634 158.597 328.369 157.639L319.3 124.813C319.035 123.855 319.468 122.841 320.267 122.548L335.234 117.064C336.032 116.772 336.895 117.311 337.159 118.269L346.228 151.095C346.493 152.053 346.06 153.067 345.261 153.36Z" fill="#B8C2D8"/>
<path d="M343.968 152.551L330.945 157.322C330.146 157.615 329.284 157.075 329.019 156.117L320.594 125.622C320.329 124.664 320.762 123.65 321.561 123.358L334.584 118.586C335.383 118.293 336.245 118.833 336.51 119.791L344.935 150.286C345.2 151.244 344.767 152.258 343.968 152.551Z" fill="#141414"/>
<path d="M323.524 122.234L324.769 123.019C324.943 123.128 325.162 123.15 325.361 123.078L331.943 120.695C332.204 120.6 332.384 120.361 332.396 120.092L332.45 118.916L323.524 122.234Z" fill="#B8C2D8"/>
<path d="M320.171 143.05C320.171 143.05 313.432 132.79 318.426 131.393C323.42 129.997 322.492 141.519 322.492 141.519L320.171 143.05Z" fill="#7C4B33"/>
<path d="M317.82 146.052C317.82 146.052 315.476 140.801 319.431 139.195C322.39 137.992 326.905 141.326 328.99 143.081C330.035 143.961 330.776 145.162 331.02 146.506C331.35 148.324 330.836 150.484 326.472 150.379C318.99 150.201 317.82 146.052 317.82 146.052Z" fill="#7C4B33"/>
<path d="M324.41 156.959C322.207 157.327 320.069 156.024 319.404 153.892C318.618 151.372 317.993 148.124 319.613 147.246C322.361 145.758 330.338 147.868 330.256 151.683C330.195 154.509 327.784 156.396 324.41 156.959Z" fill="#7C4B33"/>
<path d="M443.378 242.3C437.343 239.678 433.454 235.578 430.722 230.682C429.999 229.386 430.179 227.775 431.182 226.681L438.281 218.937L454.396 233.695L447.27 241.469C446.282 242.546 444.718 242.883 443.378 242.3Z" fill="#FFCC83"/>
<path d="M484.093 203.695L483.718 204.008C480.262 206.483 472.833 206.786 467.191 202.527C455.033 194.306 447.07 183.394 441.04 171.244C436.885 166.274 437.548 158.879 442.521 154.726L442.896 154.413C447.868 150.261 455.267 150.923 459.422 155.893L485.573 187.176C489.728 192.147 489.065 199.542 484.093 203.695Z" fill="#112E5B"/>
<path d="M484.335 185.782L484.69 186.118C489.396 190.57 489.206 196.785 486.781 203.453C479.564 215.665 468.14 225.461 455.403 234.111C451.911 236.335 449.2 237.312 446.074 235.732C441.592 233.466 438.761 230.491 436.825 227.132C435.076 224.098 435.841 221.333 437.93 217.733C445.459 205.345 455.037 194.564 467.749 186.239C473.742 182.844 479.629 181.331 484.335 185.782Z" fill="#112E5B"/>
<path d="M469.801 374.531H440.237L438.873 356.499H468.436L469.801 374.531Z" fill="#FFCC83"/>
<path d="M420.225 374.531H390.661L389.297 356.499H418.86L420.225 374.531Z" fill="#FFCC83"/>
<path d="M353.845 216.121L353.843 216.12C347.943 211.443 346.953 202.867 351.633 196.969L384.324 155.768C389.001 149.874 397.569 148.886 403.465 153.559L403.467 153.56C409.367 158.237 410.357 166.813 405.677 172.711L372.986 213.912C368.309 219.806 359.741 220.795 353.845 216.121Z" fill="#112E5B"/>
<path d="M356.391 163.785L335.616 175.774L331.315 168.328C329.839 165.772 330.715 162.504 333.271 161.03L344.793 154.381C347.347 152.907 350.612 153.782 352.088 156.335L356.391 163.785Z" fill="#FFCC83"/>
<path d="M368.527 217.09L368.566 217.106C362.125 220.76 353.973 216.314 351.26 213.784C341.237 199.361 335.779 191.936 332.747 178.753C332.141 170.57 330.551 171.043 336.992 167.388L346.392 161.933C352.832 158.279 356.246 160.569 360.188 167.085C370.801 183.602 373.573 184.957 377.261 199.031C378.286 206.49 374.967 213.436 368.527 217.09Z" fill="#112E5B"/>
<path d="M322.902 155.907C322.902 155.907 322.77 162.315 328.655 161.737C334.539 161.159 335.363 155.597 333.813 153.769C332.398 152.103 327.706 152.085 322.902 155.907Z" fill="#7C4B33"/>
<path d="M470.596 345.437H433.984C431.911 345.437 430.231 347.117 430.231 349.19V358.958C430.231 361.031 431.911 362.711 433.984 362.711H470.596C472.668 362.711 474.349 361.031 474.349 358.958V349.19C474.349 347.117 472.668 345.437 470.596 345.437Z" fill="#112E5B"/>
<path d="M420.702 345.437H385.332C382.917 345.437 380.958 347.395 380.958 349.811V358.337C380.958 360.753 382.917 362.711 385.332 362.711H420.702C423.118 362.711 425.076 360.753 425.076 358.337V349.811C425.076 347.395 423.118 345.437 420.702 345.437Z" fill="#112E5B"/>
<path d="M426.896 395.594H347.756C347.756 394.442 347.803 393.316 347.9 392.228C347.911 392.096 347.923 391.968 347.937 391.837C348.71 384.018 351.986 378.148 357.762 377.774C360.654 377.587 365.282 376.455 369.934 374.764C370.15 374.686 370.366 374.607 370.582 374.525C373.069 373.593 375.54 372.507 377.731 371.325C377.881 371.244 378.028 371.162 378.176 371.079H378.178C380.948 369.541 383.223 367.851 384.445 366.135C388.539 360.386 383.687 360.817 396.422 359.523C409.158 358.231 410.674 369.008 410.674 369.008C413.13 365.444 416.285 363.83 418.803 363.107C420.743 362.549 422.658 364.036 422.628 366.054C422.594 368.242 422.922 371.441 424.318 375.619C426.162 381.136 426.702 387.775 426.852 391.837C426.856 391.971 426.861 392.101 426.864 392.228C426.931 394.289 426.896 395.594 426.896 395.594Z" fill="#F2F2F2"/>
<path d="M386.018 380.304L385.842 380.653C380.777 378.107 375.434 376.131 369.934 374.764C370.15 374.686 370.366 374.607 370.582 374.525C375.916 375.892 381.096 377.831 386.018 380.304ZM389.442 378.283L389.174 378.568C385.872 375.445 381.962 372.975 377.731 371.325C377.881 371.244 378.028 371.162 378.176 371.079H378.178C382.34 372.747 386.184 375.201 389.442 378.283ZM426.864 392.228H347.9C347.911 392.096 347.923 391.968 347.937 391.837H426.852C426.856 391.971 426.861 392.101 426.864 392.228ZM411.009 377.401L410.64 377.326C411.188 374.643 411.091 371.829 410.358 369.191L410.721 369.09C411.47 371.786 411.57 374.66 411.009 377.401Z" fill="black"/>
<path d="M479.807 398.624H408.551C408.538 397.623 408.521 396.708 408.513 395.865C408.512 395.733 408.512 395.603 408.51 395.474C408.459 387.12 409.524 386.169 424.773 379.228C426.386 378.493 427.822 377.749 429.1 377.005C429.249 376.919 429.396 376.831 429.54 376.745H429.541C430.637 376.087 431.611 375.43 432.476 374.776C432.587 374.693 432.696 374.61 432.802 374.528C440.795 368.327 439.1 362.712 439.1 362.712C439.1 362.712 441.905 361.954 449.03 361.348C456.156 360.742 456.762 368.015 456.762 368.015C466.01 360.742 469.194 362.712 469.194 362.712C469.194 362.712 468.133 366.5 472.984 374.834C476.474 380.83 478.474 390.513 479.322 395.474C479.344 395.607 479.366 395.738 479.387 395.865C479.672 397.571 479.807 398.624 479.807 398.624Z" fill="#F2F2F2"/>
<path d="M437.974 381.748L437.713 382.039C435.211 379.803 432.27 378.087 429.1 377.005C429.249 376.919 429.396 376.831 429.54 376.745H429.541C432.64 377.848 435.516 379.551 437.974 381.748ZM441.242 381.462L440.97 381.742C438.336 379.201 435.487 376.866 432.476 374.776C432.587 374.693 432.696 374.61 432.802 374.528C435.792 376.61 438.621 378.934 441.242 381.462ZM479.387 395.865H408.513C408.512 395.733 408.512 395.603 408.51 395.474H479.322C479.345 395.607 479.366 395.738 479.387 395.865ZM456.516 376.799L456.145 376.733C456.653 373.879 456.795 370.966 456.568 368.076L456.944 368.047C457.173 370.969 457.03 373.914 456.516 376.799Z" fill="black"/>
<path d="M408.325 395.867L408.322 395.476C408.294 391.02 408.628 388.814 410.771 386.687C412.941 384.534 416.866 382.62 424.695 379.057L424.851 379.4C409.554 386.362 408.648 387.263 408.699 395.473L408.701 395.863L408.325 395.867Z" fill="black"/>
<path d="M375.313 212.661L374.93 212.58L385.391 163.181L385.774 163.262L375.313 212.661Z" fill="black"/>
<path d="M383.637 171.254C383.069 168.703 382.929 166.093 383.22 163.497L383.609 163.54C383.323 166.094 383.46 168.66 384.018 171.169L383.637 171.254ZM457.002 194.422C452.869 190.231 449.438 185.958 446.515 181.358L446.494 181.313C446.482 181.277 445.299 177.576 444.736 172.959C443.791 165.213 445.285 160.875 446.705 158.6C448.383 155.912 450.989 154.296 454.449 153.797L454.505 154.184C451.164 154.666 448.651 156.221 447.037 158.807C442.311 166.378 446.65 180.504 446.859 181.17C449.764 185.738 453.174 189.983 457.281 194.148L457.002 194.422Z" fill="black"/>
<path d="M438.053 217.876L437.721 217.668C445.532 205.239 453.642 196.17 463.241 189.127L463.473 189.442C453.914 196.455 445.837 205.49 438.053 217.876Z" fill="black"/>
<path d="M457.337 194.192L456.954 194.113C457.383 192.025 458.761 190.175 460.639 189.164L460.824 189.509C459.047 190.465 457.743 192.216 457.337 194.192Z" fill="black"/>
<path d="M372.69 186.46L366.723 177.22L367.051 177.007L373.019 186.248L372.69 186.46Z" fill="black"/>
<path d="M376.12 185.983C374.125 182.447 371.027 179.497 367.397 177.677L367.572 177.328C371.272 179.182 374.428 182.188 376.461 185.791L376.12 185.983ZM441.11 171.58H423.563L423.94 168.205H441.487L441.11 171.58ZM423.94 171.243H440.808L441.11 168.542H424.242L423.94 171.243ZM402.77 170.875H387.839L388.345 167.763H403.276L402.77 170.875ZM388.204 170.564H402.505L402.91 168.074H388.609L388.204 170.564Z" fill="black"/>
<path d="M400.739 183.357H385.808L387.889 170.564H402.82L400.739 183.357ZM386.173 183.047H400.475L402.455 170.875H388.153L386.173 183.047Z" fill="black"/>
<path d="M433.801 223.824C433.801 223.824 434.931 239.365 454.033 242.548C454.033 242.548 451.153 249.67 430.989 248.609C410.825 247.548 429.184 228.738 433.801 223.824Z" fill="#B8C2D8"/>
<path d="M450.845 241.44C446.407 240.894 442.256 238.819 439.156 235.598C436.057 232.376 434.145 228.149 433.773 223.695L434.083 223.669C434.449 228.052 436.33 232.212 439.38 235.382C442.43 238.553 446.515 240.595 450.883 241.132L450.845 241.44ZM422.688 242.422L422.384 242.357C423.92 235.146 427.9 228.591 433.59 223.9L433.788 224.14C428.151 228.787 424.209 235.279 422.688 242.422Z" fill="black"/>
<path d="M461.004 345.452L450.543 237.865L450.853 237.835L461.314 345.422L461.004 345.452Z" fill="black"/>
<path d="M414.187 244.999L407.666 244.204L402.866 223.718L403.169 223.647L407.92 243.922L413.831 244.642L411.277 223.018L411.586 222.982L414.187 244.999Z" fill="black"/>
<path d="M318.205 140.192L317.981 139.977C317.998 139.959 319.725 138.201 322.122 138.941C323.103 139.244 323.903 139.545 324.64 139.888L324.509 140.17C323.785 139.833 322.998 139.537 322.03 139.238C319.819 138.556 318.221 140.176 318.205 140.192ZM326.249 150.672C322.16 150.672 318.941 147.987 318.901 147.953L319.102 147.716C319.152 147.759 324.175 151.943 329.568 149.701L329.687 149.988C328.508 150.478 327.347 150.672 326.249 150.672ZM323.322 157.124C323.055 157.124 322.897 157.111 322.887 157.11L322.916 156.801C322.97 156.806 328.314 157.24 329.972 152.675L330.264 152.781C328.809 156.785 324.675 157.124 323.322 157.124ZM328.432 162.033C326.574 162.033 325.194 161.202 325.17 161.187L325.333 160.923C325.504 161.028 329.545 163.451 333.069 159.458L333.302 159.663C331.669 161.514 329.901 162.033 328.432 162.033Z" fill="black"/>
</g>
<g clip-path="url(#clip5_0_1)">
<path d="M26.3665 228.255C37.1564 227.55 47.1568 233.833 56.9172 242.24L157.147 321.41L102.216 341.037L30.7309 310.21C22.3469 278.302 14.0689 246.464 26.3665 228.255Z" fill="black"/>
<path d="M107.634 197.578C106.965 193.702 98.6714 194.387 100.41 188.104C102.15 181.822 96.9491 183.393 98.153 179.383C99.357 175.373 96.2485 176.241 96.6498 172.9C97.0511 169.558 96.7836 167.82 92.2352 165.949C87.6869 164.078 90.0948 160.736 85.6803 160.736C81.8685 160.736 81.3481 164.821 81.2771 165.937C79.5542 165.27 76.2054 164.49 74.7108 166.083C72.7042 168.221 73.3731 170.36 70.9651 171.296C68.5572 172.231 65.7479 170.36 64.544 177.043C63.34 183.727 59.8097 182.343 57.9706 186.15C55.8637 190.511 58.7749 193.593 56.9171 196.826C52.2518 204.947 55.663 204.095 50.4458 209.308C45.2286 214.521 46.8339 220.135 46.8339 220.135L87.2871 201.385C92.7963 203.424 101.197 203.739 103.74 203.376C107.485 202.841 108.303 201.455 107.634 197.578Z" fill="#FFCC83"/>
<path d="M137.067 261.426L136.838 261.41C130.226 260.958 125.232 255.23 125.685 248.618L128.167 212.401C128.62 205.79 134.347 200.797 140.958 201.25L141.187 201.265C147.8 201.718 152.793 207.445 152.34 214.058L149.858 250.274C149.405 256.885 143.679 261.878 137.067 261.426Z" fill="#56A4FF"/>
<path d="M42.1686 217.879L69.1074 200.586L101.615 202.24L113.743 203.435L140.894 273.518L47.5865 298.33C47.5865 298.33 40.8141 224.044 42.1686 217.879Z" fill="#56A4FF"/>
<path d="M134.122 202.841C134.122 202.841 151.73 170.661 156.395 170.661C161.061 170.661 159.104 175.623 156.546 181.187C153.987 186.751 142.728 206.847 142.728 206.847C142.728 206.847 138.336 210.962 136.078 209.007C133.821 207.052 134.122 202.841 134.122 202.841Z" fill="#FF9996"/>
<path d="M152.633 186.3C152.633 186.3 160.759 184.947 158.351 190.962C158.351 190.962 163.769 192.766 161.512 196.375C161.512 196.375 168.284 196.977 162.565 203.443C162.565 203.443 158.201 219.082 145.108 219.984C132.015 220.887 131.112 207.052 134.122 202.841C137.132 198.631 152.633 186.3 152.633 186.3Z" fill="#FF9996"/>
<path d="M133.121 207.391C133.121 207.391 131.559 200.777 134.71 196.896C136.731 194.406 139.585 189.726 141.372 186.692C142.323 185.075 144.689 185.121 145.56 186.783C146.425 188.434 146.884 190.711 145.577 193.453C142.766 199.347 146.734 205.134 144.043 208.008C141.352 210.882 134.962 213.387 133.121 207.391Z" fill="#FF9996"/>
<path d="M152.751 197.843C152.198 197.843 151.63 197.711 151.05 197.448C150.956 197.405 150.914 197.294 150.957 197.2C151 197.106 151.111 197.064 151.205 197.107C152.224 197.57 153.201 197.586 154.108 197.156C156.84 195.859 158.157 190.963 158.17 190.914C158.197 190.814 158.3 190.755 158.399 190.781C158.499 190.807 158.559 190.909 158.533 191.009C158.519 191.061 158.19 192.296 157.505 193.718C156.576 195.645 155.487 196.916 154.269 197.494C153.778 197.726 153.272 197.843 152.751 197.843ZM156.62 200.846C155.927 200.846 155.259 200.608 154.627 200.134C154.544 200.072 154.528 199.955 154.59 199.872C154.652 199.789 154.769 199.772 154.852 199.834C155.596 200.392 156.39 200.584 157.213 200.406C159.652 199.88 161.629 196.321 161.649 196.285C161.698 196.195 161.812 196.161 161.903 196.211C161.994 196.261 162.027 196.374 161.977 196.465C161.956 196.503 161.457 197.408 160.634 198.395C159.518 199.735 158.394 200.534 157.293 200.772C157.066 200.821 156.842 200.846 156.62 200.846ZM159.557 204.215C158.261 204.215 157.376 203.774 156.978 202.921C156.934 202.827 156.975 202.715 157.068 202.672C157.162 202.628 157.274 202.668 157.317 202.762C158.286 204.836 162.457 203.284 162.499 203.268C162.596 203.231 162.704 203.28 162.741 203.377C162.777 203.473 162.729 203.581 162.632 203.618C162.586 203.635 161.504 204.042 160.272 204.174C160.021 204.201 159.783 204.215 159.557 204.215ZM150.249 193.282C150.218 193.282 150.186 193.274 150.157 193.257C150.067 193.206 150.035 193.091 150.087 193.002C152.786 188.277 155.379 183.066 155.405 183.014C155.451 182.922 155.564 182.884 155.656 182.93C155.749 182.976 155.787 183.088 155.741 183.181C155.715 183.233 153.117 188.453 150.412 193.187C150.378 193.248 150.314 193.282 150.249 193.282ZM144.043 208.195C143.997 208.195 143.951 208.178 143.915 208.145C143.839 208.074 143.835 207.955 143.906 207.88C145.142 206.56 144.897 204.523 144.613 202.165C144.291 199.499 143.927 196.477 145.407 193.372C146.48 191.122 146.476 188.935 145.394 186.87C145.11 186.328 144.634 185.941 144.052 185.778C143.953 185.75 143.895 185.647 143.922 185.547C143.95 185.447 144.054 185.389 144.153 185.417C144.835 185.608 145.394 186.062 145.726 186.696C146.865 188.871 146.872 191.171 145.746 193.534C144.312 196.54 144.67 199.505 144.985 202.12C145.28 204.571 145.535 206.688 144.18 208.136C144.143 208.175 144.093 208.195 144.043 208.195Z" fill="black"/>
<path d="M87.7375 271.685C89.7087 271.219 89.5932 263.605 87.4796 254.68C85.366 245.755 82.0546 238.898 80.0835 239.365C78.1123 239.831 78.2278 247.445 80.3414 256.37C82.455 265.295 85.7664 272.152 87.7375 271.685Z" fill="black"/>
<path d="M89.1235 218.631C70.462 222.24 62.3277 209.038 59.9272 207.052C59.232 206.476 68.7975 201.1 69.2219 200.305C70.784 197.375 73.1468 189.882 71.8164 186.3L74.7255 187.13L88.672 191.112C88.9338 192.596 89.3552 195.298 90.1002 197.362C90.6375 198.853 91.3448 200.013 92.2839 200.135C93.6398 200.311 100.755 200.992 101.314 202.24C102.719 205.386 98.3775 216.841 89.1235 218.631Z" fill="#FF9996"/>
<path d="M90.1 197.362C89.6365 197.889 88.8419 198.235 87.6274 198.335C79.1635 199.028 75.3424 188.944 74.7253 187.13L88.6718 191.112C88.9337 192.596 89.3551 195.299 90.1 197.362Z" fill="black"/>
<path d="M70.2193 180.384C71.0061 179.286 72.2804 178.721 73.6271 178.728C74.7374 173.009 78.8365 169.797 83.852 170.289C89.2813 170.822 93.7255 175.492 93.0734 182.123C92.4213 188.753 91.2233 194.063 85.794 193.53C82.7536 193.231 79.0319 191.163 76.4592 188.237C74.7096 188.105 72.7697 187.436 71.6094 186.606C69.4739 185.078 68.8516 182.292 70.2193 180.384Z" fill="#FF9996"/>
<path d="M71.1693 184.035L70.8359 183.837C71.5382 182.661 72.6026 181.682 73.8332 181.079L74.004 181.427C72.8403 181.997 71.8336 182.924 71.1693 184.035Z" fill="black"/>
<path d="M72.0088 182.63C72.1973 183.215 72.3858 183.799 72.5744 184.384L72.0088 182.63Z" fill="white"/>
<path d="M72.3898 184.443L71.824 182.69L72.1936 182.571L72.759 184.324L72.3898 184.443Z" fill="black"/>
<path d="M84.1079 180.731C84.1545 180.258 83.9171 179.848 83.5777 179.814C83.2382 179.781 82.9253 180.137 82.8788 180.61C82.8322 181.083 83.0696 181.493 83.409 181.526C83.7484 181.56 84.0613 181.204 84.1079 180.731Z" fill="black"/>
<path d="M90.5115 181.152C90.558 180.679 90.3206 180.269 89.9812 180.236C89.6418 180.202 89.3289 180.558 89.2823 181.031C89.2358 181.504 89.4731 181.914 89.8126 181.948C90.152 181.981 90.4649 181.625 90.5115 181.152Z" fill="black"/>
<path d="M89.3014 185.48C88.2161 184.939 87.3737 183.969 86.9901 182.82C86.6065 181.67 86.6982 180.39 87.2415 179.306L87.5887 179.48C87.0912 180.472 87.0073 181.645 87.3584 182.697C87.7096 183.75 88.4811 184.637 89.4749 185.133L89.3014 185.48ZM86.4736 188.145C84.7375 187.913 83.2208 186.634 82.6995 184.963L83.0701 184.848C83.54 186.353 84.9607 187.551 86.5251 187.761L86.4736 188.145Z" fill="black"/>
<path d="M86.5161 193.76C86.2756 193.76 86.0285 193.748 85.775 193.723C82.6374 193.415 78.952 191.338 76.3656 188.424C74.6336 188.278 72.6864 187.615 71.4964 186.764C70.4247 185.997 69.6841 184.901 69.4112 183.68C69.1364 182.45 69.3674 181.239 70.0615 180.271C70.8286 179.201 72.0634 178.574 73.4675 178.536C74.6239 172.896 78.6923 169.587 83.8709 170.096L83.8329 170.482C78.8213 169.991 74.89 173.241 73.8178 178.765L73.787 178.922L73.6263 178.922C73.6191 178.922 73.6116 178.922 73.6044 178.922C72.2705 178.922 71.0953 179.495 70.3772 180.497C69.7483 181.374 69.5398 182.474 69.7901 183.595C70.0423 184.724 70.7285 185.737 71.7224 186.448C72.8778 187.275 74.7872 187.916 76.4739 188.044L76.5529 188.05L76.605 188.109C79.0936 190.94 82.794 193.04 85.8129 193.337C86.8404 193.437 87.7517 193.323 88.5215 192.996L88.6735 193.353C88.0357 193.624 87.3124 193.76 86.5161 193.76Z" fill="black"/>
<path d="M82.5721 239.91L45.6682 263.977C26.3919 276.336 35.6724 304.75 58.219 290.24L93.6383 261.789C109.29 250.661 92.5395 232.115 82.5721 239.91Z" fill="#FF9996"/>
<path d="M152.126 231.689L107.383 249.396C105.034 250.325 102.639 249.006 102.033 246.448L94.5657 214.911C93.96 212.353 95.3734 209.526 97.7225 208.596L142.465 190.889C144.814 189.96 147.209 191.279 147.815 193.837L155.283 225.374C155.888 227.932 154.475 230.759 152.126 231.689Z" fill="black"/>
<path d="M152.79 231.576L107.956 249.32C105.778 250.182 103.556 248.958 102.995 246.586L95.4693 214.805C94.9077 212.434 96.2183 209.812 98.3968 208.95L143.231 191.206C145.41 190.344 147.631 191.568 148.193 193.94L155.718 225.721C156.28 228.093 154.969 230.714 152.79 231.576Z" fill="#F2F2F2"/>
<path d="M138.137 201.346L137.551 198.874C137.395 198.213 137.76 197.481 138.368 197.241L143.004 195.406C143.612 195.166 144.232 195.507 144.388 196.169L144.973 198.64C145.13 199.302 144.765 200.033 144.157 200.273L139.521 202.108C138.913 202.349 138.293 202.007 138.137 201.346Z" fill="#B8C2D8"/>
<path d="M143.766 198.668C144.043 197.905 143.734 197.093 143.078 196.855C142.421 196.617 141.665 197.043 141.388 197.806C141.112 198.569 141.42 199.38 142.076 199.618C142.733 199.856 143.489 199.431 143.766 198.668Z" fill="black"/>
<path d="M140.366 199.729C140.556 199.207 140.345 198.651 139.896 198.489C139.447 198.326 138.929 198.617 138.74 199.139C138.551 199.661 138.761 200.216 139.211 200.379C139.66 200.542 140.177 200.251 140.366 199.729Z" fill="white"/>
<path d="M141.056 198.981C141.099 198.861 141.051 198.733 140.947 198.695C140.843 198.658 140.724 198.725 140.68 198.845C140.637 198.966 140.685 199.094 140.789 199.131C140.893 199.169 141.012 199.102 141.056 198.981Z" fill="black"/>
<path d="M155.401 226.045L148.724 197.843L149.054 197.765L155.731 225.967L155.401 226.045Z" fill="#21201F"/>
<path d="M76.9938 243.548L88.6718 232.917L102.216 231.864L110.155 252.878C110.155 252.878 94.6931 261.737 88.522 265.899C88.522 265.899 79.1905 265.849 75.1272 258.631C71.0638 251.413 76.9938 243.548 76.9938 243.548ZM232.696 387.955C222.764 396.526 159.706 391.714 159.706 391.714L164.812 379.467L173.251 359.233C173.251 359.233 176.26 351.714 187.999 351.714C199.738 351.714 201.544 354.722 201.544 354.722C201.544 354.722 200.988 369.962 214.787 372.648C215.364 372.761 215.966 372.851 216.593 372.917C227.396 374.058 242.629 379.383 232.696 387.955Z" fill="#FF9996"/>
<path d="M101.79 231.897L110.795 225.398C110.795 225.398 118.922 218.33 120.427 219.232C121.932 220.135 122.985 223.593 119.674 227.503C116.363 231.413 113.052 233.969 113.052 233.969L104.324 239.984C104.324 239.984 101.615 240.135 100.411 236.977C99.2066 233.819 101.79 231.897 101.79 231.897Z" fill="#FF9996"/>
<path d="M106.581 246.15C106.581 246.15 113.654 241.187 114.407 239.984C115.159 238.781 121.33 231.263 119.674 227.503C118.019 223.744 112.3 230.21 108.688 234.872C105.076 239.533 101.573 238.82 101.573 238.82C101.573 238.82 98.857 242.34 101.163 245.248C103.469 248.155 106.581 246.15 106.581 246.15Z" fill="#FF9996"/>
<path d="M107.032 250.36C107.032 250.36 116.965 243.293 117.717 241.037C118.47 238.781 121.565 232.077 119.222 230.511C116.879 228.944 112.601 238.029 112.601 238.029L102.865 245.149C102.865 245.149 101.256 247.413 102.865 249.413C104.474 251.413 107.032 250.36 107.032 250.36Z" fill="#FF9996"/>
<path d="M108.537 253.819C108.537 253.819 114.858 250.21 116.062 248.857C116.843 247.979 118.621 241.338 116.965 240.435C115.31 239.533 112.634 240.664 111.488 243.106C110.343 245.548 104.323 247.954 104.323 247.954C104.323 247.954 102.668 250.597 104.323 252.433C105.979 254.27 108.537 253.819 108.537 253.819Z" fill="#FF9996"/>
<path d="M232.697 387.955C222.764 396.526 159.706 391.714 159.706 391.714L164.812 379.467C171.631 384.559 198.59 385.281 208.768 382.992C216.575 381.237 216.092 376.066 214.788 372.648C215.364 372.761 215.966 372.851 216.594 372.917C227.396 374.058 242.629 379.383 232.697 387.955Z" fill="#7C4B33"/>
<path d="M85.3792 236.6C85.3792 236.6 85.9629 233.518 89.2738 228.255C91.2291 225.147 89.1233 217.278 90.6283 216.676C92.1333 216.075 95.4898 215.229 96.6481 222.541C97.8065 229.853 99.309 234.534 99.309 234.534C99.309 234.534 96.0461 241.187 91.0798 239.984C86.1134 238.781 85.3792 236.6 85.3792 236.6Z" fill="#FF9996"/>
<path d="M106.581 238.668C106.51 238.668 106.442 238.628 106.411 238.559C106.367 238.465 106.408 238.354 106.502 238.311C114.194 234.764 120.687 225.724 120.752 225.633C120.812 225.548 120.929 225.529 121.013 225.589C121.097 225.648 121.117 225.765 121.057 225.85C120.992 225.941 114.44 235.062 106.659 238.651C106.634 238.662 106.607 238.668 106.581 238.668ZM110.197 244.24L109.993 243.926C110.007 243.917 111.465 242.954 114.268 239.859C117.071 236.763 119.205 231.279 119.226 231.224L119.575 231.359C119.554 231.415 117.395 236.963 114.545 240.11C111.702 243.25 110.257 244.201 110.197 244.24ZM111.774 248.276L111.622 247.934C114.242 246.77 116.987 241.909 117.015 241.86L117.342 242.043C117.335 242.055 116.631 243.307 115.604 244.688C114.216 246.557 112.927 247.764 111.774 248.276Z" fill="black"/>
<path d="M192.438 284.204C193.371 292.183 188.971 299.834 181.601 303.045C147.07 318.089 126.401 326.976 91.1585 330.193C70.9134 332.466 49.8092 321.851 47.818 300.606L46.9845 291.714C79.7325 274.781 117.424 267.731 174.047 262.338C181.857 261.594 189.085 266.529 191.253 274.062L192.438 284.204Z" fill="#32CE95"/>
<path d="M147.275 393L147.26 392.997C136.322 390.549 129.44 379.696 131.891 368.759L151.071 283.173C153.522 272.241 164.368 265.363 175.302 267.809L175.316 267.813C186.254 270.26 193.136 281.113 190.685 292.051L171.505 377.636C169.055 388.569 158.208 395.446 147.275 393Z" fill="#FF9996"/>
<path d="M115.296 349.007L119.001 361.255L129.85 397.113C130.172 398.177 131.162 398.897 132.274 398.877L134.239 398.841C135.876 398.811 137.037 397.235 136.579 395.664L125.993 359.353L122.391 346.997L115.296 349.007Z" fill="#B8C2D8"/>
<path d="M119.811 363.895L126.583 361.338L122.39 346.997L115.296 349.007L119.811 363.895Z" fill="black"/>
<path d="M207.252 399.834H133.467C128.428 399.834 124.716 395.129 125.889 390.234L127.349 384.147L133.67 361.037C135.718 352.025 142.248 345.549 151.88 346C161.512 346.451 175.097 350.198 173.702 363.143C172.817 371.358 177.565 373.836 188.393 377.098C190.449 377.716 192.725 378.362 195.223 379.082C204.844 381.855 209.916 385.952 212.562 389.773C215.507 394.025 212.428 399.834 207.252 399.834Z" fill="#FF9996"/>
<path d="M185.858 375.805L184.834 375.957C174.697 377.466 165.257 370.473 163.746 360.336L152.393 284.182C150.882 274.043 157.878 264.598 168.018 263.089L169.042 262.936C179.179 261.428 188.62 268.421 190.131 278.557L201.483 354.711C202.994 364.851 195.998 374.296 185.858 375.805Z" fill="#FF9996"/>
<path d="M188.451 377.309C188.441 377.309 188.43 377.308 188.42 377.306C181.507 376.113 176.952 373.879 174.882 370.665C173.315 368.233 173.828 366.177 173.85 366.091L181.353 332.862C181.375 332.765 181.471 332.703 181.57 332.725C181.668 332.747 181.729 332.844 181.707 332.942L174.204 366.177C174.197 366.202 173.71 368.184 175.195 370.48C177.707 374.365 183.807 376.142 188.482 376.949C188.58 376.966 188.647 377.06 188.63 377.158C188.614 377.247 188.538 377.309 188.451 377.309Z" fill="black"/>
<path d="M187.866 331.56C172.616 342.408 154.561 346.603 134.965 347.143C132.284 347.217 130.223 344.794 130.731 342.163L145.559 265.398L171.282 262.355C183.044 260.964 193.197 270.554 192.468 282.367L189.625 328.4C189.547 329.665 188.899 330.825 187.866 331.56Z" fill="#32CE95"/>
<path d="M179.899 264.045C179.899 264.045 188.902 263.443 194.17 290.962C196.651 303.926 198.297 311.417 199.345 315.714C200.203 319.236 198.551 322.88 195.346 324.577C183.381 330.912 169.489 334.726 154.166 336.671C151.961 336.951 149.934 335.425 149.603 333.228C147.968 322.366 144.082 291.981 150.225 283.142C157.75 272.315 159.158 262.992 179.899 264.045Z" fill="#32CE95"/>
<path d="M111.532 248.193L106.415 238.568L106.746 238.393L111.863 248.017L111.532 248.193Z" fill="black"/>
<path d="M45.7531 294.166L45.7329 294.164C38.9797 293.702 33.88 287.853 34.3428 281.1L38.1008 226.258C38.5635 219.506 44.4118 214.407 51.1639 214.869L51.1841 214.871C57.9373 215.333 63.037 221.182 62.5742 227.935L58.8162 282.777C58.3535 289.529 52.5051 294.628 45.7531 294.166Z" fill="#56A4FF"/>
<path d="M87.3535 271.688C81.3216 276.348 56.2054 295.194 45.7805 294.27C33.8913 293.218 31.4834 278.18 39.0082 268.405C45.9912 259.335 75.3966 242.105 79.5939 239.672C78.1507 241.246 78.4231 248.267 80.3419 256.369C82.3239 264.736 85.3564 271.287 87.3535 271.688Z" fill="#56A4FF"/>
<path d="M51.0481 258.066C50.9897 258.066 50.9323 258.039 50.8957 257.988C50.8354 257.904 50.8547 257.787 50.9388 257.727C59.1699 251.825 68.5283 245.87 79.5486 239.521C79.6384 239.47 79.7527 239.501 79.8046 239.59C79.8562 239.68 79.8255 239.794 79.7358 239.846C68.7264 246.188 59.3781 252.136 51.1571 258.031C51.1241 258.055 51.0859 258.066 51.0481 258.066Z" fill="black"/>
<path d="M48.7542 256.689C48.6992 256.689 48.6448 256.665 48.6078 256.619C48.5431 256.538 48.5561 256.42 48.6368 256.356C52.0957 253.585 56.2396 251.762 60.6204 251.084C60.722 251.068 60.8183 251.138 60.8343 251.24C60.8502 251.343 60.7801 251.438 60.6778 251.454C56.3616 252.122 52.2791 253.918 48.8713 256.648C48.8366 256.675 48.7953 256.689 48.7542 256.689Z" fill="black"/>
<path d="M60.6798 251.45C60.6746 251.45 60.6693 251.45 60.6641 251.449C60.5609 251.441 60.4843 251.35 60.4928 251.247L61.9978 233.202C62.0065 233.099 62.0971 233.022 62.2002 233.031C62.3033 233.039 62.3799 233.13 62.3714 233.233L60.8664 251.278C60.8582 251.376 60.7763 251.45 60.6798 251.45Z" fill="black"/>
<path d="M48.5648 222.542C49.1882 222.542 49.6936 222.036 49.6936 221.413C49.6936 220.79 49.1882 220.284 48.5648 220.284C47.9414 220.284 47.436 220.79 47.436 221.413C47.436 222.036 47.9414 222.542 48.5648 222.542Z" fill="#FFCC83"/>
<path d="M55.7884 235.023C56.4118 235.023 56.9172 234.518 56.9172 233.894C56.9172 233.271 56.4118 232.765 55.7884 232.765C55.165 232.765 54.6597 233.271 54.6597 233.894C54.6597 234.518 55.165 235.023 55.7884 235.023Z" fill="#FFCC83"/>
<path d="M65.4203 222.542C66.0437 222.542 66.549 222.036 66.549 221.413C66.549 220.79 66.0437 220.284 65.4203 220.284C64.7969 220.284 64.2915 220.79 64.2915 221.413C64.2915 222.036 64.7969 222.542 65.4203 222.542Z" fill="#FFCC83"/>
<path d="M79.7172 226.903C80.3406 226.903 80.8459 226.397 80.8459 225.774C80.8459 225.15 80.3406 224.645 79.7172 224.645C79.0938 224.645 78.5884 225.15 78.5884 225.774C78.5884 226.397 79.0938 226.903 79.7172 226.903Z" fill="#FFCC83"/>
<path d="M72.6439 236.226C73.2673 236.226 73.7727 235.72 73.7727 235.097C73.7727 234.474 73.2673 233.968 72.6439 233.968C72.0205 233.968 71.5151 234.474 71.5151 235.097C71.5151 235.72 72.0205 236.226 72.6439 236.226Z" fill="#FFCC83"/>
<path d="M100.034 267.354C100.658 267.354 101.163 266.848 101.163 266.225C101.163 265.602 100.658 265.096 100.034 265.096C99.4109 265.096 98.9055 265.602 98.9055 266.225C98.9055 266.848 99.4109 267.354 100.034 267.354Z" fill="#FFCC83"/>
<path d="M111.622 257.73C112.246 257.73 112.751 257.224 112.751 256.601C112.751 255.978 112.246 255.472 111.622 255.472C110.999 255.472 110.494 255.978 110.494 256.601C110.494 257.224 110.999 257.73 111.622 257.73Z" fill="#FFCC83"/>
<path d="M123.06 263.594C123.684 263.594 124.189 263.089 124.189 262.465C124.189 261.842 123.684 261.337 123.06 261.337C122.437 261.337 121.931 261.842 121.931 262.465C121.931 263.089 122.437 263.594 123.06 263.594Z" fill="#FFCC83"/>
<path d="M124.866 248.105C125.49 248.105 125.995 247.6 125.995 246.977C125.995 246.353 125.49 245.848 124.866 245.848C124.243 245.848 123.738 246.353 123.738 246.977C123.738 247.6 124.243 248.105 124.866 248.105Z" fill="#FFCC83"/>
<path d="M141.27 255.624C141.894 255.624 142.399 255.119 142.399 254.496C142.399 253.872 141.894 253.367 141.27 253.367C140.647 253.367 140.141 253.872 140.141 254.496C140.141 255.119 140.647 255.624 141.27 255.624Z" fill="#FFCC83"/>
<path d="M133.143 246.903C133.767 246.903 134.272 246.397 134.272 245.774C134.272 245.15 133.767 244.645 133.143 244.645C132.52 244.645 132.015 245.15 132.015 245.774C132.015 246.397 132.52 246.903 133.143 246.903Z" fill="#FFCC83"/>
<path d="M144.13 240.436C144.753 240.436 145.258 239.931 145.258 239.308C145.258 238.684 144.753 238.179 144.13 238.179C143.506 238.179 143.001 238.684 143.001 239.308C143.001 239.931 143.506 240.436 144.13 240.436Z" fill="#FFCC83"/>
<path d="M39.8358 244.496C40.4592 244.496 40.9646 243.991 40.9646 243.368C40.9646 242.744 40.4592 242.239 39.8358 242.239C39.2124 242.239 38.707 242.744 38.707 243.368C38.707 243.991 39.2124 244.496 39.8358 244.496Z" fill="#FFCC83"/>
<path d="M40.438 263.594C41.0614 263.594 41.5667 263.089 41.5667 262.465C41.5667 261.842 41.0614 261.337 40.438 261.337C39.8146 261.337 39.3092 261.842 39.3092 262.465C39.3092 263.089 39.8146 263.594 40.438 263.594Z" fill="#FFCC83"/>
<path d="M49.9191 274.271C50.5425 274.271 51.0478 273.766 51.0478 273.142C51.0478 272.519 50.5425 272.014 49.9191 272.014C49.2956 272.014 48.7903 272.519 48.7903 273.142C48.7903 273.766 49.2956 274.271 49.9191 274.271Z" fill="#FFCC83"/>
<path d="M41.943 287.504C42.5664 287.504 43.0717 286.999 43.0717 286.376C43.0717 285.752 42.5664 285.247 41.943 285.247C41.3196 285.247 40.8142 285.752 40.8142 286.376C40.8142 286.999 41.3196 287.504 41.943 287.504Z" fill="#FFCC83"/>
<path d="M59.5509 286.903C60.1743 286.903 60.6797 286.397 60.6797 285.774C60.6797 285.15 60.1743 284.645 59.5509 284.645C58.9275 284.645 58.4221 285.15 58.4221 285.774C58.4221 286.397 58.9275 286.903 59.5509 286.903Z" fill="#FFCC83"/>
<path d="M61.0558 259.985C61.6792 259.985 62.1845 259.48 62.1845 258.856C62.1845 258.233 61.6792 257.728 61.0558 257.728C60.4324 257.728 59.927 258.233 59.927 258.856C59.927 259.48 60.4324 259.985 61.0558 259.985Z" fill="#FFCC83"/>
<path d="M68.8817 273.219C69.5051 273.219 70.0105 272.713 70.0105 272.09C70.0105 271.466 69.5051 270.961 68.8817 270.961C68.2583 270.961 67.7529 271.466 67.7529 272.09C67.7529 272.713 68.2583 273.219 68.8817 273.219Z" fill="#FFCC83"/>
<path d="M74.9015 251.113C75.5249 251.113 76.0302 250.608 76.0302 249.984C76.0302 249.361 75.5249 248.856 74.9015 248.856C74.2781 248.856 73.7727 249.361 73.7727 249.984C73.7727 250.608 74.2781 251.113 74.9015 251.113Z" fill="#FFCC83"/>
<path d="M81.8243 270.963C82.4477 270.963 82.9531 270.457 82.9531 269.834C82.9531 269.211 82.4477 268.705 81.8243 268.705C81.2009 268.705 80.6956 269.211 80.6956 269.834C80.6956 270.457 81.2009 270.963 81.8243 270.963Z" fill="#FFCC83"/>
<path d="M51.5746 251.715C52.198 251.715 52.7033 251.209 52.7033 250.586C52.7033 249.962 52.198 249.457 51.5746 249.457C50.9512 249.457 50.4458 249.962 50.4458 250.586C50.4458 251.209 50.9512 251.715 51.5746 251.715Z" fill="#FFCC83"/>
<path d="M56.1043 291.851C56.0311 291.851 55.9616 291.808 55.9314 291.737C55.8913 291.641 55.9362 291.532 56.0315 291.491C68.1472 286.398 83.6398 274.272 83.7948 274.15C83.8759 274.086 83.9938 274.1 84.0579 274.181C84.1218 274.262 84.1078 274.38 84.0264 274.444C83.8711 274.566 68.3396 286.723 56.1767 291.837C56.1531 291.847 56.1284 291.851 56.1043 291.851ZM137.583 264.984C137.508 264.984 137.437 264.938 137.408 264.864L128.529 242.007C128.492 241.911 128.539 241.802 128.636 241.765C128.732 241.727 128.841 241.775 128.878 241.872L137.758 264.729C137.795 264.825 137.747 264.934 137.651 264.971C137.629 264.98 137.606 264.984 137.583 264.984Z" fill="black"/>
<path d="M207.252 399.834H133.467C128.428 399.834 124.716 395.129 125.889 390.234L127.349 384.147C134.382 393.591 180.008 391.995 187.698 387.804C192.55 385.159 190.731 380.501 188.393 377.098C190.449 377.716 192.725 378.362 195.223 379.082C204.844 381.855 209.916 385.952 212.562 389.773C215.507 394.025 212.428 399.834 207.252 399.834Z" fill="#7C4B33"/>
<path d="M133.219 329.796C133.207 329.796 133.195 329.795 133.183 329.792C133.082 329.773 133.015 329.675 133.035 329.573L139.807 294.235C139.826 294.134 139.924 294.066 140.026 294.086C140.128 294.106 140.195 294.204 140.175 294.305L133.403 329.644C133.385 329.733 133.307 329.796 133.219 329.796Z" fill="black"/>
<path d="M135.675 316.544C135.591 316.544 135.514 316.486 135.493 316.401C134.133 310.806 133.44 305.049 133.435 299.292C133.435 299.188 133.519 299.104 133.622 299.104C133.726 299.104 133.81 299.188 133.81 299.291C133.815 305.019 134.504 310.746 135.858 316.312C135.882 316.413 135.82 316.514 135.72 316.538C135.705 316.542 135.69 316.544 135.675 316.544ZM189.655 328.593C189.651 328.593 189.647 328.593 189.643 328.593C189.54 328.586 189.461 328.497 189.467 328.394L192.176 284.184C192.183 284.08 192.271 284.004 192.375 284.008C192.478 284.014 192.557 284.103 192.551 284.206L189.842 328.417C189.835 328.516 189.753 328.593 189.655 328.593Z" fill="black"/>
<path d="M59.1747 350.661L55.4695 362.909L44.621 398.767C44.2991 399.831 43.3091 400.551 42.1972 400.531L40.2317 400.495C38.5946 400.465 37.4335 398.889 37.8914 397.318L48.4774 361.007L52.0803 348.651L59.1747 350.661Z" fill="#B8C2D8"/>
<path d="M59.1744 350.661L52.0801 348.651L47.8875 362.992L54.6597 365.549L59.1744 350.661Z" fill="black"/>
<path d="M134.716 347.144C123.888 352.063 112.533 356.016 100.647 358.997C47.3141 372.368 -3.58366 329.448 0.788246 274.681C1.51966 265.518 4.99612 233.969 26.216 228.255C19.8952 236.676 23.0556 270.962 31.4834 285.248C39.1587 298.33 49.5264 300.872 60.7804 297.302C70.4513 294.233 80.2411 291.557 90.1994 289.434C106.406 285.981 122.192 297.105 124.153 313.547C124.564 317.003 124.752 320.652 124.716 324.494L134.332 322.742L130.58 342.164C130.078 344.762 132.084 347.158 134.716 347.144Z" fill="#FFEDE1"/>
<path d="M80.8731 361.662C74.4925 361.662 68.1373 360.888 61.8483 359.339C49.8333 356.38 38.4405 350.553 28.9012 342.487C19.3791 334.436 11.7571 324.198 6.85956 312.881C1.64423 300.83 -0.461394 287.972 0.600748 274.666C1.32971 265.532 3.0732 257.041 5.64251 250.11C10.1536 237.94 17.059 230.526 26.1671 228.074L26.6939 227.932L26.3666 228.368C23.4685 232.229 22.3725 242.255 23.5064 254.535C24.642 266.835 27.7609 278.567 31.6455 285.152C35.2848 291.355 39.729 295.457 44.8549 297.343C49.5165 299.058 54.8551 298.984 60.7236 297.123C71.0348 293.85 80.6635 291.275 90.1601 289.25C97.9926 287.582 106.218 289.294 112.728 293.949C115.887 296.207 118.499 299.021 120.493 302.313C122.567 305.738 123.861 309.51 124.34 313.525C124.742 316.908 124.932 320.521 124.906 324.269L134.569 322.508L134.517 322.778L130.765 342.199C130.537 343.378 130.846 344.584 131.614 345.509C132.378 346.429 133.5 346.956 134.694 346.956H134.715L135.594 346.952L134.794 347.315C123.992 352.222 112.519 356.214 100.693 359.179C94.0922 360.834 87.4691 361.662 80.8731 361.662ZM25.7618 228.578C17.0261 231.132 10.378 238.417 5.99538 250.24C3.43783 257.139 1.70213 265.596 0.975816 274.696C-0.0814759 287.94 2.0143 300.738 7.20479 312.732C12.0796 323.996 19.6661 334.186 29.1443 342.2C38.6395 350.229 49.9794 356.029 61.9384 358.974C74.668 362.109 87.676 362.055 100.601 358.815C112.163 355.915 123.387 352.033 133.974 347.273C132.944 347.103 132.004 346.568 131.324 345.749C130.485 344.737 130.146 343.418 130.396 342.128L134.095 322.977L124.525 324.72L124.528 324.493C124.563 320.68 124.375 317.004 123.966 313.569C123.494 309.609 122.217 305.887 120.171 302.508C118.204 299.26 115.626 296.483 112.509 294.254C106.085 289.661 97.9678 287.971 90.2386 289.618C80.7542 291.64 71.1369 294.212 60.8373 297.481C57.7428 298.463 54.8059 298.953 52.0323 298.953C43.5775 298.953 36.6348 294.4 31.3212 285.343C27.4103 278.714 24.2723 266.922 23.1316 254.569C22.5921 248.725 22.5467 243.233 23.0001 238.685C23.4531 234.144 24.4045 230.668 25.7618 228.578Z" fill="black"/>
<path d="M74.5773 189.876C75.8334 189.876 76.8516 188.858 76.8516 187.603C76.8516 186.348 75.8334 185.331 74.5773 185.331C73.3212 185.331 72.303 186.348 72.303 187.603C72.303 188.858 73.3212 189.876 74.5773 189.876Z" fill="white"/>
<path d="M88.3197 171.802C86.9893 170.971 85.4633 170.447 83.8515 170.289C83.5535 170.261 83.257 170.244 82.9651 170.241C83.1833 168.393 83.9508 164.31 86.4144 165.247C88.851 166.175 88.5741 170.068 88.3197 171.802Z" fill="black"/>
<path d="M91.0314 166.751C88.2221 165.147 87.0182 163.944 84.744 164.746C83.3002 165.255 83.0969 167.218 83.1407 168.584C79.8637 167.27 75.2174 168.646 73.2531 171.595C72.2047 172.888 68.6737 177.651 70.4303 179.05C71.1717 179.64 72.5239 179.61 73.38 180.056C74.8281 180.81 75.4267 182.166 76.1724 183.496C76.5102 182.812 77.3856 178.587 76.3061 178.169C79.6878 178.977 79.057 176.023 79.5268 173.969C80.0589 171.643 83.3401 169.886 85.6804 170.627C85.1469 169.814 84.4316 169.21 83.6086 168.795C84.0665 167.379 84.945 165.226 85.948 165.682C87.4195 166.35 84.458 172.766 87.769 175.774C90.9565 178.669 92.1333 175.473 94.5095 181.187C95.1276 182.674 93.8407 168.355 91.0314 166.751Z" fill="#FFCC83"/>
<path d="M94.3636 178.649L93.9762 178.624C94.1637 175.717 93.74 172.731 92.7508 169.99L93.1162 169.859C94.1232 172.649 94.5547 175.689 94.3636 178.649ZM81.7102 219.563C75.4692 219.563 70.2303 216.687 66.7536 214.068C62.4044 210.791 59.8007 207.197 59.7748 207.161C59.7146 207.077 59.7338 206.96 59.8179 206.9C59.9021 206.839 60.0191 206.859 60.0794 206.943C60.1049 206.978 62.6813 210.533 66.9879 213.775C70.9509 216.759 77.2338 220.082 84.6641 218.968C84.7651 218.953 84.862 219.023 84.8772 219.125C84.8925 219.227 84.8221 219.323 84.7197 219.338C83.6941 219.492 82.6893 219.563 81.7102 219.563Z" fill="black"/>
</g>
<g clip-path="url(#clip6_0_1)">
<path d="M215.43 338.362H149.749V342.132H215.43V338.362Z" fill="#7C4B33"/>
<path d="M215.556 342.258H149.623V338.236H215.556V342.258ZM149.874 342.007H215.305V338.487H149.874L149.874 342.007Z" fill="black"/>
<path d="M261.143 338.362H217.062V342.132H261.143V338.362Z" fill="#FFBC97"/>
<path d="M261.268 342.258H216.936V338.236H261.268V342.258ZM217.187 342.007H261.017V338.487H217.187V342.007Z" fill="black"/>
<path d="M215.468 298.193H152.211V338.362H215.468V298.193Z" fill="#FFBC97"/>
<path d="M215.594 338.487H152.086V298.068H215.594V338.487ZM152.337 338.236H215.342V298.319H152.337V338.236Z" fill="black"/>
<path d="M265.95 298.193H215.468V338.362H265.95V298.193Z" fill="#FAD0C9"/>
<path d="M266.076 338.487H215.343V298.068H266.076V338.487ZM215.594 338.236H265.825V298.319H215.594V338.236Z" fill="black"/>
<path d="M215.478 296.27H212.534C211.179 296.27 210.081 297.368 210.081 298.722V397.239C210.081 398.593 211.179 399.691 212.534 399.691H215.478C216.832 399.691 217.93 398.593 217.93 397.239V298.722C217.93 297.368 216.832 296.27 215.478 296.27Z" fill="#112E5B"/>
<path d="M149.749 296.27H157.598V397.239C157.598 398.592 156.499 399.691 155.145 399.691H152.201C150.848 399.691 149.749 398.592 149.749 397.239L149.749 296.27Z" fill="#112E5B"/>
<path d="M215.478 399.817H212.534C211.112 399.817 209.956 398.66 209.956 397.239V298.722C209.956 297.301 211.112 296.144 212.534 296.144H215.478C216.9 296.144 218.056 297.301 218.056 298.722V397.239C218.056 398.66 216.9 399.817 215.478 399.817ZM212.534 296.395C211.251 296.395 210.207 297.439 210.207 298.722V397.239C210.207 398.522 211.251 399.566 212.534 399.566H215.478C216.761 399.566 217.805 398.522 217.805 397.239V298.722C217.805 297.439 216.761 296.395 215.478 296.395H212.534ZM155.145 399.817H152.201C150.78 399.817 149.623 398.66 149.623 397.239V296.144H157.724V397.239C157.724 398.66 156.567 399.817 155.145 399.817ZM149.874 296.395V397.239C149.874 398.522 150.918 399.566 152.201 399.566H155.145C156.428 399.566 157.472 398.522 157.472 397.239V296.395H149.874Z" fill="black"/>
<path d="M267.874 292.499H146.209V300.117H267.874V292.499Z" fill="#112E5B"/>
<path d="M268 300.243H146.083V292.373H268V300.243ZM146.334 299.992H267.749V292.625H146.334V299.992Z" fill="black"/>
<path d="M258.101 296.27H265.95V397.239C265.95 398.592 264.851 399.691 263.498 399.691H260.554C259.2 399.691 258.101 398.592 258.101 397.239V296.27Z" fill="#B8C2D8"/>
<path d="M263.498 399.817H260.554C259.132 399.817 257.975 398.66 257.975 397.239V296.144H266.076V397.239C266.076 398.66 264.919 399.817 263.498 399.817ZM258.227 296.395V397.239C258.227 398.522 259.271 399.566 260.554 399.566H263.498C264.781 399.566 265.825 398.522 265.825 397.239V296.395H258.227Z" fill="black"/>
<path d="M267.874 292.499H219.085V300.117H267.874V292.499Z" fill="#B8C2D8"/>
<path d="M268 300.243H218.959V292.373H268V300.243ZM219.211 299.992H267.749V292.625H219.211V299.992Z" fill="black"/>
<path d="M188.552 305.888H176.357C175.273 305.888 174.394 306.767 174.394 307.851C174.394 308.934 175.273 309.813 176.357 309.813H188.552C189.636 309.813 190.514 308.934 190.514 307.851C190.514 306.767 189.636 305.888 188.552 305.888Z" fill="#112E5B"/>
<path d="M188.552 309.939H176.357C175.205 309.939 174.269 309.002 174.269 307.851C174.269 306.699 175.205 305.763 176.357 305.763H188.552C189.704 305.763 190.64 306.699 190.64 307.851C190.64 309.002 189.704 309.939 188.552 309.939ZM176.357 306.014C175.344 306.014 174.52 306.838 174.52 307.851C174.52 308.863 175.344 309.687 176.357 309.687H188.552C189.565 309.687 190.389 308.863 190.389 307.851C190.389 306.838 189.565 306.014 188.552 306.014H176.357Z" fill="black"/>
</g>
<g clip-path="url(#clip7_0_1)">
<path d="M181.569 292.217H214.514L225.418 260.523H192.473L181.569 292.217Z" fill="#90D8E0"/>
<path d="M214.613 292.356H181.375L192.374 260.384H225.612L214.613 292.356ZM181.764 292.079H214.415L225.223 260.661H192.572L181.764 292.079Z" fill="black"/>
<path d="M238.747 292.314H214.514L225.622 260.426L238.747 292.314Z" fill="black"/>
<path d="M222.606 260.426H222.269C222.269 259.113 221.49 258.045 220.531 258.045C219.573 258.045 218.793 259.113 218.793 260.426H218.457C218.457 258.927 219.387 257.708 220.531 257.708C221.675 257.708 222.606 258.927 222.606 260.426Z" fill="black"/>
<path d="M219.886 260.426H219.55C219.55 259.113 218.77 258.045 217.811 258.045C216.853 258.045 216.073 259.113 216.073 260.426H215.737C215.737 258.927 216.668 257.708 217.811 257.708C218.955 257.708 219.886 258.927 219.886 260.426Z" fill="black"/>
<path d="M216.899 260.426H216.563C216.563 259.113 215.783 258.045 214.825 258.045C213.866 258.045 213.087 259.113 213.087 260.426H212.75C212.75 258.927 213.681 257.708 214.825 257.708C215.969 257.708 216.899 258.927 216.899 260.426Z" fill="black"/>
<path d="M213.633 260.426H213.297C213.297 259.113 212.517 258.045 211.558 258.045C210.6 258.045 209.82 259.113 209.82 260.426H209.484C209.484 258.927 210.415 257.708 211.558 257.708C212.702 257.708 213.633 258.927 213.633 260.426Z" fill="black"/>
<path d="M210.913 260.426H210.577C210.577 259.113 209.797 258.045 208.839 258.045C207.88 258.045 207.101 259.113 207.101 260.426H206.764C206.764 258.927 207.695 257.708 208.839 257.708C209.983 257.708 210.913 258.927 210.913 260.426Z" fill="black"/>
<path d="M208.193 260.426H207.857C207.857 259.113 207.077 258.045 206.119 258.045C205.161 258.045 204.381 259.113 204.381 260.426H204.045C204.045 258.927 204.975 257.708 206.119 257.708C207.263 257.708 208.193 258.927 208.193 260.426Z" fill="black"/>
<path d="M205.474 260.426H205.137C205.137 259.113 204.358 258.045 203.399 258.045C202.441 258.045 201.661 259.113 201.661 260.426H201.325C201.325 258.927 202.256 257.708 203.399 257.708C204.543 257.708 205.474 258.927 205.474 260.426Z" fill="black"/>
<path d="M202.754 260.426H202.418C202.418 259.113 201.638 258.045 200.68 258.045C199.721 258.045 198.941 259.113 198.941 260.426H198.605C198.605 258.927 199.536 257.708 200.68 257.708C201.823 257.708 202.754 258.927 202.754 260.426Z" fill="black"/>
<path d="M200.034 260.426H199.698C199.698 259.113 198.918 258.045 197.96 258.045C197.001 258.045 196.222 259.113 196.222 260.426H195.885C195.885 258.927 196.816 257.708 197.96 257.708C199.104 257.708 200.034 258.927 200.034 260.426Z" fill="black"/>
<path d="M213.516 270.725H219.351L221.234 264.922H215.398L213.516 270.725Z" fill="white"/>
<path d="M219.474 270.893H213.285L215.276 264.754H221.465L219.474 270.893ZM213.747 270.557H219.229L221.002 265.09H215.52L213.747 270.557Z" fill="black"/>
<path d="M206.178 270.725H212.014L213.896 264.922H208.061L206.178 270.725Z" fill="white"/>
<path d="M212.136 270.893H205.948L207.939 264.754H214.128L212.136 270.893ZM206.41 270.557H211.892L213.665 265.09H208.183L206.41 270.557Z" fill="black"/>
<path d="M198.841 270.725H204.677L206.559 264.922H200.723L198.841 270.725Z" fill="white"/>
<path d="M204.799 270.893H198.61L200.601 264.754H206.79L204.799 270.893ZM199.073 270.557H204.555L206.328 265.09H200.846L199.073 270.557Z" fill="black"/>
<path d="M191.504 270.725H197.339L199.221 264.922H193.386L191.504 270.725Z" fill="white"/>
<path d="M197.461 270.893H191.272L193.264 264.754H199.453L197.461 270.893ZM191.735 270.557H197.217L198.99 265.09H193.508L191.735 270.557Z" fill="black"/>
<path d="M210.621 279.271H216.456L218.339 273.469H212.503L210.621 279.271Z" fill="white"/>
<path d="M216.579 279.439H210.39L212.381 273.301H218.57L216.579 279.439ZM210.852 279.103H216.334L218.107 273.637H212.625L210.852 279.103Z" fill="black"/>
<path d="M203.283 279.271H209.119L211.001 273.469H205.166L203.283 279.271Z" fill="#56A4FF"/>
<path d="M209.241 279.439H203.052L205.043 273.301H211.232L209.241 279.439ZM203.515 279.103H208.997L210.77 273.637H205.288L203.515 279.103Z" fill="black"/>
<path d="M195.946 279.271H201.782L203.664 273.469H197.828L195.946 279.271Z" fill="white"/>
<path d="M201.904 279.439H195.715L197.706 273.301H203.895L201.904 279.439ZM196.177 279.103H201.659L203.432 273.637H197.95L196.177 279.103Z" fill="black"/>
<path d="M188.609 279.271H194.444L196.326 273.469H190.491L188.609 279.271Z" fill="white"/>
<path d="M194.566 279.439H188.377L190.368 273.301H196.557L194.566 279.439ZM188.84 279.103H194.322L196.095 273.637H190.613L188.84 279.103Z" fill="black"/>
<path d="M207.726 287.818H213.561L215.443 282.015H209.608L207.726 287.818Z" fill="white"/>
<path d="M213.683 287.986H207.495L209.486 281.847H215.675L213.683 287.986ZM207.957 287.65H213.439L215.212 282.184H209.73L207.957 287.65Z" fill="black"/>
<path d="M200.388 287.818H206.224L208.106 282.015H202.271L200.388 287.818Z" fill="white"/>
<path d="M206.346 287.986H200.157L202.148 281.847H208.337L206.346 287.986ZM200.62 287.65H206.102L207.875 282.184H202.393L200.62 287.65Z" fill="black"/>
<path d="M193.051 287.818H198.886L200.769 282.015H194.933L193.051 287.818Z" fill="white"/>
<path d="M199.009 287.986H192.82L194.811 281.847H201L199.009 287.986ZM193.282 287.65H198.764L200.538 282.184H195.055L193.282 287.65Z" fill="black"/>
<path d="M185.714 287.818H191.549L193.431 282.015H187.596L185.714 287.818Z" fill="white"/>
<path d="M191.671 287.986H185.482L187.473 281.847H193.662L191.671 287.986ZM185.945 287.65H191.427L193.2 282.184H187.718L185.945 287.65Z" fill="black"/>
</g>
<defs>
<clipPath id="clip0_0_1">
<rect width="423.507" height="362.297" fill="white" transform="translate(69.7666 15.7083)"/>
</clipPath>
<clipPath id="clip1_0_1">
<rect width="167.491" height="274.864" fill="white" transform="translate(182.062 0.125)"/>
</clipPath>
<clipPath id="clip2_0_1">
<rect width="147.028" height="160.812" fill="white" transform="translate(193.75 55.6635)"/>
</clipPath>
<clipPath id="clip3_0_1">
<rect width="370.243" height="253.491" fill="white" transform="translate(116.292 41.8333)"/>
</clipPath>
<clipPath id="clip4_0_1">
<rect width="171.875" height="287.216" fill="white" transform="translate(316.583 111.408)"/>
</clipPath>
<clipPath id="clip5_0_1">
<rect width="235.583" height="239.795" fill="white" transform="translate(0.333374 160.736)"/>
</clipPath>
<clipPath id="clip6_0_1">
<rect width="121.917" height="107.444" fill="white" transform="translate(146.083 292.373)"/>
</clipPath>
<clipPath id="clip7_0_1">
<rect width="57.3723" height="34.6478" fill="white" transform="translate(181.375 257.708)"/>
</clipPath>
</defs>
</svg>
