<svg width="127" height="102" viewBox="0 0 127 102" fill="none" xmlns="http://www.w3.org/2000/svg">
<path d="M37.9718 17.3957C37.4785 17.0533 36.8695 16.9207 36.2786 17.0269C35.6876 17.1332 35.1629 17.4696 34.8198 17.9623L26.6137 29.7654C26.3784 30.1018 26.2121 30.4815 26.1245 30.8826C26.0369 31.2837 26.0298 31.6981 26.1034 32.102L26.3304 33.3648C26.3597 33.528 26.4527 33.6728 26.5888 33.7674C26.7249 33.8621 26.893 33.8987 27.0561 33.8694L28.319 33.6424C28.7232 33.5709 29.1092 33.4199 29.4547 33.1983C29.8002 32.9766 30.0982 32.6886 30.3316 32.3509L38.5383 20.5471C38.8805 20.0539 39.013 19.445 38.9068 18.8542C38.8006 18.2634 38.4643 17.7389 37.9718 17.3957ZM29.3055 31.6375C29.0205 32.0445 28.5866 32.3228 28.0978 32.4121L27.4501 32.5285L27.3337 31.8808C27.2895 31.6385 27.2938 31.3898 27.3463 31.1492C27.3989 30.9085 27.4986 30.6807 27.6398 30.4789L33.8676 21.5213L35.5367 22.6818L29.3055 31.6375ZM37.5115 19.8337L36.2472 21.653L34.5786 20.4956L35.8435 18.6762C35.9197 18.5668 36.0168 18.4735 36.1291 18.4016C36.2414 18.3297 36.3667 18.2806 36.498 18.2572C36.6292 18.2337 36.7638 18.2364 36.8941 18.2649C37.0243 18.2935 37.1477 18.3475 37.2571 18.4237C37.3665 18.4999 37.4598 18.597 37.5317 18.7093C37.6036 18.8216 37.6526 18.9469 37.6761 19.0782C37.6995 19.2094 37.6969 19.344 37.6683 19.4743C37.6398 19.6045 37.5858 19.7279 37.5096 19.8372L37.5115 19.8337Z" fill="#2D8EFF"/>
<path d="M110.481 52.2525L102.04 54.559C101.242 54.7784 100.562 55.3056 100.152 56.0252C99.7408 56.7447 99.6323 57.5978 99.8498 58.3972L101.827 65.632C102.046 66.4309 102.573 67.1102 103.293 67.5209C104.012 67.9316 104.866 68.0401 105.665 67.8227L114.106 65.5162C114.904 65.2969 115.584 64.7696 115.994 64.05C116.405 63.3305 116.514 62.4774 116.296 61.678L114.319 54.4432C114.1 53.6443 113.573 52.965 112.853 52.5543C112.134 52.1436 111.28 52.0351 110.481 52.2525ZM102.37 55.7648L110.811 53.4583C111.172 53.3604 111.554 53.3728 111.908 53.4939C112.262 53.615 112.572 53.8393 112.797 54.138L109.442 60.0172C109.195 60.4485 108.787 60.7642 108.307 60.8952C107.828 61.0263 107.316 60.962 106.884 60.7164L101.005 57.3605C101.047 56.9886 101.2 56.638 101.443 56.3536C101.686 56.0692 102.009 55.8642 102.37 55.7648ZM113.776 64.3104L105.335 66.6169C104.856 66.748 104.344 66.6832 103.912 66.4367C103.48 66.1902 103.164 65.7822 103.033 65.3025L101.303 58.9721L106.264 61.8019C106.984 62.2117 107.837 62.3192 108.637 62.1008C109.436 61.8823 110.116 61.3558 110.528 60.6367L113.361 55.6771L115.09 62.0075C115.222 62.4872 115.157 62.9993 114.91 63.4312C114.664 63.8631 114.256 64.1793 113.776 64.3104Z" fill="#2D8EFF"/>
<path d="M20.115 85.2645L20.3409 84.4037C20.6354 83.2814 20.472 82.088 19.8866 81.0862C19.3012 80.0843 18.3419 79.356 17.2195 79.0615C16.0972 78.767 14.9039 78.9304 13.902 79.5158C12.9002 80.1012 12.1719 81.0605 11.8774 82.1829L11.6515 83.0437C11.0514 83.1374 10.4916 83.404 10.0406 83.8107C9.58963 84.2175 9.26693 84.7469 9.112 85.3342L8.16022 88.9614C7.95091 89.763 8.06808 90.6149 8.48604 91.3303C8.904 92.0456 9.58863 92.566 10.3897 92.7772L16.4351 94.3635C17.2367 94.5728 18.0886 94.4557 18.804 94.0377C19.5193 93.6197 20.0397 92.9351 20.2509 92.134L21.2027 88.5068C21.3561 87.9191 21.3349 87.2995 21.1417 86.7237C20.9485 86.1479 20.5917 85.6408 20.115 85.2645ZM13.0865 82.5001C13.2968 81.6985 13.817 81.0132 14.5326 80.5951C15.2482 80.177 16.1006 80.0602 16.9023 80.2706C17.7039 80.481 18.3892 81.0012 18.8073 81.7168C19.2254 82.4324 19.3422 83.2848 19.1318 84.0864L18.9732 84.691L12.9278 83.1047L13.0865 82.5001ZM19.0418 91.8167C18.9156 92.2977 18.6035 92.7089 18.1741 92.9597C17.7448 93.2106 17.2333 93.2807 16.7523 93.1544L10.707 91.5681C10.226 91.4419 9.81485 91.1298 9.56398 90.7004C9.31311 90.2711 9.24308 89.7596 9.36929 89.2786L10.3211 85.6514C10.4473 85.1704 10.7594 84.7593 11.1888 84.5084C11.6181 84.2575 12.1296 84.1875 12.6106 84.3137L18.6559 85.9C19.1369 86.0262 19.5481 86.3384 19.7989 86.7677C20.0498 87.1971 20.1198 87.7085 19.9936 88.1895L19.0418 91.8167Z" fill="#2D8EFF"/>
</svg>