<svg width="45" height="45" viewBox="0 0 45 45" fill="none" xmlns="http://www.w3.org/2000/svg">
<rect width="45" height="45" rx="10" fill="#2D8EFF" fill-opacity="0.1"/>
<g clip-path="url(#clip0_0_1)">
<path d="M25.5 17C25.5 14.2425 23.2575 12 20.5 12C17.7425 12 15.5 14.2425 15.5 17C15.5 19.7575 17.7425 22 20.5 22C23.2575 22 25.5 19.7575 25.5 17ZM20.5 20.3333C18.6616 20.3333 17.1666 18.8383 17.1666 17C17.1666 15.1617 18.6616 13.6667 20.5 13.6667C22.3383 13.6667 23.8333 15.1617 23.8333 17C23.8333 18.8383 22.3383 20.3333 20.5 20.3333ZM20.4933 24.4483C20.55 24.905 20.2266 25.3208 19.7691 25.3783C16.86 25.7417 14.6658 28.2292 14.6658 31.1667C14.6658 31.6267 14.2925 32 13.8325 32C13.3725 32 12.9991 31.6267 12.9991 31.1667C12.9991 27.3908 15.8208 24.1917 19.5625 23.725C20.0141 23.6675 20.435 23.9917 20.4925 24.4492L20.4933 24.4483ZM31.9133 27.9442L31.1016 27.4758C31.24 27.0617 31.3333 26.6267 31.3333 26.1658C31.3333 25.705 31.2408 25.27 31.1016 24.8558L31.9133 24.3875C32.3116 24.1575 32.4483 23.6475 32.2183 23.2492C31.9875 22.85 31.4791 22.7125 31.08 22.9442L30.2691 23.4125C29.6816 22.7508 28.8991 22.2667 28 22.0842V21.1667C28 20.7067 27.6266 20.3333 27.1666 20.3333C26.7066 20.3333 26.3333 20.7067 26.3333 21.1667V22.0842C25.4341 22.2675 24.6516 22.7517 24.0641 23.4125L23.2533 22.9442C22.8533 22.7133 22.345 22.85 22.115 23.2492C21.885 23.6483 22.0216 24.1575 22.42 24.3875L23.2316 24.8558C23.0933 25.27 23 25.705 23 26.1658C23 26.6267 23.0925 27.0617 23.2316 27.4758L22.42 27.9442C22.0216 28.1742 21.885 28.6842 22.115 29.0825C22.27 29.35 22.5491 29.4992 22.8375 29.4992C22.9783 29.4992 23.1216 29.4633 23.2533 29.3875L24.0641 28.9192C24.6516 29.5808 25.4341 30.065 26.3333 30.2475V31.165C26.3333 31.625 26.7066 31.9983 27.1666 31.9983C27.6266 31.9983 28 31.625 28 31.165V30.2475C28.8991 30.0642 29.6816 29.58 30.2691 28.9192L31.08 29.3875C31.2116 29.4633 31.355 29.4992 31.4958 29.4992C31.7841 29.4992 32.0641 29.35 32.2183 29.0825C32.4483 28.6833 32.3116 28.1742 31.9133 27.9442ZM27.1666 28.6658C25.7883 28.6658 24.6666 27.5442 24.6666 26.1658C24.6666 24.7875 25.7883 23.6658 27.1666 23.6658C28.545 23.6658 29.6666 24.7875 29.6666 26.1658C29.6666 27.5442 28.545 28.6658 27.1666 28.6658Z" fill="#2D8EFF"/>
</g>
<defs>
<clipPath id="clip0_0_1">
<rect width="20" height="20" fill="white" transform="translate(13 12)"/>
</clipPath>
</defs>
</svg>
