<svg width="137" height="101" viewBox="0 0 137 101" fill="none" xmlns="http://www.w3.org/2000/svg">
<path d="M59.4758 54.8271L56.8344 100.645L18.9483 76.3625L59.4758 54.8271Z" fill="white"/>
<g clip-path="url(#clip0_0_1)">
<path d="M43.8926 71.6565L52.3115 77.0531C52.4511 77.1425 52.6204 77.1729 52.7824 77.1374C52.9443 77.102 53.0855 77.0037 53.175 76.8642C53.2644 76.7246 53.2948 76.5552 53.2594 76.3933C53.2239 76.2314 53.1256 76.0902 52.9861 76.0007L44.5672 70.6042C44.4276 70.5147 44.2583 70.4844 44.0963 70.5198C43.9344 70.5552 43.7932 70.6535 43.7037 70.7931C43.6143 70.9326 43.5839 71.102 43.6194 71.2639C43.6548 71.4259 43.7531 71.5671 43.8926 71.6565Z" fill="#2D8EFF"/>
<path d="M50.6252 79.684L42.2064 74.2874C42.0668 74.198 41.8974 74.1676 41.7355 74.2031C41.5736 74.2385 41.4323 74.3368 41.3429 74.4763C41.2534 74.6159 41.2231 74.7853 41.2585 74.9472C41.2939 75.1091 41.3922 75.2503 41.5318 75.3398L49.9507 80.7363C50.0902 80.8258 50.2596 80.8561 50.4215 80.8207C50.5835 80.7853 50.7247 80.687 50.8141 80.5474C50.9036 80.4079 50.9339 80.2385 50.8985 80.0766C50.8631 79.9146 50.7648 79.7734 50.6252 79.684Z" fill="#2D8EFF"/>
<path d="M48.2641 83.3672L39.8453 77.9707C39.7057 77.8812 39.5363 77.8509 39.3744 77.8863C39.2125 77.9217 39.0713 78.02 38.9818 78.1596C38.8924 78.2991 38.862 78.4685 38.8974 78.6304C38.9329 78.7924 39.0312 78.9336 39.1707 79.0231L47.5896 84.4196C47.7291 84.509 47.8985 84.5394 48.0604 84.504C48.2224 84.4685 48.3636 84.3702 48.453 84.2307C48.5425 84.0911 48.5729 83.9218 48.5374 83.7598C48.502 83.5979 48.4037 83.4567 48.2641 83.3672Z" fill="#2D8EFF"/>
<path d="M40.9244 70.4963C41.5056 70.8688 42.2788 70.6997 42.6513 70.1185C43.0239 69.5373 42.8548 68.7641 42.2736 68.3916C41.6923 68.019 40.9192 68.1882 40.5466 68.7694C40.1741 69.3506 40.3432 70.1237 40.9244 70.4963Z" fill="#2D8EFF"/>
<path d="M38.5636 74.1796C39.1448 74.5521 39.918 74.383 40.2905 73.8018C40.6631 73.2206 40.4939 72.4474 39.9127 72.0748C39.3315 71.7023 38.5583 71.8714 38.1858 72.4526C37.8132 73.0338 37.9824 73.807 38.5636 74.1796Z" fill="#2D8EFF"/>
<path d="M36.2025 77.8628C36.7837 78.2354 37.5569 78.0662 37.9294 77.485C38.302 76.9038 38.1328 76.1306 37.5516 75.7581C36.9704 75.3855 36.1973 75.5547 35.8247 76.1359C35.4521 76.7171 35.6213 77.4903 36.2025 77.8628Z" fill="#2D8EFF"/>
</g>
<rect x="5.75122" width="30" height="30" transform="rotate(11.0525 5.75122 0)" fill="white"/>
<g clip-path="url(#clip1_0_1)">
<path d="M21.3914 10.6182L16.4841 9.6599C15.6707 9.50208 14.828 9.67329 14.1408 10.136C13.4535 10.5987 12.9778 11.3151 12.818 12.128L10.6618 23.1694C10.6401 23.281 10.6492 23.3964 10.6882 23.5032C10.7273 23.61 10.7946 23.7041 10.8832 23.7754C10.9717 23.8467 11.078 23.8926 11.1906 23.908C11.3032 23.9234 11.4179 23.9078 11.5223 23.8629L12.9866 23.2324L14.106 24.3674C14.1945 24.4572 14.308 24.5182 14.4317 24.5424C14.5554 24.5665 14.6835 24.5527 14.7992 24.5028L16.2597 23.8716L17.3755 25.0059C17.464 25.0959 17.5776 25.157 17.7014 25.1811C17.8253 25.2053 17.9535 25.1915 18.0693 25.1414L19.5297 24.5109L20.6458 25.6439C20.7256 25.7246 20.8259 25.782 20.9359 25.8101C21.0459 25.8381 21.1615 25.8356 21.2702 25.8029C21.3789 25.7702 21.4767 25.7084 21.553 25.6244C21.6292 25.5403 21.6812 25.437 21.7032 25.3257L23.8595 14.2842C24.0173 13.4709 23.8461 12.6282 23.3834 11.9409C22.9207 11.2537 22.2043 10.778 21.3914 10.6182ZM20.704 23.9206L20.1193 23.3275C20.0308 23.2374 19.9171 23.1762 19.7932 23.152C19.6692 23.1278 19.5408 23.1417 19.425 23.1919L17.9644 23.8231L16.8486 22.6888C16.7602 22.5989 16.6466 22.5378 16.5227 22.5136C16.3989 22.4894 16.2707 22.5033 16.1548 22.5533L14.6943 23.1845L13.5785 22.0502C13.4901 21.9605 13.3767 21.8996 13.2532 21.8755C13.1296 21.8514 13.0016 21.8651 12.886 21.915L12.1162 22.2435L14.0449 12.3676C14.1402 11.8795 14.4255 11.4493 14.838 11.1716C15.2505 10.8939 15.7564 10.7914 16.2445 10.8867L21.1518 11.8451C21.6398 11.9404 22.07 12.2257 22.3478 12.6382C22.6255 13.0507 22.728 13.5566 22.6326 14.0447L20.704 23.9206Z" fill="#2D8EFF"/>
<path d="M20.4328 15.5255L15.5255 14.5672C15.1867 14.501 14.8585 14.722 14.7923 15.0608C14.7262 15.3996 14.9472 15.7279 15.2859 15.794L20.1932 16.7523C20.532 16.8185 20.8603 16.5975 20.9264 16.2587C20.9926 15.9199 20.7716 15.5917 20.4328 15.5255Z" fill="#2D8EFF"/>
<path d="M18.727 17.7396L15.0465 17.0208C14.7077 16.9547 14.3795 17.1757 14.3133 17.5145C14.2472 17.8532 14.4682 18.1815 14.8069 18.2477L18.4874 18.9664C18.8262 19.0326 19.1545 18.8116 19.2206 18.4728C19.2868 18.134 19.0658 17.8057 18.727 17.7396Z" fill="#2D8EFF"/>
</g>
<circle cx="115.316" cy="42.3159" r="15" transform="rotate(-32.7414 115.316 42.3159)" fill="white"/>
<g clip-path="url(#clip2_0_1)">
<path d="M113.262 43.7168L112.21 44.3928C111.631 44.7657 111.462 45.5404 111.835 46.1203L112.511 47.1717C112.884 47.7516 113.659 47.9199 114.239 47.5471L115.29 46.8711C115.87 46.4982 116.038 45.7235 115.665 45.1436L114.989 44.0922C114.616 43.5123 113.842 43.344 113.262 43.7168ZM113.563 46.4957L112.886 45.4443L113.938 44.7682L114.614 45.8196L113.563 46.4957ZM115.664 34.7415L115.139 35.0795L114.801 34.5538C114.614 34.2636 114.228 34.1792 113.937 34.3661C113.646 34.5531 113.563 34.9397 113.749 35.2299L114.087 35.7556L109.882 38.4597L109.544 37.934C109.357 37.6438 108.971 37.5594 108.68 37.7463C108.389 37.9332 108.306 38.3199 108.492 38.61L108.83 39.1358L108.305 39.4738C106.855 40.4057 106.434 42.343 107.366 43.7924L111.422 50.1009C112.354 51.5503 114.292 51.9713 115.741 51.0394L123.101 46.3071C124.55 45.3752 124.971 43.4379 124.039 41.9885L119.983 35.68C119.051 34.2306 117.114 33.8096 115.664 34.7415ZM108.981 40.5252L116.341 35.7929C117.21 35.2339 118.373 35.4865 118.932 36.356L119.27 36.8817L108.756 43.6421L108.418 43.1164C107.858 42.2468 108.111 41.0843 108.981 40.5252ZM122.425 45.2557L115.065 49.9879C114.195 50.547 113.033 50.2944 112.474 49.4249L109.432 44.6935L119.946 37.9331L122.988 42.6645C123.547 43.534 123.294 44.6966 122.425 45.2557Z" fill="#2D8EFF"/>
</g>
<defs>
<clipPath id="clip0_0_1">
<rect width="15" height="15" fill="#2D8EFF" transform="translate(42.2332 66.1385) rotate(32.66)"/>
</clipPath>
<clipPath id="clip1_0_1">
<rect width="15" height="15" fill="#2D8EFF" transform="translate(11.5767 8.70157) rotate(11.05)"/>
</clipPath>
<clipPath id="clip2_0_1">
<rect width="15" height="15" fill="#2D8EFF" transform="translate(105 40.1124) rotate(-32.74)"/>
</clipPath>
</defs>
</svg>
