<svg width="45" height="45" viewBox="0 0 45 45" fill="none" xmlns="http://www.w3.org/2000/svg">
<g clip-path="url(#clip0_0_1)">
<path d="M23 32C17.4858 32 13 27.5142 13 22C13 16.4858 17.4858 12 23 12C28.5142 12 33 16.4858 33 22C33 27.5142 28.5142 32 23 32ZM23 13.6667C18.405 13.6667 14.6667 17.405 14.6667 22C14.6667 26.595 18.405 30.3333 23 30.3333C27.595 30.3333 31.3333 26.595 31.3333 22C31.3333 17.405 27.595 13.6667 23 13.6667ZM25.0833 25.6083C25.4825 25.3783 25.6192 24.8683 25.3883 24.47L23.8333 21.7767V17C23.8333 16.54 23.4608 16.1667 23 16.1667C22.5392 16.1667 22.1667 16.54 22.1667 17V22C22.1667 22.1467 22.205 22.29 22.2783 22.4167L23.945 25.3033C24.1 25.5708 24.3792 25.72 24.6675 25.72C24.8092 25.72 24.9525 25.6842 25.0833 25.6083Z" fill="white"/>
</g>
<rect width="45" height="45" rx="10" fill="white" fill-opacity="0.1"/>
<defs>
<clipPath id="clip0_0_1">
<rect width="20" height="20" fill="white" transform="translate(13 12)"/>
</clipPath>
</defs>
</svg>
