<svg width="134" height="88" viewBox="0 0 134 88" fill="none" xmlns="http://www.w3.org/2000/svg">
<path d="M89.1177 1.26033L133.707 12.1266L102.986 45.0087L89.1177 1.26033Z" fill="white"/>
<g clip-path="url(#clip0_0_1)">
<path d="M110.169 20.0399C114.245 15.3549 107.713 9.25757 103.319 13.6394L101.612 15.4661C100.318 16.8511 100.392 19.0309 101.777 20.3246L104.745 23.0982L104.105 23.7832C103.279 24.6982 104.619 25.9493 105.475 25.0633L106.115 24.3783L107.029 25.2317L106.389 25.9167C105.563 26.8317 106.903 28.0828 107.759 27.1968L108.399 26.5118L109.541 27.5785C110.456 28.4044 111.707 27.0646 110.821 26.2085L109.679 25.1417L112.453 22.1734C113.278 21.2583 111.939 20.0072 111.082 20.8933L108.309 23.8616L107.396 23.0082L110.169 20.0399ZM103.057 18.9546C102.427 18.3662 102.394 17.3754 102.982 16.7462L104.689 14.9195C107.293 12.2756 111.26 15.9855 108.799 18.7598L106.026 21.7281L103.057 18.9546Z" fill="#2D8EFF"/>
</g>
<rect x="37.7512" y="52" width="30" height="30" transform="rotate(11.0525 37.7512 52)" fill="white"/>
<g clip-path="url(#clip1_0_1)">
<path d="M55.9089 65.2361L48.5479 63.7986C47.1923 63.5339 45.8798 64.4174 45.6151 65.7731L44.8964 69.4536C44.6316 70.8092 45.5152 72.1216 46.8709 72.3864L54.2318 73.8239C55.5874 74.0886 56.8999 73.205 57.1646 71.8494L57.8834 68.1689C58.1481 66.8133 57.2645 65.5008 55.9089 65.2361ZM55.9378 71.6098C55.806 72.2846 55.1461 72.7288 54.4714 72.597L47.1104 71.1596C46.4357 71.0278 45.9914 70.3679 46.1232 69.6931L46.8419 66.0127C46.9737 65.3379 47.6336 64.8937 48.3083 65.0254L55.6693 66.4629C56.3441 66.5947 56.7883 67.2546 56.6565 67.9293L55.9378 71.6098ZM53.259 75.5443C53.1931 75.8817 52.8632 76.1038 52.5258 76.0379L44.5515 74.4807C42.8584 74.15 41.7527 72.5077 42.0833 70.8146L42.9219 66.5207C42.9878 66.1834 43.3177 65.9612 43.6551 66.0271C43.9925 66.093 44.2146 66.423 44.1487 66.7603L43.3102 71.0542C43.1125 72.0663 43.7789 73.0562 44.791 73.2538L52.7654 74.8111C53.1028 74.877 53.3249 75.2069 53.259 75.5443ZM51.7492 66.971C50.7371 66.7733 49.7473 67.4397 49.5496 68.4519C49.352 69.464 50.0184 70.4538 51.0305 70.6515C52.0426 70.8491 53.0324 70.1827 53.2301 69.1706C53.4278 68.1585 52.7614 67.1687 51.7492 66.971ZM51.2701 69.4246C50.9327 69.3588 50.7106 69.0288 50.7765 68.6914C50.8423 68.3541 51.1723 68.1319 51.5097 68.1978C51.847 68.2637 52.0692 68.5936 52.0033 68.931C51.9374 69.2684 51.6075 69.4905 51.2701 69.4246Z" fill="#2D8EFF"/>
</g>
<circle cx="15.7295" cy="15.7295" r="15" transform="rotate(-32.7414 15.7295 15.7295)" fill="white"/>
<g clip-path="url(#clip2_0_1)">
<path d="M14.0511 20.604C14.4867 20.324 14.6127 19.7439 14.3327 19.3084C14.0527 18.8729 13.4726 18.7468 13.0371 19.0269C12.6016 19.3069 12.4755 19.8869 12.7556 20.3224C13.0356 20.758 13.6156 20.884 14.0511 20.604Z" fill="#2D8EFF"/>
<path d="M16.4162 8.68083L9.05628 13.4131C8.35994 13.862 7.87008 14.5688 7.69415 15.3784C7.51822 16.188 7.67058 17.0343 8.11782 17.7317L10.822 21.9374C11.2709 22.6337 11.9776 23.1236 12.7872 23.2995C13.5968 23.4754 14.4432 23.3231 15.1406 22.8758L22.5005 18.1436C23.1968 17.6947 23.6867 16.9879 23.8626 16.1783C24.0386 15.3687 23.8862 14.5224 23.439 13.825L20.7348 9.61928C20.2859 8.92294 19.5791 8.43308 18.7695 8.25715C17.9599 8.08122 17.1136 8.23359 16.4162 8.68083ZM9.73231 14.4645L17.0922 9.73224C17.5105 9.4633 18.0185 9.37153 18.5044 9.47713C18.9904 9.58273 19.4145 9.87704 19.6834 10.2953L9.16924 17.0557C8.90029 16.6374 8.80853 16.1294 8.91412 15.6435C9.01972 15.1575 9.31403 14.7334 9.73231 14.4645ZM21.8245 17.0922L14.4646 21.8244C14.0463 22.0933 13.5383 22.1851 13.0523 22.0795C12.5664 21.9739 12.1423 21.6796 11.8734 21.2613L9.84527 18.1071L20.3594 11.3467L22.3875 14.501C22.6565 14.9193 22.7483 15.4273 22.6427 15.9132C22.5371 16.3991 22.2428 16.8232 21.8245 17.0922Z" fill="#2D8EFF"/>
</g>
<defs>
<clipPath id="clip0_0_1">
<rect width="15" height="15" fill="#2D8EFF" transform="translate(97.1318 20.2611) rotate(-46.9434)"/>
</clipPath>
<clipPath id="clip1_0_1">
<rect width="15" height="15" fill="#2D8EFF" transform="translate(44 61) rotate(11.05)"/>
</clipPath>
<clipPath id="clip2_0_1">
<rect width="15" height="15" fill="#2D8EFF" transform="translate(5.41357 13.526) rotate(-32.74)"/>
</clipPath>
</defs>
</svg>
