<svg width="45" height="45" viewBox="0 0 45 45" fill="none" xmlns="http://www.w3.org/2000/svg">
<rect width="45" height="45" rx="10" fill="white" fill-opacity="0.1"/>
<g clip-path="url(#clip0_0_1)">
<path d="M30.5 17H17.1667C16.4508 17 15.7733 16.69 15.3042 16.1675C15.7625 15.6558 16.4283 15.3333 17.1667 15.3333H32.1667C32.6275 15.3333 33 14.96 33 14.5C33 14.04 32.6275 13.6667 32.1667 13.6667H17.1667C14.8658 13.6667 13 15.5325 13 17.8333V26.1667C13 28.4675 14.8658 30.3333 17.1667 30.3333H30.5C31.8808 30.3333 33 29.2142 33 27.8333V19.5C33 18.1192 31.8808 17 30.5 17ZM31.3333 27.8333C31.3333 28.2925 30.96 28.6667 30.5 28.6667H17.1667C15.7883 28.6667 14.6667 27.545 14.6667 26.1667V17.8317C15.3783 18.3642 16.2533 18.6667 17.1667 18.6667H30.5C30.96 18.6667 31.3333 19.0408 31.3333 19.5V27.8333ZM29.6667 23.6667C29.6667 24.1267 29.2933 24.5 28.8333 24.5C28.3733 24.5 28 24.1267 28 23.6667C28 23.2067 28.3733 22.8333 28.8333 22.8333C29.2933 22.8333 29.6667 23.2067 29.6667 23.6667Z" fill="white"/>
</g>
<defs>
<clipPath id="clip0_0_1">
<rect width="20" height="20" fill="white" transform="translate(13 12)"/>
</clipPath>
</defs>
</svg>
