<svg width="16" height="16" viewBox="0 0 16 16" fill="none" xmlns="http://www.w3.org/2000/svg">
<path d="M14.5625 7.0625H8.9375V1.4375C8.9375 0.919736 8.51776 0.5 8 0.5C7.48224 0.5 7.0625 0.919736 7.0625 1.4375V7.0625H1.4375C0.919736 7.0625 0.5 7.48224 0.5 8C0.5 8.51776 0.919736 8.9375 1.4375 8.9375H7.0625V14.5625C7.0625 15.0803 7.48224 15.5 8 15.5C8.51776 15.5 8.9375 15.0803 8.9375 14.5625V8.9375H14.5625C15.0803 8.9375 15.5 8.51776 15.5 8C15.5 7.48224 15.0803 7.0625 14.5625 7.0625Z" fill="#2D8EFF"/>
</svg>
