<svg width="15" height="16" viewBox="0 0 15 16" fill="none" xmlns="http://www.w3.org/2000/svg">
<path d="M14.3375 1.16254C13.9126 0.738288 13.3367 0.5 12.7362 0.5C12.1358 0.5 11.5599 0.738288 11.135 1.16254L0 12.2975V15.5H3.2025L14.3375 4.36504C14.7616 3.94005 14.9998 3.36418 14.9998 2.76379C14.9998 2.1634 14.7616 1.58752 14.3375 1.16254ZM2.6875 14.25H1.25V12.8125L9.56875 4.50004L11.0063 5.93754L2.6875 14.25ZM13.4537 3.48129L11.8869 5.04816L10.4525 3.61066L12.0187 2.04629C12.2094 1.85567 12.4679 1.74857 12.7375 1.74857C13.0071 1.74857 13.2656 1.85567 13.4563 2.04629C13.6469 2.23691 13.754 2.49546 13.754 2.76504C13.754 3.03462 13.6469 3.29317 13.4563 3.48379L13.4537 3.48129Z" fill="#2D8EFF"/>
</svg>
