<svg width="410" height="436" viewBox="0 0 410 436" fill="none" xmlns="http://www.w3.org/2000/svg">
<path d="M184.262 191.992C187.037 203.351 180.078 214.809 168.719 217.584C157.36 220.358 145.903 213.399 143.128 202.04" stroke="black"/>
<circle cx="163.591" cy="196.591" r="21.1719" transform="rotate(-13.7269 163.591 196.591)" fill="white"/>
<g clip-path="url(#clip0_0_1)">
<path d="M165.699 207.45C171.911 205.933 175.716 199.667 174.199 193.455C172.681 187.243 166.416 183.437 160.204 184.955C153.992 186.472 150.186 192.738 151.704 198.95C153.221 205.162 159.487 208.968 165.699 207.45Z" fill="url(#paint0_linear_0_1)"/>
<path d="M167.428 190.179C167.37 189.507 166.63 189.147 166.116 189.54L155.885 197.371C155.517 197.653 155.699 198.27 156.161 198.302L158.708 198.477C159.194 198.511 159.664 198.317 159.992 197.949L164.421 192.966C164.554 192.816 164.785 193.002 164.683 193.177L161.813 198.068C161.535 198.542 161.767 199.174 162.283 199.346L167.235 200.99C167.791 201.174 168.336 200.719 168.284 200.115L167.428 190.179Z" fill="white"/>
</g>
<g clip-path="url(#clip1_0_1)">
<path d="M97.9282 72.5512L63.1455 83.2158C54.9475 85.7293 50.3215 94.418 52.813 102.622L64.589 141.4C68.3852 153.901 67.8165 130.272 77.0841 127.43L111.399 116.909C119.597 114.396 124.223 105.707 121.731 97.5026L117.283 82.8554C114.792 74.651 106.126 70.0376 97.9282 72.5512Z" fill="#F9F9FF"/>
<path d="M83.4131 84.8401L89.6813 91.5171C89.8646 91.7124 90.1323 91.8046 90.3971 91.7637L99.4545 90.3655C100.121 90.2626 100.615 90.9699 100.29 91.5625L95.8724 99.6102C95.7432 99.8455 95.7378 100.129 95.8579 100.369L99.9653 108.56C100.268 109.164 99.7475 109.854 99.085 109.728L90.0867 108.025C89.8236 107.975 89.5526 108.058 89.362 108.247L82.8431 114.708C82.3631 115.184 81.548 114.903 81.4638 114.233L80.3199 105.133C80.2864 104.867 80.1244 104.634 79.8865 104.512L71.7502 100.313C71.1511 100.004 71.1676 99.14 71.7781 98.8513L80.0693 94.9302C80.3118 94.8156 80.4826 94.5889 80.5262 94.3242L82.0166 85.2683C82.1263 84.6015 82.9516 84.3484 83.4131 84.8401Z" fill="#FFCC83"/>
<path d="M66.7295 145.307C66.6571 145.329 66.5825 145.34 66.5055 145.34C65.7591 145.337 65.1165 144.222 64.2876 141.493L52.5117 102.715L53.1161 102.53L64.892 141.307C65.8494 144.46 66.3721 144.707 66.5095 144.707C67.0208 144.707 67.7516 142.387 68.4009 140.338C69.8787 135.673 72.1129 128.624 76.9931 127.128L111.308 116.607L111.491 117.212L77.1768 127.733C72.6142 129.132 70.4411 135.99 69.0028 140.528C68.1266 143.293 67.5704 145.049 66.7295 145.307Z" fill="black"/>
<path d="M82.5994 115.213C82.3763 115.281 82.1335 115.279 81.9019 115.199C81.4926 115.058 81.205 114.703 81.1509 114.273L80.0068 105.173C79.9862 105.01 79.8871 104.868 79.7412 104.792L71.6056 100.594C71.2211 100.396 70.987 100.003 70.995 99.5693C71.0035 99.1353 71.2519 98.751 71.6438 98.5654L79.9357 94.6442C80.0835 94.5744 80.1879 94.4352 80.2151 94.2727L81.7051 85.2176C81.7756 84.7897 82.0769 84.4446 82.4912 84.3176C82.906 84.1904 83.3472 84.3078 83.6439 84.6232L89.9122 91.3C90.0242 91.4197 90.188 91.4758 90.3503 91.451L99.4072 90.0529C99.8358 89.987 100.256 90.1664 100.504 90.5218C100.752 90.877 100.776 91.3341 100.567 91.7146L96.1496 99.7619C96.0704 99.9062 96.0671 100.079 96.1405 100.226L100.248 108.418C100.442 108.805 100.401 109.262 100.139 109.608C99.878 109.954 99.4515 110.119 99.0259 110.039L90.0282 108.336C89.8666 108.305 89.7008 108.356 89.5846 108.472L83.0653 114.933C82.9314 115.065 82.7713 115.16 82.5994 115.213ZM82.6749 84.9224C82.4896 84.9793 82.36 85.1275 82.3287 85.3192L80.8384 94.3747C80.7772 94.7426 80.5403 95.0572 80.2044 95.2161L71.9125 99.1373C71.7373 99.2203 71.6305 99.3856 71.6266 99.5797C71.6232 99.774 71.7236 99.9429 71.8959 100.032L80.0319 104.23C80.3621 104.401 80.5873 104.723 80.6336 105.093L81.7777 114.193C81.8019 114.386 81.9257 114.538 82.1087 114.601C82.2917 114.664 82.4831 114.62 82.6213 114.483L89.1407 108.023C89.405 107.76 89.7816 107.645 90.147 107.715L99.1446 109.417C99.3357 109.453 99.5181 109.382 99.6354 109.228C99.7522 109.073 99.7704 108.876 99.6833 108.703L95.5758 100.511C95.4089 100.178 95.4167 99.7847 95.5962 99.458L100.013 91.4107C100.107 91.2405 100.097 91.0439 99.9855 90.8851C99.8747 90.7258 99.6939 90.6486 99.502 90.6782L90.4451 92.0763C90.077 92.1332 89.7056 92.0051 89.4512 91.734L83.183 85.0572C83.0505 84.9158 82.8606 84.8655 82.6749 84.9224Z" fill="black"/>
</g>
<g clip-path="url(#clip2_0_1)">
<path d="M357.234 276.722L273.76 257.472C264.104 255.245 254.48 261.305 252.264 271.007L246.451 296.458C244.235 306.16 250.266 315.83 259.921 318.057L343.396 337.307C353.052 339.534 362.676 333.474 364.892 323.772L370.705 298.321C372.921 288.619 366.89 278.949 357.234 276.722Z" fill="#FAD0C9"/>
<path d="M298.351 295.507C295.964 305.957 285.568 312.476 275.148 310.047C265.062 307.695 258.537 297.583 260.547 287.396C262.711 276.435 273.609 269.584 284.39 272.406L277.706 290.535C277.374 291.438 278.013 292.405 278.971 292.449L298.717 293.364C298.639 294.075 298.514 294.794 298.351 295.507Z" fill="#32CE95"/>
<path d="M320.268 286.156L316.56 285.301C315.387 285.03 314.218 285.766 313.949 286.945L313.102 290.655C312.833 291.834 313.565 293.008 314.738 293.278L318.446 294.134C319.618 294.404 320.787 293.668 321.056 292.49L321.904 288.779C322.173 287.601 321.441 286.426 320.268 286.156Z" fill="#F2F2F2"/>
<path d="M355.855 294.363L327.027 287.715C325.854 287.444 324.685 288.18 324.416 289.358L323.568 293.069C323.299 294.247 324.032 295.422 325.204 295.692L354.033 302.341C355.206 302.611 356.375 301.875 356.644 300.697L357.491 296.986C357.761 295.808 357.028 294.633 355.855 294.363Z" fill="#F2F2F2"/>
<path d="M352.02 311.158L323.191 304.51C322.018 304.24 320.849 304.976 320.58 306.154L319.733 309.864C319.463 311.043 320.196 312.217 321.369 312.488L350.197 319.136C351.37 319.406 352.539 318.67 352.808 317.492L353.656 313.781C353.925 312.603 353.192 311.429 352.02 311.158Z" fill="#F2F2F2"/>
<path d="M316.432 302.951L312.724 302.096C311.551 301.826 310.382 302.562 310.113 303.74L309.266 307.451C308.997 308.629 309.729 309.803 310.902 310.074L314.61 310.929C315.783 311.199 316.951 310.463 317.221 309.285L318.068 305.575C318.337 304.396 317.605 303.222 316.432 302.951Z" fill="#F2F2F2"/>
<path d="M280.669 289.226L288.127 268.995C288.271 268.604 288.673 268.375 289.083 268.447C294.601 269.406 307.121 273.464 304.375 290.69C304.307 291.12 303.922 291.428 303.488 291.408L281.435 290.386C280.854 290.359 280.467 289.773 280.669 289.226Z" fill="#F90065"/>
<path d="M246.804 296.557L246.091 296.392L251.911 270.908C254.167 261.034 264.013 254.847 273.859 257.118L273.695 257.834C264.243 255.654 254.79 261.593 252.625 271.073L246.804 296.557ZM343.299 337.661L306.272 329.122L306.435 328.407L343.462 336.946C352.914 339.125 362.367 333.186 364.532 323.706L370.353 298.222L371.066 298.387L365.246 323.871C362.99 333.745 353.144 339.932 343.299 337.661Z" fill="black"/>
</g>
<path d="M192.085 259.144H49.5851C42.8961 259.144 37.4736 264.597 37.4736 271.324V392.609C37.4736 399.336 42.8962 404.789 49.5852 404.789H158.647C177.125 404.789 188.862 416.517 197.715 433.508C199.383 436.71 204.197 435.528 204.197 431.913V271.324C204.197 264.597 198.774 259.144 192.085 259.144Z" fill="#F2F2F2"/>
<g clip-path="url(#clip3_0_1)">
<path d="M183.649 332.202C183.649 332.202 186.704 319.57 192.814 316.497C197.538 314.122 201.451 308.685 202.983 306.34C203.545 305.481 204.566 305.033 205.568 305.24C207.2 305.578 209.141 306.987 208.09 312.059C206.393 320.253 199.603 323.326 202.998 322.984C206.393 322.643 215.576 319.167 219.292 316.497C224.045 313.083 226.056 309.744 231.852 309.328C236.605 308.986 234.228 313.766 234.228 313.766C234.228 313.766 238.641 312.059 240.339 313.766C242.036 315.473 239.999 317.522 237.284 319.229C237.284 319.229 244.412 320.594 236.605 326.398C236.605 326.398 241.018 326.398 237.962 330.154C234.907 333.909 230.494 339.372 230.494 339.372C230.494 339.372 221.668 345.176 215.219 346.883C210.759 348.063 203.866 350.386 200.036 351.707C198.01 352.406 195.82 352.463 193.767 351.848C190.325 350.817 185.197 348.707 182.63 344.835C178.557 338.689 183.649 332.202 183.649 332.202Z" fill="#DB927C"/>
<path d="M167.025 404.032C165.782 404.391 164.472 404.582 163.118 404.582H17.0645L27.6353 312.015C27.9645 309.109 29.8893 306.634 32.6118 305.61L49.1809 299.383L49.6256 299.215L49.7987 299.208L97.3979 297.368L128.673 307.921L162.737 395.688C162.737 395.688 164.567 399.071 167.025 404.032Z" fill="#FFCC83"/>
<path d="M87.5165 288.072L94.39 299.206C94.39 299.206 104.685 310.829 86.1933 309.837C67.7012 308.845 60.5293 297.286 60.5293 297.286C60.5293 297.286 71.2622 284.254 69.965 277.605L87.5165 288.072Z" fill="#DB927C"/>
<path d="M101.761 298.738L102.107 349.94L102.293 377.29L88.1496 356.325L49.626 299.218L59.7455 296.696L82.9767 305.003L83.4306 305.142L85.1949 303.711L95.6055 295.235L101.761 298.738Z" fill="#F2F2F2"/>
<path d="M204.882 353.483C204.43 353.817 203.959 354.131 203.466 354.421L190.384 364.759L155.942 391.977C153.308 393.537 150.327 394.339 147.326 394.339C145.833 394.339 144.332 394.141 142.866 393.738C138.449 392.53 132.668 381.383 130.448 377.354L104.649 330.581C100.1 322.339 103.061 311.946 111.259 307.375C119.453 302.8 129.786 305.777 134.332 314.022L151.682 345.477L171.655 333.643L184.657 325.941L204.882 353.483Z" fill="#FFCC83"/>
<path d="M102.178 349.599L102.364 376.948L88.2206 355.983C87.9553 341.284 86.8945 321.087 86.8945 321.087L91.5604 320.052L102.178 349.599Z" fill="#F90065"/>
<path d="M80.8672 312.259L86.8944 321.085L91.5581 320.05L93.1849 307.456L87.1716 302.928L83.4536 305.406L80.8672 312.259Z" fill="#F90065"/>
<path d="M59.8604 296.658L65.4042 288.793L85.6741 304.134L80.9711 325.958L59.8604 296.658Z" fill="#F2F2F2"/>
<path d="M99.1022 321.294L85.6738 304.134L94.9214 288.966L101.839 298.744L99.1022 321.294Z" fill="#F2F2F2"/>
<path d="M98.4003 271.046C98.4003 271.046 103.496 264.886 99.4409 260.196C99.4409 260.196 103.249 249.379 90.924 249.287C90.924 249.287 88.0531 244.008 82.9305 247.656C82.9305 247.656 75.1732 241.707 69.9833 252.359C69.9833 252.359 60.5268 250.414 62.983 262.058C62.983 262.058 51.8093 261.707 56.7986 273.257C56.7986 273.257 50.8276 278.689 57.147 283.885C57.147 283.885 58.3873 293.176 65.8571 290.691C65.8571 290.691 68.4088 299.693 73.6072 295.849C78.8056 292.006 98.4003 271.046 98.4003 271.046Z" fill="black"/>
<path d="M62.9815 275.732C63.8301 273.794 65.593 272.517 67.6494 272.093C67.5112 262.954 72.7355 256.704 80.5439 255.845C88.9968 254.916 97.2717 260.656 98.4007 271.046C99.5298 281.437 99.403 289.975 90.9501 290.904C86.2167 291.424 79.8772 289.447 75.0154 285.783C72.3042 286.142 69.1308 285.74 67.0949 284.839C63.3479 283.179 61.5062 279.102 62.9815 275.732Z" fill="#DB927C"/>
<path d="M65.6004 281.034L65.0283 280.836C65.7232 278.804 67.0337 276.957 68.7173 275.636L69.0896 276.117C67.4968 277.365 66.2579 279.112 65.6004 281.034Z" fill="black"/>
<path d="M67.5924 281.267L66.168 278.757L66.6941 278.455L68.1182 280.965L67.5924 281.267Z" fill="black"/>
<path d="M83.4674 273.241C83.9957 273.183 84.3589 272.536 84.2786 271.795C84.1982 271.054 83.7048 270.5 83.1764 270.558C82.648 270.616 82.2849 271.264 82.3652 272.004C82.4456 272.745 82.939 273.299 83.4674 273.241Z" fill="black"/>
<path d="M93.3697 271.827C93.8981 271.769 94.2613 271.122 94.1809 270.381C94.1006 269.64 93.6071 269.086 93.0788 269.144C92.5504 269.202 92.1872 269.849 92.2676 270.59C92.3479 271.331 92.8414 271.885 93.3697 271.827Z" fill="black"/>
<path d="M93.7222 277.415C91.8933 276.934 90.2975 275.716 89.3445 274.074C88.3909 272.433 88.1202 270.437 88.6025 268.598L89.1878 268.754C88.7462 270.437 88.9938 272.265 89.8669 273.768C90.7397 275.271 92.2009 276.386 93.875 276.826L93.7222 277.415ZM94.6074 290.128C93.5813 290.692 92.3657 291.054 90.9828 291.206C86.0981 291.743 79.8109 289.74 74.9325 286.1C72.2437 286.433 69.0614 286.042 66.973 285.117C65.0926 284.285 63.6124 282.841 62.8044 281.053C61.9916 279.253 61.9561 277.32 62.7049 275.61C63.5318 273.72 65.2149 272.36 67.3446 271.849C67.3013 262.818 72.4485 256.427 80.5112 255.543L80.5765 256.148C72.7746 257.006 67.8187 263.262 67.9523 272.088L67.9559 272.341L67.7103 272.391C65.6601 272.814 64.0378 274.076 63.2584 275.855C62.58 277.405 62.6147 279.161 63.3553 280.801C64.1015 282.453 65.473 283.788 67.2167 284.56C69.2441 285.458 72.362 285.828 74.9757 285.481L75.0982 285.465L75.1973 285.539C79.8995 289.083 86.2169 291.118 90.9176 290.601C92.516 290.426 93.8704 289.956 94.9405 289.206L95.2863 289.705C95.0704 289.857 94.8439 289.997 94.6074 290.128Z" fill="black"/>
<path d="M67.6543 271.834C67.6543 271.834 76.1287 288.236 78.534 291.84C82.0232 297.068 89.8945 297.286 95.8618 294.003C101.829 290.721 98.2436 265.856 98.2436 265.856L95.0596 265.205C96.2513 269.911 98.3785 279.624 96.1173 280.218C96.1173 280.218 87.6554 277.725 78.8829 280.602C78.8829 280.602 76.5388 279.474 72.4952 272.42L67.6543 271.834Z" fill="black"/>
<path d="M91.4457 280.923L83.8359 280.801C83.8359 280.801 86.3306 286.576 88.5917 285.982C90.8528 285.388 91.4457 280.923 91.4457 280.923Z" fill="white"/>
<path d="M89.202 286.062C89.0345 286.154 88.8571 286.227 88.6682 286.276C86.2272 286.918 83.8244 281.538 83.559 280.922L83.3715 280.489L91.7911 280.624L91.7466 280.963C91.7228 281.139 91.1912 284.967 89.202 286.062ZM84.3101 281.113C85.1266 282.843 87.0059 286.084 88.5158 285.687C90.2058 285.238 90.9022 282.242 91.0902 281.221L84.3101 281.113ZM95.7656 266.504C95.7656 266.504 90.9878 264.846 91.345 260.751C91.345 260.751 89.2033 265.828 84.8804 264.307C84.8804 264.307 80.0944 272.138 72.2698 273.194C72.2698 273.194 64.3985 272.976 65.9288 266.286C67.4591 259.596 72.3331 252.138 78.5092 252.103C84.6853 252.069 93.9633 256.062 95.8672 259.563C97.7711 263.064 97.6021 267.221 97.6021 267.221L95.7656 266.504Z" fill="black"/>
<path d="M80.8878 326.978L64.9131 304.189L65.4076 303.838L80.5999 325.511L85.6018 303.424L99.3408 321.106L98.864 321.481L85.9093 304.808L80.8878 326.978Z" fill="black"/>
<path d="M100.836 311.842L100.233 311.787L101.42 298.68L102.023 298.736L100.836 311.842Z" fill="black"/>
<path d="M102.667 376.934L102.168 377.279L49.1816 299.383L49.6263 299.215L49.7994 299.208L102.667 376.934Z" fill="black"/>
<path d="M91.1899 376.943C78.1783 367.154 56.7499 335.983 56.5348 335.669L56.4401 335.53L59.7666 327.742L48.9881 325.534L44.9297 301.702L45.5261 301.6L49.5148 325.02L60.6162 327.295L57.1281 335.462C58.6988 337.737 79.062 367.059 91.5522 376.455L91.1899 376.943Z" fill="black"/>
<path d="M108.099 376.146L107.514 375.991L118.64 333.503L109.644 329.823L116.555 323.694L109.275 302.671L109.847 302.47L117.26 323.879L110.777 329.63L119.361 333.142L119.293 333.4L108.099 376.146Z" fill="black"/>
<path d="M159.147 388.406L134.893 325.488L135.457 325.268L159.711 388.186L159.147 388.406Z" fill="black"/>
<path d="M104.86 390.888C103.477 391.195 102.102 390.312 101.797 388.921C101.492 387.529 102.369 386.147 103.753 385.84C105.136 385.532 106.511 386.415 106.816 387.807C107.122 389.198 106.244 390.58 104.86 390.888ZM103.883 386.434C102.825 386.669 102.155 387.726 102.388 388.789C102.622 389.853 103.672 390.528 104.73 390.293C105.788 390.058 106.458 389.002 106.225 387.938C105.991 386.874 104.941 386.199 103.883 386.434Z" fill="black"/>
<path d="M86.9018 378.293L121.527 379.317L137.482 384.438C137.482 384.438 148.203 391.825 149.363 392.291C152.757 393.657 152.418 399.119 149.363 398.778C149.363 398.778 150.381 404.24 144.95 403.899C144.95 403.899 143.931 407.996 139.518 406.972C135.105 405.947 128.316 402.192 128.316 402.192C128.316 402.192 139.518 407.996 137.821 409.703C136.124 411.41 135.784 413.8 127.637 409.703C119.467 405.595 118.132 404.923 118.132 404.923C118.132 404.923 105.912 410.386 96.7462 407.654C95.1898 407.191 93.8193 406.786 92.6166 406.433C85.6594 404.395 80.3475 398.589 79.1657 391.399C78.3251 386.284 79.6246 380.982 86.9018 378.293Z" fill="#DB927C"/>
<path d="M43.7905 364.295L84.8653 373.868L80.7952 409.003C75.7678 408.696 16.2025 404.906 16.2025 404.906C11.0121 404.667 6.21213 402.052 3.18414 397.805C0.152751 393.561 -0.773972 388.153 0.661944 383.127L22.4044 316.156C24.9979 307.098 38.6986 301.475 40.3416 306.238C43.6888 315.941 53.1732 332.701 50.5797 341.762L43.7905 364.295Z" fill="#FFCC83"/>
<path d="M84.8653 373.855L80.792 409.02L98.1045 409.703L100.481 376.927L84.8653 373.855Z" fill="#F2F2F2"/>
<path d="M43.7909 364.637C43.7582 364.637 43.7251 364.632 43.6923 364.622C43.5129 364.567 43.4115 364.376 43.4658 364.196L50.2551 341.663C50.3096 341.483 50.4999 341.381 50.6784 341.435C50.8577 341.49 50.9592 341.681 50.9048 341.861L44.1156 364.394C44.0712 364.542 43.9364 364.637 43.7909 364.637Z" fill="black"/>
<path d="M100.481 377.269C100.457 377.269 100.433 377.266 100.409 377.261L31.4984 362.239C31.3153 362.199 31.1989 362.017 31.2385 361.833C31.2783 361.649 31.4598 361.532 31.6423 361.571L100.553 376.594C100.736 376.634 100.852 376.815 100.813 377C100.778 377.16 100.638 377.269 100.481 377.269ZM98.1051 410.044C98.0985 410.044 98.0918 410.044 98.0851 410.044L16.2749 405.264C16.0878 405.253 15.9449 405.091 15.9556 404.903C15.9666 404.715 16.1224 404.574 16.3143 404.582L98.1245 409.362C98.3116 409.373 98.4545 409.534 98.4437 409.723C98.4331 409.904 98.2835 410.044 98.1051 410.044Z" fill="black"/>
<path d="M82.1496 397.753C82.1365 397.753 82.1233 397.753 82.11 397.751C81.9239 397.73 81.7903 397.56 81.812 397.373L84.5277 373.815C84.5492 373.628 84.7181 373.494 84.9039 373.516C85.0901 373.537 85.2237 373.707 85.202 373.894L82.4863 397.451C82.4662 397.625 82.3195 397.753 82.1496 397.753ZM72.4745 403.899C70.5092 403.899 68.9102 402.597 68.9102 400.997C68.9102 399.397 70.5092 398.095 72.4745 398.095C74.4398 398.095 76.0388 399.397 76.0388 400.997C76.0388 402.597 74.4398 403.899 72.4745 403.899ZM72.4745 398.778C70.8834 398.778 69.5891 399.773 69.5891 400.997C69.5891 402.221 70.8834 403.216 72.4745 403.216C74.0656 403.216 75.3599 402.221 75.3599 400.997C75.3599 399.773 74.0656 398.778 72.4745 398.778ZM180.517 368.209C180.286 368.209 180.058 368.188 179.836 368.144C178.97 367.975 178.295 367.495 177.935 366.792C177.574 366.09 177.576 365.258 177.941 364.45C178.293 363.67 178.946 363.002 179.779 362.57C180.612 362.137 181.531 361.989 182.368 362.153C183.234 362.322 183.909 362.802 184.27 363.505C184.63 364.208 184.628 365.04 184.263 365.848C183.911 366.628 183.258 367.296 182.425 367.728C181.813 368.045 181.155 368.209 180.517 368.209ZM181.686 362.77C181.157 362.77 180.606 362.909 180.09 363.177C179.392 363.539 178.849 364.091 178.559 364.732C178.282 365.346 178.275 365.966 178.538 366.479C178.801 366.992 179.308 367.346 179.966 367.474C180.653 367.608 181.416 367.483 182.114 367.121C182.812 366.759 183.355 366.206 183.645 365.565C183.922 364.952 183.93 364.331 183.666 363.818V363.818C183.403 363.305 182.896 362.952 182.238 362.823C182.059 362.788 181.874 362.77 181.686 362.77Z" fill="black"/>
<path d="M204.882 353.483C204.43 353.817 203.958 354.131 203.466 354.422L190.383 364.759L171.655 333.643L184.657 325.941L204.882 353.483Z" fill="#F2F2F2"/>
<path d="M145.29 349.956C145.174 349.956 145.062 349.897 144.998 349.789C144.902 349.627 144.955 349.418 145.116 349.321L183.814 326.105C183.975 326.009 184.184 326.061 184.28 326.223C184.376 326.385 184.323 326.595 184.162 326.692L145.464 349.908C145.409 349.94 145.349 349.956 145.29 349.956Z" fill="black"/>
<path d="M186.365 358.491C186.249 358.491 186.136 358.431 186.072 358.323L171.815 334.083C171.719 333.921 171.773 333.712 171.934 333.616C172.096 333.52 172.304 333.573 172.399 333.736L186.657 357.976C186.752 358.138 186.699 358.347 186.537 358.443C186.483 358.476 186.423 358.491 186.365 358.491ZM195.741 338.569C195.681 338.569 195.619 338.553 195.563 338.518C195.404 338.419 195.354 338.208 195.453 338.048C198.09 333.751 200.026 329.084 201.205 324.175C201.25 323.992 201.433 323.879 201.615 323.924C201.798 323.968 201.909 324.153 201.865 324.336C200.669 329.314 198.706 334.049 196.031 338.407C195.966 338.512 195.855 338.569 195.741 338.569ZM218.021 322.984H214.879C214.692 322.984 214.54 322.832 214.54 322.643C214.54 322.454 214.692 322.301 214.879 322.301H217.848L233.387 313.808C233.552 313.718 233.758 313.779 233.848 313.945C233.937 314.11 233.876 314.318 233.712 314.408L218.021 322.984ZM221.076 328.105H217.934C217.747 328.105 217.595 327.953 217.595 327.764C217.595 327.575 217.747 327.423 217.934 327.423H220.903L236.443 318.929C236.607 318.839 236.814 318.9 236.903 319.066C236.993 319.231 236.932 319.439 236.767 319.529L221.076 328.105ZM220.736 335.275H217.595C217.407 335.275 217.255 335.122 217.255 334.934C217.255 334.745 217.407 334.592 217.595 334.592H220.564L236.103 326.098C236.267 326.009 236.474 326.07 236.564 326.235C236.653 326.401 236.592 326.608 236.427 326.699L220.736 335.275ZM129.33 403.075C129.277 403.075 129.223 403.063 129.173 403.036L119.562 397.998L118.836 396.173C118.766 395.998 118.851 395.799 119.025 395.729C119.2 395.659 119.397 395.745 119.466 395.92L120.099 397.509L129.487 402.431C129.653 402.518 129.718 402.724 129.631 402.891C129.57 403.008 129.452 403.075 129.33 403.075ZM144.95 404.24C144.893 404.24 144.836 404.226 144.783 404.196L123.646 392.196L122.242 389.371C122.158 389.202 122.226 388.997 122.394 388.913C122.562 388.829 122.766 388.897 122.849 389.065L124.161 391.703L145.117 403.601C145.28 403.694 145.338 403.903 145.246 404.067C145.183 404.178 145.068 404.24 144.95 404.24ZM149.363 399.119C149.307 399.119 149.25 399.105 149.197 399.076L129.061 387.748L127.999 384.9C127.933 384.723 128.022 384.526 128.197 384.46C128.373 384.395 128.569 384.483 128.635 384.66L129.609 387.274L149.529 398.48C149.693 398.572 149.751 398.78 149.659 398.944C149.597 399.056 149.482 399.119 149.363 399.119Z" fill="black"/>
</g>
<path d="M226.295 13.4135H347.213C352.889 13.4135 357.49 18.0409 357.49 23.749V126.665C357.49 132.373 352.889 137 347.213 137H254.668C238.989 137 229.03 146.952 221.518 161.369C220.102 164.087 216.018 163.084 216.018 160.016V23.749C216.018 18.0409 220.619 13.4135 226.295 13.4135Z" fill="#F2F2F2"/>
<g clip-path="url(#clip4_0_1)">
<path d="M197.281 44.5562L180.41 43.0399C180.41 43.0399 164.545 25.6021 157.998 28.3821C151.451 31.162 159.006 37.7327 162.531 39.7545C166.056 41.7763 174.366 50.8742 174.366 50.8742L176.381 72.861L197.281 82.9698L220.196 75.1354L197.281 44.5562Z" fill="#FF9996"/>
<path d="M189.724 83.2906L185.255 91.1365C184.762 92.0018 183.476 91.8539 183.191 90.8991L180.691 82.5224L186.453 14.2796C186.665 11.7762 188.858 9.91881 191.353 10.1309C193.847 10.3431 195.698 12.5444 195.486 15.0478L189.724 83.2906Z" fill="#FFCC83"/>
<path d="M168.322 58.4559C168.322 58.4559 164.041 55.1705 168.07 51.8851C172.099 48.5997 176.632 48.8525 176.632 48.8525C176.632 48.8525 181.668 48.5997 183.431 52.3906C185.194 56.1814 168.322 58.4559 168.322 58.4559Z" fill="#FF9996"/>
<path d="M172.855 68.0593C172.855 68.0593 165.552 64.2685 167.063 58.9613C168.069 55.4302 172.084 53.5772 174.658 52.7325C176.03 52.2826 177.474 52.1154 178.912 52.242C181.262 52.449 184.944 53.068 185.949 54.9178C187.46 57.6977 185.949 60.9831 185.949 60.9831L172.855 68.0593Z" fill="#FF9996"/>
<path d="M181.181 75.1828C181.181 75.1828 171.093 70.8392 171.848 68.312C172.603 65.7848 175.877 60.2249 180.661 59.7195C183.524 59.4171 185.936 59.9288 187.411 60.3888C188.531 60.7377 189.42 61.6193 189.751 62.7478C190.098 63.9266 190.191 65.4545 188.971 66.5429C186.705 68.5647 185.194 68.5647 185.194 68.5647L181.181 75.1828ZM220.196 75.1354C220.196 75.1354 216.922 51.6324 215.411 50.3688C214.376 49.5027 210.856 44.7189 208.744 41.7946C207.669 40.3067 206.406 38.9669 204.983 37.8101C202.843 36.0701 199.58 33.3276 197.614 31.245C195.645 29.1582 192.112 30.1787 191.64 33.0139C191.362 34.689 191.757 37.0856 193.504 40.5127C196.651 46.6859 196.872 52.5328 196.477 56.4321C196.128 59.8741 197.046 63.3234 199.086 66.112L207.353 77.4099L220.196 75.1354Z" fill="#FF9996"/>
<path d="M183.553 53.336C183.543 53.336 183.533 53.3354 183.523 53.3343C183.385 53.3178 183.286 53.192 183.302 53.0535C183.324 52.8695 183.292 52.6877 183.203 52.4974C181.534 48.9078 176.694 49.1024 176.645 49.1049L176.632 49.1056L176.619 49.1048C176.574 49.1028 172.131 48.8996 168.23 52.0812C168.122 52.1693 167.963 52.153 167.876 52.0444C167.788 51.9362 167.804 51.777 167.912 51.689C171.906 48.4324 176.316 48.5836 176.635 48.5995C176.941 48.5885 181.894 48.4861 183.66 52.2837C183.787 52.5579 183.835 52.8369 183.803 53.1132C183.787 53.2416 183.679 53.336 183.553 53.336ZM183.407 71.7649C183.362 71.7649 183.317 71.7531 183.276 71.728C183.157 71.6555 183.12 71.5001 183.192 71.3808L185.053 68.312H185.194C185.207 68.3119 186.655 68.2716 188.804 66.354C189.721 65.5358 189.959 64.3464 189.51 62.8193C189.204 61.7771 188.391 60.9588 187.337 60.6302C185.848 60.1662 183.486 59.6747 180.688 59.9708C178.689 60.182 174.696 62.0059 172.409 67.503C172.355 67.6317 172.208 67.6925 172.079 67.6388C171.951 67.585 171.89 67.4371 171.944 67.3083C173.063 64.619 176.153 59.9417 180.635 59.4681C183.518 59.1638 185.952 59.6694 187.486 60.1474C188.702 60.5264 189.639 61.4717 189.993 62.6764C190.495 64.3832 190.199 65.7856 189.139 66.7319C187.203 68.4583 185.79 68.7559 185.342 68.8069L183.622 71.6436C183.575 71.7217 183.492 71.7649 183.407 71.7649Z" fill="black"/>
<path d="M186.27 60.3321C186.247 60.3321 186.223 60.3288 186.199 60.3219C186.066 60.2828 185.989 60.1425 186.028 60.0085C186.341 58.9342 186.718 56.8599 185.728 55.0388C184.763 53.2635 181.029 52.6821 178.889 52.4937C177.48 52.3695 176.083 52.5309 174.736 52.9728C172.34 53.759 169.189 55.2428 167.788 57.846C167.722 57.9687 167.569 58.0147 167.447 57.9483C167.324 57.8819 167.279 57.7287 167.345 57.6059C168.825 54.8559 172.096 53.3072 174.58 52.4922C175.992 52.0292 177.457 51.8603 178.933 51.9903C181.67 52.2313 185.147 52.9138 186.17 54.7967C187.247 56.7774 186.846 59.001 186.512 60.1501C186.48 60.2604 186.379 60.3321 186.27 60.3321ZM199.086 66.3647C199.009 66.3647 198.932 66.3291 198.883 66.2616C196.812 63.4313 195.868 59.9313 196.226 56.4066C196.511 53.5984 196.51 49.2434 194.888 44.4435C194.843 44.3114 194.914 44.1679 195.046 44.123C195.178 44.0793 195.32 44.1491 195.365 44.2811C197.016 49.1671 197.017 53.5996 196.727 56.4578C196.382 59.8577 197.292 63.2332 199.289 65.9625C199.371 66.0749 199.347 66.2331 199.235 66.3158C199.19 66.3488 199.138 66.3647 199.086 66.3647Z" fill="black"/>
<path d="M304.677 60.0675C304.677 60.0675 299.587 70.1922 283.213 72.9124C266.844 75.6325 274.715 65.1298 274.715 65.1298L277.239 60.0815L279.592 55.3784L294.059 45.0623C294.05 45.151 294.05 45.2349 294.05 45.3236C293.989 50.8852 304.677 60.0675 304.677 60.0675Z" fill="#FF9996"/>
<path d="M294.059 45.0623C294.05 45.151 294.05 45.2349 294.05 45.3236C292.711 50.9132 289.308 58.4391 280.642 60.1141C279.215 60.3894 278.095 60.3614 277.239 60.0815L279.592 55.3784L294.059 45.0623Z" fill="black"/>
<path d="M303.2 57.6573L303.14 58.6706L302.911 62.6029L301.377 88.8278L301.345 89.389L301.327 89.7251L301.297 90.2254L298.574 136.799H265.512L267.375 101.477L268.538 79.4015L269.123 68.317L269.163 67.5665L269.347 64.0689L270.825 64.4631L272.187 64.8243L274.499 65.4411L282.746 67.6347L283.103 67.7307L283.118 67.7232L283.327 67.6195L302.014 58.2511L302.465 58.0262L303.2 57.6573Z" fill="#F2F2F2"/>
<path d="M290.066 136.799H273.773L281.063 76.1993H284.108L284.113 76.2525L290.066 136.799Z" fill="#F90065"/>
<path d="M191.741 81.4535L219.692 70.3338L223.218 77.4099L197.029 90.0459L191.741 81.4535Z" fill="#F2F2F2"/>
<path d="M302.328 40.5793C301.479 39.07 299.937 38.1738 298.224 37.9967C297.597 30.5428 292.827 25.879 286.384 25.8183C279.41 25.7526 273.121 31.1032 273.041 39.6579C272.961 48.2126 273.756 55.1557 280.73 55.2214C284.635 55.2582 289.649 53.1297 293.321 49.7481C295.563 49.8194 298.12 49.2325 299.709 48.3319C302.632 46.6743 303.805 43.2033 302.328 40.5793Z" fill="#FF9996"/>
<path d="M300.62 45.1106C299.928 43.5997 298.776 42.279 297.374 41.3917L297.639 40.9702C299.121 41.9086 300.34 43.3051 301.071 44.9028L300.62 45.1106Z" fill="black"/>
<path d="M299.013 45.4634L298.56 45.2608L299.519 43.1L299.972 43.3029L299.013 45.4634Z" fill="black"/>
<path d="M286.206 39.1281C286.212 38.5181 285.863 38.0203 285.427 38.0162C284.991 38.012 284.633 38.5032 284.628 39.1132C284.622 39.7232 284.971 40.221 285.406 40.2251C285.842 40.2293 286.2 39.7381 286.206 39.1281Z" fill="black"/>
<path d="M278.01 38.7857C278.016 38.1757 277.667 37.6779 277.231 37.6738C276.795 37.6696 276.437 38.1608 276.431 38.7708C276.426 39.3808 276.774 39.8786 277.21 39.8827C277.646 39.8869 278.004 39.3957 278.01 38.7857Z" fill="black"/>
<path d="M277.376 44.4625L277.203 43.9954C278.534 43.4999 279.636 42.4724 280.227 41.1768C280.818 39.881 280.872 38.3726 280.375 37.038L280.84 36.8635C281.383 38.3213 281.324 39.9689 280.678 41.3841C280.033 42.7991 278.829 43.9212 277.376 44.4625ZM280.605 48.2539L280.592 47.7559C282.609 47.7035 284.579 46.3693 285.383 44.5119L285.838 44.7101C284.947 46.7714 282.844 48.1955 280.605 48.2539Z" fill="black"/>
<path d="M280.833 55.4708C280.798 55.4708 280.763 55.4708 280.728 55.4703L280.732 54.9723C280.764 54.9725 280.797 54.9728 280.829 54.9728C284.693 54.9728 289.631 52.8087 293.153 49.5645L293.228 49.4959L293.328 49.4991C295.486 49.5682 298.005 49.0118 299.586 48.1149C300.947 47.3435 301.958 46.1442 302.433 44.7379C302.905 43.3418 302.791 41.9084 302.112 40.7018C301.332 39.3167 299.906 38.4209 298.198 38.2445L297.994 38.2233L297.976 38.0176C297.371 30.8189 292.819 26.1281 286.382 26.0673L286.386 25.5692C293.038 25.6319 297.756 30.4143 298.453 37.7732C300.232 38.0151 301.716 38.985 302.544 40.4567C303.294 41.7885 303.421 43.3657 302.904 44.8981C302.389 46.4204 301.298 47.7169 299.831 48.5487C298.202 49.4723 295.642 50.05 293.414 49.9999C289.759 53.3341 284.844 55.4708 280.833 55.4708Z" fill="black"/>
<path d="M277.57 71.8431L281.181 76.2516H284.225L288.917 70.1648L283.104 67.7303L277.57 71.8431Z" fill="#F90065"/>
<path d="M276.785 58.0028L283.104 67.7303L275.855 80.8651L270.276 62.6686L276.785 58.0028Z" fill="#F2F2F2"/>
<path d="M261.492 64.0157C261.492 64.0157 218.576 111.356 215.042 121.962C211.812 131.656 225.946 137.509 236.186 135.186C242.222 133.817 247.178 129.887 249.937 124.921L274.35 92.0954L261.492 64.0157Z" fill="#B8C2D8"/>
<path d="M290.175 80.8651L283.104 67.7303L299.565 54.2702L303.199 57.6562L290.175 80.8651Z" fill="#F2F2F2"/>
<path d="M354.723 133.357C354.278 133.85 353.787 134.3 353.255 134.702C352.414 135.336 351.477 135.844 350.468 136.2C350.455 136.208 350.443 136.213 350.427 136.216C349.352 136.595 348.194 136.799 346.988 136.799H291.4C291.891 109.288 297.24 80.3415 300.488 65.1151C300.828 63.5229 301.145 62.0824 301.43 60.8087C301.644 59.861 301.838 59.0068 302.014 58.2512C302.057 58.0641 302.1 57.8822 302.14 57.7078C302.203 57.4323 302.301 57.1746 302.427 56.937C303.142 55.6052 304.759 54.9405 306.25 55.4965L312.077 57.6699L317.75 57.9024L331.642 58.4685L340.645 87.6755L340.665 87.7386L350.991 121.242L351.18 121.859L354.723 133.357Z" fill="#B8C2D8"/>
<path d="M308.806 74.2534C308.775 77.42 308.896 81.1729 309.264 85.5753L309.279 85.7497L301.344 89.3889L300.785 89.6467L301.327 89.725L307.456 90.6222L307.421 90.8699C307.368 91.2237 304.066 113.938 302.775 136.799H302.279C303.5 115.123 306.529 93.5916 306.894 91.0442L301.297 90.2254L299.048 89.8969L301.377 88.8279L308.755 85.4439C307.572 71.1197 309.03 63.6846 309.581 60.8769C309.629 60.6267 309.672 60.4144 309.702 60.2401L310.19 60.326C310.16 60.5054 310.117 60.7202 310.067 60.9729C309.778 62.4589 309.229 65.2515 308.959 69.6969C308.876 71.0565 308.821 72.5728 308.806 74.2534Z" fill="black"/>
<path d="M272.476 61.9586C272.406 62.6359 272.307 63.6038 272.187 64.8244C272.098 65.7241 271.998 66.7603 271.887 67.9253V67.9278C271.867 68.1401 271.847 68.3575 271.827 68.5773C271.464 72.5021 271.013 77.7284 270.565 83.829C270.24 88.287 269.918 93.2126 269.633 98.4363C268.986 110.319 268.538 123.759 268.712 136.799H246.071L247.965 127.838L250.256 116.991L259.47 73.3942L261.442 64.0713V64.0688H261.444L261.507 64.0511L267.951 62.2012L271.489 61.1372C271.754 61.0563 272.015 61.1271 272.204 61.2863C272.391 61.4405 272.504 61.6856 272.476 61.9586Z" fill="#B8C2D8"/>
<path d="M269.392 67.6625L269.123 68.317L266.446 74.8321L259.77 91.082L264.839 95.3051L259.302 96.8568L260.289 111.002L262.09 136.799H261.594L259.836 111.613L258.778 96.4853L263.794 95.0827L259.174 91.2312L266.164 74.2155L268.934 67.473L269.163 67.5665L269.392 67.6625Z" fill="black"/>
<path d="M293.405 42.4948C293.21 42.7626 292.777 42.6044 292.809 42.2744C292.953 40.7529 292.681 39.2155 293.521 37.94C294.191 36.9225 295.021 34.8506 293.986 33.7408C293.203 32.9017 291.486 33.2254 289.802 33.2743C284.797 33.4195 275.484 33.5327 271.671 28.6085C270.503 27.1004 269.334 23.5501 269.331 21.6402C269.328 19.7304 269.784 17.8534 270.238 15.9987C274.131 18.9379 278.727 20.9317 283.527 21.7636C286.627 22.301 289.871 22.379 292.736 23.6849C295.601 24.9907 298.029 28.0499 297.3 31.122C299.475 30.5453 301.977 31.6871 302.974 33.7109C303.951 35.6947 301.424 39.3398 301.424 39.3398C300.117 38.4651 298.42 37.9077 296.775 38.8732C295.381 39.6917 294.388 41.1431 293.405 42.4948Z" fill="black"/>
<path d="M275.789 81.498L271.651 68.0018L272.126 67.8552L275.921 80.2322L282.814 67.7408L278.058 60.4191L278.474 60.147L283.393 67.7198L275.789 81.498Z" fill="black"/>
<path d="M290.17 81.3807L282.886 67.8487L283.322 67.6119L290.179 80.3496L296.799 68.5521L297.232 68.7968L290.17 81.3807Z" fill="black"/>
<path d="M250.5 117.043L250.015 116.939L259.229 73.3442L259.714 73.4477L250.5 117.043Z" fill="black"/>
<path d="M360.203 41.5201L366.855 25.1906C367.367 23.9334 367.994 22.7306 368.727 21.5944C371.712 16.9677 379.754 5.38478 384.814 6.46621C391.122 7.81443 378.584 22.9256 378.584 22.9256C378.584 22.9256 392.699 9.97159 395.327 9.70195C397.956 9.4323 400.321 13.7466 391.385 23.7235C382.449 33.7004 381.134 33.7004 385.34 32.3521C389.545 31.0039 400.847 21.2967 404.526 24.5324C408.206 27.7682 390.334 39.3629 390.334 39.3629C390.334 39.3629 402.247 34.1336 405.025 37.48C407.544 40.5127 399.11 44.0432 392.183 47.3361C387.399 49.6106 387.673 49.6746 384.629 52.6433C383.033 54.1999 381.458 56.5872 379.355 57.1672C373.126 58.8846 360.273 56.9326 360.203 41.5201Z" fill="#FF9996"/>
<path d="M240.574 104.88C239.902 104.343 222.462 75.1354 222.462 75.1354L195.519 88.2769L213.607 124.46C214.626 127.367 216.435 130.023 219.003 132.075C226.37 137.961 237.171 136.645 243.128 129.135C249.085 121.625 247.941 110.766 240.574 104.88Z" fill="#B8C2D8"/>
<path d="M240.434 105.055C240.311 104.957 239.938 104.658 228.342 85.5584L228.723 85.3252C238.676 101.719 240.511 104.507 240.718 104.71L240.434 105.055Z" fill="black"/>
<path d="M340.058 67.3011C338.295 64.7739 328.978 48.0943 315.816 59.3815C304.385 69.1834 308.938 77.8679 314.121 88.0242C319.41 98.3858 332.504 115.824 332.504 115.824C332.504 115.824 348.052 130.053 361.432 115.864C370.527 106.22 356.518 89.2861 356.518 89.2861L340.058 67.3011Z" fill="#B8C2D8"/>
<path d="M349.611 14.7426C349.611 14.7426 352.088 28.8414 365.663 36.6202C379.238 44.399 386.014 52.2534 387.753 60.093C387.753 60.093 402.898 48.0073 409.962 43.2265C409.962 43.2265 409.938 29.7773 393.154 21.6953C379.125 14.9391 378.935 3.07042 379.075 0.443798C379.086 0.238388 378.855 0.113074 378.69 0.234899C376.864 1.58224 369.59 6.92548 364.986 9.98646C359.792 13.439 349.611 14.7426 349.611 14.7426Z" fill="#F9F9F9"/>
<path d="M361.307 20.3374C360.985 20.3374 360.674 20.1594 360.519 19.8509C360.3 19.4147 360.475 18.8828 360.909 18.6629L376.797 10.6229C377.233 10.4026 377.762 10.5784 377.981 11.0144C378.2 11.4506 378.026 11.9825 377.591 12.2024L361.703 20.2424C361.576 20.3068 361.44 20.3374 361.307 20.3374ZM364.31 26.6644C363.988 26.6644 363.677 26.4863 363.522 26.1778C363.303 25.7416 363.478 25.2097 363.912 24.9898L379.8 16.9499C380.236 16.7299 380.765 16.9055 380.984 17.3414C381.203 17.7777 381.029 18.3095 380.594 18.5294L364.706 26.5693C364.579 26.6338 364.443 26.6644 364.31 26.6644ZM367.571 30.9704C367.249 30.9704 366.938 30.7923 366.783 30.4838C366.564 30.0476 366.739 29.5157 367.173 29.2958L383.061 21.2558C383.497 21.0356 384.026 21.2114 384.245 21.6473C384.464 22.0835 384.29 22.6154 383.855 22.8353L367.967 30.8753C367.84 30.9398 367.704 30.9704 367.571 30.9704ZM374.108 34.5278C373.785 34.5278 373.475 34.3498 373.32 34.0413C373.101 33.6051 373.275 33.0732 373.71 32.8533L389.598 24.8134C390.034 24.5932 390.563 24.7688 390.782 25.2049C391.001 25.6411 390.826 26.173 390.392 26.3929L374.504 34.4328C374.376 34.4972 374.241 34.5278 374.108 34.5278ZM379.133 38.0809C378.811 38.0809 378.501 37.9028 378.346 37.5943C378.127 37.1581 378.301 36.6262 378.736 36.4063L394.624 28.3664C395.059 28.1464 395.588 28.322 395.808 28.7579C396.027 29.1942 395.852 29.726 395.418 29.9459L379.53 37.9858C379.402 38.0503 379.267 38.0809 379.133 38.0809ZM387.044 45.325C386.722 45.325 386.411 45.1469 386.256 44.8384C386.037 44.4022 386.212 43.8704 386.646 43.6505L396.86 38.4819C397.296 38.2618 397.825 38.4374 398.044 38.8734C398.263 39.3097 398.088 39.8415 397.654 40.0614L387.44 45.23C387.313 45.2944 387.177 45.325 387.044 45.325ZM379.746 43.7869C379.424 43.7869 379.114 43.6089 378.959 43.3004C378.74 42.8642 378.914 42.3323 379.349 42.1124L389.562 36.9439C389.998 36.7236 390.527 36.8994 390.746 37.3354C390.965 37.7716 390.791 38.3035 390.356 38.5234L380.142 43.6919C380.015 43.7563 379.88 43.7869 379.746 43.7869Z" fill="#B8C2D8"/>
<path d="M355.815 50.2267C355.815 50.2267 354.572 37.48 359.356 32.4256C362.924 28.6557 365.232 26.4323 366.697 24.1825C367.961 22.242 370.636 21.7097 372.479 23.107C373.505 23.8844 374.118 25.1283 373.457 27.1184C371.695 32.4256 368.925 38.9963 368.925 38.9963C368.925 38.9963 372.198 50.1161 369.68 55.9286C367.162 61.7412 355.8 56.6554 355.815 50.2267Z" fill="#FF9996"/>
<path d="M355.445 44.0855L383.567 55.8458L379.034 67.5214L352.364 53.0011L355.445 44.0855Z" fill="#F2F2F2"/>
<path d="M353.488 49.6938L382.731 60.2713L367.777 110.778C367.321 112.321 366.585 113.764 365.59 115.027C362.732 118.656 353.044 124.076 345.041 119.528C334.117 113.32 335.03 105.708 336.857 99.4675C338.683 93.2272 353.488 49.6938 353.488 49.6938Z" fill="#B8C2D8"/>
<path d="M337.791 96.6168C337.765 96.6168 337.738 96.6126 337.712 96.604C337.58 96.5603 337.508 96.4174 337.552 96.2849L344.854 74.0455C344.898 73.9129 345.041 73.8409 345.172 73.8845C345.305 73.9282 345.376 74.0711 345.333 74.2037L338.03 96.4431C337.995 96.5493 337.897 96.6168 337.791 96.6168ZM335.777 120.372C335.697 120.372 335.618 120.334 335.569 120.263L315.424 90.9476C315.345 90.8328 315.374 90.6753 315.489 90.5961C315.603 90.5166 315.76 90.5456 315.839 90.6606L335.984 119.976C336.063 120.091 336.034 120.249 335.919 120.328C335.876 120.358 335.826 120.372 335.777 120.372ZM370.214 45.3149C370.091 45.3149 369.984 45.2248 369.965 45.0994C369.468 41.756 368.691 39.0944 368.683 39.0679L368.658 38.9812L368.693 38.8979C368.72 38.8322 371.479 32.2752 373.219 27.0385C373.756 25.4195 373.456 24.1647 372.327 23.3086C371.514 22.6923 370.5 22.4525 369.473 22.6312C368.422 22.815 367.487 23.4309 366.908 24.3208C365.728 26.133 363.98 27.9562 361.561 30.4797C360.937 31.1313 360.264 31.8335 359.538 32.5997C359.443 32.7007 359.283 32.7048 359.182 32.6088C359.082 32.5127 359.077 32.3527 359.173 32.2515C359.899 31.4846 360.573 30.7816 361.198 30.1293C363.598 27.6256 365.332 25.8167 366.486 24.0443C367.142 23.0377 368.199 22.3411 369.387 22.1333C370.552 21.9293 371.705 22.2035 372.631 22.9054C373.933 23.8923 374.301 25.3769 373.696 27.1984C372.057 32.1343 369.517 38.2336 369.191 39.0123C369.33 39.5019 370.012 41.9858 370.463 45.0249C370.484 45.163 370.389 45.2915 370.251 45.3121C370.239 45.314 370.226 45.3149 370.214 45.3149Z" fill="black"/>
</g>
<defs>
<linearGradient id="paint0_linear_0_1" x1="160.204" y1="184.955" x2="165.699" y2="207.45" gradientUnits="userSpaceOnUse">
<stop stop-color="#37BBFE"/>
<stop offset="1" stop-color="#007DBB"/>
</linearGradient>
<clipPath id="clip0_0_1">
<rect width="26.4648" height="26.4648" fill="white" transform="translate(146.957 186.488) rotate(-13.7269)"/>
</clipPath>
<clipPath id="clip1_0_1">
<rect width="67.7485" height="60.414" fill="white" transform="matrix(0.95607 -0.293137 0.290576 0.956852 48 87.8596)"/>
</clipPath>
<clipPath id="clip2_0_1">
<rect width="122.282" height="62.8793" fill="white" transform="matrix(0.974425 0.224714 -0.222675 0.974893 256.002 253)"/>
</clipPath>
<clipPath id="clip3_0_1">
<rect width="240.959" height="165.965" fill="white" transform="translate(0 246)"/>
</clipPath>
<clipPath id="clip4_0_1">
<rect width="254.545" height="136.612" fill="white" transform="translate(155.417 0.186981)"/>
</clipPath>
</defs>
</svg>
