<svg width="15" height="15" viewBox="0 0 15 15" fill="none" xmlns="http://www.w3.org/2000/svg">
<path d="M7.5 15C11.6421 15 15 11.6421 15 7.5C15 3.35786 11.6421 0 7.5 0C3.35786 0 0 3.35786 0 7.5C0.00448242 11.6403 3.35971 14.9955 7.5 15ZM6.87501 3.75C6.87501 3.40482 7.15482 3.12501 7.5 3.12501C7.84518 3.12501 8.12499 3.40482 8.12499 3.75V8.75001C8.12499 9.09519 7.84518 9.375 7.5 9.375C7.15482 9.375 6.87501 9.09519 6.87501 8.75001V3.75ZM7.5 11.25C7.84518 11.25 8.12499 11.5298 8.12499 11.875C8.12499 12.2202 7.84518 12.5 7.5 12.5C7.15482 12.5 6.87501 12.2202 6.87501 11.875C6.87501 11.5298 7.15482 11.25 7.5 11.25Z" fill="#F46C6C"/>
</svg>
