<svg width="15" height="15" viewBox="0 0 15 15" fill="none" xmlns="http://www.w3.org/2000/svg">
  <path
    d="M14.375 4.3751H11.3694L11.8694 0.709471C11.8805 0.628133 11.8754 0.54541 11.8545 0.466023C11.8336 0.386637 11.7973 0.312143 11.7476 0.246794C11.6979 0.181444 11.6359 0.12652 11.565 0.0851567C11.4941 0.0437933 11.4157 0.0168009 11.3344 0.00572064C11.253 -0.00535964 11.1703 -0.000310822 11.0909 0.0205788C11.0115 0.0414685 10.937 0.0777899 10.8717 0.127469C10.8063 0.177149 10.7514 0.239213 10.7101 0.310119C10.6687 0.381025 10.6417 0.459383 10.6306 0.540721L10.1081 4.3751H5.74438L6.24438 0.709471C6.25546 0.628133 6.25041 0.54541 6.22952 0.466023C6.20863 0.386637 6.17231 0.312143 6.12263 0.246794C6.07295 0.181444 6.01088 0.12652 5.93998 0.0851567C5.86907 0.0437933 5.79071 0.0168009 5.70938 0.00572065C5.62804 -0.00535963 5.54531 -0.000310806 5.46593 0.0205789C5.38654 0.0414685 5.31205 0.0777899 5.2467 0.127469C5.18135 0.177149 5.12642 0.239213 5.08506 0.310119C5.0437 0.381025 5.01671 0.459383 5.00562 0.540721L4.48312 4.3751H1.25C1.08424 4.3751 0.925268 4.44094 0.808058 4.55815C0.690848 4.67536 0.625 4.83434 0.625 5.0001C0.625 5.16586 0.690848 5.32483 0.808058 5.44204C0.925268 5.55925 1.08424 5.6251 1.25 5.6251H4.3125L3.80125 9.3751H0.625C0.45924 9.3751 0.300269 9.44094 0.183058 9.55815C0.065848 9.67536 0 9.83434 0 10.0001C0 10.1659 0.065848 10.3248 0.183058 10.442C0.300269 10.5592 0.45924 10.6251 0.625 10.6251H3.63063L3.13062 14.2907C3.10825 14.455 3.15204 14.6214 3.25237 14.7534C3.35271 14.8854 3.50136 14.9721 3.66562 14.9945C3.82989 15.0168 3.99632 14.9731 4.1283 14.8727C4.26028 14.7724 4.347 14.6237 4.36938 14.4595L4.89188 10.6251H9.25562L8.75562 14.2907C8.73325 14.455 8.77704 14.6214 8.87737 14.7534C8.97771 14.8854 9.12636 14.9721 9.29062 14.9945C9.45489 15.0168 9.62132 14.9731 9.7533 14.8727C9.88528 14.7724 9.972 14.6237 9.99438 14.4595L10.5169 10.6251H13.75C13.9158 10.6251 14.0747 10.5592 14.1919 10.442C14.3092 10.3248 14.375 10.1659 14.375 10.0001C14.375 9.83434 14.3092 9.67536 14.1919 9.55815C14.0747 9.44094 13.9158 9.3751 13.75 9.3751H10.6875L11.1987 5.6251H14.375C14.5408 5.6251 14.6997 5.55925 14.8169 5.44204C14.9342 5.32483 15 5.16586 15 5.0001C15 4.83434 14.9342 4.67536 14.8169 4.55815C14.6997 4.44094 14.5408 4.3751 14.375 4.3751ZM9.42625 9.3751H5.0625L5.57375 5.6251H9.9375L9.42625 9.3751Z"
    fill="#2D8EFF" />
</svg>
  