<svg width="15" height="16" viewBox="0 0 15 16" xmlns="http://www.w3.org/2000/svg">
<g clip-path="url(#clip0_309_213)">
<path d="M7.5 0.5C6.01664 0.5 4.5666 0.939867 3.33323 1.76398C2.09986 2.58809 1.13856 3.75943 0.570907 5.12987C0.00324965 6.50032 -0.145275 8.00832 0.144114 9.46318C0.433503 10.918 1.14781 12.2544 2.1967 13.3033C3.2456 14.3522 4.58197 15.0665 6.03683 15.3559C7.49168 15.6453 8.99968 15.4968 10.3701 14.9291C11.7406 14.3614 12.9119 13.4001 13.736 12.1668C14.5601 10.9334 15 9.48336 15 8C14.9979 6.01154 14.207 4.10513 12.8009 2.69907C11.3949 1.29302 9.48847 0.502151 7.5 0.5ZM7.5 14.25C6.26387 14.25 5.0555 13.8834 4.02769 13.1967C2.99988 12.5099 2.1988 11.5338 1.72576 10.3918C1.25271 9.24973 1.12894 7.99307 1.3701 6.78069C1.61125 5.56831 2.20651 4.45466 3.08059 3.58058C3.95466 2.7065 5.06831 2.11125 6.28069 1.87009C7.49307 1.62893 8.74974 1.75271 9.89178 2.22575C11.0338 2.6988 12.0099 3.49988 12.6967 4.52769C13.3834 5.55549 13.75 6.76387 13.75 8C13.7482 9.65705 13.0891 11.2457 11.9174 12.4174C10.7457 13.5891 9.15705 14.2482 7.5 14.25Z"/>
<path d="M7.5 6.75H6.875C6.70924 6.75 6.55027 6.81585 6.43306 6.93306C6.31585 7.05027 6.25 7.20924 6.25 7.375C6.25 7.54076 6.31585 7.69973 6.43306 7.81694C6.55027 7.93415 6.70924 8 6.875 8H7.5V11.75C7.5 11.9158 7.56585 12.0747 7.68306 12.1919C7.80027 12.3092 7.95924 12.375 8.125 12.375C8.29076 12.375 8.44973 12.3092 8.56694 12.1919C8.68415 12.0747 8.75 11.9158 8.75 11.75V8C8.75 7.66848 8.6183 7.35054 8.38388 7.11612C8.14946 6.8817 7.83152 6.75 7.5 6.75Z"/>
<path d="M7.5 5.5C8.01777 5.5 8.4375 5.08027 8.4375 4.5625C8.4375 4.04473 8.01777 3.625 7.5 3.625C6.98223 3.625 6.5625 4.04473 6.5625 4.5625C6.5625 5.08027 6.98223 5.5 7.5 5.5Z"/>
</g>
<defs>
<clipPath id="clip0_309_213">
<rect width="15" height="15" fill="white" transform="translate(0 0.5)"/>
</clipPath>
</defs>
</svg>
