<svg width="15" height="16" viewBox="0 0 15 16" fill="none" xmlns="http://www.w3.org/2000/svg">
<g clip-path="url(#clip0_362_4063)">
<path d="M4.89695 10.78C4.7532 10.6267 4.6182 10.4587 4.49633 10.2813C4.2932 9.984 4.35445 9.56667 4.63383 9.35C4.91258 9.13333 5.3032 9.19867 5.50695 9.496C5.58758 9.61467 5.6782 9.72867 5.78008 9.83667C6.28195 10.372 6.94883 10.6667 7.6582 10.6667C8.36758 10.6667 9.03508 10.372 9.53633 9.83667L12.9738 6.17C14.0095 5.06533 14.0095 3.26733 12.9738 2.16267C11.9382 1.058 10.2526 1.058 9.21695 2.16267L8.5557 2.868C8.31133 3.12867 7.91633 3.12867 7.67195 2.868C7.42758 2.60733 7.42758 2.186 7.67195 1.92533L8.3332 1.22C9.85633 -0.405334 12.3345 -0.405334 13.8576 1.22C15.3807 2.84467 15.3807 5.488 13.8576 7.11267L10.4201 10.7793C9.68258 11.5667 8.70133 12 7.6582 12C6.61508 12 5.63383 11.5667 4.89695 10.78ZM3.9082 16C4.95195 16 5.93258 15.5667 6.67008 14.7793L7.33133 14.074C7.5757 13.814 7.5757 13.392 7.33133 13.1313C7.08758 12.8707 6.69195 12.8713 6.44758 13.1313L5.7857 13.8367C5.28383 14.372 4.61695 14.6667 3.90758 14.6667C3.1982 14.6667 2.53133 14.372 2.02945 13.8367C1.52758 13.3013 1.25133 12.59 1.25133 11.8333C1.25133 11.0767 1.52758 10.3647 2.02945 9.83L5.46695 6.16333C5.96883 5.628 6.6357 5.33333 7.34508 5.33333C8.05445 5.33333 8.72195 5.628 9.2232 6.16333C9.3232 6.27067 9.41445 6.38467 9.4957 6.50333C9.6982 6.80133 10.0888 6.868 10.3688 6.65067C10.6482 6.434 10.7101 6.01733 10.507 5.71933C10.3882 5.54467 10.2538 5.37733 10.1076 5.22133C9.36945 4.43333 8.3882 4 7.34508 4C6.30195 4 5.3207 4.43333 4.5832 5.22067L1.14633 8.88733C0.408203 9.674 0.00195312 10.7207 0.00195312 11.8333C0.00195312 12.946 0.408203 13.9927 1.14633 14.7793C1.88383 15.5667 2.86445 16 3.9082 16Z" fill="#2D8EFF"/>
</g>
<defs>
<clipPath id="clip0_362_4063">
<rect width="15" height="16" fill="white"/>
</clipPath>
</defs>
</svg>
