<svg width="15" height="15" viewBox="0 0 15 15" xmlns="http://www.w3.org/2000/svg">
<g clip-path="url(#clip0_441_6087)">
<path d="M0.625156 15C0.465156 15 0.305156 14.9387 0.183281 14.8169C-0.0610938 14.5725 -0.0610938 14.1775 0.183281 13.9331L13.9333 0.183113C14.1777 -0.0612616 14.5727 -0.0612616 14.817 0.183113C15.0614 0.427488 15.0614 0.822488 14.817 1.06686L1.06703 14.8169C0.945156 14.9387 0.785156 15 0.625156 15ZM5.62516 3.12499C5.62516 1.74624 4.50391 0.624988 3.12516 0.624988C1.74641 0.624988 0.625156 1.74624 0.625156 3.12499C0.625156 4.50374 1.74641 5.62499 3.12516 5.62499C4.50391 5.62499 5.62516 4.50374 5.62516 3.12499ZM4.37516 3.12499C4.37516 3.81436 3.81453 4.37499 3.12516 4.37499C2.43578 4.37499 1.87516 3.81436 1.87516 3.12499C1.87516 2.43561 2.43578 1.87499 3.12516 1.87499C3.81453 1.87499 4.37516 2.43561 4.37516 3.12499ZM14.3752 11.875C14.3752 10.4962 13.2539 9.37499 11.8752 9.37499C10.4964 9.37499 9.37516 10.4962 9.37516 11.875C9.37516 13.2537 10.4964 14.375 11.8752 14.375C13.2539 14.375 14.3752 13.2537 14.3752 11.875ZM13.1252 11.875C13.1252 12.5644 12.5645 13.125 11.8752 13.125C11.1858 13.125 10.6252 12.5644 10.6252 11.875C10.6252 11.1856 11.1858 10.625 11.8752 10.625C12.5645 10.625 13.1252 11.1856 13.1252 11.875Z" />
</g>
<defs>
<clipPath id="clip0_441_6087">
<rect width="15" height="15" fill="white"/>
</clipPath>
</defs>
</svg>
