<svg width="20" height="20" viewBox="0 0 20 20" xmlns="http://www.w3.org/2000/svg">
<path d="M10 0C8.02219 0 6.08879 0.58649 4.4443 1.6853C2.79981 2.78412 1.51809 4.3459 0.761209 6.17317C0.00433286 8.00043 -0.193701 10.0111 0.192152 11.9509C0.578004 13.8907 1.53041 15.6725 2.92894 17.0711C4.32746 18.4696 6.10929 19.422 8.0491 19.8079C9.98891 20.1937 11.9996 19.9957 13.8268 19.2388C15.6541 18.4819 17.2159 17.2002 18.3147 15.5557C19.4135 13.9112 20 11.9778 20 10C19.9971 7.34872 18.9426 4.80684 17.0679 2.9321C15.1932 1.05736 12.6513 0.00286757 10 0ZM10 18.3333C8.35183 18.3333 6.74066 17.8446 5.37025 16.9289C3.99984 16.0132 2.93174 14.7117 2.30101 13.189C1.67028 11.6663 1.50525 9.99076 1.82679 8.37425C2.14834 6.75774 2.94201 5.27288 4.10745 4.10744C5.27289 2.94201 6.75774 2.14833 8.37425 1.82679C9.99076 1.50525 11.6663 1.67027 13.189 2.301C14.7118 2.93173 16.0132 3.99984 16.9289 5.37025C17.8446 6.74066 18.3333 8.35182 18.3333 10C18.3309 12.2094 17.4522 14.3276 15.8899 15.8899C14.3276 17.4522 12.2094 18.3309 10 18.3333ZM5.83334 7.91667C5.83334 6.76583 6.39334 5.83333 7.08334 5.83333C7.77334 5.83333 8.33334 6.76583 8.33334 7.91667C8.33334 9.0675 7.77334 10 7.08334 10C6.39334 10 5.83334 9.0675 5.83334 7.91667ZM11.6667 7.91667C11.6667 6.76583 12.2267 5.83333 12.9167 5.83333C13.6067 5.83333 14.1667 6.76583 14.1667 7.91667C14.1667 9.0675 13.6067 10 12.9167 10C12.2267 10 11.6667 9.0675 11.6667 7.91667ZM10 12.5C11.6993 12.4565 13.3841 12.176 15.0058 11.6667C14.4933 13.5667 12.7858 15.8333 10.0058 15.8333C7.22584 15.8333 5.5125 13.5667 5 11.6667C6.61964 12.1763 8.30263 12.4568 10 12.5Z"/>
</svg>
