<svg width="40" height="40" viewBox="0 0 40 40" fill="none" xmlns="http://www.w3.org/2000/svg">
<rect width="40" height="40" rx="10" fill="#2D8EFF"/>
<g clip-path="url(#clip0_0_1)">
<path d="M20 10C18.0222 10 16.0888 10.5865 14.4443 11.6853C12.7998 12.7841 11.5181 14.3459 10.7612 16.1732C10.0043 18.0004 9.8063 20.0111 10.1922 21.9509C10.578 23.8907 11.5304 25.6725 12.9289 27.0711C14.3275 28.4696 16.1093 29.422 18.0491 29.8079C19.9889 30.1937 21.9996 29.9957 23.8268 29.2388C25.6541 28.4819 27.2159 27.2002 28.3147 25.5557C29.4135 23.9112 30 21.9778 30 20C29.9971 17.3487 28.9426 14.8068 27.0679 12.9321C25.1932 11.0574 22.6513 10.0029 20 10ZM20 28.3333C18.3518 28.3333 16.7407 27.8446 15.3703 26.9289C13.9998 26.0132 12.9317 24.7117 12.301 23.189C11.6703 21.6663 11.5053 19.9908 11.8268 18.3742C12.1483 16.7577 12.942 15.2729 14.1074 14.1074C15.2729 12.942 16.7577 12.1483 18.3743 11.8268C19.9908 11.5052 21.6663 11.6703 23.189 12.301C24.7118 12.9317 26.0132 13.9998 26.9289 15.3702C27.8446 16.7407 28.3333 18.3518 28.3333 20C28.3309 22.2094 27.4522 24.3276 25.8899 25.8899C24.3276 27.4522 22.2094 28.3309 20 28.3333ZM15.8333 17.9167C15.8333 16.7658 16.3933 15.8333 17.0833 15.8333C17.7733 15.8333 18.3333 16.7658 18.3333 17.9167C18.3333 19.0675 17.7733 20 17.0833 20C16.3933 20 15.8333 19.0675 15.8333 17.9167ZM21.6667 17.9167C21.6667 16.7658 22.2267 15.8333 22.9167 15.8333C23.6067 15.8333 24.1667 16.7658 24.1667 17.9167C24.1667 19.0675 23.6067 20 22.9167 20C22.2267 20 21.6667 19.0675 21.6667 17.9167ZM20 22.5C21.6993 22.4565 23.3841 22.176 25.0058 21.6667C24.4933 23.5667 22.7858 25.8333 20.0058 25.8333C17.2258 25.8333 15.5125 23.5667 15 21.6667C16.6196 22.1763 18.3026 22.4568 20 22.5Z" fill="white"/>
</g>
<defs>
<clipPath id="clip0_0_1">
<rect width="20" height="20" fill="white" transform="translate(10 10)"/>
</clipPath>
</defs>
</svg>
