<svg width="15" height="16" viewBox="0 0 15 16" fill="none" xmlns="http://www.w3.org/2000/svg">
<path d="M7.5 0.5C3.36437 0.5 0 3.86437 0 8C0 12.1356 3.36437 15.5 7.5 15.5C11.6356 15.5 15 12.1356 15 8C15 3.86437 11.6356 0.5 7.5 0.5ZM7.5 13.625C4.39875 13.625 1.875 11.1012 1.875 8C1.875 4.89875 4.39875 2.375 7.5 2.375C10.6012 2.375 13.125 4.89875 13.125 8C13.125 11.1012 10.6012 13.625 7.5 13.625ZM10 6.75V9.25C10 9.94063 9.44063 10.5 8.75 10.5H6.25C5.55937 10.5 5 9.94063 5 9.25V6.75C5 6.05937 5.55937 5.5 6.25 5.5H8.75C9.44063 5.5 10 6.05937 10 6.75Z" fill="#FF0000"/>
</svg>
