<svg width="40" height="40" viewBox="0 0 40 40" fill="none" xmlns="http://www.w3.org/2000/svg">
<rect width="40" height="40" rx="10" fill="#2D8EFF"/>
<g clip-path="url(#clip0_0_1)">
<path d="M20 23.3333C19.3407 23.3333 18.6963 23.1378 18.1481 22.7716C17.5999 22.4053 17.1727 21.8847 16.9204 21.2756C16.6681 20.6665 16.6021 19.9963 16.7307 19.3497C16.8593 18.7031 17.1768 18.1092 17.643 17.643C18.1092 17.1768 18.7031 16.8593 19.3497 16.7307C19.9963 16.6021 20.6665 16.6681 21.2756 16.9204C21.8847 17.1727 22.4053 17.5999 22.7716 18.1481C23.1378 18.6963 23.3333 19.3407 23.3333 20C23.3333 20.8841 22.9821 21.7319 22.357 22.357C21.7319 22.9821 20.8841 23.3333 20 23.3333ZM20 18.3333C19.6704 18.3333 19.3481 18.4311 19.074 18.6142C18.8 18.7974 18.5863 19.0577 18.4602 19.3622C18.3341 19.6667 18.301 20.0019 18.3654 20.3252C18.4297 20.6485 18.5884 20.9454 18.8215 21.1785C19.0546 21.4116 19.3515 21.5703 19.6748 21.6346C19.9982 21.699 20.3333 21.6659 20.6378 21.5398C20.9423 21.4137 21.2026 21.2 21.3858 20.926C21.5689 20.6519 21.6667 20.3296 21.6667 20C21.6667 19.558 21.4911 19.1341 21.1785 18.8215C20.8659 18.5089 20.442 18.3333 20 18.3333ZM25 29.1667C25 27.8406 24.4732 26.5688 23.5355 25.6311C22.5979 24.6935 21.3261 24.1667 20 24.1667C18.6739 24.1667 17.4021 24.6935 16.4645 25.6311C15.5268 26.5688 15 27.8406 15 29.1667C15 29.3877 15.0878 29.5996 15.2441 29.7559C15.4004 29.9122 15.6123 30 15.8333 30C16.0543 30 16.2663 29.9122 16.4226 29.7559C16.5789 29.5996 16.6667 29.3877 16.6667 29.1667C16.6667 28.2826 17.0179 27.4348 17.643 26.8096C18.2681 26.1845 19.1159 25.8333 20 25.8333C20.8841 25.8333 21.7319 26.1845 22.357 26.8096C22.9821 27.4348 23.3333 28.2826 23.3333 29.1667C23.3333 29.3877 23.4211 29.5996 23.5774 29.7559C23.7337 29.9122 23.9457 30 24.1667 30C24.3877 30 24.5996 29.9122 24.7559 29.7559C24.9122 29.5996 25 29.3877 25 29.1667ZM25 16.6667C24.3407 16.6667 23.6963 16.4712 23.1481 16.1049C22.5999 15.7386 22.1727 15.218 21.9204 14.6089C21.6681 13.9999 21.6021 13.3296 21.7307 12.683C21.8593 12.0364 22.1768 11.4425 22.643 10.9763C23.1092 10.5101 23.7031 10.1927 24.3497 10.0641C24.9963 9.93543 25.6665 10.0014 26.2756 10.2537C26.8847 10.506 27.4053 10.9333 27.7716 11.4814C28.1378 12.0296 28.3333 12.6741 28.3333 13.3333C28.3333 14.2174 27.9821 15.0652 27.357 15.6904C26.7319 16.3155 25.8841 16.6667 25 16.6667ZM25 11.6667C24.6704 11.6667 24.3481 11.7644 24.074 11.9476C23.8 12.1307 23.5863 12.391 23.4602 12.6955C23.3341 13.0001 23.301 13.3352 23.3654 13.6585C23.4297 13.9818 23.5884 14.2788 23.8215 14.5118C24.0546 14.7449 24.3515 14.9037 24.6748 14.968C24.9982 15.0323 25.3333 14.9993 25.6378 14.8731C25.9423 14.747 26.2026 14.5334 26.3858 14.2593C26.5689 13.9852 26.6667 13.663 26.6667 13.3333C26.6667 12.8913 26.4911 12.4674 26.1785 12.1548C25.8659 11.8423 25.442 11.6667 25 11.6667ZM30 22.5C29.9987 21.1743 29.4715 19.9033 28.5341 18.9659C27.5967 18.0285 26.3257 17.5013 25 17.5C24.779 17.5 24.567 17.5878 24.4107 17.7441C24.2545 17.9004 24.1667 18.1123 24.1667 18.3333C24.1667 18.5543 24.2545 18.7663 24.4107 18.9226C24.567 19.0789 24.779 19.1667 25 19.1667C25.8841 19.1667 26.7319 19.5179 27.357 20.143C27.9821 20.7681 28.3333 21.6159 28.3333 22.5C28.3333 22.721 28.4211 22.933 28.5774 23.0893C28.7337 23.2455 28.9457 23.3333 29.1667 23.3333C29.3877 23.3333 29.5996 23.2455 29.7559 23.0893C29.9122 22.933 30 22.721 30 22.5ZM15 16.6667C14.3407 16.6667 13.6963 16.4712 13.1481 16.1049C12.5999 15.7386 12.1727 15.218 11.9204 14.6089C11.6681 13.9999 11.6021 13.3296 11.7307 12.683C11.8593 12.0364 12.1768 11.4425 12.643 10.9763C13.1092 10.5101 13.7031 10.1927 14.3497 10.0641C14.9963 9.93543 15.6665 10.0014 16.2756 10.2537C16.8847 10.506 17.4053 10.9333 17.7716 11.4814C18.1378 12.0296 18.3333 12.6741 18.3333 13.3333C18.3333 14.2174 17.9821 15.0652 17.357 15.6904C16.7319 16.3155 15.8841 16.6667 15 16.6667ZM15 11.6667C14.6704 11.6667 14.3481 11.7644 14.074 11.9476C13.8 12.1307 13.5863 12.391 13.4602 12.6955C13.3341 13.0001 13.301 13.3352 13.3654 13.6585C13.4297 13.9818 13.5884 14.2788 13.8215 14.5118C14.0546 14.7449 14.3515 14.9037 14.6748 14.968C14.9982 15.0323 15.3333 14.9993 15.6378 14.8731C15.9423 14.747 16.2026 14.5334 16.3858 14.2593C16.5689 13.9852 16.6667 13.663 16.6667 13.3333C16.6667 12.8913 16.4911 12.4674 16.1785 12.1548C15.866 11.8423 15.442 11.6667 15 11.6667ZM11.6667 22.5C11.6667 21.6159 12.0179 20.7681 12.643 20.143C13.2681 19.5179 14.1159 19.1667 15 19.1667C15.221 19.1667 15.433 19.0789 15.5893 18.9226C15.7455 18.7663 15.8333 18.5543 15.8333 18.3333C15.8333 18.1123 15.7455 17.9004 15.5893 17.7441C15.433 17.5878 15.221 17.5 15 17.5C13.6743 17.5013 12.4033 18.0285 11.4659 18.9659C10.5285 19.9033 10.0013 21.1743 10 22.5C10 22.721 10.0878 22.933 10.2441 23.0893C10.4004 23.2455 10.6123 23.3333 10.8333 23.3333C11.0543 23.3333 11.2663 23.2455 11.4226 23.0893C11.5789 22.933 11.6667 22.721 11.6667 22.5Z" fill="white"/>
</g>
<defs>
<clipPath id="clip0_0_1">
<rect width="20" height="20" fill="white" transform="translate(10 10)"/>
</clipPath>
</defs>
</svg>
