<svg width="15" height="15" viewBox="0 0 15 15" fill="none" xmlns="http://www.w3.org/2000/svg">
<g clip-path="url(#clip0_362_4032)">
<path d="M10.3125 11.25H10V2.8125C10 1.26188 8.73812 0 7.1875 0H2.8125C1.26188 0 0 1.26188 0 2.8125V12.8125C0 14.0188 0.980625 14.9994 2.18625 15H10C11.0337 15 11.875 14.1587 11.875 13.125V12.8125C11.875 11.9506 11.1744 11.25 10.3125 11.25ZM3.125 12.8125C3.125 13.3294 2.70438 13.75 2.1875 13.75C1.67062 13.75 1.25 13.3294 1.25 12.8125V2.8125C1.25 1.95063 1.95063 1.25 2.8125 1.25H7.1875C8.04937 1.25 8.75 1.95063 8.75 2.8125V11.25H4.6875C3.82562 11.25 3.125 11.9506 3.125 12.8125ZM10.625 13.125C10.625 13.47 10.345 13.75 10 13.75H4.16375C4.29938 13.4656 4.375 13.1475 4.375 12.8125C4.375 12.6406 4.51562 12.5 4.6875 12.5H10.3125C10.4844 12.5 10.625 12.6406 10.625 12.8125V13.125ZM13.125 0C12.0913 0 11.25 0.84125 11.25 1.875V8.33938C11.25 9.17438 11.5756 9.95937 12.1656 10.5494L12.6831 11.0669C12.805 11.1888 12.965 11.25 13.125 11.25C13.285 11.25 13.445 11.1888 13.5669 11.0669L14.0844 10.5494C14.6744 9.95937 15 9.17438 15 8.33938V1.875C15 0.84125 14.1587 0 13.125 0ZM13.75 8.33938C13.75 8.84062 13.5544 9.31188 13.2006 9.66562L13.125 9.74125L13.0494 9.66562C12.6956 9.31188 12.5 8.84062 12.5 8.33938V1.875C12.5 1.53 12.78 1.25 13.125 1.25C13.47 1.25 13.75 1.53 13.75 1.875V8.33938ZM2.05813 4.43563C1.81375 4.19125 1.81375 3.79562 2.05813 3.55188C2.3025 3.3075 2.6975 3.3075 2.94187 3.55188L3.74687 4.3575C3.7675 4.37813 3.8125 4.37813 3.83375 4.3575L5.19562 2.99563C5.44 2.75125 5.835 2.75125 6.07938 2.99563C6.32375 3.24 6.32375 3.635 6.07938 3.87937L4.7175 5.24125C4.46187 5.49687 4.12625 5.62437 3.79063 5.62437C3.455 5.62437 3.11937 5.49687 2.86375 5.24125L2.05813 4.43563ZM4.7175 8.99125C4.46187 9.24687 4.12625 9.37437 3.79063 9.37437C3.455 9.37437 3.11937 9.24687 2.86375 8.99125L2.05875 8.18563C1.81437 7.94125 1.81437 7.54562 2.05875 7.30187C2.30312 7.0575 2.69813 7.0575 2.9425 7.30187L3.7475 8.1075C3.76812 8.12813 3.81313 8.12813 3.83438 8.1075L5.19625 6.74563C5.44063 6.50125 5.83562 6.50125 6.08 6.74563C6.32437 6.99 6.32437 7.385 6.08 7.62937L4.7175 8.99125Z" fill="#2D8EFF"/>
</g>
<defs>
<clipPath id="clip0_362_4032">
<rect width="15" height="15" fill="white"/>
</clipPath>
</defs>
</svg>
