<svg width="20" height="20" viewBox="0 0 20 20" fill="none" xmlns="http://www.w3.org/2000/svg">
<g clip-path="url(#clip0_441_6111)">
<path d="M17.5003 19.1667C17.5003 19.6275 17.127 20 16.667 20C16.207 20 15.8337 19.6275 15.8337 19.1667C15.8337 17.3283 14.3387 15.8333 12.5003 15.8333H7.50033C5.66199 15.8333 4.16699 17.3283 4.16699 19.1667C4.16699 19.6275 3.79366 20 3.33366 20C2.87366 20 2.50033 19.6275 2.50033 19.1667C2.50033 16.4092 4.74283 14.1667 7.50033 14.1667H12.5003C15.2578 14.1667 17.5003 16.4092 17.5003 19.1667ZM18.3337 6.25V7.91667C18.3337 8.60583 17.7728 9.16667 17.0837 9.16667H16.667C16.667 11.005 15.172 12.5 13.3337 12.5H6.66699C4.82866 12.5 3.33366 11.005 3.33366 9.16667H2.91699C2.22783 9.16667 1.66699 8.60583 1.66699 7.91667V6.25C1.66699 5.56083 2.22783 5 2.91699 5H3.33366C3.33366 3.16167 4.82866 1.66667 6.66699 1.66667H9.16699V0.833333C9.16699 0.3725 9.54033 0 10.0003 0C10.4603 0 10.8337 0.3725 10.8337 0.833333V1.66667H13.3337C15.172 1.66667 16.667 3.16167 16.667 5H17.0837C17.7728 5 18.3337 5.56083 18.3337 6.25ZM15.0003 5C15.0003 4.08083 14.2528 3.33333 13.3337 3.33333H6.66699C5.74783 3.33333 5.00033 4.08083 5.00033 5V9.16667C5.00033 10.0858 5.74783 10.8333 6.66699 10.8333H13.3337C14.2528 10.8333 15.0003 10.0858 15.0003 9.16667V5ZM7.91699 5.83333C7.22699 5.83333 6.66699 6.39333 6.66699 7.08333C6.66699 7.77333 7.22699 8.33333 7.91699 8.33333C8.60699 8.33333 9.16699 7.77333 9.16699 7.08333C9.16699 6.39333 8.60699 5.83333 7.91699 5.83333ZM12.0837 5.83333C11.3937 5.83333 10.8337 6.39333 10.8337 7.08333C10.8337 7.77333 11.3937 8.33333 12.0837 8.33333C12.7737 8.33333 13.3337 7.77333 13.3337 7.08333C13.3337 6.39333 12.7737 5.83333 12.0837 5.83333Z" fill="#2D8EFF"/>
</g>
<defs>
<clipPath id="clip0_441_6111">
<rect width="20" height="20" fill="white"/>
</clipPath>
</defs>
</svg>
