<svg width="40" height="40" viewBox="0 0 40 40" fill="none" xmlns="http://www.w3.org/2000/svg">
<rect width="40" height="40" rx="10" fill="#2D8EFF"/>
<g clip-path="url(#clip0_0_1)">
<path d="M29.3923 17.8492C28.0998 15.7442 25.1598 12.2125 19.9998 12.2125C14.8398 12.2125 11.8998 15.7442 10.6073 17.8492C10.2077 18.4954 9.99609 19.2402 9.99609 20C9.99609 20.7598 10.2077 21.5046 10.6073 22.1508C11.8998 24.2558 14.8398 27.7875 19.9998 27.7875C25.1598 27.7875 28.0998 24.2558 29.3923 22.1508C29.7919 21.5046 30.0035 20.7598 30.0035 20C30.0035 19.2402 29.7919 18.4954 29.3923 17.8492ZM27.9715 21.2783C26.8615 23.0833 24.349 26.1208 19.9998 26.1208C15.6506 26.1208 13.1381 23.0833 12.0281 21.2783C11.7907 20.8942 11.665 20.4516 11.665 20C11.665 19.5484 11.7907 19.1058 12.0281 18.7217C13.1381 16.9167 15.6506 13.8792 19.9998 13.8792C24.349 13.8792 26.8615 16.9133 27.9715 18.7217C28.2089 19.1058 28.3346 19.5484 28.3346 20C28.3346 20.4516 28.2089 20.8942 27.9715 21.2783Z" fill="white"/>
<path d="M20.0002 15.8333C19.1761 15.8333 18.3705 16.0777 17.6853 16.5355C17.0001 16.9934 16.466 17.6441 16.1507 18.4055C15.8353 19.1668 15.7528 20.0046 15.9136 20.8129C16.0743 21.6211 16.4712 22.3636 17.0539 22.9463C17.6366 23.529 18.379 23.9258 19.1873 24.0866C19.9955 24.2474 20.8333 24.1649 21.5947 23.8495C22.356 23.5341 23.0068 23.0001 23.4646 22.3149C23.9225 21.6297 24.1668 20.8241 24.1668 20C24.1655 18.8953 23.7261 17.8363 22.945 17.0552C22.1639 16.2741 21.1048 15.8347 20.0002 15.8333ZM20.0002 22.5C19.5057 22.5 19.0224 22.3534 18.6112 22.0787C18.2001 21.804 17.8797 21.4135 17.6905 20.9567C17.5012 20.4999 17.4517 19.9972 17.5482 19.5123C17.6447 19.0273 17.8828 18.5819 18.2324 18.2322C18.582 17.8826 19.0275 17.6445 19.5124 17.548C19.9974 17.4516 20.5001 17.5011 20.9569 17.6903C21.4137 17.8795 21.8041 18.1999 22.0788 18.6111C22.3535 19.0222 22.5002 19.5055 22.5002 20C22.5002 20.663 22.2368 21.2989 21.7679 21.7678C21.2991 22.2366 20.6632 22.5 20.0002 22.5Z" fill="white"/>
</g>
<defs>
<clipPath id="clip0_0_1">
<rect width="20" height="20" fill="white" transform="translate(10 10)"/>
</clipPath>
</defs>
</svg>
