<svg width="20" height="20" viewBox="0 0 20 20" xmlns="http://www.w3.org/2000/svg">
<g clip-path="url(#clip0_348_17515)">
<path d="M19.3923 7.84919C18.0998 5.74419 15.1598 2.21252 9.9998 2.21252C4.8398 2.21252 1.8998 5.74419 0.607299 7.84919C0.207739 8.49545 -0.00390625 9.24023 -0.00390625 10C-0.00390625 10.7598 0.207739 11.5046 0.607299 12.1509C1.8998 14.2559 4.8398 17.7875 9.9998 17.7875C15.1598 17.7875 18.0998 14.2559 19.3923 12.1509C19.7919 11.5046 20.0035 10.7598 20.0035 10C20.0035 9.24023 19.7919 8.49545 19.3923 7.84919ZM17.9715 11.2784C16.8615 13.0834 14.349 16.1209 9.9998 16.1209C5.65063 16.1209 3.13813 13.0834 2.02813 11.2784C1.79074 10.8942 1.66501 10.4516 1.66501 10C1.66501 9.54846 1.79074 9.10582 2.02813 8.72169C3.13813 6.91669 5.65063 3.87919 9.9998 3.87919C14.349 3.87919 16.8615 6.91336 17.9715 8.72169C18.2089 9.10582 18.3346 9.54846 18.3346 10C18.3346 10.4516 18.2089 10.8942 17.9715 11.2784Z"/>
<path d="M10.0002 5.83331C9.17608 5.83331 8.37049 6.07768 7.68529 6.53552C7.00008 6.99336 6.46603 7.64411 6.15067 8.40547C5.8353 9.16682 5.75279 10.0046 5.91356 10.8129C6.07433 11.6211 6.47117 12.3635 7.05389 12.9463C7.63661 13.529 8.37903 13.9258 9.18729 14.0866C9.99554 14.2474 10.8333 14.1648 11.5947 13.8495C12.356 13.5341 13.0068 13.0001 13.4646 12.3149C13.9225 11.6297 14.1668 10.8241 14.1668 9.99998C14.1655 8.89532 13.7261 7.83628 12.945 7.05516C12.1639 6.27405 11.1048 5.83464 10.0002 5.83331ZM10.0002 12.5C9.50571 12.5 9.02236 12.3534 8.61124 12.0787C8.20012 11.804 7.87968 11.4135 7.69047 10.9567C7.50125 10.4999 7.45174 9.99721 7.5482 9.51225C7.64466 9.0273 7.88277 8.58184 8.2324 8.23221C8.58203 7.88258 9.02749 7.64448 9.51244 7.54802C9.99739 7.45155 10.5001 7.50106 10.9569 7.69028C11.4137 7.8795 11.8041 8.19993 12.0788 8.61105C12.3535 9.02218 12.5002 9.50553 12.5002 9.99998C12.5002 10.663 12.2368 11.2989 11.7679 11.7677C11.2991 12.2366 10.6632 12.5 10.0002 12.5Z"/>
</g>
<defs>
<clipPath id="clip0_348_17515">
<rect width="20" height="20" fill="white"/>
</clipPath>
</defs>
</svg>
