<svg width="35" height="35" viewBox="0 0 35 35" fill="none" xmlns="http://www.w3.org/2000/svg">
<circle cx="17.5" cy="17.5" r="17.5" fill="#2D8EFF"/>
<g clip-path="url(#clip0_3_696)">
<path d="M17.5 7.5C11.9858 7.5 7.5 11.9858 7.5 17.5C7.5 23.0142 11.9858 27.5 17.5 27.5C23.0142 27.5 27.5 23.0142 27.5 17.5C27.5 11.9858 23.0142 7.5 17.5 7.5ZM22.6667 16.26L18.9783 19.8808C18.3258 20.5208 17.4858 20.84 16.645 20.84C15.8133 20.84 14.9817 20.5267 14.3317 19.8992L12.7492 18.3433C12.4208 18.0208 12.4167 17.4933 12.7392 17.165C13.0608 16.8358 13.59 16.8317 13.9175 17.155L15.495 18.7058C16.1417 19.3308 17.1625 19.3275 17.8125 18.6908L21.5 15.0708C21.8275 14.7475 22.3533 14.7533 22.6783 15.0817C23.0008 15.41 22.9958 15.9375 22.6667 16.26Z" fill="white"/>
</g>
<defs>
<clipPath id="clip0_3_696">
<rect width="20" height="20" fill="white" transform="translate(7.5 7.5)"/>
</clipPath>
</defs>
</svg>
