<svg width="40" height="40" viewBox="0 0 40 40" fill="none" xmlns="http://www.w3.org/2000/svg">
<circle cx="20" cy="20" r="20" fill="#2D8EFF" fill-opacity="0.1"/>
<g clip-path="url(#clip0_3_703)">
<path d="M18.3333 11.6667C18.3333 10.7458 19.0792 10 20 10C20.9208 10 21.6667 10.7458 21.6667 11.6667C21.6667 12.5875 20.9208 13.3333 20 13.3333C19.0792 13.3333 18.3333 12.5875 18.3333 11.6667ZM21.6667 24.1667C21.6667 23.2458 20.9208 22.5 20 22.5C19.0792 22.5 18.3333 23.2458 18.3333 24.1667C18.3333 25.0875 19.0792 25.8333 20 25.8333C20.9208 25.8333 21.6667 25.0875 21.6667 24.1667ZM27.0833 16.6667C26.1625 16.6667 25.4167 17.4125 25.4167 18.3333C25.4167 19.2542 26.1625 20 27.0833 20C28.0042 20 28.75 19.2542 28.75 18.3333C28.75 17.4125 28.0042 16.6667 27.0833 16.6667ZM14.5833 18.3333C14.5833 17.4125 13.8375 16.6667 12.9167 16.6667C11.9958 16.6667 11.25 17.4125 11.25 18.3333C11.25 19.2542 11.9958 20 12.9167 20C13.8375 20 14.5833 19.2542 14.5833 18.3333ZM15.6033 23.8608C15.7617 23.6675 15.8242 23.4125 15.775 23.1675C15.5 21.815 14.2983 20.8333 12.9167 20.8333C11.535 20.8333 10.3333 21.815 10.0583 23.1675C10.0083 23.4125 10.0717 23.6675 10.23 23.8608C10.3883 24.0542 10.625 24.1667 10.875 24.1667H14.9575C15.2075 24.1667 15.445 24.0542 15.6033 23.8608ZM20 14.1667C18.6192 14.1667 17.4167 15.1483 17.1417 16.5008C17.0917 16.7458 17.155 17.0008 17.3133 17.1942C17.4717 17.3875 17.7083 17.5 17.9583 17.5H22.0408C22.2908 17.5 22.5275 17.3875 22.6858 17.1942C22.8442 17.0008 22.9067 16.7458 22.8575 16.5008C22.5825 15.1483 21.3808 14.1667 19.9992 14.1667H20ZM20 26.6667C18.6192 26.6667 17.4167 27.6483 17.1417 29.0008C17.0917 29.2458 17.155 29.5008 17.3133 29.6942C17.4717 29.8875 17.7083 30 17.9583 30H22.0408C22.2908 30 22.5275 29.8875 22.6858 29.6942C22.8442 29.5008 22.9067 29.2458 22.8575 29.0008C22.5825 27.6483 21.3808 26.6667 19.9992 26.6667H20ZM27.0833 20.4167C25.7025 20.4167 24.5 21.3983 24.225 22.7508C24.175 22.9958 24.2383 23.2508 24.3967 23.4442C24.555 23.6375 24.7917 23.75 25.0417 23.75H29.1242C29.3742 23.75 29.6108 23.6375 29.7692 23.4442C29.9275 23.2508 29.99 22.9958 29.9408 22.7508C29.6658 21.3983 28.465 20.4167 27.0833 20.4167ZM15.8333 11.6667H15C13.1617 11.6667 11.6667 13.1617 11.6667 15C11.6667 15.4608 12.04 15.8333 12.5 15.8333C12.96 15.8333 13.3333 15.4608 13.3333 15C13.3333 14.0808 14.0808 13.3333 15 13.3333H15.8333C16.2933 13.3333 16.6667 12.9608 16.6667 12.5C16.6667 12.0392 16.2933 11.6667 15.8333 11.6667ZM25 13.3333C25.9192 13.3333 26.6667 14.0808 26.6667 15C26.6667 15.4608 27.04 15.8333 27.5 15.8333C27.96 15.8333 28.3333 15.4608 28.3333 15C28.3333 13.1617 26.8383 11.6667 25 11.6667H24.1667C23.7067 11.6667 23.3333 12.0392 23.3333 12.5C23.3333 12.9608 23.7067 13.3333 24.1667 13.3333H25ZM27.635 25.0475C27.2017 24.8967 26.725 25.1217 26.5717 25.5558C26.3367 26.22 25.705 26.6667 25 26.6667C24.54 26.6667 24.1667 27.0392 24.1667 27.5C24.1667 27.9608 24.54 28.3333 25 28.3333C26.41 28.3333 27.6733 27.4408 28.1433 26.1108C28.2967 25.6767 28.0692 25.2008 27.635 25.0475ZM15 26.6667C14.2942 26.6667 13.6633 26.22 13.4283 25.5558C13.275 25.1217 12.8 24.8975 12.365 25.0475C11.9308 25.2017 11.7033 25.6775 11.8567 26.1108C12.3258 27.4408 13.59 28.3333 15 28.3333C15.46 28.3333 15.8333 27.9608 15.8333 27.5C15.8333 27.0392 15.46 26.6667 15 26.6667Z" fill="#2D8EFF"/>
</g>
<defs>
<clipPath id="clip0_3_703">
<rect width="20" height="20" fill="white" transform="translate(10 10)"/>
</clipPath>
</defs>
</svg>
