<svg width="15" height="15" viewBox="0 0 15 15" fill="none" xmlns="http://www.w3.org/2000/svg">
<g clip-path="url(#clip0_3_36)">
<path d="M11.875 5.265V4.375C11.875 3.21468 11.4141 2.10188 10.5936 1.28141C9.77312 0.460936 8.66032 0 7.5 0C6.33968 0 5.22688 0.460936 4.40641 1.28141C3.58594 2.10188 3.125 3.21468 3.125 4.375V5.265C2.56835 5.50794 2.09456 5.90783 1.76156 6.41576C1.42857 6.92369 1.2508 7.51765 1.25 8.125V11.875C1.25099 12.7035 1.58055 13.4978 2.16639 14.0836C2.75222 14.6694 3.5465 14.999 4.375 15H10.625C11.4535 14.999 12.2478 14.6694 12.8336 14.0836C13.4194 13.4978 13.749 12.7035 13.75 11.875V8.125C13.7492 7.51765 13.5714 6.92369 13.2384 6.41576C12.9054 5.90783 12.4316 5.50794 11.875 5.265ZM4.375 4.375C4.375 3.5462 4.70424 2.75134 5.29029 2.16529C5.87634 1.57924 6.6712 1.25 7.5 1.25C8.3288 1.25 9.12366 1.57924 9.70971 2.16529C10.2958 2.75134 10.625 3.5462 10.625 4.375V5H4.375V4.375ZM12.5 11.875C12.5 12.3723 12.3025 12.8492 11.9508 13.2008C11.5992 13.5525 11.1223 13.75 10.625 13.75H4.375C3.87772 13.75 3.40081 13.5525 3.04917 13.2008C2.69754 12.8492 2.5 12.3723 2.5 11.875V8.125C2.5 7.62772 2.69754 7.15081 3.04917 6.79917C3.40081 6.44754 3.87772 6.25 4.375 6.25H10.625C11.1223 6.25 11.5992 6.44754 11.9508 6.79917C12.3025 7.15081 12.5 7.62772 12.5 8.125V11.875Z" fill="#2D8EFF"/>
<path d="M7.5 8.75C7.33424 8.75 7.17527 8.81585 7.05806 8.93306C6.94085 9.05027 6.875 9.20924 6.875 9.375V10.625C6.875 10.7908 6.94085 10.9497 7.05806 11.0669C7.17527 11.1842 7.33424 11.25 7.5 11.25C7.66576 11.25 7.82473 11.1842 7.94194 11.0669C8.05915 10.9497 8.125 10.7908 8.125 10.625V9.375C8.125 9.20924 8.05915 9.05027 7.94194 8.93306C7.82473 8.81585 7.66576 8.75 7.5 8.75Z" fill="#2D8EFF"/>
</g>
<defs>
<clipPath id="clip0_3_36">
<rect width="15" height="15" fill="white"/>
</clipPath>
</defs>
</svg>
