<svg width="35" height="35" viewBox="0 0 35 35" fill="none" xmlns="http://www.w3.org/2000/svg">
<circle cx="17.5" cy="17.5" r="17.5" fill="#2D8EFF"/>
<g clip-path="url(#clip0_3_58)">
<path d="M23.75 7.00017H12.25C11.1342 6.99017 10.06 7.42329 9.2632 8.20447C8.4664 8.98565 8.0121 10.051 8 11.1668V13.6668C8 13.8878 8.0878 14.0998 8.24408 14.2561C8.40036 14.4124 8.61232 14.5002 8.83333 14.5002C9.05435 14.5002 9.26631 14.4124 9.42259 14.2561C9.57887 14.0998 9.66667 13.8878 9.66667 13.6668V11.1668C9.67851 10.493 9.95713 9.85137 10.4414 9.3827C10.9257 8.91403 11.5761 8.65658 12.25 8.66684H23.75C24.4239 8.65658 25.0743 8.91403 25.5586 9.3827C26.0429 9.85137 26.3215 10.493 26.3333 11.1668V22.8335C26.3215 23.5073 26.0429 24.149 25.5586 24.6176C25.0743 25.0863 24.4239 25.3438 23.75 25.3335H12.25C11.5761 25.3438 10.9257 25.0863 10.4414 24.6176C9.95713 24.149 9.67851 23.5073 9.66667 22.8335V20.3335C9.66667 20.1125 9.57887 19.9005 9.42259 19.7442C9.26631 19.588 9.05435 19.5002 8.83333 19.5002C8.61232 19.5002 8.40036 19.588 8.24408 19.7442C8.0878 19.9005 8 20.1125 8 20.3335V22.8335C8.0121 23.9493 8.4664 25.0147 9.2632 25.7959C10.06 26.577 11.1342 27.0102 12.25 27.0002H23.75C24.8658 27.0102 25.94 26.577 26.7368 25.7959C27.5336 25.0147 27.9879 23.9493 28 22.8335V11.1668C27.9879 10.051 27.5336 8.98565 26.7368 8.20447C25.94 7.42329 24.8658 6.99017 23.75 7.00017Z" fill="white"/>
<path d="M10.5 17C10.5 17.221 10.5878 17.433 10.7441 17.5893C10.9004 17.7455 11.1123 17.8333 11.3333 17.8333L22.3233 17.8083L18.7208 21.4108C18.6412 21.4877 18.5778 21.5797 18.5341 21.6813C18.4904 21.783 18.4674 21.8924 18.4665 22.003C18.4655 22.1137 18.4866 22.2234 18.5285 22.3258C18.5704 22.4282 18.6323 22.5213 18.7105 22.5995C18.7887 22.6777 18.8818 22.7396 18.9842 22.7815C19.0866 22.8234 19.1964 22.8445 19.307 22.8435C19.4177 22.8426 19.527 22.8196 19.6287 22.7759C19.7303 22.7322 19.8223 22.6688 19.8992 22.5892L23.7208 18.7675C24.1895 18.2987 24.4528 17.6629 24.4528 17C24.4528 16.3371 24.1895 15.7013 23.7208 15.2325L19.9008 11.4108C19.7437 11.259 19.5332 11.175 19.3147 11.1769C19.0962 11.1788 18.8872 11.2665 18.7327 11.421C18.5781 11.5755 18.4905 11.7845 18.4886 12.003C18.4867 12.2215 18.5707 12.432 18.7225 12.5892L22.2742 16.1417L11.3333 16.1667C11.1123 16.1667 10.9004 16.2545 10.7441 16.4107C10.5878 16.567 10.5 16.779 10.5 17Z" fill="white"/>
</g>
<defs>
<clipPath id="clip0_3_58">
<rect width="20" height="20" fill="white" transform="translate(8 7)"/>
</clipPath>
</defs>
</svg>
