<svg width="35" height="35" viewBox="0 0 35 35" fill="none" xmlns="http://www.w3.org/2000/svg">
<circle cx="17.5" cy="17.5" r="17.5" fill="#2D8EFF"/>
<g clip-path="url(#clip0_3_341)">
<path d="M11.3333 12C11.0048 12.0009 10.6793 11.9366 10.3758 11.8108C10.0723 11.6851 9.7967 11.5004 9.565 11.2675L8.27833 10.1225C8.11324 9.9753 8.01337 9.76855 8.00072 9.54772C7.98806 9.3269 8.06364 9.11009 8.21083 8.945C8.35803 8.7799 8.56478 8.68004 8.7856 8.66738C9.00643 8.65472 9.22324 8.7303 9.38833 8.87749L10.7092 10.0558C10.7848 10.1407 10.877 10.2093 10.9801 10.2572C11.0832 10.3052 11.195 10.3315 11.3086 10.3347C11.4223 10.3378 11.5354 10.3176 11.641 10.2754C11.7465 10.2332 11.8423 10.1698 11.9225 10.0892L14.9258 7.22999C15.0873 7.08622 15.2984 7.01084 15.5144 7.01979C15.7305 7.02873 15.9346 7.12129 16.0836 7.27792C16.2327 7.43455 16.315 7.64299 16.3133 7.8592C16.3115 8.07542 16.2258 8.28248 16.0742 8.43666L13.0833 11.2817C12.8531 11.5105 12.5801 11.6917 12.2798 11.815C11.9796 11.9383 11.6579 12.0011 11.3333 12ZM28 10.3333C28 10.1123 27.9122 9.90035 27.7559 9.74407C27.5996 9.58779 27.3877 9.49999 27.1667 9.49999H18.8333C18.6123 9.49999 18.4004 9.58779 18.2441 9.74407C18.0878 9.90035 18 10.1123 18 10.3333C18 10.5543 18.0878 10.7663 18.2441 10.9226C18.4004 11.0789 18.6123 11.1667 18.8333 11.1667H27.1667C27.3877 11.1667 27.5996 11.0789 27.7559 10.9226C27.9122 10.7663 28 10.5543 28 10.3333ZM13.0833 17.9483L16.0742 15.1033C16.1576 15.029 16.2253 14.9387 16.2732 14.8377C16.321 14.7366 16.348 14.6271 16.3527 14.5154C16.3573 14.4037 16.3394 14.2923 16.3001 14.1876C16.2607 14.083 16.2008 13.9874 16.1237 13.9064C16.0467 13.8255 15.9541 13.7608 15.8516 13.7164C15.749 13.6719 15.6386 13.6485 15.5268 13.6476C15.4151 13.6467 15.3043 13.6683 15.201 13.7111C15.0978 13.7538 15.0042 13.817 14.9258 13.8967L11.9258 16.7558C11.7672 16.9075 11.5562 16.9922 11.3367 16.9922C11.1172 16.9922 10.9061 16.9075 10.7475 16.7558L9.4225 15.435C9.26533 15.2832 9.05483 15.1992 8.83633 15.2011C8.61784 15.203 8.40883 15.2906 8.25432 15.4451C8.09981 15.5997 8.01217 15.8087 8.01027 16.0272C8.00837 16.2457 8.09237 16.4562 8.24417 16.6133L9.565 17.9342C10.0314 18.4007 10.6633 18.6639 11.3229 18.6666C11.9826 18.6692 12.6165 18.4111 13.0867 17.9483H13.0833ZM28 17C28 16.779 27.9122 16.567 27.7559 16.4107C27.5996 16.2545 27.3877 16.1667 27.1667 16.1667H18.8333C18.6123 16.1667 18.4004 16.2545 18.2441 16.4107C18.0878 16.567 18 16.779 18 17C18 17.221 18.0878 17.433 18.2441 17.5893C18.4004 17.7455 18.6123 17.8333 18.8333 17.8333H27.1667C27.3877 17.8333 27.5996 17.7455 27.7559 17.5893C27.9122 17.433 28 17.221 28 17ZM13.0833 24.615L16.0708 21.77C16.1543 21.6957 16.222 21.6053 16.2698 21.5043C16.3177 21.4033 16.3447 21.2937 16.3493 21.1821C16.354 21.0704 16.3361 20.9589 16.2967 20.8543C16.2574 20.7497 16.1974 20.6541 16.1204 20.5731C16.0433 20.4921 15.9508 20.4275 15.8482 20.383C15.7457 20.3386 15.6353 20.3152 15.5235 20.3143C15.4118 20.3134 15.301 20.3349 15.1977 20.3777C15.0944 20.4205 15.0009 20.4836 14.9225 20.5633L11.9225 23.4225C11.8423 23.5031 11.7465 23.5665 11.641 23.6087C11.5354 23.6509 11.4223 23.6711 11.3086 23.668C11.195 23.6649 11.0832 23.6385 10.9801 23.5906C10.877 23.5426 10.7848 23.4741 10.7092 23.3892L9.38833 22.2108C9.22324 22.0636 9.00643 21.9881 8.7856 22.0007C8.56478 22.0134 8.35803 22.1132 8.21083 22.2783C8.06364 22.4434 7.98806 22.6602 8.00072 22.8811C8.01337 23.1019 8.11324 23.3086 8.27833 23.4558L9.565 24.6008C10.0314 25.0673 10.6633 25.3306 11.3229 25.3332C11.9826 25.3359 12.6165 25.0777 13.0867 24.615H13.0833ZM28 23.6667C28 23.4456 27.9122 23.2337 27.7559 23.0774C27.5996 22.9211 27.3877 22.8333 27.1667 22.8333H18.8333C18.6123 22.8333 18.4004 22.9211 18.2441 23.0774C18.0878 23.2337 18 23.4456 18 23.6667C18 23.8877 18.0878 24.0996 18.2441 24.2559C18.4004 24.4122 18.6123 24.5 18.8333 24.5H27.1667C27.3877 24.5 27.5996 24.4122 27.7559 24.2559C27.9122 24.0996 28 23.8877 28 23.6667Z" fill="white"/>
</g>
<defs>
<clipPath id="clip0_3_341">
<rect width="20" height="20" fill="white" transform="translate(8 7)"/>
</clipPath>
</defs>
</svg>
