<svg width="15" height="15" viewBox="0 0 15 15" fill="none" xmlns="http://www.w3.org/2000/svg">
<g clip-path="url(#clip0_3_162)">
<path d="M7.5 0.5C3.63409 0.5 0.5 3.63409 0.5 7.5C0.5 11.3659 3.63409 14.5 7.5 14.5C11.3659 14.5 14.5 11.3659 14.5 7.5C14.5 3.63409 11.3659 0.5 7.5 0.5ZM7.5 1.77273C10.663 1.77273 13.2273 4.33695 13.2273 7.5C13.2273 10.663 10.663 13.2273 7.5 13.2273C4.33695 13.2273 1.77273 10.663 1.77273 7.5C1.77273 4.33695 4.33695 1.77273 7.5 1.77273ZM10.3767 4.74387C10.2151 4.72523 10.012 4.76953 9.78507 4.85138C9.37048 5.00093 4.07118 7.25117 3.76509 7.3813C3.47523 7.50476 3.20051 7.63931 3.2002 7.83372C3.2002 7.97054 3.28133 8.0478 3.50533 8.12766C3.73824 8.21103 4.32559 8.3886 4.67241 8.48437C5.0065 8.57633 5.38643 8.49618 5.59961 8.36381C5.8252 8.2235 8.43184 6.47943 8.61861 6.3267C8.80538 6.17398 8.95466 6.37004 8.80194 6.52308C8.64921 6.67613 6.85985 8.41162 6.62376 8.65217C6.33739 8.94426 6.54095 9.24685 6.73313 9.36808C6.95236 9.50648 8.5307 10.5647 8.76838 10.7346C9.00606 10.9046 9.24669 10.9814 9.46751 10.9814C9.68833 10.9814 9.80456 10.6903 9.91433 10.3531C10.0432 9.95821 10.6468 6.02111 10.721 5.24538C10.7436 5.01025 10.6694 4.85395 10.524 4.78427C10.48 4.76319 10.4306 4.75009 10.3767 4.74387Z" fill="#2D8EFF"/>
</g>
<defs>
<clipPath id="clip0_3_162">
<rect width="15" height="15" fill="white"/>
</clipPath>
</defs>
</svg>
